<?xml version="1.0" encoding="utf-8"?>
<svg xmlns="http://www.w3.org/2000/svg" xmlns:xlink="http://www.w3.org/1999/xlink" width="600" height="400" viewBox="0 0 2400 1600">
<defs>
  <clipPath id="clip770">
    <rect x="0" y="0" width="2400" height="1600"/>
  </clipPath>
</defs>
<path clip-path="url(#clip770)" d="M0 1600 L2400 1600 L2400 0 L0 0  Z" fill="#ffffff" fill-rule="evenodd" fill-opacity="1"/>
<defs>
  <clipPath id="clip771">
    <rect x="480" y="0" width="1681" height="1600"/>
  </clipPath>
</defs>
<path clip-path="url(#clip770)" d="M335.847 1315.18 L2352.76 1315.18 L2352.76 244.432 L335.847 244.432  Z" fill="#ffffff" fill-rule="evenodd" fill-opacity="1"/>
<defs>
  <clipPath id="clip772">
    <rect x="335" y="244" width="2018" height="1072"/>
  </clipPath>
</defs>
<polyline clip-path="url(#clip772)" style="stroke:#000000; stroke-linecap:round; stroke-linejoin:round; stroke-width:2; stroke-opacity:0.1; fill:none" points="537.538,1315.18 537.538,244.432 "/>
<polyline clip-path="url(#clip772)" style="stroke:#000000; stroke-linecap:round; stroke-linejoin:round; stroke-width:2; stroke-opacity:0.1; fill:none" points="1344.3,1315.18 1344.3,244.432 "/>
<polyline clip-path="url(#clip772)" style="stroke:#000000; stroke-linecap:round; stroke-linejoin:round; stroke-width:2; stroke-opacity:0.1; fill:none" points="2151.07,1315.18 2151.07,244.432 "/>
<polyline clip-path="url(#clip772)" style="stroke:#000000; stroke-linecap:round; stroke-linejoin:round; stroke-width:2; stroke-opacity:0.1; fill:none" points="335.847,1315.18 2352.76,1315.18 "/>
<polyline clip-path="url(#clip772)" style="stroke:#000000; stroke-linecap:round; stroke-linejoin:round; stroke-width:2; stroke-opacity:0.1; fill:none" points="335.847,1000.25 2352.76,1000.25 "/>
<polyline clip-path="url(#clip772)" style="stroke:#000000; stroke-linecap:round; stroke-linejoin:round; stroke-width:2; stroke-opacity:0.1; fill:none" points="335.847,685.328 2352.76,685.328 "/>
<polyline clip-path="url(#clip772)" style="stroke:#000000; stroke-linecap:round; stroke-linejoin:round; stroke-width:2; stroke-opacity:0.1; fill:none" points="335.847,370.402 2352.76,370.402 "/>
<polyline clip-path="url(#clip770)" style="stroke:#000000; stroke-linecap:round; stroke-linejoin:round; stroke-width:4; stroke-opacity:1; fill:none" points="335.847,1315.18 2352.76,1315.18 "/>
<polyline clip-path="url(#clip770)" style="stroke:#000000; stroke-linecap:round; stroke-linejoin:round; stroke-width:4; stroke-opacity:1; fill:none" points="537.538,1315.18 537.538,1296.28 "/>
<polyline clip-path="url(#clip770)" style="stroke:#000000; stroke-linecap:round; stroke-linejoin:round; stroke-width:4; stroke-opacity:1; fill:none" points="1344.3,1315.18 1344.3,1296.28 "/>
<polyline clip-path="url(#clip770)" style="stroke:#000000; stroke-linecap:round; stroke-linejoin:round; stroke-width:4; stroke-opacity:1; fill:none" points="2151.07,1315.18 2151.07,1296.28 "/>
<path clip-path="url(#clip770)" d="M530.186 1388.37 L552.625 1388.37 L552.625 1393.78 L522.452 1393.78 L522.452 1388.37 Q526.112 1384.58 532.414 1378.22 Q538.748 1371.82 540.371 1369.97 Q543.458 1366.5 544.668 1364.12 Q545.909 1361.7 545.909 1359.37 Q545.909 1355.59 543.236 1353.2 Q540.594 1350.81 536.329 1350.81 Q533.305 1350.81 529.931 1351.86 Q526.589 1352.91 522.77 1355.04 L522.77 1348.55 Q526.653 1346.99 530.027 1346.2 Q533.401 1345.4 536.201 1345.4 Q543.586 1345.4 547.978 1349.09 Q552.37 1352.78 552.37 1358.96 Q552.37 1361.89 551.256 1364.53 Q550.174 1367.14 547.278 1370.7 Q546.482 1371.63 542.217 1376.05 Q537.952 1380.44 530.186 1388.37 Z" fill="#000000" fill-rule="nonzero" fill-opacity="1" /><path clip-path="url(#clip770)" d="M1350.14 1368.16 Q1354.76 1369.14 1357.34 1372.26 Q1359.95 1375.38 1359.95 1379.97 Q1359.95 1387 1355.11 1390.85 Q1350.27 1394.7 1341.36 1394.7 Q1338.37 1394.7 1335.18 1394.1 Q1332.03 1393.53 1328.66 1392.35 L1328.66 1386.14 Q1331.33 1387.7 1334.51 1388.5 Q1337.7 1389.29 1341.17 1389.29 Q1347.21 1389.29 1350.37 1386.9 Q1353.55 1384.52 1353.55 1379.97 Q1353.55 1375.76 1350.59 1373.41 Q1347.66 1371.02 1342.41 1371.02 L1336.87 1371.02 L1336.87 1365.74 L1342.66 1365.74 Q1347.4 1365.74 1349.92 1363.86 Q1352.43 1361.95 1352.43 1358.39 Q1352.43 1354.73 1349.82 1352.78 Q1347.25 1350.81 1342.41 1350.81 Q1339.77 1350.81 1336.74 1351.38 Q1333.72 1351.96 1330.09 1353.17 L1330.09 1347.44 Q1333.75 1346.42 1336.93 1345.91 Q1340.15 1345.4 1342.98 1345.4 Q1350.3 1345.4 1354.57 1348.74 Q1358.83 1352.05 1358.83 1357.72 Q1358.83 1361.66 1356.57 1364.4 Q1354.31 1367.11 1350.14 1368.16 Z" fill="#000000" fill-rule="nonzero" fill-opacity="1" /><path clip-path="url(#clip770)" d="M2155.2 1351.86 L2138.97 1377.23 L2155.2 1377.23 L2155.2 1351.86 M2153.52 1346.26 L2161.6 1346.26 L2161.6 1377.23 L2168.38 1377.23 L2168.38 1382.58 L2161.6 1382.58 L2161.6 1393.78 L2155.2 1393.78 L2155.2 1382.58 L2133.75 1382.58 L2133.75 1376.37 L2153.52 1346.26 Z" fill="#000000" fill-rule="nonzero" fill-opacity="1" /><path clip-path="url(#clip770)" d="M1113.62 1526.41 L1113.62 1545.31 L1107.74 1545.31 L1107.74 1496.11 L1113.62 1496.11 L1113.62 1501.52 Q1115.47 1498.34 1118.27 1496.81 Q1121.1 1495.25 1125.02 1495.25 Q1131.51 1495.25 1135.55 1500.4 Q1139.63 1505.56 1139.63 1513.96 Q1139.63 1522.37 1135.55 1527.52 Q1131.51 1532.68 1125.02 1532.68 Q1121.1 1532.68 1118.27 1531.15 Q1115.47 1529.59 1113.62 1526.41 M1133.55 1513.96 Q1133.55 1507.5 1130.88 1503.84 Q1128.23 1500.15 1123.59 1500.15 Q1118.94 1500.15 1116.27 1503.84 Q1113.62 1507.5 1113.62 1513.96 Q1113.62 1520.42 1116.27 1524.12 Q1118.94 1527.78 1123.59 1527.78 Q1128.23 1527.78 1130.88 1524.12 Q1133.55 1520.42 1133.55 1513.96 Z" fill="#000000" fill-rule="nonzero" fill-opacity="1" /><path clip-path="url(#clip770)" d="M1169.99 1501.58 Q1169.01 1501.01 1167.83 1500.75 Q1166.68 1500.47 1165.28 1500.47 Q1160.32 1500.47 1157.64 1503.71 Q1155 1506.93 1155 1512.98 L1155 1531.76 L1149.11 1531.76 L1149.11 1496.11 L1155 1496.11 L1155 1501.65 Q1156.85 1498.4 1159.81 1496.84 Q1162.77 1495.25 1167 1495.25 Q1167.61 1495.25 1168.34 1495.34 Q1169.07 1495.41 1169.96 1495.57 L1169.99 1501.58 Z" fill="#000000" fill-rule="nonzero" fill-opacity="1" /><path clip-path="url(#clip770)" d="M1205.2 1512.47 L1205.2 1515.33 L1178.27 1515.33 Q1178.65 1521.38 1181.9 1524.56 Q1185.17 1527.71 1191 1527.71 Q1194.37 1527.71 1197.52 1526.89 Q1200.71 1526.06 1203.83 1524.4 L1203.83 1529.94 Q1200.68 1531.28 1197.37 1531.98 Q1194.06 1532.68 1190.65 1532.68 Q1182.12 1532.68 1177.12 1527.71 Q1172.16 1522.75 1172.16 1514.28 Q1172.16 1505.53 1176.87 1500.4 Q1181.61 1495.25 1189.63 1495.25 Q1196.82 1495.25 1200.99 1499.9 Q1205.2 1504.51 1205.2 1512.47 M1199.34 1510.75 Q1199.27 1505.94 1196.63 1503.08 Q1194.02 1500.21 1189.69 1500.21 Q1184.79 1500.21 1181.83 1502.98 Q1178.9 1505.75 1178.46 1510.78 L1199.34 1510.75 Z" fill="#000000" fill-rule="nonzero" fill-opacity="1" /><path clip-path="url(#clip770)" d="M1240.46 1497.48 L1240.46 1502.95 Q1237.98 1501.58 1235.46 1500.91 Q1232.98 1500.21 1230.44 1500.21 Q1224.74 1500.21 1221.59 1503.84 Q1218.44 1507.44 1218.44 1513.96 Q1218.44 1520.49 1221.59 1524.12 Q1224.74 1527.71 1230.44 1527.71 Q1232.98 1527.71 1235.46 1527.05 Q1237.98 1526.34 1240.46 1524.98 L1240.46 1530.39 Q1238.01 1531.53 1235.37 1532.11 Q1232.76 1532.68 1229.8 1532.68 Q1221.75 1532.68 1217 1527.62 Q1212.26 1522.56 1212.26 1513.96 Q1212.26 1505.24 1217.04 1500.25 Q1221.84 1495.25 1230.18 1495.25 Q1232.89 1495.25 1235.46 1495.82 Q1238.04 1496.36 1240.46 1497.48 Z" fill="#000000" fill-rule="nonzero" fill-opacity="1" /><path clip-path="url(#clip770)" d="M1250.65 1496.11 L1256.5 1496.11 L1256.5 1531.76 L1250.65 1531.76 L1250.65 1496.11 M1250.65 1482.23 L1256.5 1482.23 L1256.5 1489.65 L1250.65 1489.65 L1250.65 1482.23 Z" fill="#000000" fill-rule="nonzero" fill-opacity="1" /><path clip-path="url(#clip770)" d="M1291.48 1497.16 L1291.48 1502.7 Q1289 1501.42 1286.33 1500.79 Q1283.65 1500.15 1280.79 1500.15 Q1276.43 1500.15 1274.23 1501.49 Q1272.07 1502.82 1272.07 1505.5 Q1272.07 1507.53 1273.63 1508.71 Q1275.19 1509.86 1279.9 1510.91 L1281.9 1511.35 Q1288.14 1512.69 1290.75 1515.14 Q1293.39 1517.56 1293.39 1521.92 Q1293.39 1526.89 1289.45 1529.78 Q1285.53 1532.68 1278.66 1532.68 Q1275.79 1532.68 1272.67 1532.11 Q1269.58 1531.56 1266.15 1530.45 L1266.15 1524.4 Q1269.39 1526.09 1272.54 1526.95 Q1275.7 1527.78 1278.78 1527.78 Q1282.92 1527.78 1285.15 1526.38 Q1287.38 1524.94 1287.38 1522.37 Q1287.38 1519.98 1285.75 1518.71 Q1284.16 1517.43 1278.72 1516.26 L1276.68 1515.78 Q1271.24 1514.63 1268.82 1512.28 Q1266.4 1509.89 1266.4 1505.75 Q1266.4 1500.72 1269.97 1497.99 Q1273.53 1495.25 1280.09 1495.25 Q1283.33 1495.25 1286.2 1495.73 Q1289.06 1496.2 1291.48 1497.16 Z" fill="#000000" fill-rule="nonzero" fill-opacity="1" /><path clip-path="url(#clip770)" d="M1302.72 1496.11 L1308.57 1496.11 L1308.57 1531.76 L1302.72 1531.76 L1302.72 1496.11 M1302.72 1482.23 L1308.57 1482.23 L1308.57 1489.65 L1302.72 1489.65 L1302.72 1482.23 Z" fill="#000000" fill-rule="nonzero" fill-opacity="1" /><path clip-path="url(#clip770)" d="M1334.64 1500.21 Q1329.93 1500.21 1327.19 1503.91 Q1324.46 1507.57 1324.46 1513.96 Q1324.46 1520.36 1327.16 1524.05 Q1329.9 1527.71 1334.64 1527.71 Q1339.32 1527.71 1342.06 1524.02 Q1344.8 1520.33 1344.8 1513.96 Q1344.8 1507.63 1342.06 1503.94 Q1339.32 1500.21 1334.64 1500.21 M1334.64 1495.25 Q1342.28 1495.25 1346.64 1500.21 Q1351 1505.18 1351 1513.96 Q1351 1522.72 1346.64 1527.71 Q1342.28 1532.68 1334.64 1532.68 Q1326.97 1532.68 1322.61 1527.71 Q1318.28 1522.72 1318.28 1513.96 Q1318.28 1505.18 1322.61 1500.21 Q1326.97 1495.25 1334.64 1495.25 Z" fill="#000000" fill-rule="nonzero" fill-opacity="1" /><path clip-path="url(#clip770)" d="M1390.34 1510.24 L1390.34 1531.76 L1384.49 1531.76 L1384.49 1510.43 Q1384.49 1505.37 1382.51 1502.86 Q1380.54 1500.34 1376.59 1500.34 Q1371.85 1500.34 1369.11 1503.36 Q1366.37 1506.39 1366.37 1511.61 L1366.37 1531.76 L1360.49 1531.76 L1360.49 1496.11 L1366.37 1496.11 L1366.37 1501.65 Q1368.48 1498.43 1371.31 1496.84 Q1374.17 1495.25 1377.9 1495.25 Q1384.04 1495.25 1387.19 1499.07 Q1390.34 1502.86 1390.34 1510.24 Z" fill="#000000" fill-rule="nonzero" fill-opacity="1" /><path clip-path="url(#clip770)" d="M1436.81 1482.29 Q1432.55 1489.61 1430.48 1496.78 Q1428.41 1503.94 1428.41 1511.29 Q1428.41 1518.64 1430.48 1525.87 Q1432.58 1533.06 1436.81 1540.35 L1431.72 1540.35 Q1426.94 1532.87 1424.56 1525.64 Q1422.2 1518.42 1422.2 1511.29 Q1422.2 1504.19 1424.56 1497 Q1426.91 1489.81 1431.72 1482.29 L1436.81 1482.29 Z" fill="#000000" fill-rule="nonzero" fill-opacity="1" /><path clip-path="url(#clip770)" d="M1473.76 1513.96 Q1473.76 1507.5 1471.09 1503.84 Q1468.45 1500.15 1463.8 1500.15 Q1459.15 1500.15 1456.48 1503.84 Q1453.84 1507.5 1453.84 1513.96 Q1453.84 1520.42 1456.48 1524.12 Q1459.15 1527.78 1463.8 1527.78 Q1468.45 1527.78 1471.09 1524.12 Q1473.76 1520.42 1473.76 1513.96 M1453.84 1501.52 Q1455.69 1498.34 1458.49 1496.81 Q1461.32 1495.25 1465.23 1495.25 Q1471.73 1495.25 1475.77 1500.4 Q1479.84 1505.56 1479.84 1513.96 Q1479.84 1522.37 1475.77 1527.52 Q1471.73 1532.68 1465.23 1532.68 Q1461.32 1532.68 1458.49 1531.15 Q1455.69 1529.59 1453.84 1526.41 L1453.84 1531.76 L1447.95 1531.76 L1447.95 1482.23 L1453.84 1482.23 L1453.84 1501.52 Z" fill="#000000" fill-rule="nonzero" fill-opacity="1" /><path clip-path="url(#clip770)" d="M1489.55 1496.11 L1495.41 1496.11 L1495.41 1531.76 L1489.55 1531.76 L1489.55 1496.11 M1489.55 1482.23 L1495.41 1482.23 L1495.41 1489.65 L1489.55 1489.65 L1489.55 1482.23 Z" fill="#000000" fill-rule="nonzero" fill-opacity="1" /><path clip-path="url(#clip770)" d="M1513.45 1485.99 L1513.45 1496.11 L1525.52 1496.11 L1525.52 1500.66 L1513.45 1500.66 L1513.45 1520.01 Q1513.45 1524.37 1514.63 1525.61 Q1515.84 1526.85 1519.5 1526.85 L1525.52 1526.85 L1525.52 1531.76 L1519.5 1531.76 Q1512.72 1531.76 1510.14 1529.24 Q1507.57 1526.7 1507.57 1520.01 L1507.57 1500.66 L1503.27 1500.66 L1503.27 1496.11 L1507.57 1496.11 L1507.57 1485.99 L1513.45 1485.99 Z" fill="#000000" fill-rule="nonzero" fill-opacity="1" /><path clip-path="url(#clip770)" d="M1555.95 1497.16 L1555.95 1502.7 Q1553.46 1501.42 1550.79 1500.79 Q1548.12 1500.15 1545.25 1500.15 Q1540.89 1500.15 1538.69 1501.49 Q1536.53 1502.82 1536.53 1505.5 Q1536.53 1507.53 1538.09 1508.71 Q1539.65 1509.86 1544.36 1510.91 L1546.37 1511.35 Q1552.6 1512.69 1555.21 1515.14 Q1557.86 1517.56 1557.86 1521.92 Q1557.86 1526.89 1553.91 1529.78 Q1549.99 1532.68 1543.12 1532.68 Q1540.25 1532.68 1537.13 1532.11 Q1534.05 1531.56 1530.61 1530.45 L1530.61 1524.4 Q1533.86 1526.09 1537.01 1526.95 Q1540.16 1527.78 1543.25 1527.78 Q1547.38 1527.78 1549.61 1526.38 Q1551.84 1524.94 1551.84 1522.37 Q1551.84 1519.98 1550.22 1518.71 Q1548.62 1517.43 1543.18 1516.26 L1541.15 1515.78 Q1535.7 1514.63 1533.28 1512.28 Q1530.86 1509.89 1530.86 1505.75 Q1530.86 1500.72 1534.43 1497.99 Q1537.99 1495.25 1544.55 1495.25 Q1547.8 1495.25 1550.66 1495.73 Q1553.53 1496.2 1555.95 1497.16 Z" fill="#000000" fill-rule="nonzero" fill-opacity="1" /><path clip-path="url(#clip770)" d="M1566.26 1482.29 L1571.35 1482.29 Q1576.12 1489.81 1578.48 1497 Q1580.87 1504.19 1580.87 1511.29 Q1580.87 1518.42 1578.48 1525.64 Q1576.12 1532.87 1571.35 1540.35 L1566.26 1540.35 Q1570.49 1533.06 1572.56 1525.87 Q1574.66 1518.64 1574.66 1511.29 Q1574.66 1503.94 1572.56 1496.78 Q1570.49 1489.61 1566.26 1482.29 Z" fill="#000000" fill-rule="nonzero" fill-opacity="1" /><polyline clip-path="url(#clip770)" style="stroke:#000000; stroke-linecap:round; stroke-linejoin:round; stroke-width:4; stroke-opacity:1; fill:none" points="335.847,1315.18 335.847,244.432 "/>
<polyline clip-path="url(#clip770)" style="stroke:#000000; stroke-linecap:round; stroke-linejoin:round; stroke-width:4; stroke-opacity:1; fill:none" points="335.847,1315.18 354.745,1315.18 "/>
<polyline clip-path="url(#clip770)" style="stroke:#000000; stroke-linecap:round; stroke-linejoin:round; stroke-width:4; stroke-opacity:1; fill:none" points="335.847,1000.25 354.745,1000.25 "/>
<polyline clip-path="url(#clip770)" style="stroke:#000000; stroke-linecap:round; stroke-linejoin:round; stroke-width:4; stroke-opacity:1; fill:none" points="335.847,685.328 354.745,685.328 "/>
<polyline clip-path="url(#clip770)" style="stroke:#000000; stroke-linecap:round; stroke-linejoin:round; stroke-width:4; stroke-opacity:1; fill:none" points="335.847,370.402 354.745,370.402 "/>
<path clip-path="url(#clip770)" d="M294.187 1311.89 Q294.219 1313.18 294.219 1315.17 Q294.219 1317.17 294.155 1318.49 Q294.122 1319.81 293.8 1322.32 Q293.51 1324.83 292.931 1326.57 Q292.383 1328.28 291.192 1330.41 Q290 1332.53 288.357 1333.85 Q286.747 1335.14 284.138 1336.04 Q281.53 1336.94 278.277 1336.94 Q274.992 1336.94 272.383 1336.04 Q269.775 1335.11 268.132 1333.82 Q266.49 1332.53 265.298 1330.41 Q264.139 1328.25 263.559 1326.54 Q263.011 1324.8 262.689 1322.29 Q262.4 1319.78 262.335 1318.49 Q262.303 1317.17 262.303 1315.17 Q262.303 1313.18 262.335 1311.86 Q262.4 1310.54 262.689 1307.99 Q263.011 1305.45 263.559 1303.71 Q264.139 1301.94 265.298 1299.75 Q266.49 1297.56 268.132 1296.24 Q269.775 1294.88 272.383 1293.95 Q274.992 1293.02 278.277 1293.02 Q281.562 1293.02 284.171 1293.95 Q286.779 1294.88 288.39 1296.24 Q290.032 1297.59 291.224 1299.78 Q292.415 1301.97 292.963 1303.74 Q293.51 1305.48 293.832 1308.06 Q294.155 1310.6 294.187 1311.89 M285.781 1314.37 Q285.781 1310.6 285.749 1308.44 Q285.717 1306.28 285.427 1303.48 Q285.169 1300.65 284.654 1299.52 Q283.752 1297.46 281.981 1296.43 Q280.242 1295.37 278.277 1295.37 Q277.665 1295.37 276.989 1295.5 Q276.345 1295.59 275.378 1296.01 Q274.412 1296.4 273.639 1297.07 Q272.866 1297.72 272.19 1298.97 Q271.514 1300.23 271.288 1301.9 Q270.741 1305.54 270.741 1314.37 Q270.741 1324.67 271.353 1328.28 Q271.675 1329.99 272.448 1331.28 Q273.253 1332.56 274.251 1333.24 Q275.282 1333.92 276.28 1334.24 Q277.311 1334.56 278.277 1334.56 Q279.179 1334.56 280.113 1334.3 Q281.047 1334.05 282.142 1333.37 Q283.269 1332.66 284.138 1331.18 Q285.008 1329.67 285.33 1327.51 Q285.781 1324.09 285.781 1314.37 Z" fill="#000000" fill-rule="nonzero" fill-opacity="1" /><path clip-path="url(#clip770)" d="M268.369 984.047 Q265.47 983.854 255.229 983.854 Q245.019 983.854 242.121 984.047 L242.121 980.955 L251.267 980.955 L251.267 946.849 Q247.177 948.17 242.701 948.17 L241.38 948.17 L241.38 945.078 L242.701 945.078 Q250.881 945.078 255.969 941.31 Q256.388 940.988 256.614 940.923 Q256.839 940.859 257.419 940.859 Q258.61 940.859 258.868 941.277 Q259.126 941.696 259.126 942.952 L259.126 980.955 L268.369 980.955 L268.369 984.047 Z" fill="#000000" fill-rule="nonzero" fill-opacity="1" /><path clip-path="url(#clip770)" d="M223.38 1001.65 L292.807 1001.65 L292.807 998.127 L223.38 998.127  Z" fill="#000000" fill-rule="evenodd" fill-opacity="1"/>
<path clip-path="url(#clip770)" d="M250.369 1058.51 Q247.47 1058.31 237.229 1058.31 Q227.019 1058.31 224.121 1058.51 L224.121 1055.42 L233.267 1055.42 L233.267 1021.31 Q229.177 1022.63 224.701 1022.63 L223.38 1022.63 L223.38 1019.54 L224.701 1019.54 Q232.881 1019.54 237.969 1015.77 Q238.388 1015.45 238.614 1015.38 Q238.839 1015.32 239.419 1015.32 Q240.61 1015.32 240.868 1015.74 Q241.126 1016.16 241.126 1017.41 L241.126 1055.42 L250.369 1055.42 L250.369 1058.51 Z" fill="#000000" fill-rule="nonzero" fill-opacity="1" /><path clip-path="url(#clip770)" d="M286.078 1044.98 Q286.078 1051.52 281.795 1055.38 Q277.544 1059.25 270.587 1059.25 Q266.722 1059.25 263.373 1057.7 Q260.024 1056.16 257.866 1052.65 Q254.549 1047.08 254.549 1037.61 Q254.549 1032.81 255.74 1028.94 Q256.964 1025.05 258.929 1022.57 Q260.925 1020.09 263.566 1018.41 Q266.207 1016.74 268.88 1016.03 Q271.586 1015.32 274.42 1015.32 Q276.932 1015.32 278.864 1016.03 Q280.829 1016.74 281.924 1017.93 Q283.051 1019.12 283.598 1020.54 Q284.178 1021.95 284.178 1023.56 Q284.178 1025.46 283.051 1026.62 Q281.924 1027.78 280.024 1027.78 Q278.156 1027.78 277.028 1026.62 Q275.933 1025.43 275.933 1023.69 Q275.933 1022.15 276.835 1020.99 Q277.769 1019.83 279.476 1019.6 Q277.737 1017.86 274.549 1017.86 Q271.618 1017.86 269.106 1019.41 Q266.594 1020.96 265.37 1023.34 Q263.534 1027.4 263.534 1034.71 L263.534 1035.96 Q264.307 1034.55 265.305 1033.52 Q266.304 1032.49 267.077 1032 Q267.882 1031.52 268.848 1031.26 Q269.846 1031 270.297 1030.97 Q270.78 1030.94 271.457 1030.94 Q275.547 1030.94 278.8 1032.49 Q282.052 1034.03 284.049 1037.28 Q286.078 1040.51 286.078 1044.98 M277.125 1044.85 Q277.125 1042.7 277.093 1041.66 Q277.061 1040.6 276.9 1038.99 Q276.739 1037.35 276.32 1036.58 Q275.933 1035.77 275.257 1034.9 Q274.581 1034 273.486 1033.68 Q272.391 1033.32 270.845 1033.32 Q267.817 1033.32 265.724 1036.13 Q263.663 1038.89 263.663 1044.66 Q263.663 1050.65 264.726 1052.78 Q265.338 1054.03 266.787 1055.22 Q268.236 1056.38 270.458 1056.38 Q272.391 1056.38 273.679 1055.77 Q274.999 1055.13 275.676 1054.32 Q276.352 1053.52 276.674 1051.71 Q277.028 1049.91 277.061 1048.69 Q277.125 1047.46 277.125 1044.85 Z" fill="#000000" fill-rule="nonzero" fill-opacity="1" /><path clip-path="url(#clip770)" d="M283.537 669.121 Q280.639 668.928 270.397 668.928 Q260.188 668.928 257.289 669.121 L257.289 666.029 L266.436 666.029 L266.436 631.923 Q262.346 633.244 257.869 633.244 L256.549 633.244 L256.549 630.152 L257.869 630.152 Q266.049 630.152 271.138 626.384 Q271.557 626.062 271.782 625.997 Q272.007 625.933 272.587 625.933 Q273.779 625.933 274.036 626.352 Q274.294 626.77 274.294 628.026 L274.294 666.029 L283.537 666.029 L283.537 669.121 Z" fill="#000000" fill-rule="nonzero" fill-opacity="1" /><path clip-path="url(#clip770)" d="M254.549 686.721 L292.807 686.721 L292.807 683.201 L254.549 683.201  Z" fill="#000000" fill-rule="evenodd" fill-opacity="1"/>
<path clip-path="url(#clip770)" d="M286.078 731.247 Q286.078 733.985 285.048 736.368 Q284.049 738.719 282.117 740.523 Q280.185 742.294 277.125 743.325 Q274.065 744.323 270.201 744.323 Q266.916 744.323 264.146 743.647 Q261.376 742.97 259.186 741.65 Q257.029 740.297 255.773 738.075 Q254.549 735.853 254.549 732.954 Q254.549 725.611 262.987 721.876 Q261.151 720.845 259.83 719.557 Q258.542 718.236 257.866 716.884 Q257.222 715.531 256.932 714.339 Q256.674 713.116 256.674 711.924 Q256.674 706.9 260.249 703.647 Q263.856 700.394 270.458 700.394 Q276.449 700.394 280.217 702.842 Q283.985 705.29 283.985 710.088 Q283.985 712.987 282.375 715.209 Q280.764 717.399 277.318 719.17 Q278.317 719.718 278.832 720.04 Q279.379 720.362 280.442 721.103 Q281.505 721.843 282.149 722.455 Q282.793 723.067 283.631 724.066 Q284.468 725.064 284.919 726.062 Q285.402 727.061 285.724 728.413 Q286.078 729.766 286.078 731.247 M279.025 710.153 Q279.025 706.771 276.674 704.871 Q274.355 702.939 270.201 702.939 Q269.202 702.939 268.268 703.035 Q267.334 703.1 266.046 703.422 Q264.79 703.711 263.856 704.227 Q262.922 704.742 262.246 705.74 Q261.602 706.707 261.602 708.027 Q261.602 710.378 264.532 711.988 L274.42 717.528 Q279.025 714.5 279.025 710.153 M280.41 734.887 Q280.41 733.76 280.024 732.858 Q279.669 731.956 278.767 731.183 Q277.898 730.41 277.157 729.959 Q276.449 729.476 275.064 728.671 L266.046 723.679 Q260.217 726.996 260.217 732.954 Q260.217 736.851 262.922 739.17 Q265.66 741.457 270.458 741.457 Q271.747 741.457 272.938 741.328 Q274.162 741.167 275.547 740.748 Q276.964 740.297 277.995 739.621 Q279.025 738.912 279.701 737.689 Q280.41 736.465 280.41 734.887 Z" fill="#000000" fill-rule="nonzero" fill-opacity="1" /><path clip-path="url(#clip770)" d="M270.91 341.944 Q270.91 344.295 269.944 346.485 Q268.977 348.643 267.045 350.511 Q265.145 352.347 261.828 353.474 Q258.543 354.569 254.291 354.569 Q247.85 354.569 243.599 351.831 Q239.38 349.062 239.38 344.649 Q239.38 342.234 240.829 340.881 Q242.279 339.529 244.469 339.529 Q246.659 339.529 248.076 340.914 Q249.493 342.298 249.493 344.521 Q249.493 346.485 248.43 347.773 Q247.399 349.029 245.66 349.48 Q249.235 351.702 253.969 351.702 Q255.386 351.702 256.514 351.316 Q257.641 350.897 258.317 350.318 Q259.026 349.738 259.541 348.804 Q260.056 347.838 260.282 347.065 Q260.539 346.292 260.668 345.165 Q260.797 344.005 260.797 343.426 Q260.829 342.846 260.829 341.88 Q260.829 340.849 260.797 340.269 Q260.797 339.657 260.636 338.498 Q260.507 337.339 260.25 336.598 Q260.024 335.825 259.477 334.891 Q258.961 333.957 258.221 333.41 Q257.48 332.83 256.288 332.443 Q255.129 332.057 253.647 332.057 L250.749 332.057 Q250.008 332.057 249.686 332.025 Q249.396 331.96 249.139 331.703 Q248.881 331.445 248.881 330.865 Q248.881 329.802 249.686 329.738 Q250.395 329.609 252.842 329.48 Q254.453 329.384 255.709 328.707 Q256.997 327.999 257.705 326.904 Q258.414 325.809 258.865 324.746 Q259.348 323.683 259.509 322.427 Q259.67 321.171 259.702 320.624 Q259.766 320.076 259.766 319.593 Q259.766 318.724 259.702 318.08 Q259.67 317.403 259.348 316.405 Q259.026 315.406 258.446 314.795 Q257.899 314.15 256.771 313.667 Q255.644 313.184 254.098 313.184 Q249.847 313.184 246.852 315.568 Q247.174 315.632 247.367 315.696 Q247.593 315.761 248.269 316.115 Q248.978 316.469 249.428 316.92 Q249.879 317.371 250.266 318.273 Q250.684 319.142 250.684 320.205 Q250.684 322.138 249.428 323.458 Q248.205 324.746 246.047 324.746 Q244.114 324.746 242.794 323.49 Q241.506 322.202 241.506 320.109 Q241.506 316.051 245.081 313.345 Q248.688 310.64 254.485 310.64 Q261.248 310.64 265.016 313.249 Q268.816 315.825 268.816 319.786 Q268.816 322.46 267.367 324.778 Q265.95 327.065 263.889 328.482 Q261.86 329.867 259.444 330.608 Q262.182 331.187 264.275 332.218 Q266.401 333.249 267.625 334.408 Q268.849 335.567 269.621 336.984 Q270.394 338.369 270.652 339.561 Q270.91 340.72 270.91 341.944 Z" fill="#000000" fill-rule="nonzero" fill-opacity="1" /><path clip-path="url(#clip770)" d="M223.38 372.162 L292.807 372.162 L292.807 368.642 L223.38 368.642  Z" fill="#000000" fill-rule="evenodd" fill-opacity="1"/>
<path clip-path="url(#clip770)" d="M250.369 429.024 Q247.47 428.83 237.229 428.83 Q227.019 428.83 224.121 429.024 L224.121 425.932 L233.267 425.932 L233.267 391.826 Q229.177 393.146 224.701 393.146 L223.38 393.146 L223.38 390.055 L224.701 390.055 Q232.881 390.055 237.969 386.287 Q238.388 385.964 238.614 385.9 Q238.839 385.836 239.419 385.836 Q240.61 385.836 240.868 386.254 Q241.126 386.673 241.126 387.929 L241.126 425.932 L250.369 425.932 L250.369 429.024 Z" fill="#000000" fill-rule="nonzero" fill-opacity="1" /><path clip-path="url(#clip770)" d="M286.078 415.497 Q286.078 422.035 281.795 425.9 Q277.544 429.764 270.587 429.764 Q266.722 429.764 263.373 428.219 Q260.024 426.673 257.866 423.162 Q254.549 417.591 254.549 408.122 Q254.549 403.323 255.74 399.459 Q256.964 395.562 258.929 393.082 Q260.925 390.602 263.566 388.927 Q266.207 387.253 268.88 386.544 Q271.586 385.836 274.42 385.836 Q276.932 385.836 278.864 386.544 Q280.829 387.253 281.924 388.444 Q283.051 389.636 283.598 391.053 Q284.178 392.47 284.178 394.08 Q284.178 395.98 283.051 397.14 Q281.924 398.299 280.024 398.299 Q278.156 398.299 277.028 397.14 Q275.933 395.948 275.933 394.209 Q275.933 392.663 276.835 391.504 Q277.769 390.344 279.476 390.119 Q277.737 388.38 274.549 388.38 Q271.618 388.38 269.106 389.926 Q266.594 391.472 265.37 393.855 Q263.534 397.913 263.534 405.224 L263.534 406.48 Q264.307 405.063 265.305 404.032 Q266.304 403.001 267.077 402.518 Q267.882 402.035 268.848 401.778 Q269.846 401.52 270.297 401.488 Q270.78 401.455 271.457 401.455 Q275.547 401.455 278.8 403.001 Q282.052 404.547 284.049 407.8 Q286.078 411.021 286.078 415.497 M277.125 415.368 Q277.125 413.211 277.093 412.18 Q277.061 411.117 276.9 409.507 Q276.739 407.864 276.32 407.092 Q275.933 406.286 275.257 405.417 Q274.581 404.515 273.486 404.193 Q272.391 403.839 270.845 403.839 Q267.817 403.839 265.724 406.641 Q263.663 409.41 263.663 415.175 Q263.663 421.165 264.726 423.291 Q265.338 424.547 266.787 425.739 Q268.236 426.898 270.458 426.898 Q272.391 426.898 273.679 426.286 Q274.999 425.642 275.676 424.837 Q276.352 424.032 276.674 422.228 Q277.028 420.425 277.061 419.201 Q277.125 417.977 277.125 415.368 Z" fill="#000000" fill-rule="nonzero" fill-opacity="1" /><path clip-path="url(#clip770)" d="M106.177 1076.62 L125.083 1076.62 L125.083 1082.51 L75.8762 1082.51 L75.8762 1076.62 L81.2871 1076.62 Q78.1042 1074.78 76.5764 1071.98 Q75.0168 1069.14 75.0168 1065.23 Q75.0168 1058.74 80.1731 1054.69 Q85.3293 1050.62 93.732 1050.62 Q102.135 1050.62 107.291 1054.69 Q112.447 1058.74 112.447 1065.23 Q112.447 1069.14 110.919 1071.98 Q109.36 1074.78 106.177 1076.62 M93.732 1056.7 Q87.2708 1056.7 83.6105 1059.37 Q79.9184 1062.01 79.9184 1066.66 Q79.9184 1071.31 83.6105 1073.98 Q87.2708 1076.62 93.732 1076.62 Q100.193 1076.62 103.885 1073.98 Q107.546 1071.31 107.546 1066.66 Q107.546 1062.01 103.885 1059.37 Q100.193 1056.7 93.732 1056.7 Z" fill="#000000" fill-rule="nonzero" fill-opacity="1" /><path clip-path="url(#clip770)" d="M81.3507 1020.25 Q80.7778 1021.24 80.5232 1022.42 Q80.2367 1023.56 80.2367 1024.97 Q80.2367 1029.93 83.4832 1032.6 Q86.6979 1035.25 92.7453 1035.25 L111.524 1035.25 L111.524 1041.13 L75.8762 1041.13 L75.8762 1035.25 L81.4144 1035.25 Q78.1679 1033.4 76.6083 1030.44 Q75.0168 1027.48 75.0168 1023.25 Q75.0168 1022.64 75.1123 1021.91 Q75.176 1021.18 75.3351 1020.29 L81.3507 1020.25 Z" fill="#000000" fill-rule="nonzero" fill-opacity="1" /><path clip-path="url(#clip770)" d="M79.9821 1001.73 Q79.9821 1006.44 83.6742 1009.18 Q87.3345 1011.92 93.732 1011.92 Q100.13 1011.92 103.822 1009.21 Q107.482 1006.47 107.482 1001.73 Q107.482 997.052 103.79 994.314 Q100.098 991.577 93.732 991.577 Q87.3981 991.577 83.706 994.314 Q79.9821 997.052 79.9821 1001.73 M75.0168 1001.73 Q75.0168 994.092 79.9821 989.731 Q84.9473 985.371 93.732 985.371 Q102.485 985.371 107.482 989.731 Q112.447 994.092 112.447 1001.73 Q112.447 1009.4 107.482 1013.76 Q102.485 1018.09 93.732 1018.09 Q84.9473 1018.09 79.9821 1013.76 Q75.0168 1009.4 75.0168 1001.73 Z" fill="#000000" fill-rule="nonzero" fill-opacity="1" /><path clip-path="url(#clip770)" d="M106.177 969.997 L125.083 969.997 L125.083 975.886 L75.8762 975.886 L75.8762 969.997 L81.2871 969.997 Q78.1042 968.151 76.5764 965.35 Q75.0168 962.518 75.0168 958.603 Q75.0168 952.11 80.1731 948.068 Q85.3293 943.993 93.732 943.993 Q102.135 943.993 107.291 948.068 Q112.447 952.11 112.447 958.603 Q112.447 962.518 110.919 965.35 Q109.36 968.151 106.177 969.997 M93.732 950.073 Q87.2708 950.073 83.6105 952.746 Q79.9184 955.388 79.9184 960.035 Q79.9184 964.682 83.6105 967.356 Q87.2708 969.997 93.732 969.997 Q100.193 969.997 103.885 967.356 Q107.546 964.682 107.546 960.035 Q107.546 955.388 103.885 952.746 Q100.193 950.073 93.732 950.073 Z" fill="#000000" fill-rule="nonzero" fill-opacity="1" /><path clip-path="url(#clip770)" d="M79.9821 920.472 Q79.9821 925.183 83.6742 927.92 Q87.3345 930.657 93.732 930.657 Q100.13 930.657 103.822 927.952 Q107.482 925.215 107.482 920.472 Q107.482 915.793 103.79 913.056 Q100.098 910.319 93.732 910.319 Q87.3981 910.319 83.706 913.056 Q79.9821 915.793 79.9821 920.472 M75.0168 920.472 Q75.0168 912.833 79.9821 908.473 Q84.9473 904.112 93.732 904.112 Q102.485 904.112 107.482 908.473 Q112.447 912.833 112.447 920.472 Q112.447 928.143 107.482 932.503 Q102.485 936.832 93.732 936.832 Q84.9473 936.832 79.9821 932.503 Q75.0168 928.143 75.0168 920.472 Z" fill="#000000" fill-rule="nonzero" fill-opacity="1" /><path clip-path="url(#clip770)" d="M81.3507 873.748 Q80.7778 874.735 80.5232 875.912 Q80.2367 877.058 80.2367 878.459 Q80.2367 883.424 83.4832 886.097 Q86.6979 888.739 92.7453 888.739 L111.524 888.739 L111.524 894.627 L75.8762 894.627 L75.8762 888.739 L81.4144 888.739 Q78.1679 886.893 76.6083 883.933 Q75.0168 880.973 75.0168 876.74 Q75.0168 876.135 75.1123 875.403 Q75.176 874.671 75.3351 873.78 L81.3507 873.748 Z" fill="#000000" fill-rule="nonzero" fill-opacity="1" /><path clip-path="url(#clip770)" d="M65.7547 861.812 L75.8762 861.812 L75.8762 849.749 L80.4277 849.749 L80.4277 861.812 L99.7794 861.812 Q104.14 861.812 105.381 860.635 Q106.623 859.425 106.623 855.765 L106.623 849.749 L111.524 849.749 L111.524 855.765 Q111.524 862.544 109.01 865.122 Q106.463 867.7 99.7794 867.7 L80.4277 867.7 L80.4277 871.997 L75.8762 871.997 L75.8762 867.7 L65.7547 867.7 L65.7547 861.812 Z" fill="#000000" fill-rule="nonzero" fill-opacity="1" /><path clip-path="url(#clip770)" d="M75.8762 842.047 L75.8762 836.19 L111.524 836.19 L111.524 842.047 L75.8762 842.047 M61.999 842.047 L61.999 836.19 L69.415 836.19 L69.415 842.047 L61.999 842.047 Z" fill="#000000" fill-rule="nonzero" fill-opacity="1" /><path clip-path="url(#clip770)" d="M79.9821 810.123 Q79.9821 814.833 83.6742 817.571 Q87.3345 820.308 93.732 820.308 Q100.13 820.308 103.822 817.602 Q107.482 814.865 107.482 810.123 Q107.482 805.444 103.79 802.707 Q100.098 799.969 93.732 799.969 Q87.3981 799.969 83.706 802.707 Q79.9821 805.444 79.9821 810.123 M75.0168 810.123 Q75.0168 802.484 79.9821 798.123 Q84.9473 793.763 93.732 793.763 Q102.485 793.763 107.482 798.123 Q112.447 802.484 112.447 810.123 Q112.447 817.793 107.482 822.154 Q102.485 826.483 93.732 826.483 Q84.9473 826.483 79.9821 822.154 Q75.0168 817.793 75.0168 810.123 Z" fill="#000000" fill-rule="nonzero" fill-opacity="1" /><path clip-path="url(#clip770)" d="M90.0081 754.423 L111.524 754.423 L111.524 760.279 L90.199 760.279 Q85.1383 760.279 82.6238 762.253 Q80.1094 764.226 80.1094 768.173 Q80.1094 772.915 83.1331 775.652 Q86.1568 778.39 91.3767 778.39 L111.524 778.39 L111.524 784.278 L75.8762 784.278 L75.8762 778.39 L81.4144 778.39 Q78.1997 776.289 76.6083 773.456 Q75.0168 770.592 75.0168 766.868 Q75.0168 760.725 78.8363 757.574 Q82.6238 754.423 90.0081 754.423 Z" fill="#000000" fill-rule="nonzero" fill-opacity="1" /><path clip-path="url(#clip770)" d="M90.0081 692.389 L111.524 692.389 L111.524 698.245 L90.199 698.245 Q85.1383 698.245 82.6238 700.219 Q80.1094 702.192 80.1094 706.139 Q80.1094 710.881 83.1331 713.619 Q86.1568 716.356 91.3767 716.356 L111.524 716.356 L111.524 722.244 L61.999 722.244 L61.999 716.356 L81.4144 716.356 Q78.1997 714.255 76.6083 711.422 Q75.0168 708.558 75.0168 704.834 Q75.0168 698.691 78.8363 695.54 Q82.6238 692.389 90.0081 692.389 Z" fill="#000000" fill-rule="nonzero" fill-opacity="1" /><path clip-path="url(#clip770)" d="M93.6047 664.507 Q93.6047 671.605 95.2279 674.342 Q96.8512 677.079 100.766 677.079 Q103.885 677.079 105.731 675.042 Q107.546 672.974 107.546 669.441 Q107.546 664.571 104.108 661.643 Q100.639 658.683 94.9097 658.683 L93.6047 658.683 L93.6047 664.507 M91.1857 652.826 L111.524 652.826 L111.524 658.683 L106.113 658.683 Q109.36 660.688 110.919 663.68 Q112.447 666.671 112.447 671 Q112.447 676.475 109.392 679.721 Q106.304 682.936 101.148 682.936 Q95.1325 682.936 92.0769 678.925 Q89.0214 674.883 89.0214 666.894 L89.0214 658.683 L88.4485 658.683 Q84.4062 658.683 82.2101 661.356 Q79.9821 663.998 79.9821 668.804 Q79.9821 671.86 80.7141 674.756 Q81.4462 677.652 82.9103 680.326 L77.4995 680.326 Q76.2581 677.111 75.6534 674.088 Q75.0168 671.064 75.0168 668.199 Q75.0168 660.465 79.0272 656.645 Q83.0376 652.826 91.1857 652.826 Z" fill="#000000" fill-rule="nonzero" fill-opacity="1" /><path clip-path="url(#clip770)" d="M61.999 640.763 L61.999 634.907 L111.524 634.907 L111.524 640.763 L61.999 640.763 Z" fill="#000000" fill-rule="nonzero" fill-opacity="1" /><path clip-path="url(#clip770)" d="M61.999 604.606 L66.8687 604.606 L66.8687 610.208 Q66.8687 613.359 68.1419 614.6 Q69.415 615.809 72.7252 615.809 L75.8762 615.809 L75.8762 606.165 L80.4277 606.165 L80.4277 615.809 L111.524 615.809 L111.524 621.698 L80.4277 621.698 L80.4277 627.3 L75.8762 627.3 L75.8762 621.698 L73.3936 621.698 Q67.4416 621.698 64.7362 618.929 Q61.999 616.16 61.999 610.144 L61.999 604.606 Z" fill="#000000" fill-rule="nonzero" fill-opacity="1" /><path clip-path="url(#clip770)" d="M75.8762 604.256 L75.8762 598.399 L103.694 591.079 L75.8762 583.79 L75.8762 576.883 L103.694 569.563 L75.8762 562.274 L75.8762 556.417 L111.524 565.743 L111.524 572.65 L82.3056 580.321 L111.524 588.023 L111.524 594.93 L75.8762 604.256 Z" fill="#000000" fill-rule="nonzero" fill-opacity="1" /><path clip-path="url(#clip770)" d="M93.6047 531.337 Q93.6047 538.434 95.2279 541.172 Q96.8512 543.909 100.766 543.909 Q103.885 543.909 105.731 541.872 Q107.546 539.803 107.546 536.27 Q107.546 531.4 104.108 528.472 Q100.639 525.512 94.9097 525.512 L93.6047 525.512 L93.6047 531.337 M91.1857 519.655 L111.524 519.655 L111.524 525.512 L106.113 525.512 Q109.36 527.517 110.919 530.509 Q112.447 533.501 112.447 537.83 Q112.447 543.304 109.392 546.551 Q106.304 549.765 101.148 549.765 Q95.1325 549.765 92.0769 545.755 Q89.0214 541.713 89.0214 533.724 L89.0214 525.512 L88.4485 525.512 Q84.4062 525.512 82.2101 528.186 Q79.9821 530.827 79.9821 535.633 Q79.9821 538.689 80.7141 541.585 Q81.4462 544.482 82.9103 547.155 L77.4995 547.155 Q76.2581 543.941 75.6534 540.917 Q75.0168 537.893 75.0168 535.029 Q75.0168 527.294 79.0272 523.475 Q83.0376 519.655 91.1857 519.655 Z" fill="#000000" fill-rule="nonzero" fill-opacity="1" /><path clip-path="url(#clip770)" d="M114.834 492.76 Q121.2 495.243 123.142 497.598 Q125.083 499.954 125.083 503.9 L125.083 508.579 L120.182 508.579 L120.182 505.142 Q120.182 502.723 119.036 501.386 Q117.89 500.049 113.625 498.426 L110.951 497.375 L75.8762 511.794 L75.8762 505.587 L103.758 494.447 L75.8762 483.307 L75.8762 477.101 L114.834 492.76 Z" fill="#000000" fill-rule="nonzero" fill-opacity="1" /><path clip-path="url(#clip770)" d="M1009.7 133.056 L1041.82 133.056 L1041.82 139.943 L1017.19 139.943 L1017.19 154.769 Q1018.97 154.161 1020.76 153.878 Q1022.54 153.554 1024.32 153.554 Q1034.45 153.554 1040.36 159.103 Q1046.28 164.653 1046.28 174.132 Q1046.28 183.895 1040.2 189.323 Q1034.12 194.711 1023.06 194.711 Q1019.26 194.711 1015.29 194.063 Q1011.36 193.414 1007.14 192.118 L1007.14 183.895 Q1010.79 185.88 1014.68 186.852 Q1018.57 187.824 1022.9 187.824 Q1029.91 187.824 1034 184.138 Q1038.09 180.452 1038.09 174.132 Q1038.09 167.813 1034 164.126 Q1029.91 160.44 1022.9 160.44 Q1019.62 160.44 1016.34 161.169 Q1013.1 161.898 1009.7 163.438 L1009.7 133.056 Z" fill="#000000" fill-rule="nonzero" fill-opacity="1" /><path clip-path="url(#clip770)" d="M1057.58 167.489 L1079.41 167.489 L1079.41 174.132 L1057.58 174.132 L1057.58 167.489 Z" fill="#000000" fill-rule="nonzero" fill-opacity="1" /><path clip-path="url(#clip770)" d="M1123.85 170.891 Q1123.85 162.668 1120.45 158.01 Q1117.09 153.311 1111.17 153.311 Q1105.26 153.311 1101.86 158.01 Q1098.49 162.668 1098.49 170.891 Q1098.49 179.115 1101.86 183.814 Q1105.26 188.472 1111.17 188.472 Q1117.09 188.472 1120.45 183.814 Q1123.85 179.115 1123.85 170.891 M1098.49 155.052 Q1100.84 151.002 1104.41 149.057 Q1108.01 147.072 1113 147.072 Q1121.26 147.072 1126.4 153.635 Q1131.59 160.197 1131.59 170.891 Q1131.59 181.586 1126.4 188.148 Q1121.26 194.711 1113 194.711 Q1108.01 194.711 1104.41 192.766 Q1100.84 190.781 1098.49 186.73 L1098.49 193.536 L1091 193.536 L1091 130.504 L1098.49 130.504 L1098.49 155.052 Z" fill="#000000" fill-rule="nonzero" fill-opacity="1" /><path clip-path="url(#clip770)" d="M1143.94 148.166 L1151.4 148.166 L1151.4 193.536 L1143.94 193.536 L1143.94 148.166 M1143.94 130.504 L1151.4 130.504 L1151.4 139.943 L1143.94 139.943 L1143.94 130.504 Z" fill="#000000" fill-rule="nonzero" fill-opacity="1" /><path clip-path="url(#clip770)" d="M1174.37 135.284 L1174.37 148.166 L1189.72 148.166 L1189.72 153.959 L1174.37 153.959 L1174.37 178.588 Q1174.37 184.138 1175.87 185.718 Q1177.4 187.298 1182.06 187.298 L1189.72 187.298 L1189.72 193.536 L1182.06 193.536 Q1173.43 193.536 1170.15 190.336 Q1166.87 187.095 1166.87 178.588 L1166.87 153.959 L1161.4 153.959 L1161.4 148.166 L1166.87 148.166 L1166.87 135.284 L1174.37 135.284 Z" fill="#000000" fill-rule="nonzero" fill-opacity="1" /><path clip-path="url(#clip770)" d="M1248.86 130.504 L1248.86 136.702 L1241.73 136.702 Q1237.72 136.702 1236.14 138.322 Q1234.6 139.943 1234.6 144.155 L1234.6 148.166 L1246.88 148.166 L1246.88 153.959 L1234.6 153.959 L1234.6 193.536 L1227.11 193.536 L1227.11 153.959 L1219.98 153.959 L1219.98 148.166 L1227.11 148.166 L1227.11 145.006 Q1227.11 137.431 1230.63 133.988 Q1234.16 130.504 1241.81 130.504 L1248.86 130.504 Z" fill="#000000" fill-rule="nonzero" fill-opacity="1" /><path clip-path="url(#clip770)" d="M1255.1 148.166 L1262.55 148.166 L1262.55 193.536 L1255.1 193.536 L1255.1 148.166 M1255.1 130.504 L1262.55 130.504 L1262.55 139.943 L1255.1 139.943 L1255.1 130.504 Z" fill="#000000" fill-rule="nonzero" fill-opacity="1" /><path clip-path="url(#clip770)" d="M1315.86 166.152 L1315.86 193.536 L1308.41 193.536 L1308.41 166.395 Q1308.41 159.954 1305.9 156.754 Q1303.39 153.554 1298.36 153.554 Q1292.33 153.554 1288.84 157.402 Q1285.36 161.25 1285.36 167.894 L1285.36 193.536 L1277.87 193.536 L1277.87 148.166 L1285.36 148.166 L1285.36 155.214 Q1288.03 151.123 1291.64 149.098 Q1295.29 147.072 1300.03 147.072 Q1307.84 147.072 1311.85 151.933 Q1315.86 156.754 1315.86 166.152 Z" fill="#000000" fill-rule="nonzero" fill-opacity="1" /><path clip-path="url(#clip770)" d="M1330.73 148.166 L1338.18 148.166 L1338.18 193.536 L1330.73 193.536 L1330.73 148.166 M1330.73 130.504 L1338.18 130.504 L1338.18 139.943 L1330.73 139.943 L1330.73 130.504 Z" fill="#000000" fill-rule="nonzero" fill-opacity="1" /><path clip-path="url(#clip770)" d="M1361.15 135.284 L1361.15 148.166 L1376.51 148.166 L1376.51 153.959 L1361.15 153.959 L1361.15 178.588 Q1361.15 184.138 1362.65 185.718 Q1364.19 187.298 1368.85 187.298 L1376.51 187.298 L1376.51 193.536 L1368.85 193.536 Q1360.22 193.536 1356.94 190.336 Q1353.66 187.095 1353.66 178.588 L1353.66 153.959 L1348.19 153.959 L1348.19 148.166 L1353.66 148.166 L1353.66 135.284 L1361.15 135.284 Z" fill="#000000" fill-rule="nonzero" fill-opacity="1" /><path clip-path="url(#clip770)" d="M1425.12 168.988 L1425.12 172.633 L1390.85 172.633 Q1391.33 180.33 1395.46 184.381 Q1399.64 188.391 1407.05 188.391 Q1411.34 188.391 1415.35 187.338 Q1419.41 186.285 1423.38 184.178 L1423.38 191.227 Q1419.36 192.928 1415.15 193.82 Q1410.94 194.711 1406.6 194.711 Q1395.75 194.711 1389.39 188.391 Q1383.07 182.072 1383.07 171.297 Q1383.07 160.157 1389.06 153.635 Q1395.1 147.072 1405.31 147.072 Q1414.46 147.072 1419.77 152.986 Q1425.12 158.86 1425.12 168.988 M1417.66 166.8 Q1417.58 160.683 1414.22 157.037 Q1410.9 153.392 1405.39 153.392 Q1399.15 153.392 1395.38 156.916 Q1391.66 160.44 1391.09 166.841 L1417.66 166.8 Z" fill="#000000" fill-rule="nonzero" fill-opacity="1" /><path clip-path="url(#clip770)" d="M1486.69 130.504 L1486.69 136.702 L1479.56 136.702 Q1475.55 136.702 1473.97 138.322 Q1472.43 139.943 1472.43 144.155 L1472.43 148.166 L1484.71 148.166 L1484.71 153.959 L1472.43 153.959 L1472.43 193.536 L1464.94 193.536 L1464.94 153.959 L1457.81 153.959 L1457.81 148.166 L1464.94 148.166 L1464.94 145.006 Q1464.94 137.431 1468.46 133.988 Q1471.99 130.504 1479.64 130.504 L1486.69 130.504 Z" fill="#000000" fill-rule="nonzero" fill-opacity="1" /><path clip-path="url(#clip770)" d="M1492.93 130.504 L1500.38 130.504 L1500.38 193.536 L1492.93 193.536 L1492.93 130.504 Z" fill="#000000" fill-rule="nonzero" fill-opacity="1" /><path clip-path="url(#clip770)" d="M1533.56 153.392 Q1527.56 153.392 1524.08 158.091 Q1520.6 162.749 1520.6 170.891 Q1520.6 179.034 1524.04 183.733 Q1527.52 188.391 1533.56 188.391 Q1539.51 188.391 1543 183.692 Q1546.48 178.993 1546.48 170.891 Q1546.48 162.83 1543 158.131 Q1539.51 153.392 1533.56 153.392 M1533.56 147.072 Q1543.28 147.072 1548.83 153.392 Q1554.38 159.711 1554.38 170.891 Q1554.38 182.031 1548.83 188.391 Q1543.28 194.711 1533.56 194.711 Q1523.8 194.711 1518.25 188.391 Q1512.74 182.031 1512.74 170.891 Q1512.74 159.711 1518.25 153.392 Q1523.8 147.072 1533.56 147.072 Z" fill="#000000" fill-rule="nonzero" fill-opacity="1" /><path clip-path="url(#clip770)" d="M1587.36 170.729 Q1578.32 170.729 1574.84 172.795 Q1571.35 174.861 1571.35 179.844 Q1571.35 183.814 1573.95 186.163 Q1576.58 188.472 1581.08 188.472 Q1587.27 188.472 1591 184.097 Q1594.77 179.682 1594.77 172.39 L1594.77 170.729 L1587.36 170.729 M1602.22 167.651 L1602.22 193.536 L1594.77 193.536 L1594.77 186.649 Q1592.22 190.781 1588.41 192.766 Q1584.6 194.711 1579.09 194.711 Q1572.12 194.711 1567.99 190.822 Q1563.9 186.893 1563.9 180.33 Q1563.9 172.674 1569.01 168.785 Q1574.15 164.896 1584.32 164.896 L1594.77 164.896 L1594.77 164.167 Q1594.77 159.022 1591.37 156.227 Q1588 153.392 1581.89 153.392 Q1578 153.392 1574.31 154.323 Q1570.63 155.255 1567.22 157.118 L1567.22 150.232 Q1571.31 148.652 1575.16 147.882 Q1579.01 147.072 1582.66 147.072 Q1592.5 147.072 1597.36 152.176 Q1602.22 157.28 1602.22 167.651 Z" fill="#000000" fill-rule="nonzero" fill-opacity="1" /><path clip-path="url(#clip770)" d="M1624.95 135.284 L1624.95 148.166 L1640.3 148.166 L1640.3 153.959 L1624.95 153.959 L1624.95 178.588 Q1624.95 184.138 1626.45 185.718 Q1627.99 187.298 1632.65 187.298 L1640.3 187.298 L1640.3 193.536 L1632.65 193.536 Q1624.02 193.536 1620.74 190.336 Q1617.45 187.095 1617.45 178.588 L1617.45 153.959 L1611.99 153.959 L1611.99 148.166 L1617.45 148.166 L1617.45 135.284 L1624.95 135.284 Z" fill="#000000" fill-rule="nonzero" fill-opacity="1" /><path clip-path="url(#clip770)" d="M1679.03 149.503 L1679.03 156.551 Q1675.87 154.931 1672.47 154.121 Q1669.06 153.311 1665.42 153.311 Q1659.87 153.311 1657.07 155.012 Q1654.32 156.713 1654.32 160.116 Q1654.32 162.709 1656.3 164.207 Q1658.29 165.666 1664.28 167.003 L1666.83 167.57 Q1674.77 169.271 1678.1 172.39 Q1681.46 175.469 1681.46 181.019 Q1681.46 187.338 1676.44 191.024 Q1671.45 194.711 1662.7 194.711 Q1659.06 194.711 1655.09 193.982 Q1651.16 193.293 1646.78 191.875 L1646.78 184.178 Q1650.91 186.325 1654.93 187.419 Q1658.94 188.472 1662.86 188.472 Q1668.13 188.472 1670.97 186.69 Q1673.8 184.867 1673.8 181.586 Q1673.8 178.548 1671.74 176.927 Q1669.71 175.307 1662.78 173.808 L1660.19 173.2 Q1653.26 171.742 1650.19 168.744 Q1647.11 165.706 1647.11 160.44 Q1647.11 154.04 1651.64 150.556 Q1656.18 147.072 1664.53 147.072 Q1668.66 147.072 1672.3 147.68 Q1675.95 148.287 1679.03 149.503 Z" fill="#000000" fill-rule="nonzero" fill-opacity="1" /><polyline clip-path="url(#clip772)" style="stroke:#8b636c; stroke-linecap:round; stroke-linejoin:round; stroke-width:12; stroke-opacity:0.75; fill:none" stroke-dasharray="6, 12" points="-269.225,769.903 537.538,518.024 1344.3,350.72 2151.07,1315.18 "/>
<line clip-path="url(#clip772)" x1="537.538" y1="518.024" x2="537.538" y2="490.024" style="stroke:#8b2252; stroke-width:12; stroke-opacity:1"/>
<line clip-path="url(#clip772)" x1="537.538" y1="518.024" x2="509.538" y2="518.024" style="stroke:#8b2252; stroke-width:12; stroke-opacity:1"/>
<line clip-path="url(#clip772)" x1="537.538" y1="518.024" x2="537.538" y2="546.024" style="stroke:#8b2252; stroke-width:12; stroke-opacity:1"/>
<line clip-path="url(#clip772)" x1="537.538" y1="518.024" x2="565.538" y2="518.024" style="stroke:#8b2252; stroke-width:12; stroke-opacity:1"/>
<line clip-path="url(#clip772)" x1="1344.3" y1="350.72" x2="1344.3" y2="322.72" style="stroke:#8b2252; stroke-width:12; stroke-opacity:1"/>
<line clip-path="url(#clip772)" x1="1344.3" y1="350.72" x2="1316.3" y2="350.72" style="stroke:#8b2252; stroke-width:12; stroke-opacity:1"/>
<line clip-path="url(#clip772)" x1="1344.3" y1="350.72" x2="1344.3" y2="378.72" style="stroke:#8b2252; stroke-width:12; stroke-opacity:1"/>
<line clip-path="url(#clip772)" x1="1344.3" y1="350.72" x2="1372.3" y2="350.72" style="stroke:#8b2252; stroke-width:12; stroke-opacity:1"/>
<line clip-path="url(#clip772)" x1="2151.07" y1="1315.18" x2="2151.07" y2="1287.18" style="stroke:#8b2252; stroke-width:12; stroke-opacity:1"/>
<line clip-path="url(#clip772)" x1="2151.07" y1="1315.18" x2="2123.07" y2="1315.18" style="stroke:#8b2252; stroke-width:12; stroke-opacity:1"/>
<line clip-path="url(#clip772)" x1="2151.07" y1="1315.18" x2="2151.07" y2="1343.18" style="stroke:#8b2252; stroke-width:12; stroke-opacity:1"/>
<line clip-path="url(#clip772)" x1="2151.07" y1="1315.18" x2="2179.07" y2="1315.18" style="stroke:#8b2252; stroke-width:12; stroke-opacity:1"/>
<polyline clip-path="url(#clip772)" style="stroke:#436eee; stroke-linecap:round; stroke-linejoin:round; stroke-width:12; stroke-opacity:0.75; fill:none" stroke-dasharray="6, 12" points="-269.225,1168.4 537.538,1063.45 1344.3,413.459 2151.07,497.111 "/>
<path clip-path="url(#clip772)" d="M537.538 1031.45 L530.018 1053.09 L507.106 1053.57 L525.378 1067.42 L518.722 1089.34 L537.538 1076.25 L556.354 1089.34 L549.698 1067.42 L567.97 1053.57 L545.058 1053.09 L537.538 1031.45 Z" fill="#4b0082" fill-rule="evenodd" fill-opacity="1" stroke="#000000" stroke-opacity="1" stroke-width="3.2"/>
<path clip-path="url(#clip772)" d="M1344.3 381.459 L1336.78 403.091 L1313.87 403.571 L1332.14 417.427 L1325.49 439.347 L1344.3 426.259 L1363.12 439.347 L1356.46 417.427 L1374.73 403.571 L1351.82 403.091 L1344.3 381.459 Z" fill="#4b0082" fill-rule="evenodd" fill-opacity="1" stroke="#000000" stroke-opacity="1" stroke-width="3.2"/>
<path clip-path="url(#clip772)" d="M2151.07 465.111 L2143.55 486.743 L2120.63 487.223 L2138.91 501.079 L2132.25 522.999 L2151.07 509.911 L2169.88 522.999 L2163.23 501.079 L2181.5 487.223 L2158.59 486.743 L2151.07 465.111 Z" fill="#4b0082" fill-rule="evenodd" fill-opacity="1" stroke="#000000" stroke-opacity="1" stroke-width="3.2"/>
<polyline clip-path="url(#clip772)" style="stroke:#8fbc8f; stroke-linecap:round; stroke-linejoin:round; stroke-width:12; stroke-opacity:0.75; fill:none" stroke-dasharray="6, 12" points="-269.225,884.31 537.538,725.924 1344.3,481.734 2151.07,584.454 "/>
<path clip-path="url(#clip772)" d="M563.138 725.924 L524.738 703.524 L524.738 748.324 L563.138 725.924 Z" fill="#3cb371" fill-rule="evenodd" fill-opacity="1" stroke="#000000" stroke-opacity="1" stroke-width="3.2"/>
<path clip-path="url(#clip772)" d="M1369.9 481.734 L1331.5 459.334 L1331.5 504.134 L1369.9 481.734 Z" fill="#3cb371" fill-rule="evenodd" fill-opacity="1" stroke="#000000" stroke-opacity="1" stroke-width="3.2"/>
<path clip-path="url(#clip772)" d="M2176.67 584.454 L2138.27 562.054 L2138.27 606.854 L2176.67 584.454 Z" fill="#3cb371" fill-rule="evenodd" fill-opacity="1" stroke="#000000" stroke-opacity="1" stroke-width="3.2"/>
<path clip-path="url(#clip770)" d="M403.078 513.404 L702.112 513.404 L702.112 280.124 L403.078 280.124  Z" fill="#f5f5f5" fill-rule="evenodd" fill-opacity="1"/>
<polyline clip-path="url(#clip770)" style="stroke:#fafafa; stroke-linecap:round; stroke-linejoin:round; stroke-width:4; stroke-opacity:1; fill:none" points="403.078,513.404 702.112,513.404 702.112,280.124 403.078,280.124 403.078,513.404 "/>
<polyline clip-path="url(#clip770)" style="stroke:#8b636c; stroke-linecap:round; stroke-linejoin:round; stroke-width:13.5; stroke-opacity:0.75; fill:none" stroke-dasharray="7, 14" points="425.488,338.444 559.948,338.444 "/>
<line clip-path="url(#clip770)" x1="492.718" y1="338.444" x2="492.718" y2="319.999" style="stroke:#8b2252; stroke-width:13.5; stroke-opacity:1"/>
<line clip-path="url(#clip770)" x1="492.718" y1="338.444" x2="474.274" y2="338.444" style="stroke:#8b2252; stroke-width:13.5; stroke-opacity:1"/>
<line clip-path="url(#clip770)" x1="492.718" y1="338.444" x2="492.718" y2="356.888" style="stroke:#8b2252; stroke-width:13.5; stroke-opacity:1"/>
<line clip-path="url(#clip770)" x1="492.718" y1="338.444" x2="511.163" y2="338.444" style="stroke:#8b2252; stroke-width:13.5; stroke-opacity:1"/>
<path clip-path="url(#clip770)" d="M597.437 343.222 Q591.629 343.222 589.39 344.55 Q587.15 345.879 587.15 349.082 Q587.15 351.634 588.817 353.144 Q590.509 354.629 593.4 354.629 Q597.384 354.629 599.78 351.816 Q602.202 348.978 602.202 344.29 L602.202 343.222 L597.437 343.222 M606.994 341.243 L606.994 357.884 L602.202 357.884 L602.202 353.457 Q600.561 356.113 598.114 357.389 Q595.666 358.639 592.124 358.639 Q587.645 358.639 584.989 356.139 Q582.358 353.613 582.358 349.394 Q582.358 344.472 585.64 341.972 Q588.947 339.472 595.483 339.472 L602.202 339.472 L602.202 339.004 Q602.202 335.696 600.015 333.899 Q597.853 332.077 593.921 332.077 Q591.421 332.077 589.051 332.676 Q586.681 333.274 584.494 334.472 L584.494 330.045 Q587.124 329.03 589.598 328.535 Q592.072 328.014 594.416 328.014 Q600.744 328.014 603.869 331.295 Q606.994 334.577 606.994 341.243 Z" fill="#000000" fill-rule="nonzero" fill-opacity="1" /><path clip-path="url(#clip770)" d="M636.056 333.144 L636.056 317.363 L640.848 317.363 L640.848 357.884 L636.056 357.884 L636.056 353.509 Q634.546 356.113 632.228 357.389 Q629.936 358.639 626.707 358.639 Q621.421 358.639 618.087 354.42 Q614.78 350.201 614.78 343.327 Q614.78 336.452 618.087 332.233 Q621.421 328.014 626.707 328.014 Q629.936 328.014 632.228 329.29 Q634.546 330.54 636.056 333.144 M619.728 343.327 Q619.728 348.613 621.89 351.634 Q624.077 354.629 627.879 354.629 Q631.681 354.629 633.869 351.634 Q636.056 348.613 636.056 343.327 Q636.056 338.04 633.869 335.045 Q631.681 332.024 627.879 332.024 Q624.077 332.024 621.89 335.045 Q619.728 338.04 619.728 343.327 Z" fill="#000000" fill-rule="nonzero" fill-opacity="1" /><path clip-path="url(#clip770)" d="M669.91 333.144 L669.91 317.363 L674.702 317.363 L674.702 357.884 L669.91 357.884 L669.91 353.509 Q668.4 356.113 666.082 357.389 Q663.79 358.639 660.561 358.639 Q655.275 358.639 651.941 354.42 Q648.634 350.201 648.634 343.327 Q648.634 336.452 651.941 332.233 Q655.275 328.014 660.561 328.014 Q663.79 328.014 666.082 329.29 Q668.4 330.54 669.91 333.144 M653.582 343.327 Q653.582 348.613 655.743 351.634 Q657.931 354.629 661.733 354.629 Q665.535 354.629 667.723 351.634 Q669.91 348.613 669.91 343.327 Q669.91 338.04 667.723 335.045 Q665.535 332.024 661.733 332.024 Q657.931 332.024 655.743 335.045 Q653.582 338.04 653.582 343.327 Z" fill="#000000" fill-rule="nonzero" fill-opacity="1" /><polyline clip-path="url(#clip770)" style="stroke:#436eee; stroke-linecap:round; stroke-linejoin:round; stroke-width:13.5; stroke-opacity:0.75; fill:none" stroke-dasharray="7, 14" points="425.488,396.764 559.948,396.764 "/>
<path clip-path="url(#clip770)" d="M492.718 378.319 L488.384 390.788 L475.177 391.064 L485.709 399.051 L481.873 411.685 L492.718 404.142 L503.563 411.685 L499.727 399.051 L510.259 391.064 L497.053 390.788 L492.718 378.319 Z" fill="#4b0082" fill-rule="evenodd" fill-opacity="1" stroke="#000000" stroke-opacity="1" stroke-width="2.71059"/>
<path clip-path="url(#clip770)" d="M605.249 392.636 Q607.046 389.407 609.546 387.871 Q612.046 386.334 615.431 386.334 Q619.988 386.334 622.462 389.537 Q624.936 392.714 624.936 398.6 L624.936 416.204 L620.119 416.204 L620.119 398.756 Q620.119 394.563 618.634 392.532 Q617.15 390.501 614.103 390.501 Q610.379 390.501 608.218 392.975 Q606.056 395.449 606.056 399.719 L606.056 416.204 L601.239 416.204 L601.239 398.756 Q601.239 394.537 599.754 392.532 Q598.27 390.501 595.171 390.501 Q591.499 390.501 589.338 393.001 Q587.176 395.475 587.176 399.719 L587.176 416.204 L582.358 416.204 L582.358 387.037 L587.176 387.037 L587.176 391.568 Q588.817 388.886 591.108 387.61 Q593.4 386.334 596.551 386.334 Q599.728 386.334 601.942 387.949 Q604.181 389.563 605.249 392.636 Z" fill="#000000" fill-rule="nonzero" fill-opacity="1" /><path clip-path="url(#clip770)" d="M633.999 404.693 L633.999 387.037 L638.79 387.037 L638.79 404.511 Q638.79 408.652 640.405 410.735 Q642.02 412.792 645.249 412.792 Q649.129 412.792 651.369 410.318 Q653.634 407.844 653.634 403.574 L653.634 387.037 L658.426 387.037 L658.426 416.204 L653.634 416.204 L653.634 411.725 Q651.889 414.381 649.572 415.683 Q647.28 416.959 644.233 416.959 Q639.207 416.959 636.603 413.834 Q633.999 410.709 633.999 404.693 M646.056 386.334 L646.056 386.334 Z" fill="#000000" fill-rule="nonzero" fill-opacity="1" /><path clip-path="url(#clip770)" d="M668.296 375.683 L673.087 375.683 L673.087 416.204 L668.296 416.204 L668.296 375.683 Z" fill="#000000" fill-rule="nonzero" fill-opacity="1" /><polyline clip-path="url(#clip770)" style="stroke:#8fbc8f; stroke-linecap:round; stroke-linejoin:round; stroke-width:13.5; stroke-opacity:0.75; fill:none" stroke-dasharray="7, 14" points="425.488,455.084 559.948,455.084 "/>
<path clip-path="url(#clip770)" d="M507.474 455.084 L485.34 442.173 L485.34 467.995 L507.474 455.084 Z" fill="#3cb371" fill-rule="evenodd" fill-opacity="1" stroke="#000000" stroke-opacity="1" stroke-width="2.71059"/>
<path clip-path="url(#clip770)" d="M600.926 434.003 L600.926 437.987 L596.343 437.987 Q593.765 437.987 592.749 439.029 Q591.759 440.071 591.759 442.779 L591.759 445.357 L599.65 445.357 L599.65 449.081 L591.759 449.081 L591.759 474.524 L586.942 474.524 L586.942 449.081 L582.358 449.081 L582.358 445.357 L586.942 445.357 L586.942 443.326 Q586.942 438.456 589.207 436.243 Q591.473 434.003 596.395 434.003 L600.926 434.003 Z" fill="#000000" fill-rule="nonzero" fill-opacity="1" /><path clip-path="url(#clip770)" d="M627.645 450.956 Q629.442 447.727 631.942 446.191 Q634.442 444.654 637.827 444.654 Q642.384 444.654 644.858 447.857 Q647.332 451.034 647.332 456.92 L647.332 474.524 L642.514 474.524 L642.514 457.076 Q642.514 452.883 641.03 450.852 Q639.546 448.821 636.499 448.821 Q632.775 448.821 630.613 451.295 Q628.452 453.769 628.452 458.039 L628.452 474.524 L623.634 474.524 L623.634 457.076 Q623.634 452.857 622.15 450.852 Q620.666 448.821 617.567 448.821 Q613.895 448.821 611.733 451.321 Q609.572 453.795 609.572 458.039 L609.572 474.524 L604.754 474.524 L604.754 445.357 L609.572 445.357 L609.572 449.888 Q611.212 447.206 613.504 445.93 Q615.796 444.654 618.947 444.654 Q622.124 444.654 624.337 446.269 Q626.577 447.883 627.645 450.956 Z" fill="#000000" fill-rule="nonzero" fill-opacity="1" /><path clip-path="url(#clip770)" d="M670.144 459.862 Q664.337 459.862 662.098 461.19 Q659.858 462.519 659.858 465.722 Q659.858 468.274 661.525 469.784 Q663.217 471.269 666.108 471.269 Q670.092 471.269 672.488 468.456 Q674.91 465.618 674.91 460.93 L674.91 459.862 L670.144 459.862 M679.702 457.883 L679.702 474.524 L674.91 474.524 L674.91 470.097 Q673.269 472.753 670.822 474.029 Q668.374 475.279 664.832 475.279 Q660.353 475.279 657.697 472.779 Q655.066 470.253 655.066 466.034 Q655.066 461.112 658.348 458.612 Q661.655 456.112 668.191 456.112 L674.91 456.112 L674.91 455.644 Q674.91 452.336 672.723 450.539 Q670.561 448.717 666.629 448.717 Q664.129 448.717 661.759 449.316 Q659.389 449.914 657.202 451.112 L657.202 446.685 Q659.832 445.67 662.306 445.175 Q664.78 444.654 667.124 444.654 Q673.452 444.654 676.577 447.935 Q679.702 451.217 679.702 457.883 Z" fill="#000000" fill-rule="nonzero" fill-opacity="1" /></svg>
