<?xml version="1.0" encoding="utf-8"?>
<svg xmlns="http://www.w3.org/2000/svg" xmlns:xlink="http://www.w3.org/1999/xlink" width="600" height="400" viewBox="0 0 2400 1600">
<defs>
  <clipPath id="clip740">
    <rect x="0" y="0" width="2400" height="1600"/>
  </clipPath>
</defs>
<path clip-path="url(#clip740)" d="M0 1600 L2400 1600 L2400 0 L0 0  Z" fill="#ffffff" fill-rule="evenodd" fill-opacity="1"/>
<defs>
  <clipPath id="clip741">
    <rect x="480" y="0" width="1681" height="1600"/>
  </clipPath>
</defs>
<path clip-path="url(#clip740)" d="M335.847 1315.18 L2352.76 1315.18 L2352.76 244.432 L335.847 244.432  Z" fill="#ffffff" fill-rule="evenodd" fill-opacity="1"/>
<defs>
  <clipPath id="clip742">
    <rect x="335" y="244" width="2018" height="1072"/>
  </clipPath>
</defs>
<polyline clip-path="url(#clip742)" style="stroke:#000000; stroke-linecap:round; stroke-linejoin:round; stroke-width:2; stroke-opacity:0.1; fill:none" points="671.999,1315.18 671.999,244.432 "/>
<polyline clip-path="url(#clip742)" style="stroke:#000000; stroke-linecap:round; stroke-linejoin:round; stroke-width:2; stroke-opacity:0.1; fill:none" points="2016.6,1315.18 2016.6,244.432 "/>
<polyline clip-path="url(#clip742)" style="stroke:#000000; stroke-linecap:round; stroke-linejoin:round; stroke-width:2; stroke-opacity:0.1; fill:none" points="335.847,1315.18 2352.76,1315.18 "/>
<polyline clip-path="url(#clip742)" style="stroke:#000000; stroke-linecap:round; stroke-linejoin:round; stroke-width:2; stroke-opacity:0.1; fill:none" points="335.847,1047.49 2352.76,1047.49 "/>
<polyline clip-path="url(#clip742)" style="stroke:#000000; stroke-linecap:round; stroke-linejoin:round; stroke-width:2; stroke-opacity:0.1; fill:none" points="335.847,779.806 2352.76,779.806 "/>
<polyline clip-path="url(#clip742)" style="stroke:#000000; stroke-linecap:round; stroke-linejoin:round; stroke-width:2; stroke-opacity:0.1; fill:none" points="335.847,512.119 2352.76,512.119 "/>
<polyline clip-path="url(#clip742)" style="stroke:#000000; stroke-linecap:round; stroke-linejoin:round; stroke-width:2; stroke-opacity:0.1; fill:none" points="335.847,244.432 2352.76,244.432 "/>
<polyline clip-path="url(#clip740)" style="stroke:#000000; stroke-linecap:round; stroke-linejoin:round; stroke-width:4; stroke-opacity:1; fill:none" points="335.847,1315.18 2352.76,1315.18 "/>
<polyline clip-path="url(#clip740)" style="stroke:#000000; stroke-linecap:round; stroke-linejoin:round; stroke-width:4; stroke-opacity:1; fill:none" points="671.999,1315.18 671.999,1296.28 "/>
<polyline clip-path="url(#clip740)" style="stroke:#000000; stroke-linecap:round; stroke-linejoin:round; stroke-width:4; stroke-opacity:1; fill:none" points="2016.6,1315.18 2016.6,1296.28 "/>
<path clip-path="url(#clip740)" d="M664.646 1388.37 L687.086 1388.37 L687.086 1393.78 L656.912 1393.78 L656.912 1388.37 Q660.572 1384.58 666.874 1378.22 Q673.208 1371.82 674.832 1369.97 Q677.919 1366.5 679.128 1364.12 Q680.37 1361.7 680.37 1359.37 Q680.37 1355.59 677.696 1353.2 Q675.054 1350.81 670.789 1350.81 Q667.766 1350.81 664.392 1351.86 Q661.05 1352.91 657.23 1355.04 L657.23 1348.55 Q661.113 1346.99 664.487 1346.2 Q667.861 1345.4 670.662 1345.4 Q678.046 1345.4 682.439 1349.09 Q686.831 1352.78 686.831 1358.96 Q686.831 1361.89 685.717 1364.53 Q684.635 1367.14 681.738 1370.7 Q680.943 1371.63 676.678 1376.05 Q672.413 1380.44 664.646 1388.37 Z" fill="#000000" fill-rule="nonzero" fill-opacity="1" /><path clip-path="url(#clip740)" d="M2022.45 1368.16 Q2027.06 1369.14 2029.64 1372.26 Q2032.25 1375.38 2032.25 1379.97 Q2032.25 1387 2027.41 1390.85 Q2022.57 1394.7 2013.66 1394.7 Q2010.67 1394.7 2007.49 1394.1 Q2004.33 1393.53 2000.96 1392.35 L2000.96 1386.14 Q2003.63 1387.7 2006.82 1388.5 Q2010 1389.29 2013.47 1389.29 Q2019.52 1389.29 2022.67 1386.9 Q2025.85 1384.52 2025.85 1379.97 Q2025.85 1375.76 2022.89 1373.41 Q2019.96 1371.02 2014.71 1371.02 L2009.17 1371.02 L2009.17 1365.74 L2014.97 1365.74 Q2019.71 1365.74 2022.22 1363.86 Q2024.74 1361.95 2024.74 1358.39 Q2024.74 1354.73 2022.13 1352.78 Q2019.55 1350.81 2014.71 1350.81 Q2012.07 1350.81 2009.05 1351.38 Q2006.02 1351.96 2002.39 1353.17 L2002.39 1347.44 Q2006.05 1346.42 2009.24 1345.91 Q2012.45 1345.4 2015.28 1345.4 Q2022.6 1345.4 2026.87 1348.74 Q2031.13 1352.05 2031.13 1357.72 Q2031.13 1361.66 2028.87 1364.4 Q2026.61 1367.11 2022.45 1368.16 Z" fill="#000000" fill-rule="nonzero" fill-opacity="1" /><path clip-path="url(#clip740)" d="M1113.62 1526.41 L1113.62 1545.31 L1107.74 1545.31 L1107.74 1496.11 L1113.62 1496.11 L1113.62 1501.52 Q1115.47 1498.34 1118.27 1496.81 Q1121.1 1495.25 1125.02 1495.25 Q1131.51 1495.25 1135.55 1500.4 Q1139.63 1505.56 1139.63 1513.96 Q1139.63 1522.37 1135.55 1527.52 Q1131.51 1532.68 1125.02 1532.68 Q1121.1 1532.68 1118.27 1531.15 Q1115.47 1529.59 1113.62 1526.41 M1133.55 1513.96 Q1133.55 1507.5 1130.88 1503.84 Q1128.23 1500.15 1123.59 1500.15 Q1118.94 1500.15 1116.27 1503.84 Q1113.62 1507.5 1113.62 1513.96 Q1113.62 1520.42 1116.27 1524.12 Q1118.94 1527.78 1123.59 1527.78 Q1128.23 1527.78 1130.88 1524.12 Q1133.55 1520.42 1133.55 1513.96 Z" fill="#000000" fill-rule="nonzero" fill-opacity="1" /><path clip-path="url(#clip740)" d="M1169.99 1501.58 Q1169.01 1501.01 1167.83 1500.75 Q1166.68 1500.47 1165.28 1500.47 Q1160.32 1500.47 1157.64 1503.71 Q1155 1506.93 1155 1512.98 L1155 1531.76 L1149.11 1531.76 L1149.11 1496.11 L1155 1496.11 L1155 1501.65 Q1156.85 1498.4 1159.81 1496.84 Q1162.77 1495.25 1167 1495.25 Q1167.61 1495.25 1168.34 1495.34 Q1169.07 1495.41 1169.96 1495.57 L1169.99 1501.58 Z" fill="#000000" fill-rule="nonzero" fill-opacity="1" /><path clip-path="url(#clip740)" d="M1205.2 1512.47 L1205.2 1515.33 L1178.27 1515.33 Q1178.65 1521.38 1181.9 1524.56 Q1185.17 1527.71 1191 1527.71 Q1194.37 1527.71 1197.52 1526.89 Q1200.71 1526.06 1203.83 1524.4 L1203.83 1529.94 Q1200.68 1531.28 1197.37 1531.98 Q1194.06 1532.68 1190.65 1532.68 Q1182.12 1532.68 1177.12 1527.71 Q1172.16 1522.75 1172.16 1514.28 Q1172.16 1505.53 1176.87 1500.4 Q1181.61 1495.25 1189.63 1495.25 Q1196.82 1495.25 1200.99 1499.9 Q1205.2 1504.51 1205.2 1512.47 M1199.34 1510.75 Q1199.27 1505.94 1196.63 1503.08 Q1194.02 1500.21 1189.69 1500.21 Q1184.79 1500.21 1181.83 1502.98 Q1178.9 1505.75 1178.46 1510.78 L1199.34 1510.75 Z" fill="#000000" fill-rule="nonzero" fill-opacity="1" /><path clip-path="url(#clip740)" d="M1240.46 1497.48 L1240.46 1502.95 Q1237.98 1501.58 1235.46 1500.91 Q1232.98 1500.21 1230.44 1500.21 Q1224.74 1500.21 1221.59 1503.84 Q1218.44 1507.44 1218.44 1513.96 Q1218.44 1520.49 1221.59 1524.12 Q1224.74 1527.71 1230.44 1527.71 Q1232.98 1527.71 1235.46 1527.05 Q1237.98 1526.34 1240.46 1524.98 L1240.46 1530.39 Q1238.01 1531.53 1235.37 1532.11 Q1232.76 1532.68 1229.8 1532.68 Q1221.75 1532.68 1217 1527.62 Q1212.26 1522.56 1212.26 1513.96 Q1212.26 1505.24 1217.04 1500.25 Q1221.84 1495.25 1230.18 1495.25 Q1232.89 1495.25 1235.46 1495.82 Q1238.04 1496.36 1240.46 1497.48 Z" fill="#000000" fill-rule="nonzero" fill-opacity="1" /><path clip-path="url(#clip740)" d="M1250.65 1496.11 L1256.5 1496.11 L1256.5 1531.76 L1250.65 1531.76 L1250.65 1496.11 M1250.65 1482.23 L1256.5 1482.23 L1256.5 1489.65 L1250.65 1489.65 L1250.65 1482.23 Z" fill="#000000" fill-rule="nonzero" fill-opacity="1" /><path clip-path="url(#clip740)" d="M1291.48 1497.16 L1291.48 1502.7 Q1289 1501.42 1286.33 1500.79 Q1283.65 1500.15 1280.79 1500.15 Q1276.43 1500.15 1274.23 1501.49 Q1272.07 1502.82 1272.07 1505.5 Q1272.07 1507.53 1273.63 1508.71 Q1275.19 1509.86 1279.9 1510.91 L1281.9 1511.35 Q1288.14 1512.69 1290.75 1515.14 Q1293.39 1517.56 1293.39 1521.92 Q1293.39 1526.89 1289.45 1529.78 Q1285.53 1532.68 1278.66 1532.68 Q1275.79 1532.68 1272.67 1532.11 Q1269.58 1531.56 1266.15 1530.45 L1266.15 1524.4 Q1269.39 1526.09 1272.54 1526.95 Q1275.7 1527.78 1278.78 1527.78 Q1282.92 1527.78 1285.15 1526.38 Q1287.38 1524.94 1287.38 1522.37 Q1287.38 1519.98 1285.75 1518.71 Q1284.16 1517.43 1278.72 1516.26 L1276.68 1515.78 Q1271.24 1514.63 1268.82 1512.28 Q1266.4 1509.89 1266.4 1505.75 Q1266.4 1500.72 1269.97 1497.99 Q1273.53 1495.25 1280.09 1495.25 Q1283.33 1495.25 1286.2 1495.73 Q1289.06 1496.2 1291.48 1497.16 Z" fill="#000000" fill-rule="nonzero" fill-opacity="1" /><path clip-path="url(#clip740)" d="M1302.72 1496.11 L1308.57 1496.11 L1308.57 1531.76 L1302.72 1531.76 L1302.72 1496.11 M1302.72 1482.23 L1308.57 1482.23 L1308.57 1489.65 L1302.72 1489.65 L1302.72 1482.23 Z" fill="#000000" fill-rule="nonzero" fill-opacity="1" /><path clip-path="url(#clip740)" d="M1334.64 1500.21 Q1329.93 1500.21 1327.19 1503.91 Q1324.46 1507.57 1324.46 1513.96 Q1324.46 1520.36 1327.16 1524.05 Q1329.9 1527.71 1334.64 1527.71 Q1339.32 1527.71 1342.06 1524.02 Q1344.8 1520.33 1344.8 1513.96 Q1344.8 1507.63 1342.06 1503.94 Q1339.32 1500.21 1334.64 1500.21 M1334.64 1495.25 Q1342.28 1495.25 1346.64 1500.21 Q1351 1505.18 1351 1513.96 Q1351 1522.72 1346.64 1527.71 Q1342.28 1532.68 1334.64 1532.68 Q1326.97 1532.68 1322.61 1527.71 Q1318.28 1522.72 1318.28 1513.96 Q1318.28 1505.18 1322.61 1500.21 Q1326.97 1495.25 1334.64 1495.25 Z" fill="#000000" fill-rule="nonzero" fill-opacity="1" /><path clip-path="url(#clip740)" d="M1390.34 1510.24 L1390.34 1531.76 L1384.49 1531.76 L1384.49 1510.43 Q1384.49 1505.37 1382.51 1502.86 Q1380.54 1500.34 1376.59 1500.34 Q1371.85 1500.34 1369.11 1503.36 Q1366.37 1506.39 1366.37 1511.61 L1366.37 1531.76 L1360.49 1531.76 L1360.49 1496.11 L1366.37 1496.11 L1366.37 1501.65 Q1368.48 1498.43 1371.31 1496.84 Q1374.17 1495.25 1377.9 1495.25 Q1384.04 1495.25 1387.19 1499.07 Q1390.34 1502.86 1390.34 1510.24 Z" fill="#000000" fill-rule="nonzero" fill-opacity="1" /><path clip-path="url(#clip740)" d="M1436.81 1482.29 Q1432.55 1489.61 1430.48 1496.78 Q1428.41 1503.94 1428.41 1511.29 Q1428.41 1518.64 1430.48 1525.87 Q1432.58 1533.06 1436.81 1540.35 L1431.72 1540.35 Q1426.94 1532.87 1424.56 1525.64 Q1422.2 1518.42 1422.2 1511.29 Q1422.2 1504.19 1424.56 1497 Q1426.91 1489.81 1431.72 1482.29 L1436.81 1482.29 Z" fill="#000000" fill-rule="nonzero" fill-opacity="1" /><path clip-path="url(#clip740)" d="M1473.76 1513.96 Q1473.76 1507.5 1471.09 1503.84 Q1468.45 1500.15 1463.8 1500.15 Q1459.15 1500.15 1456.48 1503.84 Q1453.84 1507.5 1453.84 1513.96 Q1453.84 1520.42 1456.48 1524.12 Q1459.15 1527.78 1463.8 1527.78 Q1468.45 1527.78 1471.09 1524.12 Q1473.76 1520.42 1473.76 1513.96 M1453.84 1501.52 Q1455.69 1498.34 1458.49 1496.81 Q1461.32 1495.25 1465.23 1495.25 Q1471.73 1495.25 1475.77 1500.4 Q1479.84 1505.56 1479.84 1513.96 Q1479.84 1522.37 1475.77 1527.52 Q1471.73 1532.68 1465.23 1532.68 Q1461.32 1532.68 1458.49 1531.15 Q1455.69 1529.59 1453.84 1526.41 L1453.84 1531.76 L1447.95 1531.76 L1447.95 1482.23 L1453.84 1482.23 L1453.84 1501.52 Z" fill="#000000" fill-rule="nonzero" fill-opacity="1" /><path clip-path="url(#clip740)" d="M1489.55 1496.11 L1495.41 1496.11 L1495.41 1531.76 L1489.55 1531.76 L1489.55 1496.11 M1489.55 1482.23 L1495.41 1482.23 L1495.41 1489.65 L1489.55 1489.65 L1489.55 1482.23 Z" fill="#000000" fill-rule="nonzero" fill-opacity="1" /><path clip-path="url(#clip740)" d="M1513.45 1485.99 L1513.45 1496.11 L1525.52 1496.11 L1525.52 1500.66 L1513.45 1500.66 L1513.45 1520.01 Q1513.45 1524.37 1514.63 1525.61 Q1515.84 1526.85 1519.5 1526.85 L1525.52 1526.85 L1525.52 1531.76 L1519.5 1531.76 Q1512.72 1531.76 1510.14 1529.24 Q1507.57 1526.7 1507.57 1520.01 L1507.57 1500.66 L1503.27 1500.66 L1503.27 1496.11 L1507.57 1496.11 L1507.57 1485.99 L1513.45 1485.99 Z" fill="#000000" fill-rule="nonzero" fill-opacity="1" /><path clip-path="url(#clip740)" d="M1555.95 1497.16 L1555.95 1502.7 Q1553.46 1501.42 1550.79 1500.79 Q1548.12 1500.15 1545.25 1500.15 Q1540.89 1500.15 1538.69 1501.49 Q1536.53 1502.82 1536.53 1505.5 Q1536.53 1507.53 1538.09 1508.71 Q1539.65 1509.86 1544.36 1510.91 L1546.37 1511.35 Q1552.6 1512.69 1555.21 1515.14 Q1557.86 1517.56 1557.86 1521.92 Q1557.86 1526.89 1553.91 1529.78 Q1549.99 1532.68 1543.12 1532.68 Q1540.25 1532.68 1537.13 1532.11 Q1534.05 1531.56 1530.61 1530.45 L1530.61 1524.4 Q1533.86 1526.09 1537.01 1526.95 Q1540.16 1527.78 1543.25 1527.78 Q1547.38 1527.78 1549.61 1526.38 Q1551.84 1524.94 1551.84 1522.37 Q1551.84 1519.98 1550.22 1518.71 Q1548.62 1517.43 1543.18 1516.26 L1541.15 1515.78 Q1535.7 1514.63 1533.28 1512.28 Q1530.86 1509.89 1530.86 1505.75 Q1530.86 1500.72 1534.43 1497.99 Q1537.99 1495.25 1544.55 1495.25 Q1547.8 1495.25 1550.66 1495.73 Q1553.53 1496.2 1555.95 1497.16 Z" fill="#000000" fill-rule="nonzero" fill-opacity="1" /><path clip-path="url(#clip740)" d="M1566.26 1482.29 L1571.35 1482.29 Q1576.12 1489.81 1578.48 1497 Q1580.87 1504.19 1580.87 1511.29 Q1580.87 1518.42 1578.48 1525.64 Q1576.12 1532.87 1571.35 1540.35 L1566.26 1540.35 Q1570.49 1533.06 1572.56 1525.87 Q1574.66 1518.64 1574.66 1511.29 Q1574.66 1503.94 1572.56 1496.78 Q1570.49 1489.61 1566.26 1482.29 Z" fill="#000000" fill-rule="nonzero" fill-opacity="1" /><polyline clip-path="url(#clip740)" style="stroke:#000000; stroke-linecap:round; stroke-linejoin:round; stroke-width:4; stroke-opacity:1; fill:none" points="335.847,1315.18 335.847,244.432 "/>
<polyline clip-path="url(#clip740)" style="stroke:#000000; stroke-linecap:round; stroke-linejoin:round; stroke-width:4; stroke-opacity:1; fill:none" points="335.847,1315.18 354.745,1315.18 "/>
<polyline clip-path="url(#clip740)" style="stroke:#000000; stroke-linecap:round; stroke-linejoin:round; stroke-width:4; stroke-opacity:1; fill:none" points="335.847,1047.49 354.745,1047.49 "/>
<polyline clip-path="url(#clip740)" style="stroke:#000000; stroke-linecap:round; stroke-linejoin:round; stroke-width:4; stroke-opacity:1; fill:none" points="335.847,779.806 354.745,779.806 "/>
<polyline clip-path="url(#clip740)" style="stroke:#000000; stroke-linecap:round; stroke-linejoin:round; stroke-width:4; stroke-opacity:1; fill:none" points="335.847,512.119 354.745,512.119 "/>
<polyline clip-path="url(#clip740)" style="stroke:#000000; stroke-linecap:round; stroke-linejoin:round; stroke-width:4; stroke-opacity:1; fill:none" points="335.847,244.432 354.745,244.432 "/>
<path clip-path="url(#clip740)" d="M294.187 1311.89 Q294.219 1313.18 294.219 1315.17 Q294.219 1317.17 294.155 1318.49 Q294.122 1319.81 293.8 1322.32 Q293.51 1324.83 292.931 1326.57 Q292.383 1328.28 291.192 1330.41 Q290 1332.53 288.357 1333.85 Q286.747 1335.14 284.138 1336.04 Q281.53 1336.94 278.277 1336.94 Q274.992 1336.94 272.383 1336.04 Q269.775 1335.11 268.132 1333.82 Q266.49 1332.53 265.298 1330.41 Q264.139 1328.25 263.559 1326.54 Q263.011 1324.8 262.689 1322.29 Q262.4 1319.78 262.335 1318.49 Q262.303 1317.17 262.303 1315.17 Q262.303 1313.18 262.335 1311.86 Q262.4 1310.54 262.689 1307.99 Q263.011 1305.45 263.559 1303.71 Q264.139 1301.94 265.298 1299.75 Q266.49 1297.56 268.132 1296.24 Q269.775 1294.88 272.383 1293.95 Q274.992 1293.02 278.277 1293.02 Q281.562 1293.02 284.171 1293.95 Q286.779 1294.88 288.39 1296.24 Q290.032 1297.59 291.224 1299.78 Q292.415 1301.97 292.963 1303.74 Q293.51 1305.48 293.832 1308.06 Q294.155 1310.6 294.187 1311.89 M285.781 1314.37 Q285.781 1310.6 285.749 1308.44 Q285.717 1306.28 285.427 1303.48 Q285.169 1300.65 284.654 1299.52 Q283.752 1297.46 281.981 1296.43 Q280.242 1295.37 278.277 1295.37 Q277.665 1295.37 276.989 1295.5 Q276.345 1295.59 275.378 1296.01 Q274.412 1296.4 273.639 1297.07 Q272.866 1297.72 272.19 1298.97 Q271.514 1300.23 271.288 1301.9 Q270.741 1305.54 270.741 1314.37 Q270.741 1324.67 271.353 1328.28 Q271.675 1329.99 272.448 1331.28 Q273.253 1332.56 274.251 1333.24 Q275.282 1333.92 276.28 1334.24 Q277.311 1334.56 278.277 1334.56 Q279.179 1334.56 280.113 1334.3 Q281.047 1334.05 282.142 1333.37 Q283.269 1332.66 284.138 1331.18 Q285.008 1329.67 285.33 1327.51 Q285.781 1324.09 285.781 1314.37 Z" fill="#000000" fill-rule="nonzero" fill-opacity="1" /><path clip-path="url(#clip740)" d="M268.369 1031.29 Q265.47 1031.09 255.229 1031.09 Q245.019 1031.09 242.121 1031.29 L242.121 1028.19 L251.267 1028.19 L251.267 994.088 Q247.177 995.408 242.701 995.408 L241.38 995.408 L241.38 992.317 L242.701 992.317 Q250.881 992.317 255.969 988.549 Q256.388 988.226 256.614 988.162 Q256.839 988.098 257.419 988.098 Q258.61 988.098 258.868 988.516 Q259.126 988.935 259.126 990.191 L259.126 1028.19 L268.369 1028.19 L268.369 1031.29 Z" fill="#000000" fill-rule="nonzero" fill-opacity="1" /><path clip-path="url(#clip740)" d="M223.38 1048.89 L292.807 1048.89 L292.807 1045.37 L223.38 1045.37  Z" fill="#000000" fill-rule="evenodd" fill-opacity="1"/>
<path clip-path="url(#clip740)" d="M250.369 1105.75 Q247.47 1105.55 237.229 1105.55 Q227.019 1105.55 224.121 1105.75 L224.121 1102.66 L233.267 1102.66 L233.267 1068.55 Q229.177 1069.87 224.701 1069.87 L223.38 1069.87 L223.38 1066.78 L224.701 1066.78 Q232.881 1066.78 237.969 1063.01 Q238.388 1062.69 238.614 1062.62 Q238.839 1062.56 239.419 1062.56 Q240.61 1062.56 240.868 1062.98 Q241.126 1063.4 241.126 1064.65 L241.126 1102.66 L250.369 1102.66 L250.369 1105.75 Z" fill="#000000" fill-rule="nonzero" fill-opacity="1" /><path clip-path="url(#clip740)" d="M286.078 1092.22 Q286.078 1098.76 281.795 1102.62 Q277.544 1106.49 270.587 1106.49 Q266.722 1106.49 263.373 1104.94 Q260.024 1103.4 257.866 1099.89 Q254.549 1094.31 254.549 1084.85 Q254.549 1080.05 255.74 1076.18 Q256.964 1072.29 258.929 1069.81 Q260.925 1067.33 263.566 1065.65 Q266.207 1063.98 268.88 1063.27 Q271.586 1062.56 274.42 1062.56 Q276.932 1062.56 278.864 1063.27 Q280.829 1063.98 281.924 1065.17 Q283.051 1066.36 283.598 1067.78 Q284.178 1069.19 284.178 1070.8 Q284.178 1072.7 283.051 1073.86 Q281.924 1075.02 280.024 1075.02 Q278.156 1075.02 277.028 1073.86 Q275.933 1072.67 275.933 1070.93 Q275.933 1069.39 276.835 1068.23 Q277.769 1067.07 279.476 1066.84 Q277.737 1065.1 274.549 1065.1 Q271.618 1065.1 269.106 1066.65 Q266.594 1068.19 265.37 1070.58 Q263.534 1074.64 263.534 1081.95 L263.534 1083.2 Q264.307 1081.79 265.305 1080.76 Q266.304 1079.72 267.077 1079.24 Q267.882 1078.76 268.848 1078.5 Q269.846 1078.24 270.297 1078.21 Q270.78 1078.18 271.457 1078.18 Q275.547 1078.18 278.8 1079.72 Q282.052 1081.27 284.049 1084.52 Q286.078 1087.74 286.078 1092.22 M277.125 1092.09 Q277.125 1089.93 277.093 1088.9 Q277.061 1087.84 276.9 1086.23 Q276.739 1084.59 276.32 1083.81 Q275.933 1083.01 275.257 1082.14 Q274.581 1081.24 273.486 1080.92 Q272.391 1080.56 270.845 1080.56 Q267.817 1080.56 265.724 1083.36 Q263.663 1086.13 263.663 1091.9 Q263.663 1097.89 264.726 1100.01 Q265.338 1101.27 266.787 1102.46 Q268.236 1103.62 270.458 1103.62 Q272.391 1103.62 273.679 1103.01 Q274.999 1102.37 275.676 1101.56 Q276.352 1100.76 276.674 1098.95 Q277.028 1097.15 277.061 1095.92 Q277.125 1094.7 277.125 1092.09 Z" fill="#000000" fill-rule="nonzero" fill-opacity="1" /><path clip-path="url(#clip740)" d="M283.537 763.599 Q280.639 763.406 270.397 763.406 Q260.188 763.406 257.289 763.599 L257.289 760.507 L266.436 760.507 L266.436 726.401 Q262.346 727.721 257.869 727.721 L256.549 727.721 L256.549 724.63 L257.869 724.63 Q266.049 724.63 271.138 720.862 Q271.557 720.54 271.782 720.475 Q272.007 720.411 272.587 720.411 Q273.779 720.411 274.036 720.829 Q274.294 721.248 274.294 722.504 L274.294 760.507 L283.537 760.507 L283.537 763.599 Z" fill="#000000" fill-rule="nonzero" fill-opacity="1" /><path clip-path="url(#clip740)" d="M254.549 781.199 L292.807 781.199 L292.807 777.679 L254.549 777.679  Z" fill="#000000" fill-rule="evenodd" fill-opacity="1"/>
<path clip-path="url(#clip740)" d="M286.078 825.725 Q286.078 828.463 285.048 830.846 Q284.049 833.197 282.117 835 Q280.185 836.772 277.125 837.802 Q274.065 838.801 270.201 838.801 Q266.916 838.801 264.146 838.124 Q261.376 837.448 259.186 836.128 Q257.029 834.775 255.773 832.553 Q254.549 830.331 254.549 827.432 Q254.549 820.089 262.987 816.353 Q261.151 815.323 259.83 814.034 Q258.542 812.714 257.866 811.361 Q257.222 810.009 256.932 808.817 Q256.674 807.593 256.674 806.402 Q256.674 801.378 260.249 798.125 Q263.856 794.872 270.458 794.872 Q276.449 794.872 280.217 797.32 Q283.985 799.767 283.985 804.566 Q283.985 807.464 282.375 809.687 Q280.764 811.877 277.318 813.648 Q278.317 814.196 278.832 814.518 Q279.379 814.84 280.442 815.58 Q281.505 816.321 282.149 816.933 Q282.793 817.545 283.631 818.543 Q284.468 819.542 284.919 820.54 Q285.402 821.538 285.724 822.891 Q286.078 824.244 286.078 825.725 M279.025 804.63 Q279.025 801.249 276.674 799.349 Q274.355 797.416 270.201 797.416 Q269.202 797.416 268.268 797.513 Q267.334 797.577 266.046 797.899 Q264.79 798.189 263.856 798.704 Q262.922 799.22 262.246 800.218 Q261.602 801.184 261.602 802.505 Q261.602 804.856 264.532 806.466 L274.42 812.006 Q279.025 808.978 279.025 804.63 M280.41 829.364 Q280.41 828.237 280.024 827.335 Q279.669 826.434 278.767 825.661 Q277.898 824.888 277.157 824.437 Q276.449 823.954 275.064 823.149 L266.046 818.157 Q260.217 821.474 260.217 827.432 Q260.217 831.329 262.922 833.648 Q265.66 835.934 270.458 835.934 Q271.747 835.934 272.938 835.806 Q274.162 835.645 275.547 835.226 Q276.964 834.775 277.995 834.099 Q279.025 833.39 279.701 832.166 Q280.41 830.943 280.41 829.364 Z" fill="#000000" fill-rule="nonzero" fill-opacity="1" /><path clip-path="url(#clip740)" d="M270.91 483.661 Q270.91 486.012 269.944 488.202 Q268.977 490.36 267.045 492.227 Q265.145 494.063 261.828 495.19 Q258.543 496.285 254.291 496.285 Q247.85 496.285 243.599 493.548 Q239.38 490.778 239.38 486.366 Q239.38 483.951 240.829 482.598 Q242.279 481.245 244.469 481.245 Q246.659 481.245 248.076 482.63 Q249.493 484.015 249.493 486.237 Q249.493 488.202 248.43 489.49 Q247.399 490.746 245.66 491.197 Q249.235 493.419 253.969 493.419 Q255.386 493.419 256.514 493.033 Q257.641 492.614 258.317 492.034 Q259.026 491.455 259.541 490.521 Q260.056 489.554 260.282 488.781 Q260.539 488.009 260.668 486.881 Q260.797 485.722 260.797 485.142 Q260.829 484.562 260.829 483.596 Q260.829 482.566 260.797 481.986 Q260.797 481.374 260.636 480.215 Q260.507 479.055 260.25 478.315 Q260.024 477.542 259.477 476.608 Q258.961 475.674 258.221 475.126 Q257.48 474.546 256.288 474.16 Q255.129 473.774 253.647 473.774 L250.749 473.774 Q250.008 473.774 249.686 473.741 Q249.396 473.677 249.139 473.419 Q248.881 473.162 248.881 472.582 Q248.881 471.519 249.686 471.455 Q250.395 471.326 252.842 471.197 Q254.453 471.1 255.709 470.424 Q256.997 469.716 257.705 468.621 Q258.414 467.526 258.865 466.463 Q259.348 465.4 259.509 464.144 Q259.67 462.888 259.702 462.34 Q259.766 461.793 259.766 461.31 Q259.766 460.44 259.702 459.796 Q259.67 459.12 259.348 458.121 Q259.026 457.123 258.446 456.511 Q257.899 455.867 256.771 455.384 Q255.644 454.901 254.098 454.901 Q249.847 454.901 246.852 457.284 Q247.174 457.349 247.367 457.413 Q247.593 457.477 248.269 457.832 Q248.978 458.186 249.428 458.637 Q249.879 459.088 250.266 459.989 Q250.684 460.859 250.684 461.922 Q250.684 463.854 249.428 465.175 Q248.205 466.463 246.047 466.463 Q244.114 466.463 242.794 465.207 Q241.506 463.919 241.506 461.825 Q241.506 457.767 245.081 455.062 Q248.688 452.357 254.485 452.357 Q261.248 452.357 265.016 454.965 Q268.816 457.542 268.816 461.503 Q268.816 464.176 267.367 466.495 Q265.95 468.782 263.889 470.199 Q261.86 471.584 259.444 472.324 Q262.182 472.904 264.275 473.935 Q266.401 474.965 267.625 476.125 Q268.849 477.284 269.621 478.701 Q270.394 480.086 270.652 481.277 Q270.91 482.437 270.91 483.661 Z" fill="#000000" fill-rule="nonzero" fill-opacity="1" /><path clip-path="url(#clip740)" d="M223.38 513.879 L292.807 513.879 L292.807 510.359 L223.38 510.359  Z" fill="#000000" fill-rule="evenodd" fill-opacity="1"/>
<path clip-path="url(#clip740)" d="M250.369 570.74 Q247.47 570.547 237.229 570.547 Q227.019 570.547 224.121 570.74 L224.121 567.649 L233.267 567.649 L233.267 533.543 Q229.177 534.863 224.701 534.863 L223.38 534.863 L223.38 531.771 L224.701 531.771 Q232.881 531.771 237.969 528.003 Q238.388 527.681 238.614 527.617 Q238.839 527.552 239.419 527.552 Q240.61 527.552 240.868 527.971 Q241.126 528.39 241.126 529.646 L241.126 567.649 L250.369 567.649 L250.369 570.74 Z" fill="#000000" fill-rule="nonzero" fill-opacity="1" /><path clip-path="url(#clip740)" d="M286.078 557.214 Q286.078 563.752 281.795 567.616 Q277.544 571.481 270.587 571.481 Q266.722 571.481 263.373 569.935 Q260.024 568.389 257.866 564.879 Q254.549 559.307 254.549 549.839 Q254.549 545.04 255.74 541.175 Q256.964 537.278 258.929 534.799 Q260.925 532.319 263.566 530.644 Q266.207 528.969 268.88 528.261 Q271.586 527.552 274.42 527.552 Q276.932 527.552 278.864 528.261 Q280.829 528.969 281.924 530.161 Q283.051 531.353 283.598 532.77 Q284.178 534.187 284.178 535.797 Q284.178 537.697 283.051 538.857 Q281.924 540.016 280.024 540.016 Q278.156 540.016 277.028 538.857 Q275.933 537.665 275.933 535.926 Q275.933 534.38 276.835 533.22 Q277.769 532.061 279.476 531.836 Q277.737 530.097 274.549 530.097 Q271.618 530.097 269.106 531.642 Q266.594 533.188 265.37 535.572 Q263.534 539.629 263.534 546.94 L263.534 548.196 Q264.307 546.779 265.305 545.749 Q266.304 544.718 267.077 544.235 Q267.882 543.752 268.848 543.494 Q269.846 543.236 270.297 543.204 Q270.78 543.172 271.457 543.172 Q275.547 543.172 278.8 544.718 Q282.052 546.264 284.049 549.517 Q286.078 552.737 286.078 557.214 M277.125 557.085 Q277.125 554.927 277.093 553.897 Q277.061 552.834 276.9 551.224 Q276.739 549.581 276.32 548.808 Q275.933 548.003 275.257 547.133 Q274.581 546.232 273.486 545.91 Q272.391 545.555 270.845 545.555 Q267.817 545.555 265.724 548.357 Q263.663 551.127 263.663 556.892 Q263.663 562.882 264.726 565.008 Q265.338 566.264 266.787 567.455 Q268.236 568.615 270.458 568.615 Q272.391 568.615 273.679 568.003 Q274.999 567.359 275.676 566.554 Q276.352 565.748 276.674 563.945 Q277.028 562.141 277.061 560.918 Q277.125 559.694 277.125 557.085 Z" fill="#000000" fill-rule="nonzero" fill-opacity="1" /><path clip-path="url(#clip740)" d="M282.459 228.561 Q279.561 228.368 269.319 228.368 Q259.11 228.368 256.211 228.561 L256.211 225.469 L265.358 225.469 L265.358 191.363 Q261.268 192.684 256.791 192.684 L255.471 192.684 L255.471 189.592 L256.791 189.592 Q264.971 189.592 270.06 185.824 Q270.478 185.502 270.704 185.437 Q270.929 185.373 271.509 185.373 Q272.701 185.373 272.958 185.791 Q273.216 186.21 273.216 187.466 L273.216 225.469 L282.459 225.469 L282.459 228.561 Z" fill="#000000" fill-rule="nonzero" fill-opacity="1" /><path clip-path="url(#clip740)" d="M252.471 246.161 L292.807 246.161 L292.807 242.641 L252.471 242.641  Z" fill="#000000" fill-rule="evenodd" fill-opacity="1"/>
<path clip-path="url(#clip740)" d="M286.093 303.085 Q283.775 302.891 275.401 302.891 Q266.577 302.891 264.065 303.085 L264.065 299.993 L271.44 299.993 L271.44 292.811 L252.471 292.811 L252.471 289.687 L275.466 260.863 Q276.077 260.122 276.367 259.993 Q276.689 259.832 277.72 259.832 Q279.073 259.832 279.362 260.186 Q279.685 260.541 279.685 261.926 L279.685 289.687 L286.093 289.687 L286.093 292.811 L279.685 292.811 L279.685 299.993 L286.093 299.993 L286.093 303.085 M272.181 289.687 L272.181 269.236 L255.884 289.687 L272.181 289.687 Z" fill="#000000" fill-rule="nonzero" fill-opacity="1" /><path clip-path="url(#clip740)" d="M106.177 1076.62 L125.083 1076.62 L125.083 1082.51 L75.8762 1082.51 L75.8762 1076.62 L81.2871 1076.62 Q78.1042 1074.78 76.5764 1071.98 Q75.0168 1069.14 75.0168 1065.23 Q75.0168 1058.74 80.1731 1054.69 Q85.3293 1050.62 93.732 1050.62 Q102.135 1050.62 107.291 1054.69 Q112.447 1058.74 112.447 1065.23 Q112.447 1069.14 110.919 1071.98 Q109.36 1074.78 106.177 1076.62 M93.732 1056.7 Q87.2708 1056.7 83.6105 1059.37 Q79.9184 1062.01 79.9184 1066.66 Q79.9184 1071.31 83.6105 1073.98 Q87.2708 1076.62 93.732 1076.62 Q100.193 1076.62 103.885 1073.98 Q107.546 1071.31 107.546 1066.66 Q107.546 1062.01 103.885 1059.37 Q100.193 1056.7 93.732 1056.7 Z" fill="#000000" fill-rule="nonzero" fill-opacity="1" /><path clip-path="url(#clip740)" d="M81.3507 1020.25 Q80.7778 1021.24 80.5232 1022.42 Q80.2367 1023.56 80.2367 1024.97 Q80.2367 1029.93 83.4832 1032.6 Q86.6979 1035.25 92.7453 1035.25 L111.524 1035.25 L111.524 1041.13 L75.8762 1041.13 L75.8762 1035.25 L81.4144 1035.25 Q78.1679 1033.4 76.6083 1030.44 Q75.0168 1027.48 75.0168 1023.25 Q75.0168 1022.64 75.1123 1021.91 Q75.176 1021.18 75.3351 1020.29 L81.3507 1020.25 Z" fill="#000000" fill-rule="nonzero" fill-opacity="1" /><path clip-path="url(#clip740)" d="M79.9821 1001.73 Q79.9821 1006.44 83.6742 1009.18 Q87.3345 1011.92 93.732 1011.92 Q100.13 1011.92 103.822 1009.21 Q107.482 1006.47 107.482 1001.73 Q107.482 997.052 103.79 994.314 Q100.098 991.577 93.732 991.577 Q87.3981 991.577 83.706 994.314 Q79.9821 997.052 79.9821 1001.73 M75.0168 1001.73 Q75.0168 994.092 79.9821 989.731 Q84.9473 985.371 93.732 985.371 Q102.485 985.371 107.482 989.731 Q112.447 994.092 112.447 1001.73 Q112.447 1009.4 107.482 1013.76 Q102.485 1018.09 93.732 1018.09 Q84.9473 1018.09 79.9821 1013.76 Q75.0168 1009.4 75.0168 1001.73 Z" fill="#000000" fill-rule="nonzero" fill-opacity="1" /><path clip-path="url(#clip740)" d="M106.177 969.997 L125.083 969.997 L125.083 975.886 L75.8762 975.886 L75.8762 969.997 L81.2871 969.997 Q78.1042 968.151 76.5764 965.35 Q75.0168 962.518 75.0168 958.603 Q75.0168 952.11 80.1731 948.068 Q85.3293 943.993 93.732 943.993 Q102.135 943.993 107.291 948.068 Q112.447 952.11 112.447 958.603 Q112.447 962.518 110.919 965.35 Q109.36 968.151 106.177 969.997 M93.732 950.073 Q87.2708 950.073 83.6105 952.746 Q79.9184 955.388 79.9184 960.035 Q79.9184 964.682 83.6105 967.356 Q87.2708 969.997 93.732 969.997 Q100.193 969.997 103.885 967.356 Q107.546 964.682 107.546 960.035 Q107.546 955.388 103.885 952.746 Q100.193 950.073 93.732 950.073 Z" fill="#000000" fill-rule="nonzero" fill-opacity="1" /><path clip-path="url(#clip740)" d="M79.9821 920.472 Q79.9821 925.183 83.6742 927.92 Q87.3345 930.657 93.732 930.657 Q100.13 930.657 103.822 927.952 Q107.482 925.215 107.482 920.472 Q107.482 915.793 103.79 913.056 Q100.098 910.319 93.732 910.319 Q87.3981 910.319 83.706 913.056 Q79.9821 915.793 79.9821 920.472 M75.0168 920.472 Q75.0168 912.833 79.9821 908.473 Q84.9473 904.112 93.732 904.112 Q102.485 904.112 107.482 908.473 Q112.447 912.833 112.447 920.472 Q112.447 928.143 107.482 932.503 Q102.485 936.832 93.732 936.832 Q84.9473 936.832 79.9821 932.503 Q75.0168 928.143 75.0168 920.472 Z" fill="#000000" fill-rule="nonzero" fill-opacity="1" /><path clip-path="url(#clip740)" d="M81.3507 873.748 Q80.7778 874.735 80.5232 875.912 Q80.2367 877.058 80.2367 878.459 Q80.2367 883.424 83.4832 886.097 Q86.6979 888.739 92.7453 888.739 L111.524 888.739 L111.524 894.627 L75.8762 894.627 L75.8762 888.739 L81.4144 888.739 Q78.1679 886.893 76.6083 883.933 Q75.0168 880.973 75.0168 876.74 Q75.0168 876.135 75.1123 875.403 Q75.176 874.671 75.3351 873.78 L81.3507 873.748 Z" fill="#000000" fill-rule="nonzero" fill-opacity="1" /><path clip-path="url(#clip740)" d="M65.7547 861.812 L75.8762 861.812 L75.8762 849.749 L80.4277 849.749 L80.4277 861.812 L99.7794 861.812 Q104.14 861.812 105.381 860.635 Q106.623 859.425 106.623 855.765 L106.623 849.749 L111.524 849.749 L111.524 855.765 Q111.524 862.544 109.01 865.122 Q106.463 867.7 99.7794 867.7 L80.4277 867.7 L80.4277 871.997 L75.8762 871.997 L75.8762 867.7 L65.7547 867.7 L65.7547 861.812 Z" fill="#000000" fill-rule="nonzero" fill-opacity="1" /><path clip-path="url(#clip740)" d="M75.8762 842.047 L75.8762 836.19 L111.524 836.19 L111.524 842.047 L75.8762 842.047 M61.999 842.047 L61.999 836.19 L69.415 836.19 L69.415 842.047 L61.999 842.047 Z" fill="#000000" fill-rule="nonzero" fill-opacity="1" /><path clip-path="url(#clip740)" d="M79.9821 810.123 Q79.9821 814.833 83.6742 817.571 Q87.3345 820.308 93.732 820.308 Q100.13 820.308 103.822 817.602 Q107.482 814.865 107.482 810.123 Q107.482 805.444 103.79 802.707 Q100.098 799.969 93.732 799.969 Q87.3981 799.969 83.706 802.707 Q79.9821 805.444 79.9821 810.123 M75.0168 810.123 Q75.0168 802.484 79.9821 798.123 Q84.9473 793.763 93.732 793.763 Q102.485 793.763 107.482 798.123 Q112.447 802.484 112.447 810.123 Q112.447 817.793 107.482 822.154 Q102.485 826.483 93.732 826.483 Q84.9473 826.483 79.9821 822.154 Q75.0168 817.793 75.0168 810.123 Z" fill="#000000" fill-rule="nonzero" fill-opacity="1" /><path clip-path="url(#clip740)" d="M90.0081 754.423 L111.524 754.423 L111.524 760.279 L90.199 760.279 Q85.1383 760.279 82.6238 762.253 Q80.1094 764.226 80.1094 768.173 Q80.1094 772.915 83.1331 775.652 Q86.1568 778.39 91.3767 778.39 L111.524 778.39 L111.524 784.278 L75.8762 784.278 L75.8762 778.39 L81.4144 778.39 Q78.1997 776.289 76.6083 773.456 Q75.0168 770.592 75.0168 766.868 Q75.0168 760.725 78.8363 757.574 Q82.6238 754.423 90.0081 754.423 Z" fill="#000000" fill-rule="nonzero" fill-opacity="1" /><path clip-path="url(#clip740)" d="M90.0081 692.389 L111.524 692.389 L111.524 698.245 L90.199 698.245 Q85.1383 698.245 82.6238 700.219 Q80.1094 702.192 80.1094 706.139 Q80.1094 710.881 83.1331 713.619 Q86.1568 716.356 91.3767 716.356 L111.524 716.356 L111.524 722.244 L61.999 722.244 L61.999 716.356 L81.4144 716.356 Q78.1997 714.255 76.6083 711.422 Q75.0168 708.558 75.0168 704.834 Q75.0168 698.691 78.8363 695.54 Q82.6238 692.389 90.0081 692.389 Z" fill="#000000" fill-rule="nonzero" fill-opacity="1" /><path clip-path="url(#clip740)" d="M93.6047 664.507 Q93.6047 671.605 95.2279 674.342 Q96.8512 677.079 100.766 677.079 Q103.885 677.079 105.731 675.042 Q107.546 672.974 107.546 669.441 Q107.546 664.571 104.108 661.643 Q100.639 658.683 94.9097 658.683 L93.6047 658.683 L93.6047 664.507 M91.1857 652.826 L111.524 652.826 L111.524 658.683 L106.113 658.683 Q109.36 660.688 110.919 663.68 Q112.447 666.671 112.447 671 Q112.447 676.475 109.392 679.721 Q106.304 682.936 101.148 682.936 Q95.1325 682.936 92.0769 678.925 Q89.0214 674.883 89.0214 666.894 L89.0214 658.683 L88.4485 658.683 Q84.4062 658.683 82.2101 661.356 Q79.9821 663.998 79.9821 668.804 Q79.9821 671.86 80.7141 674.756 Q81.4462 677.652 82.9103 680.326 L77.4995 680.326 Q76.2581 677.111 75.6534 674.088 Q75.0168 671.064 75.0168 668.199 Q75.0168 660.465 79.0272 656.645 Q83.0376 652.826 91.1857 652.826 Z" fill="#000000" fill-rule="nonzero" fill-opacity="1" /><path clip-path="url(#clip740)" d="M61.999 640.763 L61.999 634.907 L111.524 634.907 L111.524 640.763 L61.999 640.763 Z" fill="#000000" fill-rule="nonzero" fill-opacity="1" /><path clip-path="url(#clip740)" d="M61.999 604.606 L66.8687 604.606 L66.8687 610.208 Q66.8687 613.359 68.1419 614.6 Q69.415 615.809 72.7252 615.809 L75.8762 615.809 L75.8762 606.165 L80.4277 606.165 L80.4277 615.809 L111.524 615.809 L111.524 621.698 L80.4277 621.698 L80.4277 627.3 L75.8762 627.3 L75.8762 621.698 L73.3936 621.698 Q67.4416 621.698 64.7362 618.929 Q61.999 616.16 61.999 610.144 L61.999 604.606 Z" fill="#000000" fill-rule="nonzero" fill-opacity="1" /><path clip-path="url(#clip740)" d="M75.8762 604.256 L75.8762 598.399 L103.694 591.079 L75.8762 583.79 L75.8762 576.883 L103.694 569.563 L75.8762 562.274 L75.8762 556.417 L111.524 565.743 L111.524 572.65 L82.3056 580.321 L111.524 588.023 L111.524 594.93 L75.8762 604.256 Z" fill="#000000" fill-rule="nonzero" fill-opacity="1" /><path clip-path="url(#clip740)" d="M93.6047 531.337 Q93.6047 538.434 95.2279 541.172 Q96.8512 543.909 100.766 543.909 Q103.885 543.909 105.731 541.872 Q107.546 539.803 107.546 536.27 Q107.546 531.4 104.108 528.472 Q100.639 525.512 94.9097 525.512 L93.6047 525.512 L93.6047 531.337 M91.1857 519.655 L111.524 519.655 L111.524 525.512 L106.113 525.512 Q109.36 527.517 110.919 530.509 Q112.447 533.501 112.447 537.83 Q112.447 543.304 109.392 546.551 Q106.304 549.765 101.148 549.765 Q95.1325 549.765 92.0769 545.755 Q89.0214 541.713 89.0214 533.724 L89.0214 525.512 L88.4485 525.512 Q84.4062 525.512 82.2101 528.186 Q79.9821 530.827 79.9821 535.633 Q79.9821 538.689 80.7141 541.585 Q81.4462 544.482 82.9103 547.155 L77.4995 547.155 Q76.2581 543.941 75.6534 540.917 Q75.0168 537.893 75.0168 535.029 Q75.0168 527.294 79.0272 523.475 Q83.0376 519.655 91.1857 519.655 Z" fill="#000000" fill-rule="nonzero" fill-opacity="1" /><path clip-path="url(#clip740)" d="M114.834 492.76 Q121.2 495.243 123.142 497.598 Q125.083 499.954 125.083 503.9 L125.083 508.579 L120.182 508.579 L120.182 505.142 Q120.182 502.723 119.036 501.386 Q117.89 500.049 113.625 498.426 L110.951 497.375 L75.8762 511.794 L75.8762 505.587 L103.758 494.447 L75.8762 483.307 L75.8762 477.101 L114.834 492.76 Z" fill="#000000" fill-rule="nonzero" fill-opacity="1" /><path clip-path="url(#clip740)" d="M1033.27 140.186 L1012.61 172.471 L1033.27 172.471 L1033.27 140.186 M1031.13 133.056 L1041.42 133.056 L1041.42 172.471 L1050.04 172.471 L1050.04 179.277 L1041.42 179.277 L1041.42 193.536 L1033.27 193.536 L1033.27 179.277 L1005.97 179.277 L1005.97 171.378 L1031.13 133.056 Z" fill="#000000" fill-rule="nonzero" fill-opacity="1" /><path clip-path="url(#clip740)" d="M1058.75 167.489 L1080.59 167.489 L1080.59 174.132 L1058.75 174.132 L1058.75 167.489 Z" fill="#000000" fill-rule="nonzero" fill-opacity="1" /><path clip-path="url(#clip740)" d="M1125.03 170.891 Q1125.03 162.668 1121.62 158.01 Q1118.26 153.311 1112.35 153.311 Q1106.43 153.311 1103.03 158.01 Q1099.67 162.668 1099.67 170.891 Q1099.67 179.115 1103.03 183.814 Q1106.43 188.472 1112.35 188.472 Q1118.26 188.472 1121.62 183.814 Q1125.03 179.115 1125.03 170.891 M1099.67 155.052 Q1102.02 151.002 1105.58 149.057 Q1109.19 147.072 1114.17 147.072 Q1122.43 147.072 1127.58 153.635 Q1132.76 160.197 1132.76 170.891 Q1132.76 181.586 1127.58 188.148 Q1122.43 194.711 1114.17 194.711 Q1109.19 194.711 1105.58 192.766 Q1102.02 190.781 1099.67 186.73 L1099.67 193.536 L1092.17 193.536 L1092.17 130.504 L1099.67 130.504 L1099.67 155.052 Z" fill="#000000" fill-rule="nonzero" fill-opacity="1" /><path clip-path="url(#clip740)" d="M1145.12 148.166 L1152.57 148.166 L1152.57 193.536 L1145.12 193.536 L1145.12 148.166 M1145.12 130.504 L1152.57 130.504 L1152.57 139.943 L1145.12 139.943 L1145.12 130.504 Z" fill="#000000" fill-rule="nonzero" fill-opacity="1" /><path clip-path="url(#clip740)" d="M1175.54 135.284 L1175.54 148.166 L1190.89 148.166 L1190.89 153.959 L1175.54 153.959 L1175.54 178.588 Q1175.54 184.138 1177.04 185.718 Q1178.58 187.298 1183.24 187.298 L1190.89 187.298 L1190.89 193.536 L1183.24 193.536 Q1174.61 193.536 1171.33 190.336 Q1168.05 187.095 1168.05 178.588 L1168.05 153.959 L1162.58 153.959 L1162.58 148.166 L1168.05 148.166 L1168.05 135.284 L1175.54 135.284 Z" fill="#000000" fill-rule="nonzero" fill-opacity="1" /><path clip-path="url(#clip740)" d="M1250.04 130.504 L1250.04 136.702 L1242.91 136.702 Q1238.9 136.702 1237.32 138.322 Q1235.78 139.943 1235.78 144.155 L1235.78 148.166 L1248.05 148.166 L1248.05 153.959 L1235.78 153.959 L1235.78 193.536 L1228.28 193.536 L1228.28 153.959 L1221.15 153.959 L1221.15 148.166 L1228.28 148.166 L1228.28 145.006 Q1228.28 137.431 1231.81 133.988 Q1235.33 130.504 1242.99 130.504 L1250.04 130.504 Z" fill="#000000" fill-rule="nonzero" fill-opacity="1" /><path clip-path="url(#clip740)" d="M1256.28 148.166 L1263.73 148.166 L1263.73 193.536 L1256.28 193.536 L1256.28 148.166 M1256.28 130.504 L1263.73 130.504 L1263.73 139.943 L1256.28 139.943 L1256.28 130.504 Z" fill="#000000" fill-rule="nonzero" fill-opacity="1" /><path clip-path="url(#clip740)" d="M1317.04 166.152 L1317.04 193.536 L1309.59 193.536 L1309.59 166.395 Q1309.59 159.954 1307.07 156.754 Q1304.56 153.554 1299.54 153.554 Q1293.5 153.554 1290.02 157.402 Q1286.54 161.25 1286.54 167.894 L1286.54 193.536 L1279.04 193.536 L1279.04 148.166 L1286.54 148.166 L1286.54 155.214 Q1289.21 151.123 1292.81 149.098 Q1296.46 147.072 1301.2 147.072 Q1309.02 147.072 1313.03 151.933 Q1317.04 156.754 1317.04 166.152 Z" fill="#000000" fill-rule="nonzero" fill-opacity="1" /><path clip-path="url(#clip740)" d="M1331.91 148.166 L1339.36 148.166 L1339.36 193.536 L1331.91 193.536 L1331.91 148.166 M1331.91 130.504 L1339.36 130.504 L1339.36 139.943 L1331.91 139.943 L1331.91 130.504 Z" fill="#000000" fill-rule="nonzero" fill-opacity="1" /><path clip-path="url(#clip740)" d="M1362.33 135.284 L1362.33 148.166 L1377.68 148.166 L1377.68 153.959 L1362.33 153.959 L1362.33 178.588 Q1362.33 184.138 1363.83 185.718 Q1365.37 187.298 1370.02 187.298 L1377.68 187.298 L1377.68 193.536 L1370.02 193.536 Q1361.4 193.536 1358.12 190.336 Q1354.83 187.095 1354.83 178.588 L1354.83 153.959 L1349.37 153.959 L1349.37 148.166 L1354.83 148.166 L1354.83 135.284 L1362.33 135.284 Z" fill="#000000" fill-rule="nonzero" fill-opacity="1" /><path clip-path="url(#clip740)" d="M1426.29 168.988 L1426.29 172.633 L1392.02 172.633 Q1392.51 180.33 1396.64 184.381 Q1400.81 188.391 1408.22 188.391 Q1412.52 188.391 1416.53 187.338 Q1420.58 186.285 1424.55 184.178 L1424.55 191.227 Q1420.54 192.928 1416.33 193.82 Q1412.11 194.711 1407.78 194.711 Q1396.92 194.711 1390.56 188.391 Q1384.24 182.072 1384.24 171.297 Q1384.24 160.157 1390.24 153.635 Q1396.27 147.072 1406.48 147.072 Q1415.64 147.072 1420.94 152.986 Q1426.29 158.86 1426.29 168.988 M1418.84 166.8 Q1418.76 160.683 1415.4 157.037 Q1412.07 153.392 1406.56 153.392 Q1400.33 153.392 1396.56 156.916 Q1392.83 160.44 1392.26 166.841 L1418.84 166.8 Z" fill="#000000" fill-rule="nonzero" fill-opacity="1" /><path clip-path="url(#clip740)" d="M1487.87 130.504 L1487.87 136.702 L1480.74 136.702 Q1476.73 136.702 1475.15 138.322 Q1473.61 139.943 1473.61 144.155 L1473.61 148.166 L1485.88 148.166 L1485.88 153.959 L1473.61 153.959 L1473.61 193.536 L1466.11 193.536 L1466.11 153.959 L1458.98 153.959 L1458.98 148.166 L1466.11 148.166 L1466.11 145.006 Q1466.11 137.431 1469.64 133.988 Q1473.16 130.504 1480.82 130.504 L1487.87 130.504 Z" fill="#000000" fill-rule="nonzero" fill-opacity="1" /><path clip-path="url(#clip740)" d="M1494.1 130.504 L1501.56 130.504 L1501.56 193.536 L1494.1 193.536 L1494.1 130.504 Z" fill="#000000" fill-rule="nonzero" fill-opacity="1" /><path clip-path="url(#clip740)" d="M1534.73 153.392 Q1528.74 153.392 1525.26 158.091 Q1521.77 162.749 1521.77 170.891 Q1521.77 179.034 1525.22 183.733 Q1528.7 188.391 1534.73 188.391 Q1540.69 188.391 1544.17 183.692 Q1547.66 178.993 1547.66 170.891 Q1547.66 162.83 1544.17 158.131 Q1540.69 153.392 1534.73 153.392 M1534.73 147.072 Q1544.46 147.072 1550.01 153.392 Q1555.56 159.711 1555.56 170.891 Q1555.56 182.031 1550.01 188.391 Q1544.46 194.711 1534.73 194.711 Q1524.97 194.711 1519.42 188.391 Q1513.91 182.031 1513.91 170.891 Q1513.91 159.711 1519.42 153.392 Q1524.97 147.072 1534.73 147.072 Z" fill="#000000" fill-rule="nonzero" fill-opacity="1" /><path clip-path="url(#clip740)" d="M1588.53 170.729 Q1579.5 170.729 1576.01 172.795 Q1572.53 174.861 1572.53 179.844 Q1572.53 183.814 1575.12 186.163 Q1577.76 188.472 1582.25 188.472 Q1588.45 188.472 1592.18 184.097 Q1595.94 179.682 1595.94 172.39 L1595.94 170.729 L1588.53 170.729 M1603.4 167.651 L1603.4 193.536 L1595.94 193.536 L1595.94 186.649 Q1593.39 190.781 1589.58 192.766 Q1585.78 194.711 1580.27 194.711 Q1573.3 194.711 1569.17 190.822 Q1565.08 186.893 1565.08 180.33 Q1565.08 172.674 1570.18 168.785 Q1575.32 164.896 1585.49 164.896 L1595.94 164.896 L1595.94 164.167 Q1595.94 159.022 1592.54 156.227 Q1589.18 153.392 1583.06 153.392 Q1579.17 153.392 1575.49 154.323 Q1571.8 155.255 1568.4 157.118 L1568.4 150.232 Q1572.49 148.652 1576.34 147.882 Q1580.19 147.072 1583.83 147.072 Q1593.68 147.072 1598.54 152.176 Q1603.4 157.28 1603.4 167.651 Z" fill="#000000" fill-rule="nonzero" fill-opacity="1" /><path clip-path="url(#clip740)" d="M1626.12 135.284 L1626.12 148.166 L1641.48 148.166 L1641.48 153.959 L1626.12 153.959 L1626.12 178.588 Q1626.12 184.138 1627.62 185.718 Q1629.16 187.298 1633.82 187.298 L1641.48 187.298 L1641.48 193.536 L1633.82 193.536 Q1625.19 193.536 1621.91 190.336 Q1618.63 187.095 1618.63 178.588 L1618.63 153.959 L1613.16 153.959 L1613.16 148.166 L1618.63 148.166 L1618.63 135.284 L1626.12 135.284 Z" fill="#000000" fill-rule="nonzero" fill-opacity="1" /><path clip-path="url(#clip740)" d="M1680.2 149.503 L1680.2 156.551 Q1677.04 154.931 1673.64 154.121 Q1670.24 153.311 1666.59 153.311 Q1661.04 153.311 1658.25 155.012 Q1655.49 156.713 1655.49 160.116 Q1655.49 162.709 1657.48 164.207 Q1659.46 165.666 1665.46 167.003 L1668.01 167.57 Q1675.95 169.271 1679.27 172.39 Q1682.63 175.469 1682.63 181.019 Q1682.63 187.338 1677.61 191.024 Q1672.63 194.711 1663.88 194.711 Q1660.23 194.711 1656.26 193.982 Q1652.33 193.293 1647.96 191.875 L1647.96 184.178 Q1652.09 186.325 1656.1 187.419 Q1660.11 188.472 1664.04 188.472 Q1669.31 188.472 1672.14 186.69 Q1674.98 184.867 1674.98 181.586 Q1674.98 178.548 1672.91 176.927 Q1670.89 175.307 1663.96 173.808 L1661.37 173.2 Q1654.44 171.742 1651.36 168.744 Q1648.28 165.706 1648.28 160.44 Q1648.28 154.04 1652.82 150.556 Q1657.36 147.072 1665.7 147.072 Q1669.83 147.072 1673.48 147.68 Q1677.12 148.287 1680.2 149.503 Z" fill="#000000" fill-rule="nonzero" fill-opacity="1" /><polyline clip-path="url(#clip742)" style="stroke:#8b636c; stroke-linecap:round; stroke-linejoin:round; stroke-width:12; stroke-opacity:0.75; fill:none" stroke-dasharray="6, 12" points="-672.607,553.945 671.999,553.945 2016.6,1315.18 "/>
<line clip-path="url(#clip742)" x1="671.999" y1="553.945" x2="671.999" y2="525.945" style="stroke:#8b2252; stroke-width:12; stroke-opacity:1"/>
<line clip-path="url(#clip742)" x1="671.999" y1="553.945" x2="643.999" y2="553.945" style="stroke:#8b2252; stroke-width:12; stroke-opacity:1"/>
<line clip-path="url(#clip742)" x1="671.999" y1="553.945" x2="671.999" y2="581.945" style="stroke:#8b2252; stroke-width:12; stroke-opacity:1"/>
<line clip-path="url(#clip742)" x1="671.999" y1="553.945" x2="699.999" y2="553.945" style="stroke:#8b2252; stroke-width:12; stroke-opacity:1"/>
<line clip-path="url(#clip742)" x1="2016.6" y1="1315.18" x2="2016.6" y2="1287.18" style="stroke:#8b2252; stroke-width:12; stroke-opacity:1"/>
<line clip-path="url(#clip742)" x1="2016.6" y1="1315.18" x2="1988.6" y2="1315.18" style="stroke:#8b2252; stroke-width:12; stroke-opacity:1"/>
<line clip-path="url(#clip742)" x1="2016.6" y1="1315.18" x2="2016.6" y2="1343.18" style="stroke:#8b2252; stroke-width:12; stroke-opacity:1"/>
<line clip-path="url(#clip742)" x1="2016.6" y1="1315.18" x2="2044.6" y2="1315.18" style="stroke:#8b2252; stroke-width:12; stroke-opacity:1"/>
<polyline clip-path="url(#clip742)" style="stroke:#436eee; stroke-linecap:round; stroke-linejoin:round; stroke-width:12; stroke-opacity:0.75; fill:none" stroke-dasharray="6, 12" points="-672.607,1086.7 671.999,858.23 2016.6,401.28 "/>
<path clip-path="url(#clip742)" d="M671.999 826.23 L664.479 847.862 L641.567 848.342 L659.839 862.198 L653.183 884.118 L671.999 871.03 L690.815 884.118 L684.159 862.198 L702.431 848.342 L679.519 847.862 L671.999 826.23 Z" fill="#4b0082" fill-rule="evenodd" fill-opacity="1" stroke="#000000" stroke-opacity="1" stroke-width="3.2"/>
<path clip-path="url(#clip742)" d="M2016.6 369.28 L2009.08 390.912 L1986.17 391.392 L2004.44 405.248 L1997.79 427.168 L2016.6 414.08 L2035.42 427.168 L2028.76 405.248 L2047.04 391.392 L2024.12 390.912 L2016.6 369.28 Z" fill="#4b0082" fill-rule="evenodd" fill-opacity="1" stroke="#000000" stroke-opacity="1" stroke-width="3.2"/>
<polyline clip-path="url(#clip742)" style="stroke:#8fbc8f; stroke-linecap:round; stroke-linejoin:round; stroke-width:12; stroke-opacity:0.75; fill:none" stroke-dasharray="6, 12" points="-672.607,680.469 671.999,569.107 2016.6,462.451 "/>
<path clip-path="url(#clip742)" d="M697.599 569.107 L659.199 546.707 L659.199 591.507 L697.599 569.107 Z" fill="#3cb371" fill-rule="evenodd" fill-opacity="1" stroke="#000000" stroke-opacity="1" stroke-width="3.2"/>
<path clip-path="url(#clip742)" d="M2042.2 462.451 L2003.8 440.051 L2003.8 484.851 L2042.2 462.451 Z" fill="#3cb371" fill-rule="evenodd" fill-opacity="1" stroke="#000000" stroke-opacity="1" stroke-width="3.2"/>
<path clip-path="url(#clip740)" d="M403.078 513.404 L702.112 513.404 L702.112 280.124 L403.078 280.124  Z" fill="#f5f5f5" fill-rule="evenodd" fill-opacity="1"/>
<polyline clip-path="url(#clip740)" style="stroke:#fafafa; stroke-linecap:round; stroke-linejoin:round; stroke-width:4; stroke-opacity:1; fill:none" points="403.078,513.404 702.112,513.404 702.112,280.124 403.078,280.124 403.078,513.404 "/>
<polyline clip-path="url(#clip740)" style="stroke:#8b636c; stroke-linecap:round; stroke-linejoin:round; stroke-width:13.5; stroke-opacity:0.75; fill:none" stroke-dasharray="7, 14" points="425.488,338.444 559.948,338.444 "/>
<line clip-path="url(#clip740)" x1="492.718" y1="338.444" x2="492.718" y2="319.999" style="stroke:#8b2252; stroke-width:13.5; stroke-opacity:1"/>
<line clip-path="url(#clip740)" x1="492.718" y1="338.444" x2="474.274" y2="338.444" style="stroke:#8b2252; stroke-width:13.5; stroke-opacity:1"/>
<line clip-path="url(#clip740)" x1="492.718" y1="338.444" x2="492.718" y2="356.888" style="stroke:#8b2252; stroke-width:13.5; stroke-opacity:1"/>
<line clip-path="url(#clip740)" x1="492.718" y1="338.444" x2="511.163" y2="338.444" style="stroke:#8b2252; stroke-width:13.5; stroke-opacity:1"/>
<path clip-path="url(#clip740)" d="M597.437 343.222 Q591.629 343.222 589.39 344.55 Q587.15 345.879 587.15 349.082 Q587.15 351.634 588.817 353.144 Q590.509 354.629 593.4 354.629 Q597.384 354.629 599.78 351.816 Q602.202 348.978 602.202 344.29 L602.202 343.222 L597.437 343.222 M606.994 341.243 L606.994 357.884 L602.202 357.884 L602.202 353.457 Q600.561 356.113 598.114 357.389 Q595.666 358.639 592.124 358.639 Q587.645 358.639 584.989 356.139 Q582.358 353.613 582.358 349.394 Q582.358 344.472 585.64 341.972 Q588.947 339.472 595.483 339.472 L602.202 339.472 L602.202 339.004 Q602.202 335.696 600.015 333.899 Q597.853 332.077 593.921 332.077 Q591.421 332.077 589.051 332.676 Q586.681 333.274 584.494 334.472 L584.494 330.045 Q587.124 329.03 589.598 328.535 Q592.072 328.014 594.416 328.014 Q600.744 328.014 603.869 331.295 Q606.994 334.577 606.994 341.243 Z" fill="#000000" fill-rule="nonzero" fill-opacity="1" /><path clip-path="url(#clip740)" d="M636.056 333.144 L636.056 317.363 L640.848 317.363 L640.848 357.884 L636.056 357.884 L636.056 353.509 Q634.546 356.113 632.228 357.389 Q629.936 358.639 626.707 358.639 Q621.421 358.639 618.087 354.42 Q614.78 350.201 614.78 343.327 Q614.78 336.452 618.087 332.233 Q621.421 328.014 626.707 328.014 Q629.936 328.014 632.228 329.29 Q634.546 330.54 636.056 333.144 M619.728 343.327 Q619.728 348.613 621.89 351.634 Q624.077 354.629 627.879 354.629 Q631.681 354.629 633.869 351.634 Q636.056 348.613 636.056 343.327 Q636.056 338.04 633.869 335.045 Q631.681 332.024 627.879 332.024 Q624.077 332.024 621.89 335.045 Q619.728 338.04 619.728 343.327 Z" fill="#000000" fill-rule="nonzero" fill-opacity="1" /><path clip-path="url(#clip740)" d="M669.91 333.144 L669.91 317.363 L674.702 317.363 L674.702 357.884 L669.91 357.884 L669.91 353.509 Q668.4 356.113 666.082 357.389 Q663.79 358.639 660.561 358.639 Q655.275 358.639 651.941 354.42 Q648.634 350.201 648.634 343.327 Q648.634 336.452 651.941 332.233 Q655.275 328.014 660.561 328.014 Q663.79 328.014 666.082 329.29 Q668.4 330.54 669.91 333.144 M653.582 343.327 Q653.582 348.613 655.743 351.634 Q657.931 354.629 661.733 354.629 Q665.535 354.629 667.723 351.634 Q669.91 348.613 669.91 343.327 Q669.91 338.04 667.723 335.045 Q665.535 332.024 661.733 332.024 Q657.931 332.024 655.743 335.045 Q653.582 338.04 653.582 343.327 Z" fill="#000000" fill-rule="nonzero" fill-opacity="1" /><polyline clip-path="url(#clip740)" style="stroke:#436eee; stroke-linecap:round; stroke-linejoin:round; stroke-width:13.5; stroke-opacity:0.75; fill:none" stroke-dasharray="7, 14" points="425.488,396.764 559.948,396.764 "/>
<path clip-path="url(#clip740)" d="M492.718 378.319 L488.384 390.788 L475.177 391.064 L485.709 399.051 L481.873 411.685 L492.718 404.142 L503.563 411.685 L499.727 399.051 L510.259 391.064 L497.053 390.788 L492.718 378.319 Z" fill="#4b0082" fill-rule="evenodd" fill-opacity="1" stroke="#000000" stroke-opacity="1" stroke-width="2.71059"/>
<path clip-path="url(#clip740)" d="M605.249 392.636 Q607.046 389.407 609.546 387.871 Q612.046 386.334 615.431 386.334 Q619.988 386.334 622.462 389.537 Q624.936 392.714 624.936 398.6 L624.936 416.204 L620.119 416.204 L620.119 398.756 Q620.119 394.563 618.634 392.532 Q617.15 390.501 614.103 390.501 Q610.379 390.501 608.218 392.975 Q606.056 395.449 606.056 399.719 L606.056 416.204 L601.239 416.204 L601.239 398.756 Q601.239 394.537 599.754 392.532 Q598.27 390.501 595.171 390.501 Q591.499 390.501 589.338 393.001 Q587.176 395.475 587.176 399.719 L587.176 416.204 L582.358 416.204 L582.358 387.037 L587.176 387.037 L587.176 391.568 Q588.817 388.886 591.108 387.61 Q593.4 386.334 596.551 386.334 Q599.728 386.334 601.942 387.949 Q604.181 389.563 605.249 392.636 Z" fill="#000000" fill-rule="nonzero" fill-opacity="1" /><path clip-path="url(#clip740)" d="M633.999 404.693 L633.999 387.037 L638.79 387.037 L638.79 404.511 Q638.79 408.652 640.405 410.735 Q642.02 412.792 645.249 412.792 Q649.129 412.792 651.369 410.318 Q653.634 407.844 653.634 403.574 L653.634 387.037 L658.426 387.037 L658.426 416.204 L653.634 416.204 L653.634 411.725 Q651.889 414.381 649.572 415.683 Q647.28 416.959 644.233 416.959 Q639.207 416.959 636.603 413.834 Q633.999 410.709 633.999 404.693 M646.056 386.334 L646.056 386.334 Z" fill="#000000" fill-rule="nonzero" fill-opacity="1" /><path clip-path="url(#clip740)" d="M668.296 375.683 L673.087 375.683 L673.087 416.204 L668.296 416.204 L668.296 375.683 Z" fill="#000000" fill-rule="nonzero" fill-opacity="1" /><polyline clip-path="url(#clip740)" style="stroke:#8fbc8f; stroke-linecap:round; stroke-linejoin:round; stroke-width:13.5; stroke-opacity:0.75; fill:none" stroke-dasharray="7, 14" points="425.488,455.084 559.948,455.084 "/>
<path clip-path="url(#clip740)" d="M507.474 455.084 L485.34 442.173 L485.34 467.995 L507.474 455.084 Z" fill="#3cb371" fill-rule="evenodd" fill-opacity="1" stroke="#000000" stroke-opacity="1" stroke-width="2.71059"/>
<path clip-path="url(#clip740)" d="M600.926 434.003 L600.926 437.987 L596.343 437.987 Q593.765 437.987 592.749 439.029 Q591.759 440.071 591.759 442.779 L591.759 445.357 L599.65 445.357 L599.65 449.081 L591.759 449.081 L591.759 474.524 L586.942 474.524 L586.942 449.081 L582.358 449.081 L582.358 445.357 L586.942 445.357 L586.942 443.326 Q586.942 438.456 589.207 436.243 Q591.473 434.003 596.395 434.003 L600.926 434.003 Z" fill="#000000" fill-rule="nonzero" fill-opacity="1" /><path clip-path="url(#clip740)" d="M627.645 450.956 Q629.442 447.727 631.942 446.191 Q634.442 444.654 637.827 444.654 Q642.384 444.654 644.858 447.857 Q647.332 451.034 647.332 456.92 L647.332 474.524 L642.514 474.524 L642.514 457.076 Q642.514 452.883 641.03 450.852 Q639.546 448.821 636.499 448.821 Q632.775 448.821 630.613 451.295 Q628.452 453.769 628.452 458.039 L628.452 474.524 L623.634 474.524 L623.634 457.076 Q623.634 452.857 622.15 450.852 Q620.666 448.821 617.567 448.821 Q613.895 448.821 611.733 451.321 Q609.572 453.795 609.572 458.039 L609.572 474.524 L604.754 474.524 L604.754 445.357 L609.572 445.357 L609.572 449.888 Q611.212 447.206 613.504 445.93 Q615.796 444.654 618.947 444.654 Q622.124 444.654 624.337 446.269 Q626.577 447.883 627.645 450.956 Z" fill="#000000" fill-rule="nonzero" fill-opacity="1" /><path clip-path="url(#clip740)" d="M670.144 459.862 Q664.337 459.862 662.098 461.19 Q659.858 462.519 659.858 465.722 Q659.858 468.274 661.525 469.784 Q663.217 471.269 666.108 471.269 Q670.092 471.269 672.488 468.456 Q674.91 465.618 674.91 460.93 L674.91 459.862 L670.144 459.862 M679.702 457.883 L679.702 474.524 L674.91 474.524 L674.91 470.097 Q673.269 472.753 670.822 474.029 Q668.374 475.279 664.832 475.279 Q660.353 475.279 657.697 472.779 Q655.066 470.253 655.066 466.034 Q655.066 461.112 658.348 458.612 Q661.655 456.112 668.191 456.112 L674.91 456.112 L674.91 455.644 Q674.91 452.336 672.723 450.539 Q670.561 448.717 666.629 448.717 Q664.129 448.717 661.759 449.316 Q659.389 449.914 657.202 451.112 L657.202 446.685 Q659.832 445.67 662.306 445.175 Q664.78 444.654 667.124 444.654 Q673.452 444.654 676.577 447.935 Q679.702 451.217 679.702 457.883 Z" fill="#000000" fill-rule="nonzero" fill-opacity="1" /></svg>
