<?xml version="1.0" encoding="utf-8"?>
<svg xmlns="http://www.w3.org/2000/svg" xmlns:xlink="http://www.w3.org/1999/xlink" width="600" height="400" viewBox="0 0 2400 1600">
<defs>
  <clipPath id="clip910">
    <rect x="0" y="0" width="2400" height="1600"/>
  </clipPath>
</defs>
<path clip-path="url(#clip910)" d="M0 1600 L2400 1600 L2400 0 L0 0  Z" fill="#ffffff" fill-rule="evenodd" fill-opacity="1"/>
<defs>
  <clipPath id="clip911">
    <rect x="480" y="0" width="1681" height="1600"/>
  </clipPath>
</defs>
<path clip-path="url(#clip910)" d="M504.659 1306.54 L2352.76 1306.54 L2352.76 244.432 L504.659 244.432  Z" fill="#ffffff" fill-rule="evenodd" fill-opacity="1"/>
<defs>
  <clipPath id="clip912">
    <rect x="504" y="244" width="1849" height="1063"/>
  </clipPath>
</defs>
<polyline clip-path="url(#clip912)" style="stroke:#000000; stroke-linecap:round; stroke-linejoin:round; stroke-width:2; stroke-opacity:0.1; fill:none" points="504.659,1306.54 504.659,244.432 "/>
<polyline clip-path="url(#clip912)" style="stroke:#000000; stroke-linecap:round; stroke-linejoin:round; stroke-width:2; stroke-opacity:0.1; fill:none" points="966.683,1306.54 966.683,244.432 "/>
<polyline clip-path="url(#clip912)" style="stroke:#000000; stroke-linecap:round; stroke-linejoin:round; stroke-width:2; stroke-opacity:0.1; fill:none" points="1428.71,1306.54 1428.71,244.432 "/>
<polyline clip-path="url(#clip912)" style="stroke:#000000; stroke-linecap:round; stroke-linejoin:round; stroke-width:2; stroke-opacity:0.1; fill:none" points="1890.73,1306.54 1890.73,244.432 "/>
<polyline clip-path="url(#clip912)" style="stroke:#000000; stroke-linecap:round; stroke-linejoin:round; stroke-width:2; stroke-opacity:0.1; fill:none" points="2352.76,1306.54 2352.76,244.432 "/>
<polyline clip-path="url(#clip912)" style="stroke:#000000; stroke-linecap:round; stroke-linejoin:round; stroke-width:2; stroke-opacity:0.1; fill:none" points="504.659,1306.54 2352.76,1306.54 "/>
<polyline clip-path="url(#clip912)" style="stroke:#000000; stroke-linecap:round; stroke-linejoin:round; stroke-width:2; stroke-opacity:0.1; fill:none" points="504.659,1041.01 2352.76,1041.01 "/>
<polyline clip-path="url(#clip912)" style="stroke:#000000; stroke-linecap:round; stroke-linejoin:round; stroke-width:2; stroke-opacity:0.1; fill:none" points="504.659,775.486 2352.76,775.486 "/>
<polyline clip-path="url(#clip912)" style="stroke:#000000; stroke-linecap:round; stroke-linejoin:round; stroke-width:2; stroke-opacity:0.1; fill:none" points="504.659,509.959 2352.76,509.959 "/>
<polyline clip-path="url(#clip912)" style="stroke:#000000; stroke-linecap:round; stroke-linejoin:round; stroke-width:2; stroke-opacity:0.1; fill:none" points="504.659,244.432 2352.76,244.432 "/>
<polyline clip-path="url(#clip910)" style="stroke:#000000; stroke-linecap:round; stroke-linejoin:round; stroke-width:4; stroke-opacity:1; fill:none" points="504.659,1306.54 2352.76,1306.54 "/>
<polyline clip-path="url(#clip910)" style="stroke:#000000; stroke-linecap:round; stroke-linejoin:round; stroke-width:4; stroke-opacity:1; fill:none" points="504.659,1306.54 504.659,1287.64 "/>
<polyline clip-path="url(#clip910)" style="stroke:#000000; stroke-linecap:round; stroke-linejoin:round; stroke-width:4; stroke-opacity:1; fill:none" points="966.683,1306.54 966.683,1287.64 "/>
<polyline clip-path="url(#clip910)" style="stroke:#000000; stroke-linecap:round; stroke-linejoin:round; stroke-width:4; stroke-opacity:1; fill:none" points="1428.71,1306.54 1428.71,1287.64 "/>
<polyline clip-path="url(#clip910)" style="stroke:#000000; stroke-linecap:round; stroke-linejoin:round; stroke-width:4; stroke-opacity:1; fill:none" points="1890.73,1306.54 1890.73,1287.64 "/>
<polyline clip-path="url(#clip910)" style="stroke:#000000; stroke-linecap:round; stroke-linejoin:round; stroke-width:4; stroke-opacity:1; fill:none" points="2352.76,1306.54 2352.76,1287.64 "/>
<path clip-path="url(#clip910)" d="M426.776 1389.55 L439.189 1389.55 L439.189 1346.7 L425.685 1349.41 L425.685 1342.49 L439.114 1339.78 L446.713 1339.78 L446.713 1389.55 L459.126 1389.55 L459.126 1395.94 L426.776 1395.94 L426.776 1389.55 Z" fill="#000000" fill-rule="nonzero" fill-opacity="1" /><path clip-path="url(#clip910)" d="M474.473 1386.39 L482.41 1386.39 L482.41 1395.94 L474.473 1395.94 L474.473 1386.39 Z" fill="#000000" fill-rule="nonzero" fill-opacity="1" /><path clip-path="url(#clip910)" d="M515.21 1344.78 Q509.342 1344.78 506.371 1350.58 Q503.437 1356.33 503.437 1367.92 Q503.437 1379.46 506.371 1385.26 Q509.342 1391.01 515.21 1391.01 Q521.116 1391.01 524.05 1385.26 Q527.022 1379.46 527.022 1367.92 Q527.022 1356.33 524.05 1350.58 Q521.116 1344.78 515.21 1344.78 M515.21 1338.76 Q524.652 1338.76 529.617 1346.25 Q534.62 1353.7 534.62 1367.92 Q534.62 1382.1 529.617 1389.58 Q524.652 1397.03 515.21 1397.03 Q505.769 1397.03 500.766 1389.58 Q495.801 1382.1 495.801 1367.92 Q495.801 1353.7 500.766 1346.25 Q505.769 1338.76 515.21 1338.76 Z" fill="#000000" fill-rule="nonzero" fill-opacity="1" /><path clip-path="url(#clip910)" d="M564.224 1344.78 Q558.355 1344.78 555.384 1350.58 Q552.45 1356.33 552.45 1367.92 Q552.45 1379.46 555.384 1385.26 Q558.355 1391.01 564.224 1391.01 Q570.129 1391.01 573.063 1385.26 Q576.035 1379.46 576.035 1367.92 Q576.035 1356.33 573.063 1350.58 Q570.129 1344.78 564.224 1344.78 M564.224 1338.76 Q573.665 1338.76 578.63 1346.25 Q583.633 1353.7 583.633 1367.92 Q583.633 1382.1 578.63 1389.58 Q573.665 1397.03 564.224 1397.03 Q554.782 1397.03 549.779 1389.58 Q544.814 1382.1 544.814 1367.92 Q544.814 1353.7 549.779 1346.25 Q554.782 1338.76 564.224 1338.76 Z" fill="#000000" fill-rule="nonzero" fill-opacity="1" /><path clip-path="url(#clip910)" d="M889.609 1389.55 L902.022 1389.55 L902.022 1346.7 L888.518 1349.41 L888.518 1342.49 L901.947 1339.78 L909.545 1339.78 L909.545 1389.55 L921.959 1389.55 L921.959 1395.94 L889.609 1395.94 L889.609 1389.55 Z" fill="#000000" fill-rule="nonzero" fill-opacity="1" /><path clip-path="url(#clip910)" d="M937.306 1386.39 L945.243 1386.39 L945.243 1395.94 L937.306 1395.94 L937.306 1386.39 Z" fill="#000000" fill-rule="nonzero" fill-opacity="1" /><path clip-path="url(#clip910)" d="M968.339 1389.55 L994.857 1389.55 L994.857 1395.94 L959.198 1395.94 L959.198 1389.55 Q963.524 1385.07 970.972 1377.55 Q978.457 1369.99 980.376 1367.8 Q984.024 1363.7 985.454 1360.88 Q986.921 1358.02 986.921 1355.28 Q986.921 1350.8 983.761 1347.98 Q980.639 1345.16 975.598 1345.16 Q972.025 1345.16 968.038 1346.4 Q964.088 1347.64 959.574 1350.16 L959.574 1342.49 Q964.163 1340.64 968.15 1339.7 Q972.138 1338.76 975.448 1338.76 Q984.175 1338.76 989.366 1343.13 Q994.557 1347.49 994.557 1354.79 Q994.557 1358.25 993.24 1361.37 Q991.961 1364.46 988.538 1368.67 Q987.598 1369.76 982.557 1374.99 Q977.517 1380.18 968.339 1389.55 Z" fill="#000000" fill-rule="nonzero" fill-opacity="1" /><path clip-path="url(#clip910)" d="M1010.88 1339.78 L1040.71 1339.78 L1040.71 1346.17 L1017.84 1346.17 L1017.84 1359.94 Q1019.5 1359.38 1021.15 1359.11 Q1022.81 1358.81 1024.46 1358.81 Q1033.86 1358.81 1039.36 1363.97 Q1044.85 1369.12 1044.85 1377.92 Q1044.85 1386.99 1039.21 1392.03 Q1033.56 1397.03 1023.29 1397.03 Q1019.76 1397.03 1016.07 1396.43 Q1012.42 1395.83 1008.51 1394.62 L1008.51 1386.99 Q1011.9 1388.83 1015.51 1389.73 Q1019.12 1390.64 1023.14 1390.64 Q1029.65 1390.64 1033.45 1387.21 Q1037.25 1383.79 1037.25 1377.92 Q1037.25 1372.05 1033.45 1368.63 Q1029.65 1365.21 1023.14 1365.21 Q1020.1 1365.21 1017.05 1365.89 Q1014.04 1366.56 1010.88 1367.99 L1010.88 1339.78 Z" fill="#000000" fill-rule="nonzero" fill-opacity="1" /><path clip-path="url(#clip910)" d="M1350.82 1389.55 L1363.24 1389.55 L1363.24 1346.7 L1349.73 1349.41 L1349.73 1342.49 L1363.16 1339.78 L1370.76 1339.78 L1370.76 1389.55 L1383.17 1389.55 L1383.17 1395.94 L1350.82 1395.94 L1350.82 1389.55 Z" fill="#000000" fill-rule="nonzero" fill-opacity="1" /><path clip-path="url(#clip910)" d="M1398.52 1386.39 L1406.46 1386.39 L1406.46 1395.94 L1398.52 1395.94 L1398.52 1386.39 Z" fill="#000000" fill-rule="nonzero" fill-opacity="1" /><path clip-path="url(#clip910)" d="M1423.08 1339.78 L1452.91 1339.78 L1452.91 1346.17 L1430.04 1346.17 L1430.04 1359.94 Q1431.7 1359.38 1433.35 1359.11 Q1435.01 1358.81 1436.66 1358.81 Q1446.07 1358.81 1451.56 1363.97 Q1457.05 1369.12 1457.05 1377.92 Q1457.05 1386.99 1451.41 1392.03 Q1445.77 1397.03 1435.5 1397.03 Q1431.96 1397.03 1428.28 1396.43 Q1424.63 1395.83 1420.71 1394.62 L1420.71 1386.99 Q1424.1 1388.83 1427.71 1389.73 Q1431.32 1390.64 1435.35 1390.64 Q1441.85 1390.64 1445.65 1387.21 Q1449.45 1383.79 1449.45 1377.92 Q1449.45 1372.05 1445.65 1368.63 Q1441.85 1365.21 1435.35 1365.21 Q1432.3 1365.21 1429.25 1365.89 Q1426.24 1366.56 1423.08 1367.99 L1423.08 1339.78 Z" fill="#000000" fill-rule="nonzero" fill-opacity="1" /><path clip-path="url(#clip910)" d="M1488.27 1344.78 Q1482.4 1344.78 1479.43 1350.58 Q1476.5 1356.33 1476.5 1367.92 Q1476.5 1379.46 1479.43 1385.26 Q1482.4 1391.01 1488.27 1391.01 Q1494.18 1391.01 1497.11 1385.26 Q1500.08 1379.46 1500.08 1367.92 Q1500.08 1356.33 1497.11 1350.58 Q1494.18 1344.78 1488.27 1344.78 M1488.27 1338.76 Q1497.71 1338.76 1502.68 1346.25 Q1507.68 1353.7 1507.68 1367.92 Q1507.68 1382.1 1502.68 1389.58 Q1497.71 1397.03 1488.27 1397.03 Q1478.83 1397.03 1473.83 1389.58 Q1468.86 1382.1 1468.86 1367.92 Q1468.86 1353.7 1473.83 1346.25 Q1478.83 1338.76 1488.27 1338.76 Z" fill="#000000" fill-rule="nonzero" fill-opacity="1" /><path clip-path="url(#clip910)" d="M1813.66 1389.55 L1826.07 1389.55 L1826.07 1346.7 L1812.57 1349.41 L1812.57 1342.49 L1826 1339.78 L1833.59 1339.78 L1833.59 1389.55 L1846.01 1389.55 L1846.01 1395.94 L1813.66 1395.94 L1813.66 1389.55 Z" fill="#000000" fill-rule="nonzero" fill-opacity="1" /><path clip-path="url(#clip910)" d="M1861.35 1386.39 L1869.29 1386.39 L1869.29 1395.94 L1861.35 1395.94 L1861.35 1386.39 Z" fill="#000000" fill-rule="nonzero" fill-opacity="1" /><path clip-path="url(#clip910)" d="M1883.92 1339.78 L1920.03 1339.78 L1920.03 1343.01 L1899.65 1395.94 L1891.71 1395.94 L1910.89 1346.17 L1883.92 1346.17 L1883.92 1339.78 Z" fill="#000000" fill-rule="nonzero" fill-opacity="1" /><path clip-path="url(#clip910)" d="M1934.93 1339.78 L1964.76 1339.78 L1964.76 1346.17 L1941.89 1346.17 L1941.89 1359.94 Q1943.54 1359.38 1945.2 1359.11 Q1946.85 1358.81 1948.51 1358.81 Q1957.91 1358.81 1963.4 1363.97 Q1968.9 1369.12 1968.9 1377.92 Q1968.9 1386.99 1963.25 1392.03 Q1957.61 1397.03 1947.34 1397.03 Q1943.81 1397.03 1940.12 1396.43 Q1936.47 1395.83 1932.56 1394.62 L1932.56 1386.99 Q1935.95 1388.83 1939.56 1389.73 Q1943.17 1390.64 1947.19 1390.64 Q1953.7 1390.64 1957.5 1387.21 Q1961.3 1383.79 1961.3 1377.92 Q1961.3 1372.05 1957.5 1368.63 Q1953.7 1365.21 1947.19 1365.21 Q1944.15 1365.21 1941.1 1365.89 Q1938.09 1366.56 1934.93 1367.99 L1934.93 1339.78 Z" fill="#000000" fill-rule="nonzero" fill-opacity="1" /><path clip-path="url(#clip910)" d="M2281.51 1389.55 L2308.03 1389.55 L2308.03 1395.94 L2272.37 1395.94 L2272.37 1389.55 Q2276.7 1385.07 2284.15 1377.55 Q2291.63 1369.99 2293.55 1367.8 Q2297.2 1363.7 2298.63 1360.88 Q2300.09 1358.02 2300.09 1355.28 Q2300.09 1350.8 2296.93 1347.98 Q2293.81 1345.16 2288.77 1345.16 Q2285.2 1345.16 2281.21 1346.4 Q2277.26 1347.64 2272.75 1350.16 L2272.75 1342.49 Q2277.34 1340.64 2281.32 1339.7 Q2285.31 1338.76 2288.62 1338.76 Q2297.35 1338.76 2302.54 1343.13 Q2307.73 1347.49 2307.73 1354.79 Q2307.73 1358.25 2306.41 1361.37 Q2305.13 1364.46 2301.71 1368.67 Q2300.77 1369.76 2295.73 1374.99 Q2290.69 1380.18 2281.51 1389.55 Z" fill="#000000" fill-rule="nonzero" fill-opacity="1" /><path clip-path="url(#clip910)" d="M2323.98 1386.39 L2331.92 1386.39 L2331.92 1395.94 L2323.98 1395.94 L2323.98 1386.39 Z" fill="#000000" fill-rule="nonzero" fill-opacity="1" /><path clip-path="url(#clip910)" d="M2364.72 1344.78 Q2358.85 1344.78 2355.88 1350.58 Q2352.94 1356.33 2352.94 1367.92 Q2352.94 1379.46 2355.88 1385.26 Q2358.85 1391.01 2364.72 1391.01 Q2370.62 1391.01 2373.56 1385.26 Q2376.53 1379.46 2376.53 1367.92 Q2376.53 1356.33 2373.56 1350.58 Q2370.62 1344.78 2364.72 1344.78 M2364.72 1338.76 Q2374.16 1338.76 2379.12 1346.25 Q2384.13 1353.7 2384.13 1367.92 Q2384.13 1382.1 2379.12 1389.58 Q2374.16 1397.03 2364.72 1397.03 Q2355.28 1397.03 2350.27 1389.58 Q2345.31 1382.1 2345.31 1367.92 Q2345.31 1353.7 2350.27 1346.25 Q2355.28 1338.76 2364.72 1338.76 Z" fill="#000000" fill-rule="nonzero" fill-opacity="1" /><path clip-path="url(#clip910)" d="M2413.73 1344.78 Q2407.86 1344.78 2404.89 1350.58 Q2401.96 1356.33 2401.96 1367.92 Q2401.96 1379.46 2404.89 1385.26 Q2407.86 1391.01 2413.73 1391.01 Q2419.64 1391.01 2422.57 1385.26 Q2425.54 1379.46 2425.54 1367.92 Q2425.54 1356.33 2422.57 1350.58 Q2419.64 1344.78 2413.73 1344.78 M2413.73 1338.76 Q2423.17 1338.76 2428.14 1346.25 Q2433.14 1353.7 2433.14 1367.92 Q2433.14 1382.1 2428.14 1389.58 Q2423.17 1397.03 2413.73 1397.03 Q2404.29 1397.03 2399.29 1389.58 Q2394.32 1382.1 2394.32 1367.92 Q2394.32 1353.7 2399.29 1346.25 Q2404.29 1338.76 2413.73 1338.76 Z" fill="#000000" fill-rule="nonzero" fill-opacity="1" /><path clip-path="url(#clip910)" d="M1198.03 1530.73 L1198.03 1549.63 L1192.14 1549.63 L1192.14 1500.43 L1198.03 1500.43 L1198.03 1505.84 Q1199.88 1502.66 1202.68 1501.13 Q1205.51 1499.57 1209.42 1499.57 Q1215.92 1499.57 1219.96 1504.72 Q1224.03 1509.88 1224.03 1518.28 Q1224.03 1526.69 1219.96 1531.84 Q1215.92 1537 1209.42 1537 Q1205.51 1537 1202.68 1535.47 Q1199.88 1533.91 1198.03 1530.73 M1217.95 1518.28 Q1217.95 1511.82 1215.28 1508.16 Q1212.64 1504.47 1207.99 1504.47 Q1203.35 1504.47 1200.67 1508.16 Q1198.03 1511.82 1198.03 1518.28 Q1198.03 1524.74 1200.67 1528.44 Q1203.35 1532.1 1207.99 1532.1 Q1212.64 1532.1 1215.28 1528.44 Q1217.95 1524.74 1217.95 1518.28 Z" fill="#000000" fill-rule="nonzero" fill-opacity="1" /><path clip-path="url(#clip910)" d="M1254.4 1505.9 Q1253.41 1505.33 1252.23 1505.07 Q1251.09 1504.79 1249.69 1504.79 Q1244.72 1504.79 1242.05 1508.03 Q1239.41 1511.25 1239.41 1517.3 L1239.41 1536.08 L1233.52 1536.08 L1233.52 1500.43 L1239.41 1500.43 L1239.41 1505.97 Q1241.25 1502.72 1244.21 1501.16 Q1247.17 1499.57 1251.41 1499.57 Q1252.01 1499.57 1252.74 1499.66 Q1253.48 1499.73 1254.37 1499.89 L1254.4 1505.9 Z" fill="#000000" fill-rule="nonzero" fill-opacity="1" /><path clip-path="url(#clip910)" d="M1289.6 1516.79 L1289.6 1519.65 L1262.67 1519.65 Q1263.06 1525.7 1266.3 1528.88 Q1269.58 1532.03 1275.41 1532.03 Q1278.78 1532.03 1281.93 1531.21 Q1285.11 1530.38 1288.23 1528.72 L1288.23 1534.26 Q1285.08 1535.6 1281.77 1536.3 Q1278.46 1537 1275.06 1537 Q1266.53 1537 1261.53 1532.03 Q1256.56 1527.07 1256.56 1518.6 Q1256.56 1509.85 1261.27 1504.72 Q1266.02 1499.57 1274.04 1499.57 Q1281.23 1499.57 1285.4 1504.22 Q1289.6 1508.83 1289.6 1516.79 M1283.74 1515.07 Q1283.68 1510.26 1281.04 1507.4 Q1278.43 1504.53 1274.1 1504.53 Q1269.2 1504.53 1266.24 1507.3 Q1263.31 1510.07 1262.87 1515.1 L1283.74 1515.07 Z" fill="#000000" fill-rule="nonzero" fill-opacity="1" /><path clip-path="url(#clip910)" d="M1324.87 1501.8 L1324.87 1507.27 Q1322.38 1505.9 1319.87 1505.23 Q1317.39 1504.53 1314.84 1504.53 Q1309.14 1504.53 1305.99 1508.16 Q1302.84 1511.76 1302.84 1518.28 Q1302.84 1524.81 1305.99 1528.44 Q1309.14 1532.03 1314.84 1532.03 Q1317.39 1532.03 1319.87 1531.37 Q1322.38 1530.66 1324.87 1529.3 L1324.87 1534.71 Q1322.42 1535.85 1319.77 1536.43 Q1317.16 1537 1314.2 1537 Q1306.15 1537 1301.41 1531.94 Q1296.67 1526.88 1296.67 1518.28 Q1296.67 1509.56 1301.44 1504.57 Q1306.25 1499.57 1314.59 1499.57 Q1317.29 1499.57 1319.87 1500.14 Q1322.45 1500.68 1324.87 1501.8 Z" fill="#000000" fill-rule="nonzero" fill-opacity="1" /><path clip-path="url(#clip910)" d="M1335.05 1500.43 L1340.91 1500.43 L1340.91 1536.08 L1335.05 1536.08 L1335.05 1500.43 M1335.05 1486.55 L1340.91 1486.55 L1340.91 1493.97 L1335.05 1493.97 L1335.05 1486.55 Z" fill="#000000" fill-rule="nonzero" fill-opacity="1" /><path clip-path="url(#clip910)" d="M1375.89 1501.48 L1375.89 1507.02 Q1373.41 1505.74 1370.73 1505.11 Q1368.06 1504.47 1365.19 1504.47 Q1360.83 1504.47 1358.64 1505.81 Q1356.47 1507.14 1356.47 1509.82 Q1356.47 1511.85 1358.03 1513.03 Q1359.59 1514.18 1364.3 1515.23 L1366.31 1515.67 Q1372.55 1517.01 1375.16 1519.46 Q1377.8 1521.88 1377.8 1526.24 Q1377.8 1531.21 1373.85 1534.1 Q1369.94 1537 1363.06 1537 Q1360.2 1537 1357.08 1536.43 Q1353.99 1535.88 1350.55 1534.77 L1350.55 1528.72 Q1353.8 1530.41 1356.95 1531.27 Q1360.1 1532.1 1363.19 1532.1 Q1367.33 1532.1 1369.55 1530.7 Q1371.78 1529.26 1371.78 1526.69 Q1371.78 1524.3 1370.16 1523.03 Q1368.57 1521.75 1363.12 1520.58 L1361.09 1520.1 Q1355.65 1518.95 1353.23 1516.6 Q1350.81 1514.21 1350.81 1510.07 Q1350.81 1505.04 1354.37 1502.31 Q1357.94 1499.57 1364.49 1499.57 Q1367.74 1499.57 1370.6 1500.05 Q1373.47 1500.52 1375.89 1501.48 Z" fill="#000000" fill-rule="nonzero" fill-opacity="1" /><path clip-path="url(#clip910)" d="M1387.12 1500.43 L1392.98 1500.43 L1392.98 1536.08 L1387.12 1536.08 L1387.12 1500.43 M1387.12 1486.55 L1392.98 1486.55 L1392.98 1493.97 L1387.12 1493.97 L1387.12 1486.55 Z" fill="#000000" fill-rule="nonzero" fill-opacity="1" /><path clip-path="url(#clip910)" d="M1419.05 1504.53 Q1414.34 1504.53 1411.6 1508.23 Q1408.86 1511.89 1408.86 1518.28 Q1408.86 1524.68 1411.57 1528.37 Q1414.31 1532.03 1419.05 1532.03 Q1423.73 1532.03 1426.46 1528.34 Q1429.2 1524.65 1429.2 1518.28 Q1429.2 1511.95 1426.46 1508.26 Q1423.73 1504.53 1419.05 1504.53 M1419.05 1499.57 Q1426.69 1499.57 1431.05 1504.53 Q1435.41 1509.5 1435.41 1518.28 Q1435.41 1527.04 1431.05 1532.03 Q1426.69 1537 1419.05 1537 Q1411.38 1537 1407.02 1532.03 Q1402.69 1527.04 1402.69 1518.28 Q1402.69 1509.5 1407.02 1504.53 Q1411.38 1499.57 1419.05 1499.57 Z" fill="#000000" fill-rule="nonzero" fill-opacity="1" /><path clip-path="url(#clip910)" d="M1474.75 1514.56 L1474.75 1536.08 L1468.89 1536.08 L1468.89 1514.75 Q1468.89 1509.69 1466.92 1507.18 Q1464.94 1504.66 1461 1504.66 Q1456.26 1504.66 1453.52 1507.68 Q1450.78 1510.71 1450.78 1515.93 L1450.78 1536.08 L1444.89 1536.08 L1444.89 1500.43 L1450.78 1500.43 L1450.78 1505.97 Q1452.88 1502.75 1455.71 1501.16 Q1458.58 1499.57 1462.3 1499.57 Q1468.45 1499.57 1471.6 1503.39 Q1474.75 1507.18 1474.75 1514.56 Z" fill="#000000" fill-rule="nonzero" fill-opacity="1" /><path clip-path="url(#clip910)" d="M1521.22 1486.61 Q1516.95 1493.93 1514.88 1501.1 Q1512.81 1508.26 1512.81 1515.61 Q1512.81 1522.96 1514.88 1530.19 Q1516.98 1537.38 1521.22 1544.67 L1516.12 1544.67 Q1511.35 1537.19 1508.96 1529.96 Q1506.61 1522.74 1506.61 1515.61 Q1506.61 1508.51 1508.96 1501.32 Q1511.32 1494.13 1516.12 1486.61 L1521.22 1486.61 Z" fill="#000000" fill-rule="nonzero" fill-opacity="1" /><path clip-path="url(#clip910)" d="M1558.17 1518.28 Q1558.17 1511.82 1555.5 1508.16 Q1552.85 1504.47 1548.21 1504.47 Q1543.56 1504.47 1540.89 1508.16 Q1538.25 1511.82 1538.25 1518.28 Q1538.25 1524.74 1540.89 1528.44 Q1543.56 1532.1 1548.21 1532.1 Q1552.85 1532.1 1555.5 1528.44 Q1558.17 1524.74 1558.17 1518.28 M1538.25 1505.84 Q1540.09 1502.66 1542.89 1501.13 Q1545.73 1499.57 1549.64 1499.57 Q1556.13 1499.57 1560.18 1504.72 Q1564.25 1509.88 1564.25 1518.28 Q1564.25 1526.69 1560.18 1531.84 Q1556.13 1537 1549.64 1537 Q1545.73 1537 1542.89 1535.47 Q1540.09 1533.91 1538.25 1530.73 L1538.25 1536.08 L1532.36 1536.08 L1532.36 1486.55 L1538.25 1486.55 L1538.25 1505.84 Z" fill="#000000" fill-rule="nonzero" fill-opacity="1" /><path clip-path="url(#clip910)" d="M1573.96 1500.43 L1579.81 1500.43 L1579.81 1536.08 L1573.96 1536.08 L1573.96 1500.43 M1573.96 1486.55 L1579.81 1486.55 L1579.81 1493.97 L1573.96 1493.97 L1573.96 1486.55 Z" fill="#000000" fill-rule="nonzero" fill-opacity="1" /><path clip-path="url(#clip910)" d="M1597.86 1490.31 L1597.86 1500.43 L1609.92 1500.43 L1609.92 1504.98 L1597.86 1504.98 L1597.86 1524.33 Q1597.86 1528.69 1599.04 1529.93 Q1600.25 1531.17 1603.91 1531.17 L1609.92 1531.17 L1609.92 1536.08 L1603.91 1536.08 Q1597.13 1536.08 1594.55 1533.56 Q1591.97 1531.02 1591.97 1524.33 L1591.97 1504.98 L1587.68 1504.98 L1587.68 1500.43 L1591.97 1500.43 L1591.97 1490.31 L1597.86 1490.31 Z" fill="#000000" fill-rule="nonzero" fill-opacity="1" /><path clip-path="url(#clip910)" d="M1640.35 1501.48 L1640.35 1507.02 Q1637.87 1505.74 1635.2 1505.11 Q1632.52 1504.47 1629.66 1504.47 Q1625.3 1504.47 1623.1 1505.81 Q1620.94 1507.14 1620.94 1509.82 Q1620.94 1511.85 1622.5 1513.03 Q1624.06 1514.18 1628.77 1515.23 L1630.77 1515.67 Q1637.01 1517.01 1639.62 1519.46 Q1642.26 1521.88 1642.26 1526.24 Q1642.26 1531.21 1638.31 1534.1 Q1634.4 1537 1627.52 1537 Q1624.66 1537 1621.54 1536.43 Q1618.45 1535.88 1615.02 1534.77 L1615.02 1528.72 Q1618.26 1530.41 1621.41 1531.27 Q1624.56 1532.1 1627.65 1532.1 Q1631.79 1532.1 1634.02 1530.7 Q1636.25 1529.26 1636.25 1526.69 Q1636.25 1524.3 1634.62 1523.03 Q1633.03 1521.75 1627.59 1520.58 L1625.55 1520.1 Q1620.11 1518.95 1617.69 1516.6 Q1615.27 1514.21 1615.27 1510.07 Q1615.27 1505.04 1618.84 1502.31 Q1622.4 1499.57 1628.96 1499.57 Q1632.2 1499.57 1635.07 1500.05 Q1637.93 1500.52 1640.35 1501.48 Z" fill="#000000" fill-rule="nonzero" fill-opacity="1" /><path clip-path="url(#clip910)" d="M1650.66 1486.61 L1655.76 1486.61 Q1660.53 1494.13 1662.89 1501.32 Q1665.27 1508.51 1665.27 1515.61 Q1665.27 1522.74 1662.89 1529.96 Q1660.53 1537.19 1655.76 1544.67 L1650.66 1544.67 Q1654.9 1537.38 1656.97 1530.19 Q1659.07 1522.96 1659.07 1515.61 Q1659.07 1508.26 1656.97 1501.1 Q1654.9 1493.93 1650.66 1486.61 Z" fill="#000000" fill-rule="nonzero" fill-opacity="1" /><polyline clip-path="url(#clip910)" style="stroke:#000000; stroke-linecap:round; stroke-linejoin:round; stroke-width:4; stroke-opacity:1; fill:none" points="504.659,1306.54 504.659,244.432 "/>
<polyline clip-path="url(#clip910)" style="stroke:#000000; stroke-linecap:round; stroke-linejoin:round; stroke-width:4; stroke-opacity:1; fill:none" points="504.659,1306.54 523.557,1306.54 "/>
<polyline clip-path="url(#clip910)" style="stroke:#000000; stroke-linecap:round; stroke-linejoin:round; stroke-width:4; stroke-opacity:1; fill:none" points="504.659,1041.01 523.557,1041.01 "/>
<polyline clip-path="url(#clip910)" style="stroke:#000000; stroke-linecap:round; stroke-linejoin:round; stroke-width:4; stroke-opacity:1; fill:none" points="504.659,775.486 523.557,775.486 "/>
<polyline clip-path="url(#clip910)" style="stroke:#000000; stroke-linecap:round; stroke-linejoin:round; stroke-width:4; stroke-opacity:1; fill:none" points="504.659,509.959 523.557,509.959 "/>
<polyline clip-path="url(#clip910)" style="stroke:#000000; stroke-linecap:round; stroke-linejoin:round; stroke-width:4; stroke-opacity:1; fill:none" points="504.659,244.432 523.557,244.432 "/>
<path clip-path="url(#clip910)" d="M228.71 1283.46 Q222.842 1283.46 219.87 1289.26 Q216.936 1295.01 216.936 1306.6 Q216.936 1318.14 219.87 1323.94 Q222.842 1329.69 228.71 1329.69 Q234.615 1329.69 237.549 1323.94 Q240.521 1318.14 240.521 1306.6 Q240.521 1295.01 237.549 1289.26 Q234.615 1283.46 228.71 1283.46 M228.71 1277.44 Q238.151 1277.44 243.117 1284.93 Q248.119 1292.38 248.119 1306.6 Q248.119 1320.78 243.117 1328.26 Q238.151 1335.71 228.71 1335.71 Q219.268 1335.71 214.265 1328.26 Q209.3 1320.78 209.3 1306.6 Q209.3 1292.38 214.265 1284.93 Q219.268 1277.44 228.71 1277.44 Z" fill="#000000" fill-rule="nonzero" fill-opacity="1" /><path clip-path="url(#clip910)" d="M261.473 1325.07 L269.41 1325.07 L269.41 1334.62 L261.473 1334.62 L261.473 1325.07 Z" fill="#000000" fill-rule="nonzero" fill-opacity="1" /><path clip-path="url(#clip910)" d="M302.211 1283.46 Q296.343 1283.46 293.371 1289.26 Q290.437 1295.01 290.437 1306.6 Q290.437 1318.14 293.371 1323.94 Q296.343 1329.69 302.211 1329.69 Q308.116 1329.69 311.05 1323.94 Q314.022 1318.14 314.022 1306.6 Q314.022 1295.01 311.05 1289.26 Q308.116 1283.46 302.211 1283.46 M302.211 1277.44 Q311.652 1277.44 316.617 1284.93 Q321.62 1292.38 321.62 1306.6 Q321.62 1320.78 316.617 1328.26 Q311.652 1335.71 302.211 1335.71 Q292.769 1335.71 287.766 1328.26 Q282.801 1320.78 282.801 1306.6 Q282.801 1292.38 287.766 1284.93 Q292.769 1277.44 302.211 1277.44 Z" fill="#000000" fill-rule="nonzero" fill-opacity="1" /><path clip-path="url(#clip910)" d="M351.224 1283.46 Q345.356 1283.46 342.384 1289.26 Q339.45 1295.01 339.45 1306.6 Q339.45 1318.14 342.384 1323.94 Q345.356 1329.69 351.224 1329.69 Q357.129 1329.69 360.063 1323.94 Q363.035 1318.14 363.035 1306.6 Q363.035 1295.01 360.063 1289.26 Q357.129 1283.46 351.224 1283.46 M351.224 1277.44 Q360.665 1277.44 365.63 1284.93 Q370.633 1292.38 370.633 1306.6 Q370.633 1320.78 365.63 1328.26 Q360.665 1335.71 351.224 1335.71 Q341.782 1335.71 336.779 1328.26 Q331.814 1320.78 331.814 1306.6 Q331.814 1292.38 336.779 1284.93 Q341.782 1277.44 351.224 1277.44 Z" fill="#000000" fill-rule="nonzero" fill-opacity="1" /><path clip-path="url(#clip910)" d="M400.237 1283.46 Q394.369 1283.46 391.397 1289.26 Q388.463 1295.01 388.463 1306.6 Q388.463 1318.14 391.397 1323.94 Q394.369 1329.69 400.237 1329.69 Q406.142 1329.69 409.076 1323.94 Q412.048 1318.14 412.048 1306.6 Q412.048 1295.01 409.076 1289.26 Q406.142 1283.46 400.237 1283.46 M400.237 1277.44 Q409.678 1277.44 414.643 1284.93 Q419.646 1292.38 419.646 1306.6 Q419.646 1320.78 414.643 1328.26 Q409.678 1335.71 400.237 1335.71 Q390.795 1335.71 385.792 1328.26 Q380.827 1320.78 380.827 1306.6 Q380.827 1292.38 385.792 1284.93 Q390.795 1277.44 400.237 1277.44 Z" fill="#000000" fill-rule="nonzero" fill-opacity="1" /><path clip-path="url(#clip910)" d="M449.25 1283.46 Q443.382 1283.46 440.41 1289.26 Q437.476 1295.01 437.476 1306.6 Q437.476 1318.14 440.41 1323.94 Q443.382 1329.69 449.25 1329.69 Q455.155 1329.69 458.089 1323.94 Q461.061 1318.14 461.061 1306.6 Q461.061 1295.01 458.089 1289.26 Q455.155 1283.46 449.25 1283.46 M449.25 1277.44 Q458.691 1277.44 463.656 1284.93 Q468.659 1292.38 468.659 1306.6 Q468.659 1320.78 463.656 1328.26 Q458.691 1335.71 449.25 1335.71 Q439.808 1335.71 434.805 1328.26 Q429.84 1320.78 429.84 1306.6 Q429.84 1292.38 434.805 1284.93 Q439.808 1277.44 449.25 1277.44 Z" fill="#000000" fill-rule="nonzero" fill-opacity="1" /><path clip-path="url(#clip910)" d="M230.327 1017.94 Q224.459 1017.94 221.488 1023.73 Q218.554 1029.48 218.554 1041.07 Q218.554 1052.62 221.488 1058.41 Q224.459 1064.17 230.327 1064.17 Q236.233 1064.17 239.167 1058.41 Q242.139 1052.62 242.139 1041.07 Q242.139 1029.48 239.167 1023.73 Q236.233 1017.94 230.327 1017.94 M230.327 1011.92 Q239.769 1011.92 244.734 1019.4 Q249.737 1026.85 249.737 1041.07 Q249.737 1055.25 244.734 1062.74 Q239.769 1070.18 230.327 1070.18 Q220.886 1070.18 215.883 1062.74 Q210.918 1055.25 210.918 1041.07 Q210.918 1026.85 215.883 1019.4 Q220.886 1011.92 230.327 1011.92 Z" fill="#000000" fill-rule="nonzero" fill-opacity="1" /><path clip-path="url(#clip910)" d="M263.09 1059.54 L271.027 1059.54 L271.027 1069.09 L263.09 1069.09 L263.09 1059.54 Z" fill="#000000" fill-rule="nonzero" fill-opacity="1" /><path clip-path="url(#clip910)" d="M303.828 1017.94 Q297.96 1017.94 294.988 1023.73 Q292.054 1029.48 292.054 1041.07 Q292.054 1052.62 294.988 1058.41 Q297.96 1064.17 303.828 1064.17 Q309.734 1064.17 312.668 1058.41 Q315.639 1052.62 315.639 1041.07 Q315.639 1029.48 312.668 1023.73 Q309.734 1017.94 303.828 1017.94 M303.828 1011.92 Q313.27 1011.92 318.235 1019.4 Q323.238 1026.85 323.238 1041.07 Q323.238 1055.25 318.235 1062.74 Q313.27 1070.18 303.828 1070.18 Q294.387 1070.18 289.384 1062.74 Q284.418 1055.25 284.418 1041.07 Q284.418 1026.85 289.384 1019.4 Q294.387 1011.92 303.828 1011.92 Z" fill="#000000" fill-rule="nonzero" fill-opacity="1" /><path clip-path="url(#clip910)" d="M353.781 1037.98 Q348.666 1037.98 345.656 1041.48 Q342.685 1044.98 342.685 1051.08 Q342.685 1057.13 345.656 1060.67 Q348.666 1064.17 353.781 1064.17 Q358.897 1064.17 361.869 1060.67 Q364.878 1057.13 364.878 1051.08 Q364.878 1044.98 361.869 1041.48 Q358.897 1037.98 353.781 1037.98 M368.865 1014.17 L368.865 1021.1 Q366.006 1019.74 363.072 1019.03 Q360.176 1018.31 357.317 1018.31 Q349.794 1018.31 345.807 1023.39 Q341.857 1028.47 341.293 1038.74 Q343.512 1035.46 346.86 1033.73 Q350.208 1031.97 354.233 1031.97 Q362.696 1031.97 367.586 1037.12 Q372.514 1042.24 372.514 1051.08 Q372.514 1059.73 367.398 1064.96 Q362.283 1070.18 353.781 1070.18 Q344.039 1070.18 338.886 1062.74 Q333.732 1055.25 333.732 1041.07 Q333.732 1027.75 340.052 1019.85 Q346.371 1011.92 357.016 1011.92 Q359.875 1011.92 362.772 1012.48 Q365.706 1013.05 368.865 1014.17 Z" fill="#000000" fill-rule="nonzero" fill-opacity="1" /><path clip-path="url(#clip910)" d="M392.149 1062.7 L418.668 1062.7 L418.668 1069.09 L383.009 1069.09 L383.009 1062.7 Q387.335 1058.22 394.782 1050.7 Q402.268 1043.14 404.186 1040.96 Q407.835 1036.86 409.264 1034.04 Q410.731 1031.18 410.731 1028.43 Q410.731 1023.95 407.572 1021.13 Q404.45 1018.31 399.409 1018.31 Q395.836 1018.31 391.848 1019.55 Q387.899 1020.79 383.385 1023.31 L383.385 1015.64 Q387.974 1013.8 391.961 1012.86 Q395.948 1011.92 399.259 1011.92 Q407.985 1011.92 413.176 1016.28 Q418.367 1020.64 418.367 1027.94 Q418.367 1031.4 417.051 1034.52 Q415.772 1037.61 412.349 1041.82 Q411.408 1042.91 406.368 1048.14 Q401.327 1053.33 392.149 1062.7 Z" fill="#000000" fill-rule="nonzero" fill-opacity="1" /><path clip-path="url(#clip910)" d="M434.692 1012.93 L464.522 1012.93 L464.522 1019.33 L441.651 1019.33 L441.651 1033.09 Q443.306 1032.53 444.962 1032.27 Q446.617 1031.97 448.272 1031.97 Q457.676 1031.97 463.167 1037.12 Q468.659 1042.27 468.659 1051.08 Q468.659 1060.14 463.017 1065.18 Q457.375 1070.18 447.106 1070.18 Q443.57 1070.18 439.883 1069.58 Q436.235 1068.98 432.323 1067.78 L432.323 1060.14 Q435.708 1061.98 439.319 1062.89 Q442.93 1063.79 446.955 1063.79 Q453.463 1063.79 457.262 1060.37 Q461.061 1056.94 461.061 1051.08 Q461.061 1045.21 457.262 1041.78 Q453.463 1038.36 446.955 1038.36 Q443.908 1038.36 440.861 1039.04 Q437.852 1039.72 434.692 1041.14 L434.692 1012.93 Z" fill="#000000" fill-rule="nonzero" fill-opacity="1" /><path clip-path="url(#clip910)" d="M228.71 752.409 Q222.842 752.409 219.87 758.202 Q216.936 763.957 216.936 775.542 Q216.936 787.09 219.87 792.883 Q222.842 798.638 228.71 798.638 Q234.615 798.638 237.549 792.883 Q240.521 787.09 240.521 775.542 Q240.521 763.957 237.549 758.202 Q234.615 752.409 228.71 752.409 M228.71 746.39 Q238.151 746.39 243.117 753.876 Q248.119 761.324 248.119 775.542 Q248.119 789.723 243.117 797.209 Q238.151 804.657 228.71 804.657 Q219.268 804.657 214.265 797.209 Q209.3 789.723 209.3 775.542 Q209.3 761.324 214.265 753.876 Q219.268 746.39 228.71 746.39 Z" fill="#000000" fill-rule="nonzero" fill-opacity="1" /><path clip-path="url(#clip910)" d="M261.473 794.012 L269.41 794.012 L269.41 803.566 L261.473 803.566 L261.473 794.012 Z" fill="#000000" fill-rule="nonzero" fill-opacity="1" /><path clip-path="url(#clip910)" d="M287.277 797.171 L299.69 797.171 L299.69 754.327 L286.186 757.036 L286.186 750.114 L299.615 747.406 L307.213 747.406 L307.213 797.171 L319.627 797.171 L319.627 803.566 L287.277 803.566 L287.277 797.171 Z" fill="#000000" fill-rule="nonzero" fill-opacity="1" /><path clip-path="url(#clip910)" d="M341.519 797.171 L368.038 797.171 L368.038 803.566 L332.378 803.566 L332.378 797.171 Q336.704 792.695 344.152 785.172 Q351.637 777.611 353.556 775.43 Q357.204 771.329 358.634 768.508 Q360.101 765.65 360.101 762.904 Q360.101 758.427 356.941 755.606 Q353.819 752.785 348.779 752.785 Q345.205 752.785 341.218 754.026 Q337.268 755.268 332.754 757.788 L332.754 750.114 Q337.343 748.271 341.331 747.331 Q345.318 746.39 348.628 746.39 Q357.355 746.39 362.546 750.754 Q367.737 755.117 367.737 762.415 Q367.737 765.875 366.42 768.997 Q365.141 772.082 361.718 776.295 Q360.778 777.386 355.737 782.614 Q350.697 787.805 341.519 797.171 Z" fill="#000000" fill-rule="nonzero" fill-opacity="1" /><path clip-path="url(#clip910)" d="M384.062 747.406 L413.891 747.406 L413.891 753.801 L391.021 753.801 L391.021 767.568 Q392.676 767.004 394.331 766.74 Q395.986 766.439 397.641 766.439 Q407.045 766.439 412.537 771.593 Q418.029 776.746 418.029 785.548 Q418.029 794.613 412.386 799.654 Q406.744 804.657 396.475 804.657 Q392.939 804.657 389.253 804.055 Q385.604 803.453 381.692 802.249 L381.692 794.613 Q385.078 796.457 388.689 797.359 Q392.3 798.262 396.325 798.262 Q402.832 798.262 406.631 794.839 Q410.43 791.416 410.43 785.548 Q410.43 779.68 406.631 776.257 Q402.832 772.834 396.325 772.834 Q393.278 772.834 390.231 773.511 Q387.222 774.188 384.062 775.618 L384.062 747.406 Z" fill="#000000" fill-rule="nonzero" fill-opacity="1" /><path clip-path="url(#clip910)" d="M449.25 752.409 Q443.382 752.409 440.41 758.202 Q437.476 763.957 437.476 775.542 Q437.476 787.09 440.41 792.883 Q443.382 798.638 449.25 798.638 Q455.155 798.638 458.089 792.883 Q461.061 787.09 461.061 775.542 Q461.061 763.957 458.089 758.202 Q455.155 752.409 449.25 752.409 M449.25 746.39 Q458.691 746.39 463.656 753.876 Q468.659 761.324 468.659 775.542 Q468.659 789.723 463.656 797.209 Q458.691 804.657 449.25 804.657 Q439.808 804.657 434.805 797.209 Q429.84 789.723 429.84 775.542 Q429.84 761.324 434.805 753.876 Q439.808 746.39 449.25 746.39 Z" fill="#000000" fill-rule="nonzero" fill-opacity="1" /><path clip-path="url(#clip910)" d="M230.327 486.882 Q224.459 486.882 221.488 492.675 Q218.554 498.43 218.554 510.015 Q218.554 521.563 221.488 527.356 Q224.459 533.111 230.327 533.111 Q236.233 533.111 239.167 527.356 Q242.139 521.563 242.139 510.015 Q242.139 498.43 239.167 492.675 Q236.233 486.882 230.327 486.882 M230.327 480.863 Q239.769 480.863 244.734 488.349 Q249.737 495.797 249.737 510.015 Q249.737 524.197 244.734 531.682 Q239.769 539.13 230.327 539.13 Q220.886 539.13 215.883 531.682 Q210.918 524.197 210.918 510.015 Q210.918 495.797 215.883 488.349 Q220.886 480.863 230.327 480.863 Z" fill="#000000" fill-rule="nonzero" fill-opacity="1" /><path clip-path="url(#clip910)" d="M263.09 528.485 L271.027 528.485 L271.027 538.039 L263.09 538.039 L263.09 528.485 Z" fill="#000000" fill-rule="nonzero" fill-opacity="1" /><path clip-path="url(#clip910)" d="M288.895 531.644 L301.308 531.644 L301.308 488.8 L287.804 491.509 L287.804 484.587 L301.233 481.879 L308.831 481.879 L308.831 531.644 L321.244 531.644 L321.244 538.039 L288.895 538.039 L288.895 531.644 Z" fill="#000000" fill-rule="nonzero" fill-opacity="1" /><path clip-path="url(#clip910)" d="M352.841 511.37 Q347.424 511.37 344.302 514.266 Q341.218 517.162 341.218 522.241 Q341.218 527.319 344.302 530.215 Q347.424 533.111 352.841 533.111 Q358.258 533.111 361.38 530.215 Q364.502 527.281 364.502 522.241 Q364.502 517.162 361.38 514.266 Q358.295 511.37 352.841 511.37 M345.243 508.135 Q340.353 506.931 337.607 503.583 Q334.898 500.235 334.898 495.421 Q334.898 488.687 339.676 484.775 Q344.49 480.863 352.841 480.863 Q361.229 480.863 366.006 484.775 Q370.784 488.687 370.784 495.421 Q370.784 500.235 368.038 503.583 Q365.329 506.931 360.477 508.135 Q365.969 509.414 369.016 513.138 Q372.1 516.862 372.1 522.241 Q372.1 530.403 367.097 534.767 Q362.132 539.13 352.841 539.13 Q343.55 539.13 338.547 534.767 Q333.582 530.403 333.582 522.241 Q333.582 516.862 336.666 513.138 Q339.751 509.414 345.243 508.135 M342.459 496.135 Q342.459 500.499 345.167 502.944 Q347.913 505.389 352.841 505.389 Q357.731 505.389 360.477 502.944 Q363.261 500.499 363.261 496.135 Q363.261 491.772 360.477 489.327 Q357.731 486.882 352.841 486.882 Q347.913 486.882 345.167 489.327 Q342.459 491.772 342.459 496.135 Z" fill="#000000" fill-rule="nonzero" fill-opacity="1" /><path clip-path="url(#clip910)" d="M383.686 481.879 L419.797 481.879 L419.797 485.114 L399.409 538.039 L391.472 538.039 L410.656 488.274 L383.686 488.274 L383.686 481.879 Z" fill="#000000" fill-rule="nonzero" fill-opacity="1" /><path clip-path="url(#clip910)" d="M434.692 481.879 L464.522 481.879 L464.522 488.274 L441.651 488.274 L441.651 502.041 Q443.306 501.477 444.962 501.213 Q446.617 500.913 448.272 500.913 Q457.676 500.913 463.167 506.066 Q468.659 511.219 468.659 520.021 Q468.659 529.087 463.017 534.127 Q457.375 539.13 447.106 539.13 Q443.57 539.13 439.883 538.528 Q436.235 537.926 432.323 536.723 L432.323 529.087 Q435.708 530.93 439.319 531.832 Q442.93 532.735 446.955 532.735 Q453.463 532.735 457.262 529.312 Q461.061 525.889 461.061 520.021 Q461.061 514.153 457.262 510.73 Q453.463 507.307 446.955 507.307 Q443.908 507.307 440.861 507.984 Q437.852 508.661 434.692 510.091 L434.692 481.879 Z" fill="#000000" fill-rule="nonzero" fill-opacity="1" /><path clip-path="url(#clip910)" d="M228.71 221.355 Q222.842 221.355 219.87 227.148 Q216.936 232.903 216.936 244.489 Q216.936 256.037 219.87 261.829 Q222.842 267.584 228.71 267.584 Q234.615 267.584 237.549 261.829 Q240.521 256.037 240.521 244.489 Q240.521 232.903 237.549 227.148 Q234.615 221.355 228.71 221.355 M228.71 215.337 Q238.151 215.337 243.117 222.822 Q248.119 230.27 248.119 244.489 Q248.119 258.67 243.117 266.155 Q238.151 273.603 228.71 273.603 Q219.268 273.603 214.265 266.155 Q209.3 258.67 209.3 244.489 Q209.3 230.27 214.265 222.822 Q219.268 215.337 228.71 215.337 Z" fill="#000000" fill-rule="nonzero" fill-opacity="1" /><path clip-path="url(#clip910)" d="M261.473 262.958 L269.41 262.958 L269.41 272.512 L261.473 272.512 L261.473 262.958 Z" fill="#000000" fill-rule="nonzero" fill-opacity="1" /><path clip-path="url(#clip910)" d="M292.506 266.117 L319.025 266.117 L319.025 272.512 L283.365 272.512 L283.365 266.117 Q287.691 261.641 295.139 254.118 Q302.624 246.557 304.543 244.376 Q308.191 240.276 309.621 237.454 Q311.088 234.596 311.088 231.85 Q311.088 227.373 307.928 224.552 Q304.806 221.731 299.766 221.731 Q296.192 221.731 292.205 222.972 Q288.255 224.214 283.741 226.734 L283.741 219.06 Q288.33 217.217 292.318 216.277 Q296.305 215.337 299.615 215.337 Q308.342 215.337 313.533 219.7 Q318.724 224.063 318.724 231.361 Q318.724 234.821 317.407 237.943 Q316.128 241.028 312.705 245.241 Q311.765 246.332 306.724 251.56 Q301.684 256.751 292.506 266.117 Z" fill="#000000" fill-rule="nonzero" fill-opacity="1" /><path clip-path="url(#clip910)" d="M335.049 216.352 L364.878 216.352 L364.878 222.747 L342.008 222.747 L342.008 236.514 Q343.663 235.95 345.318 235.687 Q346.973 235.386 348.628 235.386 Q358.032 235.386 363.524 240.539 Q369.016 245.692 369.016 254.494 Q369.016 263.56 363.373 268.6 Q357.731 273.603 347.462 273.603 Q343.926 273.603 340.24 273.001 Q336.591 272.399 332.679 271.196 L332.679 263.56 Q336.065 265.403 339.676 266.306 Q343.287 267.208 347.312 267.208 Q353.819 267.208 357.618 263.785 Q361.417 260.362 361.417 254.494 Q361.417 248.626 357.618 245.203 Q353.819 241.78 347.312 241.78 Q344.265 241.78 341.218 242.457 Q338.209 243.134 335.049 244.564 L335.049 216.352 Z" fill="#000000" fill-rule="nonzero" fill-opacity="1" /><path clip-path="url(#clip910)" d="M400.237 221.355 Q394.369 221.355 391.397 227.148 Q388.463 232.903 388.463 244.489 Q388.463 256.037 391.397 261.829 Q394.369 267.584 400.237 267.584 Q406.142 267.584 409.076 261.829 Q412.048 256.037 412.048 244.489 Q412.048 232.903 409.076 227.148 Q406.142 221.355 400.237 221.355 M400.237 215.337 Q409.678 215.337 414.643 222.822 Q419.646 230.27 419.646 244.489 Q419.646 258.67 414.643 266.155 Q409.678 273.603 400.237 273.603 Q390.795 273.603 385.792 266.155 Q380.827 258.67 380.827 244.489 Q380.827 230.27 385.792 222.822 Q390.795 215.337 400.237 215.337 Z" fill="#000000" fill-rule="nonzero" fill-opacity="1" /><path clip-path="url(#clip910)" d="M449.25 221.355 Q443.382 221.355 440.41 227.148 Q437.476 232.903 437.476 244.489 Q437.476 256.037 440.41 261.829 Q443.382 267.584 449.25 267.584 Q455.155 267.584 458.089 261.829 Q461.061 256.037 461.061 244.489 Q461.061 232.903 458.089 227.148 Q455.155 221.355 449.25 221.355 M449.25 215.337 Q458.691 215.337 463.656 222.822 Q468.659 230.27 468.659 244.489 Q468.659 258.67 463.656 266.155 Q458.691 273.603 449.25 273.603 Q439.808 273.603 434.805 266.155 Q429.84 258.67 429.84 244.489 Q429.84 230.27 434.805 222.822 Q439.808 215.337 449.25 215.337 Z" fill="#000000" fill-rule="nonzero" fill-opacity="1" /><path clip-path="url(#clip910)" d="M106.177 1072.3 L125.083 1072.3 L125.083 1078.19 L75.8762 1078.19 L75.8762 1072.3 L81.2871 1072.3 Q78.1042 1070.46 76.5764 1067.66 Q75.0168 1064.82 75.0168 1060.91 Q75.0168 1054.42 80.1731 1050.37 Q85.3293 1046.3 93.732 1046.3 Q102.135 1046.3 107.291 1050.37 Q112.447 1054.42 112.447 1060.91 Q112.447 1064.82 110.919 1067.66 Q109.36 1070.46 106.177 1072.3 M93.732 1052.38 Q87.2708 1052.38 83.6105 1055.05 Q79.9184 1057.69 79.9184 1062.34 Q79.9184 1066.99 83.6105 1069.66 Q87.2708 1072.3 93.732 1072.3 Q100.193 1072.3 103.885 1069.66 Q107.546 1066.99 107.546 1062.34 Q107.546 1057.69 103.885 1055.05 Q100.193 1052.38 93.732 1052.38 Z" fill="#000000" fill-rule="nonzero" fill-opacity="1" /><path clip-path="url(#clip910)" d="M81.3507 1015.93 Q80.7778 1016.92 80.5232 1018.1 Q80.2367 1019.24 80.2367 1020.65 Q80.2367 1025.61 83.4832 1028.28 Q86.6979 1030.93 92.7453 1030.93 L111.524 1030.93 L111.524 1036.81 L75.8762 1036.81 L75.8762 1030.93 L81.4144 1030.93 Q78.1679 1029.08 76.6083 1026.12 Q75.0168 1023.16 75.0168 1018.93 Q75.0168 1018.32 75.1123 1017.59 Q75.176 1016.86 75.3351 1015.97 L81.3507 1015.93 Z" fill="#000000" fill-rule="nonzero" fill-opacity="1" /><path clip-path="url(#clip910)" d="M79.9821 997.41 Q79.9821 1002.12 83.6742 1004.86 Q87.3345 1007.6 93.732 1007.6 Q100.13 1007.6 103.822 1004.89 Q107.482 1002.15 107.482 997.41 Q107.482 992.732 103.79 989.994 Q100.098 987.257 93.732 987.257 Q87.3981 987.257 83.706 989.994 Q79.9821 992.732 79.9821 997.41 M75.0168 997.41 Q75.0168 989.772 79.9821 985.411 Q84.9473 981.051 93.732 981.051 Q102.485 981.051 107.482 985.411 Q112.447 989.772 112.447 997.41 Q112.447 1005.08 107.482 1009.44 Q102.485 1013.77 93.732 1013.77 Q84.9473 1013.77 79.9821 1009.44 Q75.0168 1005.08 75.0168 997.41 Z" fill="#000000" fill-rule="nonzero" fill-opacity="1" /><path clip-path="url(#clip910)" d="M106.177 965.677 L125.083 965.677 L125.083 971.566 L75.8762 971.566 L75.8762 965.677 L81.2871 965.677 Q78.1042 963.831 76.5764 961.03 Q75.0168 958.198 75.0168 954.283 Q75.0168 947.79 80.1731 943.748 Q85.3293 939.673 93.732 939.673 Q102.135 939.673 107.291 943.748 Q112.447 947.79 112.447 954.283 Q112.447 958.198 110.919 961.03 Q109.36 963.831 106.177 965.677 M93.732 945.753 Q87.2708 945.753 83.6105 948.426 Q79.9184 951.068 79.9184 955.715 Q79.9184 960.362 83.6105 963.036 Q87.2708 965.677 93.732 965.677 Q100.193 965.677 103.885 963.036 Q107.546 960.362 107.546 955.715 Q107.546 951.068 103.885 948.426 Q100.193 945.753 93.732 945.753 Z" fill="#000000" fill-rule="nonzero" fill-opacity="1" /><path clip-path="url(#clip910)" d="M79.9821 916.152 Q79.9821 920.863 83.6742 923.6 Q87.3345 926.337 93.732 926.337 Q100.13 926.337 103.822 923.632 Q107.482 920.895 107.482 916.152 Q107.482 911.473 103.79 908.736 Q100.098 905.999 93.732 905.999 Q87.3981 905.999 83.706 908.736 Q79.9821 911.473 79.9821 916.152 M75.0168 916.152 Q75.0168 908.513 79.9821 904.153 Q84.9473 899.792 93.732 899.792 Q102.485 899.792 107.482 904.153 Q112.447 908.513 112.447 916.152 Q112.447 923.823 107.482 928.183 Q102.485 932.512 93.732 932.512 Q84.9473 932.512 79.9821 928.183 Q75.0168 923.823 75.0168 916.152 Z" fill="#000000" fill-rule="nonzero" fill-opacity="1" /><path clip-path="url(#clip910)" d="M81.3507 869.428 Q80.7778 870.415 80.5232 871.592 Q80.2367 872.738 80.2367 874.139 Q80.2367 879.104 83.4832 881.777 Q86.6979 884.419 92.7453 884.419 L111.524 884.419 L111.524 890.307 L75.8762 890.307 L75.8762 884.419 L81.4144 884.419 Q78.1679 882.573 76.6083 879.613 Q75.0168 876.653 75.0168 872.42 Q75.0168 871.815 75.1123 871.083 Q75.176 870.351 75.3351 869.46 L81.3507 869.428 Z" fill="#000000" fill-rule="nonzero" fill-opacity="1" /><path clip-path="url(#clip910)" d="M65.7547 857.492 L75.8762 857.492 L75.8762 845.429 L80.4277 845.429 L80.4277 857.492 L99.7794 857.492 Q104.14 857.492 105.381 856.315 Q106.623 855.105 106.623 851.445 L106.623 845.429 L111.524 845.429 L111.524 851.445 Q111.524 858.224 109.01 860.802 Q106.463 863.38 99.7794 863.38 L80.4277 863.38 L80.4277 867.677 L75.8762 867.677 L75.8762 863.38 L65.7547 863.38 L65.7547 857.492 Z" fill="#000000" fill-rule="nonzero" fill-opacity="1" /><path clip-path="url(#clip910)" d="M75.8762 837.727 L75.8762 831.87 L111.524 831.87 L111.524 837.727 L75.8762 837.727 M61.999 837.727 L61.999 831.87 L69.415 831.87 L69.415 837.727 L61.999 837.727 Z" fill="#000000" fill-rule="nonzero" fill-opacity="1" /><path clip-path="url(#clip910)" d="M79.9821 805.803 Q79.9821 810.513 83.6742 813.251 Q87.3345 815.988 93.732 815.988 Q100.13 815.988 103.822 813.282 Q107.482 810.545 107.482 805.803 Q107.482 801.124 103.79 798.387 Q100.098 795.649 93.732 795.649 Q87.3981 795.649 83.706 798.387 Q79.9821 801.124 79.9821 805.803 M75.0168 805.803 Q75.0168 798.164 79.9821 793.803 Q84.9473 789.443 93.732 789.443 Q102.485 789.443 107.482 793.803 Q112.447 798.164 112.447 805.803 Q112.447 813.473 107.482 817.834 Q102.485 822.163 93.732 822.163 Q84.9473 822.163 79.9821 817.834 Q75.0168 813.473 75.0168 805.803 Z" fill="#000000" fill-rule="nonzero" fill-opacity="1" /><path clip-path="url(#clip910)" d="M90.0081 750.103 L111.524 750.103 L111.524 755.959 L90.199 755.959 Q85.1383 755.959 82.6238 757.933 Q80.1094 759.906 80.1094 763.853 Q80.1094 768.595 83.1331 771.332 Q86.1568 774.07 91.3767 774.07 L111.524 774.07 L111.524 779.958 L75.8762 779.958 L75.8762 774.07 L81.4144 774.07 Q78.1997 771.969 76.6083 769.136 Q75.0168 766.272 75.0168 762.548 Q75.0168 756.405 78.8363 753.254 Q82.6238 750.103 90.0081 750.103 Z" fill="#000000" fill-rule="nonzero" fill-opacity="1" /><path clip-path="url(#clip910)" d="M90.0081 688.069 L111.524 688.069 L111.524 693.925 L90.199 693.925 Q85.1383 693.925 82.6238 695.899 Q80.1094 697.872 80.1094 701.819 Q80.1094 706.561 83.1331 709.299 Q86.1568 712.036 91.3767 712.036 L111.524 712.036 L111.524 717.924 L61.999 717.924 L61.999 712.036 L81.4144 712.036 Q78.1997 709.935 76.6083 707.102 Q75.0168 704.238 75.0168 700.514 Q75.0168 694.371 78.8363 691.22 Q82.6238 688.069 90.0081 688.069 Z" fill="#000000" fill-rule="nonzero" fill-opacity="1" /><path clip-path="url(#clip910)" d="M93.6047 660.187 Q93.6047 667.285 95.2279 670.022 Q96.8512 672.759 100.766 672.759 Q103.885 672.759 105.731 670.722 Q107.546 668.654 107.546 665.121 Q107.546 660.251 104.108 657.323 Q100.639 654.363 94.9097 654.363 L93.6047 654.363 L93.6047 660.187 M91.1857 648.506 L111.524 648.506 L111.524 654.363 L106.113 654.363 Q109.36 656.368 110.919 659.36 Q112.447 662.351 112.447 666.68 Q112.447 672.155 109.392 675.401 Q106.304 678.616 101.148 678.616 Q95.1325 678.616 92.0769 674.605 Q89.0214 670.563 89.0214 662.574 L89.0214 654.363 L88.4485 654.363 Q84.4062 654.363 82.2101 657.036 Q79.9821 659.678 79.9821 664.484 Q79.9821 667.54 80.7141 670.436 Q81.4462 673.332 82.9103 676.006 L77.4995 676.006 Q76.2581 672.791 75.6534 669.768 Q75.0168 666.744 75.0168 663.879 Q75.0168 656.145 79.0272 652.325 Q83.0376 648.506 91.1857 648.506 Z" fill="#000000" fill-rule="nonzero" fill-opacity="1" /><path clip-path="url(#clip910)" d="M61.999 636.443 L61.999 630.587 L111.524 630.587 L111.524 636.443 L61.999 636.443 Z" fill="#000000" fill-rule="nonzero" fill-opacity="1" /><path clip-path="url(#clip910)" d="M61.999 600.286 L66.8687 600.286 L66.8687 605.888 Q66.8687 609.039 68.1419 610.28 Q69.415 611.489 72.7252 611.489 L75.8762 611.489 L75.8762 601.845 L80.4277 601.845 L80.4277 611.489 L111.524 611.489 L111.524 617.378 L80.4277 617.378 L80.4277 622.98 L75.8762 622.98 L75.8762 617.378 L73.3936 617.378 Q67.4416 617.378 64.7362 614.609 Q61.999 611.84 61.999 605.824 L61.999 600.286 Z" fill="#000000" fill-rule="nonzero" fill-opacity="1" /><path clip-path="url(#clip910)" d="M75.8762 599.936 L75.8762 594.079 L103.694 586.759 L75.8762 579.47 L75.8762 572.563 L103.694 565.243 L75.8762 557.954 L75.8762 552.097 L111.524 561.423 L111.524 568.33 L82.3056 576.001 L111.524 583.703 L111.524 590.61 L75.8762 599.936 Z" fill="#000000" fill-rule="nonzero" fill-opacity="1" /><path clip-path="url(#clip910)" d="M93.6047 527.017 Q93.6047 534.114 95.2279 536.852 Q96.8512 539.589 100.766 539.589 Q103.885 539.589 105.731 537.552 Q107.546 535.483 107.546 531.95 Q107.546 527.08 104.108 524.152 Q100.639 521.192 94.9097 521.192 L93.6047 521.192 L93.6047 527.017 M91.1857 515.335 L111.524 515.335 L111.524 521.192 L106.113 521.192 Q109.36 523.197 110.919 526.189 Q112.447 529.181 112.447 533.51 Q112.447 538.984 109.392 542.231 Q106.304 545.445 101.148 545.445 Q95.1325 545.445 92.0769 541.435 Q89.0214 537.393 89.0214 529.404 L89.0214 521.192 L88.4485 521.192 Q84.4062 521.192 82.2101 523.866 Q79.9821 526.507 79.9821 531.313 Q79.9821 534.369 80.7141 537.265 Q81.4462 540.162 82.9103 542.835 L77.4995 542.835 Q76.2581 539.621 75.6534 536.597 Q75.0168 533.573 75.0168 530.709 Q75.0168 522.974 79.0272 519.155 Q83.0376 515.335 91.1857 515.335 Z" fill="#000000" fill-rule="nonzero" fill-opacity="1" /><path clip-path="url(#clip910)" d="M114.834 488.44 Q121.2 490.923 123.142 493.278 Q125.083 495.634 125.083 499.58 L125.083 504.259 L120.182 504.259 L120.182 500.822 Q120.182 498.403 119.036 497.066 Q117.89 495.729 113.625 494.106 L110.951 493.055 L75.8762 507.474 L75.8762 501.267 L103.758 490.127 L75.8762 478.987 L75.8762 472.781 L114.834 488.44 Z" fill="#000000" fill-rule="nonzero" fill-opacity="1" /><path clip-path="url(#clip910)" d="M1118.85 160.926 Q1124.73 162.182 1128.01 166.152 Q1131.33 170.122 1131.33 175.955 Q1131.33 184.908 1125.17 189.809 Q1119.02 194.711 1107.67 194.711 Q1103.87 194.711 1099.81 193.941 Q1095.8 193.212 1091.51 191.713 L1091.51 183.814 Q1094.91 185.799 1098.96 186.811 Q1103.01 187.824 1107.43 187.824 Q1115.13 187.824 1119.14 184.786 Q1123.19 181.748 1123.19 175.955 Q1123.19 170.608 1119.42 167.61 Q1115.69 164.572 1109.01 164.572 L1101.96 164.572 L1101.96 157.848 L1109.33 157.848 Q1115.37 157.848 1118.57 155.458 Q1121.77 153.027 1121.77 148.49 Q1121.77 143.831 1118.45 141.36 Q1115.17 138.849 1109.01 138.849 Q1105.65 138.849 1101.8 139.578 Q1097.95 140.307 1093.33 141.846 L1093.33 134.555 Q1097.99 133.259 1102.04 132.61 Q1106.13 131.962 1109.74 131.962 Q1119.06 131.962 1124.48 136.216 Q1129.91 140.429 1129.91 147.639 Q1129.91 152.662 1127.04 156.146 Q1124.16 159.589 1118.85 160.926 Z" fill="#000000" fill-rule="nonzero" fill-opacity="1" /><path clip-path="url(#clip910)" d="M1142.03 167.489 L1163.86 167.489 L1163.86 174.132 L1142.03 174.132 L1142.03 167.489 Z" fill="#000000" fill-rule="nonzero" fill-opacity="1" /><path clip-path="url(#clip910)" d="M1208.3 170.891 Q1208.3 162.668 1204.9 158.01 Q1201.53 153.311 1195.62 153.311 Q1189.7 153.311 1186.3 158.01 Q1182.94 162.668 1182.94 170.891 Q1182.94 179.115 1186.3 183.814 Q1189.7 188.472 1195.62 188.472 Q1201.53 188.472 1204.9 183.814 Q1208.3 179.115 1208.3 170.891 M1182.94 155.052 Q1185.29 151.002 1188.85 149.057 Q1192.46 147.072 1197.44 147.072 Q1205.71 147.072 1210.85 153.635 Q1216.04 160.197 1216.04 170.891 Q1216.04 181.586 1210.85 188.148 Q1205.71 194.711 1197.44 194.711 Q1192.46 194.711 1188.85 192.766 Q1185.29 190.781 1182.94 186.73 L1182.94 193.536 L1175.45 193.536 L1175.45 130.504 L1182.94 130.504 L1182.94 155.052 Z" fill="#000000" fill-rule="nonzero" fill-opacity="1" /><path clip-path="url(#clip910)" d="M1228.39 148.166 L1235.84 148.166 L1235.84 193.536 L1228.39 193.536 L1228.39 148.166 M1228.39 130.504 L1235.84 130.504 L1235.84 139.943 L1228.39 139.943 L1228.39 130.504 Z" fill="#000000" fill-rule="nonzero" fill-opacity="1" /><path clip-path="url(#clip910)" d="M1258.81 135.284 L1258.81 148.166 L1274.17 148.166 L1274.17 153.959 L1258.81 153.959 L1258.81 178.588 Q1258.81 184.138 1260.31 185.718 Q1261.85 187.298 1266.51 187.298 L1274.17 187.298 L1274.17 193.536 L1266.51 193.536 Q1257.88 193.536 1254.6 190.336 Q1251.32 187.095 1251.32 178.588 L1251.32 153.959 L1245.85 153.959 L1245.85 148.166 L1251.32 148.166 L1251.32 135.284 L1258.81 135.284 Z" fill="#000000" fill-rule="nonzero" fill-opacity="1" /><path clip-path="url(#clip910)" d="M1333.31 130.504 L1333.31 136.702 L1326.18 136.702 Q1322.17 136.702 1320.59 138.322 Q1319.05 139.943 1319.05 144.155 L1319.05 148.166 L1331.32 148.166 L1331.32 153.959 L1319.05 153.959 L1319.05 193.536 L1311.56 193.536 L1311.56 153.959 L1304.43 153.959 L1304.43 148.166 L1311.56 148.166 L1311.56 145.006 Q1311.56 137.431 1315.08 133.988 Q1318.6 130.504 1326.26 130.504 L1333.31 130.504 Z" fill="#000000" fill-rule="nonzero" fill-opacity="1" /><path clip-path="url(#clip910)" d="M1339.55 148.166 L1347 148.166 L1347 193.536 L1339.55 193.536 L1339.55 148.166 M1339.55 130.504 L1347 130.504 L1347 139.943 L1339.55 139.943 L1339.55 130.504 Z" fill="#000000" fill-rule="nonzero" fill-opacity="1" /><path clip-path="url(#clip910)" d="M1400.31 166.152 L1400.31 193.536 L1392.86 193.536 L1392.86 166.395 Q1392.86 159.954 1390.35 156.754 Q1387.83 153.554 1382.81 153.554 Q1376.78 153.554 1373.29 157.402 Q1369.81 161.25 1369.81 167.894 L1369.81 193.536 L1362.31 193.536 L1362.31 148.166 L1369.81 148.166 L1369.81 155.214 Q1372.48 151.123 1376.09 149.098 Q1379.73 147.072 1384.47 147.072 Q1392.29 147.072 1396.3 151.933 Q1400.31 156.754 1400.31 166.152 Z" fill="#000000" fill-rule="nonzero" fill-opacity="1" /><path clip-path="url(#clip910)" d="M1415.18 148.166 L1422.63 148.166 L1422.63 193.536 L1415.18 193.536 L1415.18 148.166 M1415.18 130.504 L1422.63 130.504 L1422.63 139.943 L1415.18 139.943 L1415.18 130.504 Z" fill="#000000" fill-rule="nonzero" fill-opacity="1" /><path clip-path="url(#clip910)" d="M1445.6 135.284 L1445.6 148.166 L1460.95 148.166 L1460.95 153.959 L1445.6 153.959 L1445.6 178.588 Q1445.6 184.138 1447.1 185.718 Q1448.64 187.298 1453.3 187.298 L1460.95 187.298 L1460.95 193.536 L1453.3 193.536 Q1444.67 193.536 1441.39 190.336 Q1438.11 187.095 1438.11 178.588 L1438.11 153.959 L1432.64 153.959 L1432.64 148.166 L1438.11 148.166 L1438.11 135.284 L1445.6 135.284 Z" fill="#000000" fill-rule="nonzero" fill-opacity="1" /><path clip-path="url(#clip910)" d="M1509.56 168.988 L1509.56 172.633 L1475.29 172.633 Q1475.78 180.33 1479.91 184.381 Q1484.08 188.391 1491.5 188.391 Q1495.79 188.391 1499.8 187.338 Q1503.85 186.285 1507.82 184.178 L1507.82 191.227 Q1503.81 192.928 1499.6 193.82 Q1495.39 194.711 1491.05 194.711 Q1480.19 194.711 1473.83 188.391 Q1467.52 182.072 1467.52 171.297 Q1467.52 160.157 1473.51 153.635 Q1479.55 147.072 1489.75 147.072 Q1498.91 147.072 1504.22 152.986 Q1509.56 158.86 1509.56 168.988 M1502.11 166.8 Q1502.03 160.683 1498.67 157.037 Q1495.34 153.392 1489.84 153.392 Q1483.6 153.392 1479.83 156.916 Q1476.1 160.44 1475.54 166.841 L1502.11 166.8 Z" fill="#000000" fill-rule="nonzero" fill-opacity="1" /><path clip-path="url(#clip910)" d="M1571.14 130.504 L1571.14 136.702 L1564.01 136.702 Q1560 136.702 1558.42 138.322 Q1556.88 139.943 1556.88 144.155 L1556.88 148.166 L1569.15 148.166 L1569.15 153.959 L1556.88 153.959 L1556.88 193.536 L1549.38 193.536 L1549.38 153.959 L1542.25 153.959 L1542.25 148.166 L1549.38 148.166 L1549.38 145.006 Q1549.38 137.431 1552.91 133.988 Q1556.43 130.504 1564.09 130.504 L1571.14 130.504 Z" fill="#000000" fill-rule="nonzero" fill-opacity="1" /><path clip-path="url(#clip910)" d="M1577.38 130.504 L1584.83 130.504 L1584.83 193.536 L1577.38 193.536 L1577.38 130.504 Z" fill="#000000" fill-rule="nonzero" fill-opacity="1" /><path clip-path="url(#clip910)" d="M1618.01 153.392 Q1612.01 153.392 1608.53 158.091 Q1605.04 162.749 1605.04 170.891 Q1605.04 179.034 1608.49 183.733 Q1611.97 188.391 1618.01 188.391 Q1623.96 188.391 1627.44 183.692 Q1630.93 178.993 1630.93 170.891 Q1630.93 162.83 1627.44 158.131 Q1623.96 153.392 1618.01 153.392 M1618.01 147.072 Q1627.73 147.072 1633.28 153.392 Q1638.83 159.711 1638.83 170.891 Q1638.83 182.031 1633.28 188.391 Q1627.73 194.711 1618.01 194.711 Q1608.24 194.711 1602.69 188.391 Q1597.18 182.031 1597.18 170.891 Q1597.18 159.711 1602.69 153.392 Q1608.24 147.072 1618.01 147.072 Z" fill="#000000" fill-rule="nonzero" fill-opacity="1" /><path clip-path="url(#clip910)" d="M1671.8 170.729 Q1662.77 170.729 1659.29 172.795 Q1655.8 174.861 1655.8 179.844 Q1655.8 183.814 1658.39 186.163 Q1661.03 188.472 1665.52 188.472 Q1671.72 188.472 1675.45 184.097 Q1679.22 179.682 1679.22 172.39 L1679.22 170.729 L1671.8 170.729 M1686.67 167.651 L1686.67 193.536 L1679.22 193.536 L1679.22 186.649 Q1676.66 190.781 1672.86 192.766 Q1669.05 194.711 1663.54 194.711 Q1656.57 194.711 1652.44 190.822 Q1648.35 186.893 1648.35 180.33 Q1648.35 172.674 1653.45 168.785 Q1658.6 164.896 1668.76 164.896 L1679.22 164.896 L1679.22 164.167 Q1679.22 159.022 1675.81 156.227 Q1672.45 153.392 1666.33 153.392 Q1662.44 153.392 1658.76 154.323 Q1655.07 155.255 1651.67 157.118 L1651.67 150.232 Q1655.76 148.652 1659.61 147.882 Q1663.46 147.072 1667.1 147.072 Q1676.95 147.072 1681.81 152.176 Q1686.67 157.28 1686.67 167.651 Z" fill="#000000" fill-rule="nonzero" fill-opacity="1" /><path clip-path="url(#clip910)" d="M1709.39 135.284 L1709.39 148.166 L1724.75 148.166 L1724.75 153.959 L1709.39 153.959 L1709.39 178.588 Q1709.39 184.138 1710.89 185.718 Q1712.43 187.298 1717.09 187.298 L1724.75 187.298 L1724.75 193.536 L1717.09 193.536 Q1708.46 193.536 1705.18 190.336 Q1701.9 187.095 1701.9 178.588 L1701.9 153.959 L1696.43 153.959 L1696.43 148.166 L1701.9 148.166 L1701.9 135.284 L1709.39 135.284 Z" fill="#000000" fill-rule="nonzero" fill-opacity="1" /><path clip-path="url(#clip910)" d="M1763.47 149.503 L1763.47 156.551 Q1760.31 154.931 1756.91 154.121 Q1753.51 153.311 1749.86 153.311 Q1744.31 153.311 1741.52 155.012 Q1738.76 156.713 1738.76 160.116 Q1738.76 162.709 1740.75 164.207 Q1742.73 165.666 1748.73 167.003 L1751.28 167.57 Q1759.22 169.271 1762.54 172.39 Q1765.9 175.469 1765.9 181.019 Q1765.9 187.338 1760.88 191.024 Q1755.9 194.711 1747.15 194.711 Q1743.5 194.711 1739.53 193.982 Q1735.6 193.293 1731.23 191.875 L1731.23 184.178 Q1735.36 186.325 1739.37 187.419 Q1743.38 188.472 1747.31 188.472 Q1752.58 188.472 1755.41 186.69 Q1758.25 184.867 1758.25 181.586 Q1758.25 178.548 1756.18 176.927 Q1754.16 175.307 1747.23 173.808 L1744.64 173.2 Q1737.71 171.742 1734.63 168.744 Q1731.55 165.706 1731.55 160.44 Q1731.55 154.04 1736.09 150.556 Q1740.63 147.072 1748.97 147.072 Q1753.1 147.072 1756.75 147.68 Q1760.4 148.287 1763.47 149.503 Z" fill="#000000" fill-rule="nonzero" fill-opacity="1" /><polyline clip-path="url(#clip912)" style="stroke:#8b636c; stroke-linecap:round; stroke-linejoin:round; stroke-width:12; stroke-opacity:0.75; fill:none" stroke-dasharray="6, 12" points="504.659,613.162 2352.76,1306.54 "/>
<line clip-path="url(#clip912)" x1="504.659" y1="613.162" x2="504.659" y2="585.162" style="stroke:#8b2252; stroke-width:12; stroke-opacity:1"/>
<line clip-path="url(#clip912)" x1="504.659" y1="613.162" x2="476.659" y2="613.162" style="stroke:#8b2252; stroke-width:12; stroke-opacity:1"/>
<line clip-path="url(#clip912)" x1="504.659" y1="613.162" x2="504.659" y2="641.162" style="stroke:#8b2252; stroke-width:12; stroke-opacity:1"/>
<line clip-path="url(#clip912)" x1="504.659" y1="613.162" x2="532.659" y2="613.162" style="stroke:#8b2252; stroke-width:12; stroke-opacity:1"/>
<line clip-path="url(#clip912)" x1="2352.76" y1="1306.54" x2="2352.76" y2="1278.54" style="stroke:#8b2252; stroke-width:12; stroke-opacity:1"/>
<line clip-path="url(#clip912)" x1="2352.76" y1="1306.54" x2="2324.76" y2="1306.54" style="stroke:#8b2252; stroke-width:12; stroke-opacity:1"/>
<line clip-path="url(#clip912)" x1="2352.76" y1="1306.54" x2="2352.76" y2="1334.54" style="stroke:#8b2252; stroke-width:12; stroke-opacity:1"/>
<line clip-path="url(#clip912)" x1="2352.76" y1="1306.54" x2="2380.76" y2="1306.54" style="stroke:#8b2252; stroke-width:12; stroke-opacity:1"/>
<polyline clip-path="url(#clip912)" style="stroke:#436eee; stroke-linecap:round; stroke-linejoin:round; stroke-width:12; stroke-opacity:0.75; fill:none" stroke-dasharray="6, 12" points="504.659,959.851 2352.76,266.214 "/>
<path clip-path="url(#clip912)" d="M504.659 927.851 L497.139 949.483 L474.227 949.963 L492.499 963.819 L485.843 985.739 L504.659 972.651 L523.475 985.739 L516.819 963.819 L535.091 949.963 L512.179 949.483 L504.659 927.851 Z" fill="#4b0082" fill-rule="evenodd" fill-opacity="1" stroke="#000000" stroke-opacity="1" stroke-width="3.2"/>
<path clip-path="url(#clip912)" d="M2352.76 234.214 L2345.24 255.846 L2322.32 256.326 L2340.6 270.182 L2333.94 292.102 L2352.76 279.014 L2371.57 292.102 L2364.92 270.182 L2383.19 256.326 L2360.28 255.846 L2352.76 234.214 Z" fill="#4b0082" fill-rule="evenodd" fill-opacity="1" stroke="#000000" stroke-opacity="1" stroke-width="3.2"/>
<polyline clip-path="url(#clip912)" style="stroke:#8fbc8f; stroke-linecap:round; stroke-linejoin:round; stroke-width:12; stroke-opacity:0.75; fill:none" stroke-dasharray="6, 12" points="504.659,662.43 2352.76,414.535 "/>
<path clip-path="url(#clip912)" d="M530.259 662.43 L491.859 640.03 L491.859 684.83 L530.259 662.43 Z" fill="#3cb371" fill-rule="evenodd" fill-opacity="1" stroke="#000000" stroke-opacity="1" stroke-width="3.2"/>
<path clip-path="url(#clip912)" d="M2378.36 414.535 L2339.96 392.135 L2339.96 436.935 L2378.36 414.535 Z" fill="#3cb371" fill-rule="evenodd" fill-opacity="1" stroke="#000000" stroke-opacity="1" stroke-width="3.2"/>
<path clip-path="url(#clip910)" d="M566.263 513.116 L848.415 513.116 L848.415 279.836 L566.263 279.836  Z" fill="#f5f5f5" fill-rule="evenodd" fill-opacity="1"/>
<polyline clip-path="url(#clip910)" style="stroke:#fafafa; stroke-linecap:round; stroke-linejoin:round; stroke-width:4; stroke-opacity:1; fill:none" points="566.263,513.116 848.415,513.116 848.415,279.836 566.263,279.836 566.263,513.116 "/>
<polyline clip-path="url(#clip910)" style="stroke:#8b636c; stroke-linecap:round; stroke-linejoin:round; stroke-width:13.5; stroke-opacity:0.75; fill:none" stroke-dasharray="7, 14" points="586.797,338.156 710.003,338.156 "/>
<line clip-path="url(#clip910)" x1="648.4" y1="338.156" x2="648.4" y2="321.255" style="stroke:#8b2252; stroke-width:13.5; stroke-opacity:1"/>
<line clip-path="url(#clip910)" x1="648.4" y1="338.156" x2="631.499" y2="338.156" style="stroke:#8b2252; stroke-width:13.5; stroke-opacity:1"/>
<line clip-path="url(#clip910)" x1="648.4" y1="338.156" x2="648.4" y2="355.056" style="stroke:#8b2252; stroke-width:13.5; stroke-opacity:1"/>
<line clip-path="url(#clip910)" x1="648.4" y1="338.156" x2="665.301" y2="338.156" style="stroke:#8b2252; stroke-width:13.5; stroke-opacity:1"/>
<path clip-path="url(#clip910)" d="M745.616 342.934 Q739.809 342.934 737.569 344.262 Q735.329 345.591 735.329 348.794 Q735.329 351.346 736.996 352.856 Q738.689 354.341 741.579 354.341 Q745.564 354.341 747.96 351.528 Q750.381 348.69 750.381 344.002 L750.381 342.934 L745.616 342.934 M755.173 340.955 L755.173 357.596 L750.381 357.596 L750.381 353.169 Q748.741 355.825 746.293 357.101 Q743.845 358.351 740.303 358.351 Q735.824 358.351 733.168 355.851 Q730.538 353.325 730.538 349.106 Q730.538 344.184 733.819 341.684 Q737.126 339.184 743.663 339.184 L750.381 339.184 L750.381 338.716 Q750.381 335.408 748.194 333.611 Q746.032 331.789 742.1 331.789 Q739.6 331.789 737.23 332.388 Q734.861 332.986 732.673 334.184 L732.673 329.757 Q735.303 328.742 737.777 328.247 Q740.251 327.726 742.595 327.726 Q748.923 327.726 752.048 331.007 Q755.173 334.289 755.173 340.955 Z" fill="#000000" fill-rule="nonzero" fill-opacity="1" /><path clip-path="url(#clip910)" d="M784.235 332.856 L784.235 317.075 L789.027 317.075 L789.027 357.596 L784.235 357.596 L784.235 353.221 Q782.725 355.825 780.407 357.101 Q778.116 358.351 774.886 358.351 Q769.6 358.351 766.267 354.132 Q762.959 349.913 762.959 343.039 Q762.959 336.164 766.267 331.945 Q769.6 327.726 774.886 327.726 Q778.116 327.726 780.407 329.002 Q782.725 330.252 784.235 332.856 M767.907 343.039 Q767.907 348.325 770.069 351.346 Q772.256 354.341 776.058 354.341 Q779.86 354.341 782.048 351.346 Q784.235 348.325 784.235 343.039 Q784.235 337.752 782.048 334.757 Q779.86 331.736 776.058 331.736 Q772.256 331.736 770.069 334.757 Q767.907 337.752 767.907 343.039 Z" fill="#000000" fill-rule="nonzero" fill-opacity="1" /><path clip-path="url(#clip910)" d="M818.089 332.856 L818.089 317.075 L822.881 317.075 L822.881 357.596 L818.089 357.596 L818.089 353.221 Q816.579 355.825 814.261 357.101 Q811.97 358.351 808.74 358.351 Q803.454 358.351 800.121 354.132 Q796.813 349.913 796.813 343.039 Q796.813 336.164 800.121 331.945 Q803.454 327.726 808.74 327.726 Q811.97 327.726 814.261 329.002 Q816.579 330.252 818.089 332.856 M801.761 343.039 Q801.761 348.325 803.923 351.346 Q806.11 354.341 809.912 354.341 Q813.714 354.341 815.902 351.346 Q818.089 348.325 818.089 343.039 Q818.089 337.752 815.902 334.757 Q813.714 331.736 809.912 331.736 Q806.11 331.736 803.923 334.757 Q801.761 337.752 801.761 343.039 Z" fill="#000000" fill-rule="nonzero" fill-opacity="1" /><polyline clip-path="url(#clip910)" style="stroke:#436eee; stroke-linecap:round; stroke-linejoin:round; stroke-width:13.5; stroke-opacity:0.75; fill:none" stroke-dasharray="7, 14" points="586.797,396.476 710.003,396.476 "/>
<path clip-path="url(#clip910)" d="M648.4 379.575 L644.428 391 L632.328 391.253 L641.978 398.571 L638.463 410.148 L648.4 403.236 L658.338 410.148 L654.822 398.571 L664.473 391.253 L652.372 391 L648.4 379.575 Z" fill="#4b0082" fill-rule="evenodd" fill-opacity="1" stroke="#000000" stroke-opacity="1" stroke-width="2.71059"/>
<path clip-path="url(#clip910)" d="M753.428 392.348 Q755.225 389.119 757.725 387.583 Q760.225 386.046 763.611 386.046 Q768.168 386.046 770.642 389.249 Q773.116 392.426 773.116 398.312 L773.116 415.916 L768.298 415.916 L768.298 398.468 Q768.298 394.275 766.814 392.244 Q765.329 390.213 762.282 390.213 Q758.558 390.213 756.397 392.687 Q754.236 395.161 754.236 399.431 L754.236 415.916 L749.418 415.916 L749.418 398.468 Q749.418 394.249 747.934 392.244 Q746.449 390.213 743.35 390.213 Q739.678 390.213 737.517 392.713 Q735.355 395.187 735.355 399.431 L735.355 415.916 L730.538 415.916 L730.538 386.749 L735.355 386.749 L735.355 391.28 Q736.996 388.598 739.288 387.322 Q741.579 386.046 744.73 386.046 Q747.907 386.046 750.121 387.661 Q752.361 389.275 753.428 392.348 Z" fill="#000000" fill-rule="nonzero" fill-opacity="1" /><path clip-path="url(#clip910)" d="M782.178 404.405 L782.178 386.749 L786.97 386.749 L786.97 404.223 Q786.97 408.364 788.584 410.447 Q790.199 412.504 793.428 412.504 Q797.308 412.504 799.548 410.03 Q801.813 407.556 801.813 403.286 L801.813 386.749 L806.605 386.749 L806.605 415.916 L801.813 415.916 L801.813 411.437 Q800.069 414.093 797.751 415.395 Q795.459 416.671 792.412 416.671 Q787.386 416.671 784.782 413.546 Q782.178 410.421 782.178 404.405 M794.235 386.046 L794.235 386.046 Z" fill="#000000" fill-rule="nonzero" fill-opacity="1" /><path clip-path="url(#clip910)" d="M816.475 375.395 L821.266 375.395 L821.266 415.916 L816.475 415.916 L816.475 375.395 Z" fill="#000000" fill-rule="nonzero" fill-opacity="1" /><polyline clip-path="url(#clip910)" style="stroke:#8fbc8f; stroke-linecap:round; stroke-linejoin:round; stroke-width:13.5; stroke-opacity:0.75; fill:none" stroke-dasharray="7, 14" points="586.797,454.796 710.003,454.796 "/>
<path clip-path="url(#clip910)" d="M661.921 454.796 L641.64 442.965 L641.64 466.626 L661.921 454.796 Z" fill="#3cb371" fill-rule="evenodd" fill-opacity="1" stroke="#000000" stroke-opacity="1" stroke-width="2.71059"/>
<path clip-path="url(#clip910)" d="M749.105 433.715 L749.105 437.699 L744.522 437.699 Q741.944 437.699 740.928 438.741 Q739.939 439.783 739.939 442.491 L739.939 445.069 L747.829 445.069 L747.829 448.793 L739.939 448.793 L739.939 474.236 L735.121 474.236 L735.121 448.793 L730.538 448.793 L730.538 445.069 L735.121 445.069 L735.121 443.038 Q735.121 438.168 737.387 435.955 Q739.652 433.715 744.574 433.715 L749.105 433.715 Z" fill="#000000" fill-rule="nonzero" fill-opacity="1" /><path clip-path="url(#clip910)" d="M775.824 450.668 Q777.621 447.439 780.121 445.903 Q782.621 444.366 786.006 444.366 Q790.563 444.366 793.037 447.569 Q795.511 450.746 795.511 456.632 L795.511 474.236 L790.694 474.236 L790.694 456.788 Q790.694 452.595 789.209 450.564 Q787.725 448.533 784.678 448.533 Q780.954 448.533 778.793 451.007 Q776.631 453.481 776.631 457.751 L776.631 474.236 L771.814 474.236 L771.814 456.788 Q771.814 452.569 770.329 450.564 Q768.845 448.533 765.746 448.533 Q762.074 448.533 759.913 451.033 Q757.751 453.507 757.751 457.751 L757.751 474.236 L752.933 474.236 L752.933 445.069 L757.751 445.069 L757.751 449.6 Q759.392 446.918 761.683 445.642 Q763.975 444.366 767.126 444.366 Q770.303 444.366 772.517 445.981 Q774.756 447.595 775.824 450.668 Z" fill="#000000" fill-rule="nonzero" fill-opacity="1" /><path clip-path="url(#clip910)" d="M818.324 459.574 Q812.517 459.574 810.277 460.902 Q808.037 462.231 808.037 465.434 Q808.037 467.986 809.704 469.496 Q811.397 470.981 814.287 470.981 Q818.272 470.981 820.667 468.168 Q823.089 465.33 823.089 460.642 L823.089 459.574 L818.324 459.574 M827.881 457.595 L827.881 474.236 L823.089 474.236 L823.089 469.809 Q821.449 472.465 819.001 473.741 Q816.553 474.991 813.011 474.991 Q808.532 474.991 805.876 472.491 Q803.246 469.965 803.246 465.746 Q803.246 460.824 806.527 458.324 Q809.834 455.824 816.371 455.824 L823.089 455.824 L823.089 455.356 Q823.089 452.048 820.902 450.251 Q818.74 448.429 814.808 448.429 Q812.308 448.429 809.938 449.028 Q807.569 449.626 805.381 450.824 L805.381 446.397 Q808.011 445.382 810.485 444.887 Q812.959 444.366 815.303 444.366 Q821.631 444.366 824.756 447.647 Q827.881 450.929 827.881 457.595 Z" fill="#000000" fill-rule="nonzero" fill-opacity="1" /></svg>
