<?xml version="1.0" encoding="utf-8"?>
<svg xmlns="http://www.w3.org/2000/svg" xmlns:xlink="http://www.w3.org/1999/xlink" width="600" height="400" viewBox="0 0 2400 1600">
<defs>
  <clipPath id="clip330">
    <rect x="0" y="0" width="2400" height="1600"/>
  </clipPath>
</defs>
<path clip-path="url(#clip330)" d="M0 1600 L2400 1600 L2400 0 L0 0  Z" fill="#ffffff" fill-rule="evenodd" fill-opacity="1"/>
<defs>
  <clipPath id="clip331">
    <rect x="480" y="0" width="1681" height="1600"/>
  </clipPath>
</defs>
<path clip-path="url(#clip330)" d="M352.423 1306.54 L2352.76 1306.54 L2352.76 244.432 L352.423 244.432  Z" fill="#ffffff" fill-rule="evenodd" fill-opacity="1"/>
<defs>
  <clipPath id="clip332">
    <rect x="352" y="244" width="2001" height="1063"/>
  </clipPath>
</defs>
<polyline clip-path="url(#clip332)" style="stroke:#000000; stroke-linecap:round; stroke-linejoin:round; stroke-width:2; stroke-opacity:0.1; fill:none" points="463.552,1306.54 463.552,244.432 "/>
<polyline clip-path="url(#clip332)" style="stroke:#000000; stroke-linecap:round; stroke-linejoin:round; stroke-width:2; stroke-opacity:0.1; fill:none" points="908.071,1306.54 908.071,244.432 "/>
<polyline clip-path="url(#clip332)" style="stroke:#000000; stroke-linecap:round; stroke-linejoin:round; stroke-width:2; stroke-opacity:0.1; fill:none" points="1352.59,1306.54 1352.59,244.432 "/>
<polyline clip-path="url(#clip332)" style="stroke:#000000; stroke-linecap:round; stroke-linejoin:round; stroke-width:2; stroke-opacity:0.1; fill:none" points="1797.11,1306.54 1797.11,244.432 "/>
<polyline clip-path="url(#clip332)" style="stroke:#000000; stroke-linecap:round; stroke-linejoin:round; stroke-width:2; stroke-opacity:0.1; fill:none" points="2241.63,1306.54 2241.63,244.432 "/>
<polyline clip-path="url(#clip332)" style="stroke:#000000; stroke-linecap:round; stroke-linejoin:round; stroke-width:2; stroke-opacity:0.1; fill:none" points="352.423,1306.54 2352.76,1306.54 "/>
<polyline clip-path="url(#clip332)" style="stroke:#000000; stroke-linecap:round; stroke-linejoin:round; stroke-width:2; stroke-opacity:0.1; fill:none" points="352.423,994.155 2352.76,994.155 "/>
<polyline clip-path="url(#clip332)" style="stroke:#000000; stroke-linecap:round; stroke-linejoin:round; stroke-width:2; stroke-opacity:0.1; fill:none" points="352.423,681.771 2352.76,681.771 "/>
<polyline clip-path="url(#clip332)" style="stroke:#000000; stroke-linecap:round; stroke-linejoin:round; stroke-width:2; stroke-opacity:0.1; fill:none" points="352.423,369.386 2352.76,369.386 "/>
<polyline clip-path="url(#clip330)" style="stroke:#000000; stroke-linecap:round; stroke-linejoin:round; stroke-width:4; stroke-opacity:1; fill:none" points="352.423,1306.54 2352.76,1306.54 "/>
<polyline clip-path="url(#clip330)" style="stroke:#000000; stroke-linecap:round; stroke-linejoin:round; stroke-width:4; stroke-opacity:1; fill:none" points="463.552,1306.54 463.552,1287.64 "/>
<polyline clip-path="url(#clip330)" style="stroke:#000000; stroke-linecap:round; stroke-linejoin:round; stroke-width:4; stroke-opacity:1; fill:none" points="908.071,1306.54 908.071,1287.64 "/>
<polyline clip-path="url(#clip330)" style="stroke:#000000; stroke-linecap:round; stroke-linejoin:round; stroke-width:4; stroke-opacity:1; fill:none" points="1352.59,1306.54 1352.59,1287.64 "/>
<polyline clip-path="url(#clip330)" style="stroke:#000000; stroke-linecap:round; stroke-linejoin:round; stroke-width:4; stroke-opacity:1; fill:none" points="1797.11,1306.54 1797.11,1287.64 "/>
<polyline clip-path="url(#clip330)" style="stroke:#000000; stroke-linecap:round; stroke-linejoin:round; stroke-width:4; stroke-opacity:1; fill:none" points="2241.63,1306.54 2241.63,1287.64 "/>
<path clip-path="url(#clip330)" d="M447.923 1389.55 L460.336 1389.55 L460.336 1346.7 L446.832 1349.41 L446.832 1342.49 L460.261 1339.78 L467.859 1339.78 L467.859 1389.55 L480.272 1389.55 L480.272 1395.94 L447.923 1395.94 L447.923 1389.55 Z" fill="#000000" fill-rule="nonzero" fill-opacity="1" /><path clip-path="url(#clip330)" d="M899.382 1389.55 L925.9 1389.55 L925.9 1395.94 L890.241 1395.94 L890.241 1389.55 Q894.567 1385.07 902.015 1377.55 Q909.5 1369.99 911.419 1367.8 Q915.067 1363.7 916.497 1360.88 Q917.964 1358.02 917.964 1355.28 Q917.964 1350.8 914.804 1347.98 Q911.682 1345.16 906.641 1345.16 Q903.068 1345.16 899.081 1346.4 Q895.131 1347.64 890.617 1350.16 L890.617 1342.49 Q895.206 1340.64 899.193 1339.7 Q903.181 1338.76 906.491 1338.76 Q915.218 1338.76 920.409 1343.13 Q925.6 1347.49 925.6 1354.79 Q925.6 1358.25 924.283 1361.37 Q923.004 1364.46 919.581 1368.67 Q918.641 1369.76 913.6 1374.99 Q908.56 1380.18 899.382 1389.55 Z" fill="#000000" fill-rule="nonzero" fill-opacity="1" /><path clip-path="url(#clip330)" d="M1359.49 1365.66 Q1364.95 1366.83 1367.99 1370.51 Q1371.08 1374.2 1371.08 1379.61 Q1371.08 1387.93 1365.36 1392.48 Q1359.64 1397.03 1349.11 1397.03 Q1345.57 1397.03 1341.81 1396.32 Q1338.09 1395.64 1334.1 1394.25 L1334.1 1386.91 Q1337.26 1388.76 1341.02 1389.7 Q1344.78 1390.64 1348.88 1390.64 Q1356.03 1390.64 1359.76 1387.81 Q1363.52 1384.99 1363.52 1379.61 Q1363.52 1374.65 1360.02 1371.87 Q1356.56 1369.04 1350.35 1369.04 L1343.81 1369.04 L1343.81 1362.8 L1350.65 1362.8 Q1356.26 1362.8 1359.23 1360.58 Q1362.2 1358.32 1362.2 1354.11 Q1362.2 1349.79 1359.12 1347.49 Q1356.07 1345.16 1350.35 1345.16 Q1347.23 1345.16 1343.66 1345.84 Q1340.08 1346.51 1335.79 1347.94 L1335.79 1341.17 Q1340.12 1339.97 1343.88 1339.37 Q1347.68 1338.76 1351.03 1338.76 Q1359.68 1338.76 1364.72 1342.71 Q1369.76 1346.63 1369.76 1353.32 Q1369.76 1357.99 1367.09 1361.22 Q1364.42 1364.42 1359.49 1365.66 Z" fill="#000000" fill-rule="nonzero" fill-opacity="1" /><path clip-path="url(#clip330)" d="M1802 1346.4 L1782.81 1376.38 L1802 1376.38 L1802 1346.4 M1800 1339.78 L1809.56 1339.78 L1809.56 1376.38 L1817.57 1376.38 L1817.57 1382.7 L1809.56 1382.7 L1809.56 1395.94 L1802 1395.94 L1802 1382.7 L1776.64 1382.7 L1776.64 1375.36 L1800 1339.78 Z" fill="#000000" fill-rule="nonzero" fill-opacity="1" /><path clip-path="url(#clip330)" d="M2225.83 1339.78 L2255.66 1339.78 L2255.66 1346.17 L2232.79 1346.17 L2232.79 1359.94 Q2234.44 1359.38 2236.1 1359.11 Q2237.75 1358.81 2239.41 1358.81 Q2248.81 1358.81 2254.3 1363.97 Q2259.79 1369.12 2259.79 1377.92 Q2259.79 1386.99 2254.15 1392.03 Q2248.51 1397.03 2238.24 1397.03 Q2234.71 1397.03 2231.02 1396.43 Q2227.37 1395.83 2223.46 1394.62 L2223.46 1386.99 Q2226.84 1388.83 2230.45 1389.73 Q2234.07 1390.64 2238.09 1390.64 Q2244.6 1390.64 2248.4 1387.21 Q2252.2 1383.79 2252.2 1377.92 Q2252.2 1372.05 2248.4 1368.63 Q2244.6 1365.21 2238.09 1365.21 Q2235.04 1365.21 2232 1365.89 Q2228.99 1366.56 2225.83 1367.99 L2225.83 1339.78 Z" fill="#000000" fill-rule="nonzero" fill-opacity="1" /><path clip-path="url(#clip330)" d="M1121.91 1530.73 L1121.91 1549.63 L1116.02 1549.63 L1116.02 1500.43 L1121.91 1500.43 L1121.91 1505.84 Q1123.76 1502.66 1126.56 1501.13 Q1129.39 1499.57 1133.31 1499.57 Q1139.8 1499.57 1143.84 1504.72 Q1147.92 1509.88 1147.92 1518.28 Q1147.92 1526.69 1143.84 1531.84 Q1139.8 1537 1133.31 1537 Q1129.39 1537 1126.56 1535.47 Q1123.76 1533.91 1121.91 1530.73 M1141.84 1518.28 Q1141.84 1511.82 1139.16 1508.16 Q1136.52 1504.47 1131.87 1504.47 Q1127.23 1504.47 1124.55 1508.16 Q1121.91 1511.82 1121.91 1518.28 Q1121.91 1524.74 1124.55 1528.44 Q1127.23 1532.1 1131.87 1532.1 Q1136.52 1532.1 1139.16 1528.44 Q1141.84 1524.74 1141.84 1518.28 Z" fill="#000000" fill-rule="nonzero" fill-opacity="1" /><path clip-path="url(#clip330)" d="M1178.28 1505.9 Q1177.29 1505.33 1176.12 1505.07 Q1174.97 1504.79 1173.57 1504.79 Q1168.6 1504.79 1165.93 1508.03 Q1163.29 1511.25 1163.29 1517.3 L1163.29 1536.08 L1157.4 1536.08 L1157.4 1500.43 L1163.29 1500.43 L1163.29 1505.97 Q1165.14 1502.72 1168.1 1501.16 Q1171.06 1499.57 1175.29 1499.57 Q1175.89 1499.57 1176.63 1499.66 Q1177.36 1499.73 1178.25 1499.89 L1178.28 1505.9 Z" fill="#000000" fill-rule="nonzero" fill-opacity="1" /><path clip-path="url(#clip330)" d="M1213.48 1516.79 L1213.48 1519.65 L1186.56 1519.65 Q1186.94 1525.7 1190.18 1528.88 Q1193.46 1532.03 1199.29 1532.03 Q1202.66 1532.03 1205.81 1531.21 Q1208.99 1530.38 1212.11 1528.72 L1212.11 1534.26 Q1208.96 1535.6 1205.65 1536.3 Q1202.34 1537 1198.94 1537 Q1190.41 1537 1185.41 1532.03 Q1180.44 1527.07 1180.44 1518.6 Q1180.44 1509.85 1185.16 1504.72 Q1189.9 1499.57 1197.92 1499.57 Q1205.11 1499.57 1209.28 1504.22 Q1213.48 1508.83 1213.48 1516.79 M1207.63 1515.07 Q1207.56 1510.26 1204.92 1507.4 Q1202.31 1504.53 1197.98 1504.53 Q1193.08 1504.53 1190.12 1507.3 Q1187.19 1510.07 1186.75 1515.1 L1207.63 1515.07 Z" fill="#000000" fill-rule="nonzero" fill-opacity="1" /><path clip-path="url(#clip330)" d="M1248.75 1501.8 L1248.75 1507.27 Q1246.27 1505.9 1243.75 1505.23 Q1241.27 1504.53 1238.72 1504.53 Q1233.03 1504.53 1229.87 1508.16 Q1226.72 1511.76 1226.72 1518.28 Q1226.72 1524.81 1229.87 1528.44 Q1233.03 1532.03 1238.72 1532.03 Q1241.27 1532.03 1243.75 1531.37 Q1246.27 1530.66 1248.75 1529.3 L1248.75 1534.71 Q1246.3 1535.85 1243.66 1536.43 Q1241.05 1537 1238.09 1537 Q1230.03 1537 1225.29 1531.94 Q1220.55 1526.88 1220.55 1518.28 Q1220.55 1509.56 1225.32 1504.57 Q1230.13 1499.57 1238.47 1499.57 Q1241.17 1499.57 1243.75 1500.14 Q1246.33 1500.68 1248.75 1501.8 Z" fill="#000000" fill-rule="nonzero" fill-opacity="1" /><path clip-path="url(#clip330)" d="M1258.93 1500.43 L1264.79 1500.43 L1264.79 1536.08 L1258.93 1536.08 L1258.93 1500.43 M1258.93 1486.55 L1264.79 1486.55 L1264.79 1493.97 L1258.93 1493.97 L1258.93 1486.55 Z" fill="#000000" fill-rule="nonzero" fill-opacity="1" /><path clip-path="url(#clip330)" d="M1299.77 1501.48 L1299.77 1507.02 Q1297.29 1505.74 1294.61 1505.11 Q1291.94 1504.47 1289.08 1504.47 Q1284.71 1504.47 1282.52 1505.81 Q1280.35 1507.14 1280.35 1509.82 Q1280.35 1511.85 1281.91 1513.03 Q1283.47 1514.18 1288.18 1515.23 L1290.19 1515.67 Q1296.43 1517.01 1299.04 1519.46 Q1301.68 1521.88 1301.68 1526.24 Q1301.68 1531.21 1297.73 1534.1 Q1293.82 1537 1286.94 1537 Q1284.08 1537 1280.96 1536.43 Q1277.87 1535.88 1274.43 1534.77 L1274.43 1528.72 Q1277.68 1530.41 1280.83 1531.27 Q1283.98 1532.1 1287.07 1532.1 Q1291.21 1532.1 1293.44 1530.7 Q1295.66 1529.26 1295.66 1526.69 Q1295.66 1524.3 1294.04 1523.03 Q1292.45 1521.75 1287.01 1520.58 L1284.97 1520.1 Q1279.53 1518.95 1277.11 1516.6 Q1274.69 1514.21 1274.69 1510.07 Q1274.69 1505.04 1278.25 1502.31 Q1281.82 1499.57 1288.38 1499.57 Q1291.62 1499.57 1294.49 1500.05 Q1297.35 1500.52 1299.77 1501.48 Z" fill="#000000" fill-rule="nonzero" fill-opacity="1" /><path clip-path="url(#clip330)" d="M1311.01 1500.43 L1316.86 1500.43 L1316.86 1536.08 L1311.01 1536.08 L1311.01 1500.43 M1311.01 1486.55 L1316.86 1486.55 L1316.86 1493.97 L1311.01 1493.97 L1311.01 1486.55 Z" fill="#000000" fill-rule="nonzero" fill-opacity="1" /><path clip-path="url(#clip330)" d="M1342.93 1504.53 Q1338.22 1504.53 1335.48 1508.23 Q1332.74 1511.89 1332.74 1518.28 Q1332.74 1524.68 1335.45 1528.37 Q1338.19 1532.03 1342.93 1532.03 Q1347.61 1532.03 1350.35 1528.34 Q1353.08 1524.65 1353.08 1518.28 Q1353.08 1511.95 1350.35 1508.26 Q1347.61 1504.53 1342.93 1504.53 M1342.93 1499.57 Q1350.57 1499.57 1354.93 1504.53 Q1359.29 1509.5 1359.29 1518.28 Q1359.29 1527.04 1354.93 1532.03 Q1350.57 1537 1342.93 1537 Q1335.26 1537 1330.9 1532.03 Q1326.57 1527.04 1326.57 1518.28 Q1326.57 1509.5 1330.9 1504.53 Q1335.26 1499.57 1342.93 1499.57 Z" fill="#000000" fill-rule="nonzero" fill-opacity="1" /><path clip-path="url(#clip330)" d="M1398.63 1514.56 L1398.63 1536.08 L1392.77 1536.08 L1392.77 1514.75 Q1392.77 1509.69 1390.8 1507.18 Q1388.83 1504.66 1384.88 1504.66 Q1380.14 1504.66 1377.4 1507.68 Q1374.66 1510.71 1374.66 1515.93 L1374.66 1536.08 L1368.77 1536.08 L1368.77 1500.43 L1374.66 1500.43 L1374.66 1505.97 Q1376.76 1502.75 1379.6 1501.16 Q1382.46 1499.57 1386.18 1499.57 Q1392.33 1499.57 1395.48 1503.39 Q1398.63 1507.18 1398.63 1514.56 Z" fill="#000000" fill-rule="nonzero" fill-opacity="1" /><path clip-path="url(#clip330)" d="M1445.1 1486.61 Q1440.83 1493.93 1438.76 1501.1 Q1436.7 1508.26 1436.7 1515.61 Q1436.7 1522.96 1438.76 1530.19 Q1440.87 1537.38 1445.1 1544.67 L1440.01 1544.67 Q1435.23 1537.19 1432.84 1529.96 Q1430.49 1522.74 1430.49 1515.61 Q1430.49 1508.51 1432.84 1501.32 Q1435.2 1494.13 1440.01 1486.61 L1445.1 1486.61 Z" fill="#000000" fill-rule="nonzero" fill-opacity="1" /><path clip-path="url(#clip330)" d="M1482.05 1518.28 Q1482.05 1511.82 1479.38 1508.16 Q1476.74 1504.47 1472.09 1504.47 Q1467.44 1504.47 1464.77 1508.16 Q1462.13 1511.82 1462.13 1518.28 Q1462.13 1524.74 1464.77 1528.44 Q1467.44 1532.1 1472.09 1532.1 Q1476.74 1532.1 1479.38 1528.44 Q1482.05 1524.74 1482.05 1518.28 M1462.13 1505.84 Q1463.97 1502.66 1466.77 1501.13 Q1469.61 1499.57 1473.52 1499.57 Q1480.01 1499.57 1484.06 1504.72 Q1488.13 1509.88 1488.13 1518.28 Q1488.13 1526.69 1484.06 1531.84 Q1480.01 1537 1473.52 1537 Q1469.61 1537 1466.77 1535.47 Q1463.97 1533.91 1462.13 1530.73 L1462.13 1536.08 L1456.24 1536.08 L1456.24 1486.55 L1462.13 1486.55 L1462.13 1505.84 Z" fill="#000000" fill-rule="nonzero" fill-opacity="1" /><path clip-path="url(#clip330)" d="M1497.84 1500.43 L1503.7 1500.43 L1503.7 1536.08 L1497.84 1536.08 L1497.84 1500.43 M1497.84 1486.55 L1503.7 1486.55 L1503.7 1493.97 L1497.84 1493.97 L1497.84 1486.55 Z" fill="#000000" fill-rule="nonzero" fill-opacity="1" /><path clip-path="url(#clip330)" d="M1521.74 1490.31 L1521.74 1500.43 L1533.8 1500.43 L1533.8 1504.98 L1521.74 1504.98 L1521.74 1524.33 Q1521.74 1528.69 1522.92 1529.93 Q1524.13 1531.17 1527.79 1531.17 L1533.8 1531.17 L1533.8 1536.08 L1527.79 1536.08 Q1521.01 1536.08 1518.43 1533.56 Q1515.85 1531.02 1515.85 1524.33 L1515.85 1504.98 L1511.56 1504.98 L1511.56 1500.43 L1515.85 1500.43 L1515.85 1490.31 L1521.74 1490.31 Z" fill="#000000" fill-rule="nonzero" fill-opacity="1" /><path clip-path="url(#clip330)" d="M1564.23 1501.48 L1564.23 1507.02 Q1561.75 1505.74 1559.08 1505.11 Q1556.4 1504.47 1553.54 1504.47 Q1549.18 1504.47 1546.98 1505.81 Q1544.82 1507.14 1544.82 1509.82 Q1544.82 1511.85 1546.38 1513.03 Q1547.94 1514.18 1552.65 1515.23 L1554.65 1515.67 Q1560.89 1517.01 1563.5 1519.46 Q1566.14 1521.88 1566.14 1526.24 Q1566.14 1531.21 1562.2 1534.1 Q1558.28 1537 1551.41 1537 Q1548.54 1537 1545.42 1536.43 Q1542.34 1535.88 1538.9 1534.77 L1538.9 1528.72 Q1542.14 1530.41 1545.3 1531.27 Q1548.45 1532.1 1551.53 1532.1 Q1555.67 1532.1 1557.9 1530.7 Q1560.13 1529.26 1560.13 1526.69 Q1560.13 1524.3 1558.5 1523.03 Q1556.91 1521.75 1551.47 1520.58 L1549.43 1520.1 Q1543.99 1518.95 1541.57 1516.6 Q1539.15 1514.21 1539.15 1510.07 Q1539.15 1505.04 1542.72 1502.31 Q1546.28 1499.57 1552.84 1499.57 Q1556.08 1499.57 1558.95 1500.05 Q1561.81 1500.52 1564.23 1501.48 Z" fill="#000000" fill-rule="nonzero" fill-opacity="1" /><path clip-path="url(#clip330)" d="M1574.55 1486.61 L1579.64 1486.61 Q1584.41 1494.13 1586.77 1501.32 Q1589.15 1508.51 1589.15 1515.61 Q1589.15 1522.74 1586.77 1529.96 Q1584.41 1537.19 1579.64 1544.67 L1574.55 1544.67 Q1578.78 1537.38 1580.85 1530.19 Q1582.95 1522.96 1582.95 1515.61 Q1582.95 1508.26 1580.85 1501.1 Q1578.78 1493.93 1574.55 1486.61 Z" fill="#000000" fill-rule="nonzero" fill-opacity="1" /><polyline clip-path="url(#clip330)" style="stroke:#000000; stroke-linecap:round; stroke-linejoin:round; stroke-width:4; stroke-opacity:1; fill:none" points="352.423,1306.54 352.423,244.432 "/>
<polyline clip-path="url(#clip330)" style="stroke:#000000; stroke-linecap:round; stroke-linejoin:round; stroke-width:4; stroke-opacity:1; fill:none" points="352.423,1306.54 371.32,1306.54 "/>
<polyline clip-path="url(#clip330)" style="stroke:#000000; stroke-linecap:round; stroke-linejoin:round; stroke-width:4; stroke-opacity:1; fill:none" points="352.423,994.155 371.32,994.155 "/>
<polyline clip-path="url(#clip330)" style="stroke:#000000; stroke-linecap:round; stroke-linejoin:round; stroke-width:4; stroke-opacity:1; fill:none" points="352.423,681.771 371.32,681.771 "/>
<polyline clip-path="url(#clip330)" style="stroke:#000000; stroke-linecap:round; stroke-linejoin:round; stroke-width:4; stroke-opacity:1; fill:none" points="352.423,369.386 371.32,369.386 "/>
<path clip-path="url(#clip330)" d="M309.734 1302.65 Q309.772 1304.17 309.772 1306.53 Q309.772 1308.89 309.696 1310.45 Q309.658 1312.01 309.278 1314.98 Q308.935 1317.95 308.25 1320 Q307.603 1322.02 306.195 1324.53 Q304.786 1327.04 302.845 1328.61 Q300.942 1330.13 297.859 1331.19 Q294.776 1332.26 290.932 1332.26 Q287.05 1332.26 283.967 1331.19 Q280.884 1330.09 278.943 1328.57 Q277.001 1327.04 275.593 1324.53 Q274.223 1321.98 273.538 1319.97 Q272.891 1317.91 272.51 1314.94 Q272.168 1311.97 272.091 1310.45 Q272.053 1308.89 272.053 1306.53 Q272.053 1304.17 272.091 1302.61 Q272.168 1301.05 272.51 1298.04 Q272.891 1295.03 273.538 1292.98 Q274.223 1290.89 275.593 1288.3 Q277.001 1285.71 278.943 1284.15 Q280.884 1282.55 283.967 1281.45 Q287.05 1280.34 290.932 1280.34 Q294.814 1280.34 297.897 1281.45 Q300.98 1282.55 302.883 1284.15 Q304.824 1285.75 306.233 1288.34 Q307.641 1290.92 308.288 1293.02 Q308.935 1295.07 309.316 1298.12 Q309.696 1301.12 309.734 1302.65 M299.8 1305.58 Q299.8 1301.12 299.762 1298.57 Q299.724 1296.02 299.382 1292.71 Q299.077 1289.36 298.468 1288.03 Q297.402 1285.6 295.309 1284.38 Q293.254 1283.12 290.932 1283.12 Q290.209 1283.12 289.409 1283.27 Q288.648 1283.39 287.506 1283.88 Q286.365 1284.34 285.451 1285.14 Q284.538 1285.9 283.738 1287.38 Q282.939 1288.87 282.673 1290.85 Q282.026 1295.15 282.026 1305.58 Q282.026 1317.76 282.749 1322.02 Q283.129 1324.04 284.043 1325.56 Q284.994 1327.08 286.174 1327.88 Q287.392 1328.68 288.572 1329.06 Q289.79 1329.44 290.932 1329.44 Q291.998 1329.44 293.101 1329.14 Q294.205 1328.83 295.499 1328.03 Q296.831 1327.2 297.859 1325.45 Q298.887 1323.66 299.267 1321.11 Q299.8 1317.07 299.8 1305.58 Z" fill="#000000" fill-rule="nonzero" fill-opacity="1" /><path clip-path="url(#clip330)" d="M278.836 975.006 Q275.41 974.777 263.307 974.777 Q251.241 974.777 247.816 975.006 L247.816 971.352 L258.625 971.352 L258.625 931.045 Q253.791 932.605 248.501 932.605 L246.94 932.605 L246.94 928.951 L248.501 928.951 Q258.168 928.951 264.182 924.498 Q264.677 924.117 264.943 924.041 Q265.21 923.965 265.895 923.965 Q267.303 923.965 267.608 924.46 Q267.912 924.955 267.912 926.439 L267.912 971.352 L278.836 971.352 L278.836 975.006 Z" fill="#000000" fill-rule="nonzero" fill-opacity="1" /><path clip-path="url(#clip330)" d="M225.94 995.806 L308.103 995.806 L308.103 991.646 L225.94 991.646  Z" fill="#000000" fill-rule="evenodd" fill-opacity="1"/>
<path clip-path="url(#clip330)" d="M257.836 1062.99 Q254.41 1062.76 242.307 1062.76 Q230.241 1062.76 226.816 1062.99 L226.816 1059.34 L237.625 1059.34 L237.625 1019.03 Q232.791 1020.59 227.501 1020.59 L225.94 1020.59 L225.94 1016.94 L227.501 1016.94 Q237.168 1016.94 243.182 1012.48 Q243.677 1012.1 243.943 1012.03 Q244.21 1011.95 244.895 1011.95 Q246.303 1011.95 246.608 1012.45 Q246.912 1012.94 246.912 1014.43 L246.912 1059.34 L257.836 1059.34 L257.836 1062.99 Z" fill="#000000" fill-rule="nonzero" fill-opacity="1" /><path clip-path="url(#clip330)" d="M300.139 1047.01 Q300.139 1054.73 295.076 1059.3 Q290.052 1063.87 281.831 1063.87 Q277.264 1063.87 273.305 1062.04 Q269.347 1060.21 266.797 1056.07 Q262.876 1049.48 262.876 1038.29 Q262.876 1032.62 264.285 1028.05 Q265.731 1023.45 268.053 1020.52 Q270.412 1017.59 273.534 1015.61 Q276.655 1013.63 279.814 1012.79 Q283.011 1011.95 286.36 1011.95 Q289.329 1011.95 291.613 1012.79 Q293.934 1013.63 295.229 1015.03 Q296.561 1016.44 297.208 1018.12 Q297.893 1019.79 297.893 1021.7 Q297.893 1023.94 296.561 1025.31 Q295.229 1026.68 292.983 1026.68 Q290.775 1026.68 289.443 1025.31 Q288.149 1023.9 288.149 1021.85 Q288.149 1020.02 289.215 1018.65 Q290.319 1017.28 292.336 1017.01 Q290.281 1014.96 286.513 1014.96 Q283.049 1014.96 280.08 1016.79 Q277.111 1018.61 275.665 1021.43 Q273.495 1026.23 273.495 1034.86 L273.495 1036.35 Q274.409 1034.67 275.589 1033.46 Q276.769 1032.24 277.682 1031.67 Q278.634 1031.1 279.776 1030.79 Q280.956 1030.49 281.488 1030.45 Q282.059 1030.41 282.859 1030.41 Q287.692 1030.41 291.537 1032.24 Q295.381 1034.07 297.741 1037.91 Q300.139 1041.72 300.139 1047.01 M289.557 1046.85 Q289.557 1044.3 289.519 1043.09 Q289.481 1041.83 289.291 1039.93 Q289.101 1037.99 288.606 1037.07 Q288.149 1036.12 287.35 1035.09 Q286.551 1034.03 285.256 1033.65 Q283.962 1033.23 282.135 1033.23 Q278.558 1033.23 276.084 1036.54 Q273.648 1039.81 273.648 1046.63 Q273.648 1053.71 274.904 1056.22 Q275.627 1057.7 277.34 1059.11 Q279.052 1060.48 281.679 1060.48 Q283.962 1060.48 285.485 1059.76 Q287.045 1059 287.845 1058.04 Q288.644 1057.09 289.025 1054.96 Q289.443 1052.83 289.481 1051.38 Q289.557 1049.94 289.557 1046.85 Z" fill="#000000" fill-rule="nonzero" fill-opacity="1" /><path clip-path="url(#clip330)" d="M297.772 662.621 Q294.346 662.393 282.243 662.393 Q270.177 662.393 266.752 662.621 L266.752 658.967 L277.561 658.967 L277.561 618.66 Q272.727 620.22 267.437 620.22 L265.876 620.22 L265.876 616.567 L267.437 616.567 Q277.104 616.567 283.118 612.113 Q283.613 611.733 283.879 611.657 Q284.146 611.58 284.831 611.58 Q286.239 611.58 286.544 612.075 Q286.848 612.57 286.848 614.054 L286.848 658.967 L297.772 658.967 L297.772 662.621 Z" fill="#000000" fill-rule="nonzero" fill-opacity="1" /><path clip-path="url(#clip330)" d="M262.876 683.421 L308.103 683.421 L308.103 679.261 L262.876 679.261  Z" fill="#000000" fill-rule="evenodd" fill-opacity="1"/>
<path clip-path="url(#clip330)" d="M300.139 736.03 Q300.139 739.265 298.921 742.082 Q297.741 744.861 295.457 746.992 Q293.173 749.085 289.557 750.303 Q285.942 751.483 281.374 751.483 Q277.492 751.483 274.219 750.684 Q270.945 749.885 268.357 748.324 Q265.807 746.726 264.323 744.099 Q262.876 741.473 262.876 738.047 Q262.876 729.369 272.848 724.954 Q270.679 723.736 269.118 722.214 Q267.596 720.653 266.797 719.055 Q266.035 717.456 265.693 716.048 Q265.388 714.602 265.388 713.193 Q265.388 707.256 269.613 703.412 Q273.876 699.567 281.679 699.567 Q288.758 699.567 293.211 702.46 Q297.665 705.353 297.665 711.024 Q297.665 714.449 295.761 717.076 Q293.858 719.664 289.786 721.757 Q290.966 722.404 291.575 722.785 Q292.222 723.165 293.478 724.041 Q294.734 724.916 295.495 725.639 Q296.256 726.363 297.246 727.543 Q298.235 728.722 298.768 729.902 Q299.339 731.082 299.72 732.681 Q300.139 734.279 300.139 736.03 M291.803 711.1 Q291.803 707.104 289.025 704.858 Q286.284 702.574 281.374 702.574 Q280.194 702.574 279.091 702.688 Q277.987 702.765 276.464 703.145 Q274.98 703.488 273.876 704.097 Q272.772 704.706 271.973 705.886 Q271.212 707.027 271.212 708.588 Q271.212 711.366 274.675 713.269 L286.36 719.816 Q291.803 716.238 291.803 711.1 M293.44 740.331 Q293.44 738.999 292.983 737.933 Q292.564 736.868 291.499 735.954 Q290.471 735.041 289.595 734.508 Q288.758 733.937 287.121 732.985 L276.464 727.086 Q269.575 731.006 269.575 738.047 Q269.575 742.653 272.772 745.393 Q276.008 748.096 281.679 748.096 Q283.201 748.096 284.609 747.943 Q286.056 747.753 287.692 747.258 Q289.367 746.726 290.585 745.926 Q291.803 745.089 292.602 743.643 Q293.44 742.196 293.44 740.331 Z" fill="#000000" fill-rule="nonzero" fill-opacity="1" /><path clip-path="url(#clip330)" d="M281.202 335.762 Q281.202 338.54 280.06 341.129 Q278.919 343.679 276.635 345.886 Q274.389 348.056 270.469 349.388 Q266.587 350.682 261.563 350.682 Q253.95 350.682 248.926 347.447 Q243.94 344.174 243.94 338.959 Q243.94 336.104 245.653 334.506 Q247.366 332.907 249.954 332.907 Q252.542 332.907 254.217 334.544 Q255.891 336.181 255.891 338.807 Q255.891 341.129 254.635 342.651 Q253.417 344.135 251.362 344.668 Q255.587 347.295 261.182 347.295 Q262.857 347.295 264.189 346.838 Q265.521 346.343 266.32 345.658 Q267.158 344.973 267.767 343.869 Q268.376 342.727 268.642 341.814 Q268.947 340.9 269.099 339.568 Q269.251 338.198 269.251 337.513 Q269.289 336.828 269.289 335.686 Q269.289 334.468 269.251 333.783 Q269.251 333.06 269.061 331.689 Q268.908 330.319 268.604 329.444 Q268.338 328.53 267.691 327.426 Q267.082 326.323 266.206 325.676 Q265.331 324.991 263.922 324.534 Q262.552 324.077 260.801 324.077 L257.376 324.077 Q256.5 324.077 256.12 324.039 Q255.777 323.963 255.473 323.658 Q255.168 323.354 255.168 322.669 Q255.168 321.413 256.12 321.337 Q256.957 321.184 259.85 321.032 Q261.753 320.918 263.237 320.119 Q264.76 319.281 265.597 317.987 Q266.434 316.693 266.967 315.437 Q267.538 314.181 267.729 312.697 Q267.919 311.212 267.957 310.565 Q268.033 309.918 268.033 309.347 Q268.033 308.32 267.957 307.558 Q267.919 306.759 267.538 305.579 Q267.158 304.399 266.473 303.676 Q265.826 302.915 264.493 302.344 Q263.161 301.773 261.334 301.773 Q256.31 301.773 252.77 304.59 Q253.151 304.666 253.379 304.742 Q253.646 304.818 254.445 305.237 Q255.282 305.655 255.815 306.188 Q256.348 306.721 256.805 307.787 Q257.3 308.814 257.3 310.07 Q257.3 312.354 255.815 313.915 Q254.369 315.437 251.819 315.437 Q249.535 315.437 247.975 313.953 Q246.452 312.43 246.452 309.956 Q246.452 305.16 250.677 301.963 Q254.94 298.766 261.791 298.766 Q269.784 298.766 274.237 301.849 Q278.728 304.894 278.728 309.576 Q278.728 312.735 277.016 315.475 Q275.341 318.178 272.905 319.852 Q270.507 321.489 267.652 322.364 Q270.888 323.049 273.362 324.267 Q275.874 325.485 277.32 326.856 Q278.766 328.226 279.68 329.9 Q280.593 331.537 280.898 332.945 Q281.202 334.316 281.202 335.762 Z" fill="#000000" fill-rule="nonzero" fill-opacity="1" /><path clip-path="url(#clip330)" d="M225.94 371.466 L308.103 371.466 L308.103 367.306 L225.94 367.306  Z" fill="#000000" fill-rule="evenodd" fill-opacity="1"/>
<path clip-path="url(#clip330)" d="M257.836 438.653 Q254.41 438.424 242.307 438.424 Q230.241 438.424 226.816 438.653 L226.816 434.999 L237.625 434.999 L237.625 394.692 Q232.791 396.252 227.501 396.252 L225.94 396.252 L225.94 392.598 L227.501 392.598 Q237.168 392.598 243.182 388.145 Q243.677 387.765 243.943 387.689 Q244.21 387.612 244.895 387.612 Q246.303 387.612 246.608 388.107 Q246.912 388.602 246.912 390.086 L246.912 434.999 L257.836 434.999 L257.836 438.653 Z" fill="#000000" fill-rule="nonzero" fill-opacity="1" /><path clip-path="url(#clip330)" d="M300.139 422.667 Q300.139 430.394 295.076 434.961 Q290.052 439.528 281.831 439.528 Q277.264 439.528 273.305 437.701 Q269.347 435.874 266.797 431.726 Q262.876 425.141 262.876 413.951 Q262.876 408.28 264.285 403.712 Q265.731 399.107 268.053 396.176 Q270.412 393.246 273.534 391.266 Q276.655 389.287 279.814 388.45 Q283.011 387.612 286.36 387.612 Q289.329 387.612 291.613 388.45 Q293.934 389.287 295.229 390.695 Q296.561 392.104 297.208 393.778 Q297.893 395.453 297.893 397.356 Q297.893 399.602 296.561 400.972 Q295.229 402.342 292.983 402.342 Q290.775 402.342 289.443 400.972 Q288.149 399.564 288.149 397.508 Q288.149 395.681 289.215 394.311 Q290.319 392.941 292.336 392.675 Q290.281 390.619 286.513 390.619 Q283.049 390.619 280.08 392.446 Q277.111 394.273 275.665 397.09 Q273.495 401.885 273.495 410.525 L273.495 412.01 Q274.409 410.335 275.589 409.117 Q276.769 407.899 277.682 407.328 Q278.634 406.757 279.776 406.453 Q280.956 406.148 281.488 406.11 Q282.059 406.072 282.859 406.072 Q287.692 406.072 291.537 407.899 Q295.381 409.726 297.741 413.57 Q300.139 417.376 300.139 422.667 M289.557 422.515 Q289.557 419.965 289.519 418.747 Q289.481 417.491 289.291 415.588 Q289.101 413.646 288.606 412.733 Q288.149 411.781 287.35 410.754 Q286.551 409.688 285.256 409.307 Q283.962 408.889 282.135 408.889 Q278.558 408.889 276.084 412.2 Q273.648 415.473 273.648 422.286 Q273.648 429.366 274.904 431.878 Q275.627 433.362 277.34 434.771 Q279.052 436.141 281.679 436.141 Q283.962 436.141 285.485 435.418 Q287.045 434.656 287.845 433.705 Q288.644 432.753 289.025 430.622 Q289.443 428.49 289.481 427.044 Q289.557 425.598 289.557 422.515 Z" fill="#000000" fill-rule="nonzero" fill-opacity="1" /><path clip-path="url(#clip330)" d="M106.177 1072.3 L125.083 1072.3 L125.083 1078.19 L75.8762 1078.19 L75.8762 1072.3 L81.2871 1072.3 Q78.1042 1070.46 76.5764 1067.66 Q75.0168 1064.82 75.0168 1060.91 Q75.0168 1054.42 80.1731 1050.37 Q85.3293 1046.3 93.732 1046.3 Q102.135 1046.3 107.291 1050.37 Q112.447 1054.42 112.447 1060.91 Q112.447 1064.82 110.919 1067.66 Q109.36 1070.46 106.177 1072.3 M93.732 1052.38 Q87.2708 1052.38 83.6105 1055.05 Q79.9184 1057.69 79.9184 1062.34 Q79.9184 1066.99 83.6105 1069.66 Q87.2708 1072.3 93.732 1072.3 Q100.193 1072.3 103.885 1069.66 Q107.546 1066.99 107.546 1062.34 Q107.546 1057.69 103.885 1055.05 Q100.193 1052.38 93.732 1052.38 Z" fill="#000000" fill-rule="nonzero" fill-opacity="1" /><path clip-path="url(#clip330)" d="M81.3507 1015.93 Q80.7778 1016.92 80.5232 1018.1 Q80.2367 1019.24 80.2367 1020.65 Q80.2367 1025.61 83.4832 1028.28 Q86.6979 1030.93 92.7453 1030.93 L111.524 1030.93 L111.524 1036.81 L75.8762 1036.81 L75.8762 1030.93 L81.4144 1030.93 Q78.1679 1029.08 76.6083 1026.12 Q75.0168 1023.16 75.0168 1018.93 Q75.0168 1018.32 75.1123 1017.59 Q75.176 1016.86 75.3351 1015.97 L81.3507 1015.93 Z" fill="#000000" fill-rule="nonzero" fill-opacity="1" /><path clip-path="url(#clip330)" d="M79.9821 997.41 Q79.9821 1002.12 83.6742 1004.86 Q87.3345 1007.6 93.732 1007.6 Q100.13 1007.6 103.822 1004.89 Q107.482 1002.15 107.482 997.41 Q107.482 992.732 103.79 989.994 Q100.098 987.257 93.732 987.257 Q87.3981 987.257 83.706 989.994 Q79.9821 992.732 79.9821 997.41 M75.0168 997.41 Q75.0168 989.772 79.9821 985.411 Q84.9473 981.051 93.732 981.051 Q102.485 981.051 107.482 985.411 Q112.447 989.772 112.447 997.41 Q112.447 1005.08 107.482 1009.44 Q102.485 1013.77 93.732 1013.77 Q84.9473 1013.77 79.9821 1009.44 Q75.0168 1005.08 75.0168 997.41 Z" fill="#000000" fill-rule="nonzero" fill-opacity="1" /><path clip-path="url(#clip330)" d="M106.177 965.677 L125.083 965.677 L125.083 971.566 L75.8762 971.566 L75.8762 965.677 L81.2871 965.677 Q78.1042 963.831 76.5764 961.03 Q75.0168 958.198 75.0168 954.283 Q75.0168 947.79 80.1731 943.748 Q85.3293 939.673 93.732 939.673 Q102.135 939.673 107.291 943.748 Q112.447 947.79 112.447 954.283 Q112.447 958.198 110.919 961.03 Q109.36 963.831 106.177 965.677 M93.732 945.753 Q87.2708 945.753 83.6105 948.426 Q79.9184 951.068 79.9184 955.715 Q79.9184 960.362 83.6105 963.036 Q87.2708 965.677 93.732 965.677 Q100.193 965.677 103.885 963.036 Q107.546 960.362 107.546 955.715 Q107.546 951.068 103.885 948.426 Q100.193 945.753 93.732 945.753 Z" fill="#000000" fill-rule="nonzero" fill-opacity="1" /><path clip-path="url(#clip330)" d="M79.9821 916.152 Q79.9821 920.863 83.6742 923.6 Q87.3345 926.337 93.732 926.337 Q100.13 926.337 103.822 923.632 Q107.482 920.895 107.482 916.152 Q107.482 911.473 103.79 908.736 Q100.098 905.999 93.732 905.999 Q87.3981 905.999 83.706 908.736 Q79.9821 911.473 79.9821 916.152 M75.0168 916.152 Q75.0168 908.513 79.9821 904.153 Q84.9473 899.792 93.732 899.792 Q102.485 899.792 107.482 904.153 Q112.447 908.513 112.447 916.152 Q112.447 923.823 107.482 928.183 Q102.485 932.512 93.732 932.512 Q84.9473 932.512 79.9821 928.183 Q75.0168 923.823 75.0168 916.152 Z" fill="#000000" fill-rule="nonzero" fill-opacity="1" /><path clip-path="url(#clip330)" d="M81.3507 869.428 Q80.7778 870.415 80.5232 871.592 Q80.2367 872.738 80.2367 874.139 Q80.2367 879.104 83.4832 881.777 Q86.6979 884.419 92.7453 884.419 L111.524 884.419 L111.524 890.307 L75.8762 890.307 L75.8762 884.419 L81.4144 884.419 Q78.1679 882.573 76.6083 879.613 Q75.0168 876.653 75.0168 872.42 Q75.0168 871.815 75.1123 871.083 Q75.176 870.351 75.3351 869.46 L81.3507 869.428 Z" fill="#000000" fill-rule="nonzero" fill-opacity="1" /><path clip-path="url(#clip330)" d="M65.7547 857.492 L75.8762 857.492 L75.8762 845.429 L80.4277 845.429 L80.4277 857.492 L99.7794 857.492 Q104.14 857.492 105.381 856.315 Q106.623 855.105 106.623 851.445 L106.623 845.429 L111.524 845.429 L111.524 851.445 Q111.524 858.224 109.01 860.802 Q106.463 863.38 99.7794 863.38 L80.4277 863.38 L80.4277 867.677 L75.8762 867.677 L75.8762 863.38 L65.7547 863.38 L65.7547 857.492 Z" fill="#000000" fill-rule="nonzero" fill-opacity="1" /><path clip-path="url(#clip330)" d="M75.8762 837.727 L75.8762 831.87 L111.524 831.87 L111.524 837.727 L75.8762 837.727 M61.999 837.727 L61.999 831.87 L69.415 831.87 L69.415 837.727 L61.999 837.727 Z" fill="#000000" fill-rule="nonzero" fill-opacity="1" /><path clip-path="url(#clip330)" d="M79.9821 805.803 Q79.9821 810.513 83.6742 813.251 Q87.3345 815.988 93.732 815.988 Q100.13 815.988 103.822 813.282 Q107.482 810.545 107.482 805.803 Q107.482 801.124 103.79 798.387 Q100.098 795.649 93.732 795.649 Q87.3981 795.649 83.706 798.387 Q79.9821 801.124 79.9821 805.803 M75.0168 805.803 Q75.0168 798.164 79.9821 793.803 Q84.9473 789.443 93.732 789.443 Q102.485 789.443 107.482 793.803 Q112.447 798.164 112.447 805.803 Q112.447 813.473 107.482 817.834 Q102.485 822.163 93.732 822.163 Q84.9473 822.163 79.9821 817.834 Q75.0168 813.473 75.0168 805.803 Z" fill="#000000" fill-rule="nonzero" fill-opacity="1" /><path clip-path="url(#clip330)" d="M90.0081 750.103 L111.524 750.103 L111.524 755.959 L90.199 755.959 Q85.1383 755.959 82.6238 757.933 Q80.1094 759.906 80.1094 763.853 Q80.1094 768.595 83.1331 771.332 Q86.1568 774.07 91.3767 774.07 L111.524 774.07 L111.524 779.958 L75.8762 779.958 L75.8762 774.07 L81.4144 774.07 Q78.1997 771.969 76.6083 769.136 Q75.0168 766.272 75.0168 762.548 Q75.0168 756.405 78.8363 753.254 Q82.6238 750.103 90.0081 750.103 Z" fill="#000000" fill-rule="nonzero" fill-opacity="1" /><path clip-path="url(#clip330)" d="M90.0081 688.069 L111.524 688.069 L111.524 693.925 L90.199 693.925 Q85.1383 693.925 82.6238 695.899 Q80.1094 697.872 80.1094 701.819 Q80.1094 706.561 83.1331 709.299 Q86.1568 712.036 91.3767 712.036 L111.524 712.036 L111.524 717.924 L61.999 717.924 L61.999 712.036 L81.4144 712.036 Q78.1997 709.935 76.6083 707.102 Q75.0168 704.238 75.0168 700.514 Q75.0168 694.371 78.8363 691.22 Q82.6238 688.069 90.0081 688.069 Z" fill="#000000" fill-rule="nonzero" fill-opacity="1" /><path clip-path="url(#clip330)" d="M93.6047 660.187 Q93.6047 667.285 95.2279 670.022 Q96.8512 672.759 100.766 672.759 Q103.885 672.759 105.731 670.722 Q107.546 668.654 107.546 665.121 Q107.546 660.251 104.108 657.323 Q100.639 654.363 94.9097 654.363 L93.6047 654.363 L93.6047 660.187 M91.1857 648.506 L111.524 648.506 L111.524 654.363 L106.113 654.363 Q109.36 656.368 110.919 659.36 Q112.447 662.351 112.447 666.68 Q112.447 672.155 109.392 675.401 Q106.304 678.616 101.148 678.616 Q95.1325 678.616 92.0769 674.605 Q89.0214 670.563 89.0214 662.574 L89.0214 654.363 L88.4485 654.363 Q84.4062 654.363 82.2101 657.036 Q79.9821 659.678 79.9821 664.484 Q79.9821 667.54 80.7141 670.436 Q81.4462 673.332 82.9103 676.006 L77.4995 676.006 Q76.2581 672.791 75.6534 669.768 Q75.0168 666.744 75.0168 663.879 Q75.0168 656.145 79.0272 652.325 Q83.0376 648.506 91.1857 648.506 Z" fill="#000000" fill-rule="nonzero" fill-opacity="1" /><path clip-path="url(#clip330)" d="M61.999 636.443 L61.999 630.587 L111.524 630.587 L111.524 636.443 L61.999 636.443 Z" fill="#000000" fill-rule="nonzero" fill-opacity="1" /><path clip-path="url(#clip330)" d="M61.999 600.286 L66.8687 600.286 L66.8687 605.888 Q66.8687 609.039 68.1419 610.28 Q69.415 611.489 72.7252 611.489 L75.8762 611.489 L75.8762 601.845 L80.4277 601.845 L80.4277 611.489 L111.524 611.489 L111.524 617.378 L80.4277 617.378 L80.4277 622.98 L75.8762 622.98 L75.8762 617.378 L73.3936 617.378 Q67.4416 617.378 64.7362 614.609 Q61.999 611.84 61.999 605.824 L61.999 600.286 Z" fill="#000000" fill-rule="nonzero" fill-opacity="1" /><path clip-path="url(#clip330)" d="M75.8762 599.936 L75.8762 594.079 L103.694 586.759 L75.8762 579.47 L75.8762 572.563 L103.694 565.243 L75.8762 557.954 L75.8762 552.097 L111.524 561.423 L111.524 568.33 L82.3056 576.001 L111.524 583.703 L111.524 590.61 L75.8762 599.936 Z" fill="#000000" fill-rule="nonzero" fill-opacity="1" /><path clip-path="url(#clip330)" d="M93.6047 527.017 Q93.6047 534.114 95.2279 536.852 Q96.8512 539.589 100.766 539.589 Q103.885 539.589 105.731 537.552 Q107.546 535.483 107.546 531.95 Q107.546 527.08 104.108 524.152 Q100.639 521.192 94.9097 521.192 L93.6047 521.192 L93.6047 527.017 M91.1857 515.335 L111.524 515.335 L111.524 521.192 L106.113 521.192 Q109.36 523.197 110.919 526.189 Q112.447 529.181 112.447 533.51 Q112.447 538.984 109.392 542.231 Q106.304 545.445 101.148 545.445 Q95.1325 545.445 92.0769 541.435 Q89.0214 537.393 89.0214 529.404 L89.0214 521.192 L88.4485 521.192 Q84.4062 521.192 82.2101 523.866 Q79.9821 526.507 79.9821 531.313 Q79.9821 534.369 80.7141 537.265 Q81.4462 540.162 82.9103 542.835 L77.4995 542.835 Q76.2581 539.621 75.6534 536.597 Q75.0168 533.573 75.0168 530.709 Q75.0168 522.974 79.0272 519.155 Q83.0376 515.335 91.1857 515.335 Z" fill="#000000" fill-rule="nonzero" fill-opacity="1" /><path clip-path="url(#clip330)" d="M114.834 488.44 Q121.2 490.923 123.142 493.278 Q125.083 495.634 125.083 499.58 L125.083 504.259 L120.182 504.259 L120.182 500.822 Q120.182 498.403 119.036 497.066 Q117.89 495.729 113.625 494.106 L110.951 493.055 L75.8762 507.474 L75.8762 501.267 L103.758 490.127 L75.8762 478.987 L75.8762 472.781 L114.834 488.44 Z" fill="#000000" fill-rule="nonzero" fill-opacity="1" /><path clip-path="url(#clip330)" d="M946.851 160.035 Q941.341 160.035 938.101 163.802 Q934.901 167.57 934.901 174.132 Q934.901 180.654 938.101 184.462 Q941.341 188.229 946.851 188.229 Q952.36 188.229 955.56 184.462 Q958.801 180.654 958.801 174.132 Q958.801 167.57 955.56 163.802 Q952.36 160.035 946.851 160.035 M963.095 134.393 L963.095 141.846 Q960.016 140.388 956.856 139.618 Q953.737 138.849 950.659 138.849 Q942.557 138.849 938.263 144.318 Q934.009 149.786 933.402 160.845 Q935.792 157.321 939.397 155.458 Q943.002 153.554 947.337 153.554 Q956.451 153.554 961.717 159.103 Q967.024 164.613 967.024 174.132 Q967.024 183.449 961.515 189.08 Q956.006 194.711 946.851 194.711 Q936.359 194.711 930.809 186.69 Q925.259 178.629 925.259 163.357 Q925.259 149.017 932.065 140.51 Q938.87 131.962 950.334 131.962 Q953.413 131.962 956.532 132.57 Q959.692 133.178 963.095 134.393 Z" fill="#000000" fill-rule="nonzero" fill-opacity="1" /><path clip-path="url(#clip330)" d="M976.301 167.489 L998.135 167.489 L998.135 174.132 L976.301 174.132 L976.301 167.489 Z" fill="#000000" fill-rule="nonzero" fill-opacity="1" /><path clip-path="url(#clip330)" d="M1042.57 170.891 Q1042.57 162.668 1039.17 158.01 Q1035.81 153.311 1029.89 153.311 Q1023.98 153.311 1020.58 158.01 Q1017.21 162.668 1017.21 170.891 Q1017.21 179.115 1020.58 183.814 Q1023.98 188.472 1029.89 188.472 Q1035.81 188.472 1039.17 183.814 Q1042.57 179.115 1042.57 170.891 M1017.21 155.052 Q1019.56 151.002 1023.13 149.057 Q1026.73 147.072 1031.72 147.072 Q1039.98 147.072 1045.13 153.635 Q1050.31 160.197 1050.31 170.891 Q1050.31 181.586 1045.13 188.148 Q1039.98 194.711 1031.72 194.711 Q1026.73 194.711 1023.13 192.766 Q1019.56 190.781 1017.21 186.73 L1017.21 193.536 L1009.72 193.536 L1009.72 130.504 L1017.21 130.504 L1017.21 155.052 Z" fill="#000000" fill-rule="nonzero" fill-opacity="1" /><path clip-path="url(#clip330)" d="M1062.67 148.166 L1070.12 148.166 L1070.12 193.536 L1062.67 193.536 L1062.67 148.166 M1062.67 130.504 L1070.12 130.504 L1070.12 139.943 L1062.67 139.943 L1062.67 130.504 Z" fill="#000000" fill-rule="nonzero" fill-opacity="1" /><path clip-path="url(#clip330)" d="M1093.09 135.284 L1093.09 148.166 L1108.44 148.166 L1108.44 153.959 L1093.09 153.959 L1093.09 178.588 Q1093.09 184.138 1094.59 185.718 Q1096.13 187.298 1100.79 187.298 L1108.44 187.298 L1108.44 193.536 L1100.79 193.536 Q1092.16 193.536 1088.88 190.336 Q1085.59 187.095 1085.59 178.588 L1085.59 153.959 L1080.13 153.959 L1080.13 148.166 L1085.59 148.166 L1085.59 135.284 L1093.09 135.284 Z" fill="#000000" fill-rule="nonzero" fill-opacity="1" /><path clip-path="url(#clip330)" d="M1183.42 168.988 L1183.42 172.633 L1149.15 172.633 Q1149.64 180.33 1153.77 184.381 Q1157.94 188.391 1165.36 188.391 Q1169.65 188.391 1173.66 187.338 Q1177.71 186.285 1181.68 184.178 L1181.68 191.227 Q1177.67 192.928 1173.46 193.82 Q1169.25 194.711 1164.91 194.711 Q1154.05 194.711 1147.69 188.391 Q1141.38 182.072 1141.38 171.297 Q1141.38 160.157 1147.37 153.635 Q1153.41 147.072 1163.61 147.072 Q1172.77 147.072 1178.08 152.986 Q1183.42 158.86 1183.42 168.988 M1175.97 166.8 Q1175.89 160.683 1172.53 157.037 Q1169.2 153.392 1163.7 153.392 Q1157.46 153.392 1153.69 156.916 Q1149.96 160.44 1149.4 166.841 L1175.97 166.8 Z" fill="#000000" fill-rule="nonzero" fill-opacity="1" /><path clip-path="url(#clip330)" d="M1231.91 148.166 L1215.51 170.243 L1232.76 193.536 L1223.97 193.536 L1210.77 175.712 L1197.56 193.536 L1188.77 193.536 L1206.39 169.798 L1190.27 148.166 L1199.06 148.166 L1211.09 164.329 L1223.12 148.166 L1231.91 148.166 Z" fill="#000000" fill-rule="nonzero" fill-opacity="1" /><path clip-path="url(#clip330)" d="M1250.67 135.284 L1250.67 148.166 L1266.02 148.166 L1266.02 153.959 L1250.67 153.959 L1250.67 178.588 Q1250.67 184.138 1252.17 185.718 Q1253.71 187.298 1258.37 187.298 L1266.02 187.298 L1266.02 193.536 L1258.37 193.536 Q1249.74 193.536 1246.46 190.336 Q1243.17 187.095 1243.17 178.588 L1243.17 153.959 L1237.71 153.959 L1237.71 148.166 L1243.17 148.166 L1243.17 135.284 L1250.67 135.284 Z" fill="#000000" fill-rule="nonzero" fill-opacity="1" /><path clip-path="url(#clip330)" d="M1314.63 168.988 L1314.63 172.633 L1280.36 172.633 Q1280.85 180.33 1284.98 184.381 Q1289.15 188.391 1296.57 188.391 Q1300.86 188.391 1304.87 187.338 Q1308.92 186.285 1312.89 184.178 L1312.89 191.227 Q1308.88 192.928 1304.67 193.82 Q1300.45 194.711 1296.12 194.711 Q1285.26 194.711 1278.9 188.391 Q1272.58 182.072 1272.58 171.297 Q1272.58 160.157 1278.58 153.635 Q1284.62 147.072 1294.82 147.072 Q1303.98 147.072 1309.29 152.986 Q1314.63 158.86 1314.63 168.988 M1307.18 166.8 Q1307.1 160.683 1303.74 157.037 Q1300.41 153.392 1294.9 153.392 Q1288.67 153.392 1284.9 156.916 Q1281.17 160.44 1280.6 166.841 L1307.18 166.8 Z" fill="#000000" fill-rule="nonzero" fill-opacity="1" /><path clip-path="url(#clip330)" d="M1364.58 166.152 L1364.58 193.536 L1357.13 193.536 L1357.13 166.395 Q1357.13 159.954 1354.61 156.754 Q1352.1 153.554 1347.08 153.554 Q1341.04 153.554 1337.56 157.402 Q1334.08 161.25 1334.08 167.894 L1334.08 193.536 L1326.58 193.536 L1326.58 148.166 L1334.08 148.166 L1334.08 155.214 Q1336.75 151.123 1340.36 149.098 Q1344 147.072 1348.74 147.072 Q1356.56 147.072 1360.57 151.933 Q1364.58 156.754 1364.58 166.152 Z" fill="#000000" fill-rule="nonzero" fill-opacity="1" /><path clip-path="url(#clip330)" d="M1409.3 155.052 L1409.3 130.504 L1416.76 130.504 L1416.76 193.536 L1409.3 193.536 L1409.3 186.73 Q1406.95 190.781 1403.35 192.766 Q1399.78 194.711 1394.76 194.711 Q1386.54 194.711 1381.35 188.148 Q1376.21 181.586 1376.21 170.891 Q1376.21 160.197 1381.35 153.635 Q1386.54 147.072 1394.76 147.072 Q1399.78 147.072 1403.35 149.057 Q1406.95 151.002 1409.3 155.052 M1383.9 170.891 Q1383.9 179.115 1387.26 183.814 Q1390.67 188.472 1396.58 188.472 Q1402.5 188.472 1405.9 183.814 Q1409.3 179.115 1409.3 170.891 Q1409.3 162.668 1405.9 158.01 Q1402.5 153.311 1396.58 153.311 Q1390.67 153.311 1387.26 158.01 Q1383.9 162.668 1383.9 170.891 Z" fill="#000000" fill-rule="nonzero" fill-opacity="1" /><path clip-path="url(#clip330)" d="M1470.92 168.988 L1470.92 172.633 L1436.65 172.633 Q1437.13 180.33 1441.26 184.381 Q1445.44 188.391 1452.85 188.391 Q1457.14 188.391 1461.15 187.338 Q1465.2 186.285 1469.17 184.178 L1469.17 191.227 Q1465.16 192.928 1460.95 193.82 Q1456.74 194.711 1452.4 194.711 Q1441.55 194.711 1435.19 188.391 Q1428.87 182.072 1428.87 171.297 Q1428.87 160.157 1434.86 153.635 Q1440.9 147.072 1451.11 147.072 Q1460.26 147.072 1465.57 152.986 Q1470.92 158.86 1470.92 168.988 M1463.46 166.8 Q1463.38 160.683 1460.02 157.037 Q1456.7 153.392 1451.19 153.392 Q1444.95 153.392 1441.18 156.916 Q1437.46 160.44 1436.89 166.841 L1463.46 166.8 Z" fill="#000000" fill-rule="nonzero" fill-opacity="1" /><path clip-path="url(#clip330)" d="M1513.01 155.052 L1513.01 130.504 L1520.46 130.504 L1520.46 193.536 L1513.01 193.536 L1513.01 186.73 Q1510.66 190.781 1507.05 192.766 Q1503.49 194.711 1498.46 194.711 Q1490.24 194.711 1485.05 188.148 Q1479.91 181.586 1479.91 170.891 Q1479.91 160.197 1485.05 153.635 Q1490.24 147.072 1498.46 147.072 Q1503.49 147.072 1507.05 149.057 Q1510.66 151.002 1513.01 155.052 M1487.61 170.891 Q1487.61 179.115 1490.97 183.814 Q1494.37 188.472 1500.29 188.472 Q1506.2 188.472 1509.6 183.814 Q1513.01 179.115 1513.01 170.891 Q1513.01 162.668 1509.6 158.01 Q1506.2 153.311 1500.29 153.311 Q1494.37 153.311 1490.97 158.01 Q1487.61 162.668 1487.61 170.891 Z" fill="#000000" fill-rule="nonzero" fill-opacity="1" /><path clip-path="url(#clip330)" d="M1585.15 130.504 L1585.15 136.702 L1578.02 136.702 Q1574.01 136.702 1572.43 138.322 Q1570.89 139.943 1570.89 144.155 L1570.89 148.166 L1583.17 148.166 L1583.17 153.959 L1570.89 153.959 L1570.89 193.536 L1563.4 193.536 L1563.4 153.959 L1556.27 153.959 L1556.27 148.166 L1563.4 148.166 L1563.4 145.006 Q1563.4 137.431 1566.92 133.988 Q1570.45 130.504 1578.1 130.504 L1585.15 130.504 Z" fill="#000000" fill-rule="nonzero" fill-opacity="1" /><path clip-path="url(#clip330)" d="M1591.39 130.504 L1598.84 130.504 L1598.84 193.536 L1591.39 193.536 L1591.39 130.504 Z" fill="#000000" fill-rule="nonzero" fill-opacity="1" /><path clip-path="url(#clip330)" d="M1632.02 153.392 Q1626.03 153.392 1622.54 158.091 Q1619.06 162.749 1619.06 170.891 Q1619.06 179.034 1622.5 183.733 Q1625.98 188.391 1632.02 188.391 Q1637.98 188.391 1641.46 183.692 Q1644.94 178.993 1644.94 170.891 Q1644.94 162.83 1641.46 158.131 Q1637.98 153.392 1632.02 153.392 M1632.02 147.072 Q1641.74 147.072 1647.29 153.392 Q1652.84 159.711 1652.84 170.891 Q1652.84 182.031 1647.29 188.391 Q1641.74 194.711 1632.02 194.711 Q1622.26 194.711 1616.71 188.391 Q1611.2 182.031 1611.2 170.891 Q1611.2 159.711 1616.71 153.392 Q1622.26 147.072 1632.02 147.072 Z" fill="#000000" fill-rule="nonzero" fill-opacity="1" /><path clip-path="url(#clip330)" d="M1685.82 170.729 Q1676.78 170.729 1673.3 172.795 Q1669.82 174.861 1669.82 179.844 Q1669.82 183.814 1672.41 186.163 Q1675.04 188.472 1679.54 188.472 Q1685.74 188.472 1689.46 184.097 Q1693.23 179.682 1693.23 172.39 L1693.23 170.729 L1685.82 170.729 M1700.68 167.651 L1700.68 193.536 L1693.23 193.536 L1693.23 186.649 Q1690.68 190.781 1686.87 192.766 Q1683.06 194.711 1677.55 194.711 Q1670.59 194.711 1666.45 190.822 Q1662.36 186.893 1662.36 180.33 Q1662.36 172.674 1667.47 168.785 Q1672.61 164.896 1682.78 164.896 L1693.23 164.896 L1693.23 164.167 Q1693.23 159.022 1689.83 156.227 Q1686.46 153.392 1680.35 153.392 Q1676.46 153.392 1672.77 154.323 Q1669.09 155.255 1665.68 157.118 L1665.68 150.232 Q1669.78 148.652 1673.62 147.882 Q1677.47 147.072 1681.12 147.072 Q1690.96 147.072 1695.82 152.176 Q1700.68 157.28 1700.68 167.651 Z" fill="#000000" fill-rule="nonzero" fill-opacity="1" /><path clip-path="url(#clip330)" d="M1723.41 135.284 L1723.41 148.166 L1738.76 148.166 L1738.76 153.959 L1723.41 153.959 L1723.41 178.588 Q1723.41 184.138 1724.91 185.718 Q1726.45 187.298 1731.11 187.298 L1738.76 187.298 L1738.76 193.536 L1731.11 193.536 Q1722.48 193.536 1719.2 190.336 Q1715.91 187.095 1715.91 178.588 L1715.91 153.959 L1710.45 153.959 L1710.45 148.166 L1715.91 148.166 L1715.91 135.284 L1723.41 135.284 Z" fill="#000000" fill-rule="nonzero" fill-opacity="1" /><path clip-path="url(#clip330)" d="M1777.49 149.503 L1777.49 156.551 Q1774.33 154.931 1770.93 154.121 Q1767.52 153.311 1763.88 153.311 Q1758.33 153.311 1755.53 155.012 Q1752.78 156.713 1752.78 160.116 Q1752.78 162.709 1754.76 164.207 Q1756.75 165.666 1762.74 167.003 L1765.3 167.57 Q1773.24 169.271 1776.56 172.39 Q1779.92 175.469 1779.92 181.019 Q1779.92 187.338 1774.9 191.024 Q1769.91 194.711 1761.16 194.711 Q1757.52 194.711 1753.55 193.982 Q1749.62 193.293 1745.24 191.875 L1745.24 184.178 Q1749.38 186.325 1753.39 187.419 Q1757.4 188.472 1761.33 188.472 Q1766.59 188.472 1769.43 186.69 Q1772.26 184.867 1772.26 181.586 Q1772.26 178.548 1770.2 176.927 Q1768.17 175.307 1761.24 173.808 L1758.65 173.2 Q1751.72 171.742 1748.65 168.744 Q1745.57 165.706 1745.57 160.44 Q1745.57 154.04 1750.1 150.556 Q1754.64 147.072 1762.99 147.072 Q1767.12 147.072 1770.76 147.68 Q1774.41 148.287 1777.49 149.503 Z" fill="#000000" fill-rule="nonzero" fill-opacity="1" /><polyline clip-path="url(#clip332)" style="stroke:#8b636c; stroke-linecap:round; stroke-linejoin:round; stroke-width:12; stroke-opacity:0.75; fill:none" stroke-dasharray="6, 12" points="463.552,1005.6 908.071,817.524 1352.59,495.072 1797.11,333.999 2241.63,1306.54 "/>
<line clip-path="url(#clip332)" x1="463.552" y1="1005.6" x2="463.552" y2="977.595" style="stroke:#8b2252; stroke-width:12; stroke-opacity:1"/>
<line clip-path="url(#clip332)" x1="463.552" y1="1005.6" x2="435.552" y2="1005.6" style="stroke:#8b2252; stroke-width:12; stroke-opacity:1"/>
<line clip-path="url(#clip332)" x1="463.552" y1="1005.6" x2="463.552" y2="1033.6" style="stroke:#8b2252; stroke-width:12; stroke-opacity:1"/>
<line clip-path="url(#clip332)" x1="463.552" y1="1005.6" x2="491.552" y2="1005.6" style="stroke:#8b2252; stroke-width:12; stroke-opacity:1"/>
<line clip-path="url(#clip332)" x1="908.071" y1="817.524" x2="908.071" y2="789.524" style="stroke:#8b2252; stroke-width:12; stroke-opacity:1"/>
<line clip-path="url(#clip332)" x1="908.071" y1="817.524" x2="880.071" y2="817.524" style="stroke:#8b2252; stroke-width:12; stroke-opacity:1"/>
<line clip-path="url(#clip332)" x1="908.071" y1="817.524" x2="908.071" y2="845.524" style="stroke:#8b2252; stroke-width:12; stroke-opacity:1"/>
<line clip-path="url(#clip332)" x1="908.071" y1="817.524" x2="936.071" y2="817.524" style="stroke:#8b2252; stroke-width:12; stroke-opacity:1"/>
<line clip-path="url(#clip332)" x1="1352.59" y1="495.072" x2="1352.59" y2="467.072" style="stroke:#8b2252; stroke-width:12; stroke-opacity:1"/>
<line clip-path="url(#clip332)" x1="1352.59" y1="495.072" x2="1324.59" y2="495.072" style="stroke:#8b2252; stroke-width:12; stroke-opacity:1"/>
<line clip-path="url(#clip332)" x1="1352.59" y1="495.072" x2="1352.59" y2="523.072" style="stroke:#8b2252; stroke-width:12; stroke-opacity:1"/>
<line clip-path="url(#clip332)" x1="1352.59" y1="495.072" x2="1380.59" y2="495.072" style="stroke:#8b2252; stroke-width:12; stroke-opacity:1"/>
<line clip-path="url(#clip332)" x1="1797.11" y1="333.999" x2="1797.11" y2="305.999" style="stroke:#8b2252; stroke-width:12; stroke-opacity:1"/>
<line clip-path="url(#clip332)" x1="1797.11" y1="333.999" x2="1769.11" y2="333.999" style="stroke:#8b2252; stroke-width:12; stroke-opacity:1"/>
<line clip-path="url(#clip332)" x1="1797.11" y1="333.999" x2="1797.11" y2="361.999" style="stroke:#8b2252; stroke-width:12; stroke-opacity:1"/>
<line clip-path="url(#clip332)" x1="1797.11" y1="333.999" x2="1825.11" y2="333.999" style="stroke:#8b2252; stroke-width:12; stroke-opacity:1"/>
<line clip-path="url(#clip332)" x1="2241.63" y1="1306.54" x2="2241.63" y2="1278.54" style="stroke:#8b2252; stroke-width:12; stroke-opacity:1"/>
<line clip-path="url(#clip332)" x1="2241.63" y1="1306.54" x2="2213.63" y2="1306.54" style="stroke:#8b2252; stroke-width:12; stroke-opacity:1"/>
<line clip-path="url(#clip332)" x1="2241.63" y1="1306.54" x2="2241.63" y2="1334.54" style="stroke:#8b2252; stroke-width:12; stroke-opacity:1"/>
<line clip-path="url(#clip332)" x1="2241.63" y1="1306.54" x2="2269.63" y2="1306.54" style="stroke:#8b2252; stroke-width:12; stroke-opacity:1"/>
<polyline clip-path="url(#clip332)" style="stroke:#436eee; stroke-linecap:round; stroke-linejoin:round; stroke-width:12; stroke-opacity:0.75; fill:none" stroke-dasharray="6, 12" points="463.552,1225.93 908.071,1177.57 1352.59,495.072 1797.11,720.819 2241.63,758.647 "/>
<path clip-path="url(#clip332)" d="M463.552 1193.93 L456.032 1215.56 L433.12 1216.04 L451.392 1229.89 L444.736 1251.81 L463.552 1238.73 L482.368 1251.81 L475.712 1229.89 L493.984 1216.04 L471.072 1215.56 L463.552 1193.93 Z" fill="#4b0082" fill-rule="evenodd" fill-opacity="1" stroke="#000000" stroke-opacity="1" stroke-width="3.2"/>
<path clip-path="url(#clip332)" d="M908.071 1145.57 L900.551 1167.21 L877.639 1167.69 L895.911 1181.54 L889.255 1203.46 L908.071 1190.37 L926.887 1203.46 L920.231 1181.54 L938.503 1167.69 L915.591 1167.21 L908.071 1145.57 Z" fill="#4b0082" fill-rule="evenodd" fill-opacity="1" stroke="#000000" stroke-opacity="1" stroke-width="3.2"/>
<path clip-path="url(#clip332)" d="M1352.59 463.072 L1345.07 484.704 L1322.16 485.184 L1340.43 499.04 L1333.77 520.96 L1352.59 507.872 L1371.41 520.96 L1364.75 499.04 L1383.02 485.184 L1360.11 484.704 L1352.59 463.072 Z" fill="#4b0082" fill-rule="evenodd" fill-opacity="1" stroke="#000000" stroke-opacity="1" stroke-width="3.2"/>
<path clip-path="url(#clip332)" d="M1797.11 688.819 L1789.59 710.451 L1766.68 710.931 L1784.95 724.787 L1778.29 746.707 L1797.11 733.619 L1815.92 746.707 L1809.27 724.787 L1827.54 710.931 L1804.63 710.451 L1797.11 688.819 Z" fill="#4b0082" fill-rule="evenodd" fill-opacity="1" stroke="#000000" stroke-opacity="1" stroke-width="3.2"/>
<path clip-path="url(#clip332)" d="M2241.63 726.647 L2234.11 748.279 L2211.19 748.759 L2229.47 762.615 L2222.81 784.535 L2241.63 771.447 L2260.44 784.535 L2253.79 762.615 L2272.06 748.759 L2249.15 748.279 L2241.63 726.647 Z" fill="#4b0082" fill-rule="evenodd" fill-opacity="1" stroke="#000000" stroke-opacity="1" stroke-width="3.2"/>
<polyline clip-path="url(#clip332)" style="stroke:#8fbc8f; stroke-linecap:round; stroke-linejoin:round; stroke-width:12; stroke-opacity:0.75; fill:none" stroke-dasharray="6, 12" points="463.552,1074.54 908.071,975.241 1352.59,780.306 1797.11,686.041 2241.63,815.083 "/>
<path clip-path="url(#clip332)" d="M489.152 1074.54 L450.752 1052.14 L450.752 1096.94 L489.152 1074.54 Z" fill="#3cb371" fill-rule="evenodd" fill-opacity="1" stroke="#000000" stroke-opacity="1" stroke-width="3.2"/>
<path clip-path="url(#clip332)" d="M933.671 975.241 L895.271 952.841 L895.271 997.641 L933.671 975.241 Z" fill="#3cb371" fill-rule="evenodd" fill-opacity="1" stroke="#000000" stroke-opacity="1" stroke-width="3.2"/>
<path clip-path="url(#clip332)" d="M1378.19 780.306 L1339.79 757.906 L1339.79 802.706 L1378.19 780.306 Z" fill="#3cb371" fill-rule="evenodd" fill-opacity="1" stroke="#000000" stroke-opacity="1" stroke-width="3.2"/>
<path clip-path="url(#clip332)" d="M1822.71 686.041 L1784.31 663.641 L1784.31 708.441 L1822.71 686.041 Z" fill="#3cb371" fill-rule="evenodd" fill-opacity="1" stroke="#000000" stroke-opacity="1" stroke-width="3.2"/>
<path clip-path="url(#clip332)" d="M2267.23 815.083 L2228.83 792.683 L2228.83 837.483 L2267.23 815.083 Z" fill="#3cb371" fill-rule="evenodd" fill-opacity="1" stroke="#000000" stroke-opacity="1" stroke-width="3.2"/>
<path clip-path="url(#clip330)" d="M419.1 513.116 L716.477 513.116 L716.477 279.836 L419.1 279.836  Z" fill="#f5f5f5" fill-rule="evenodd" fill-opacity="1"/>
<polyline clip-path="url(#clip330)" style="stroke:#fafafa; stroke-linecap:round; stroke-linejoin:round; stroke-width:4; stroke-opacity:1; fill:none" points="419.1,513.116 716.477,513.116 716.477,279.836 419.1,279.836 419.1,513.116 "/>
<polyline clip-path="url(#clip330)" style="stroke:#8b636c; stroke-linecap:round; stroke-linejoin:round; stroke-width:13.5; stroke-opacity:0.75; fill:none" stroke-dasharray="7, 14" points="441.326,338.156 574.682,338.156 "/>
<line clip-path="url(#clip330)" x1="508.004" y1="338.156" x2="508.004" y2="319.863" style="stroke:#8b2252; stroke-width:13.5; stroke-opacity:1"/>
<line clip-path="url(#clip330)" x1="508.004" y1="338.156" x2="489.711" y2="338.156" style="stroke:#8b2252; stroke-width:13.5; stroke-opacity:1"/>
<line clip-path="url(#clip330)" x1="508.004" y1="338.156" x2="508.004" y2="356.449" style="stroke:#8b2252; stroke-width:13.5; stroke-opacity:1"/>
<line clip-path="url(#clip330)" x1="508.004" y1="338.156" x2="526.297" y2="338.156" style="stroke:#8b2252; stroke-width:13.5; stroke-opacity:1"/>
<path clip-path="url(#clip330)" d="M611.986 342.934 Q606.179 342.934 603.939 344.262 Q601.699 345.591 601.699 348.794 Q601.699 351.346 603.366 352.856 Q605.059 354.341 607.949 354.341 Q611.934 354.341 614.33 351.528 Q616.751 348.69 616.751 344.002 L616.751 342.934 L611.986 342.934 M621.543 340.955 L621.543 357.596 L616.751 357.596 L616.751 353.169 Q615.111 355.825 612.663 357.101 Q610.215 358.351 606.673 358.351 Q602.194 358.351 599.538 355.851 Q596.908 353.325 596.908 349.106 Q596.908 344.184 600.189 341.684 Q603.496 339.184 610.033 339.184 L616.751 339.184 L616.751 338.716 Q616.751 335.408 614.564 333.611 Q612.402 331.789 608.47 331.789 Q605.97 331.789 603.6 332.388 Q601.231 332.986 599.043 334.184 L599.043 329.757 Q601.673 328.742 604.147 328.247 Q606.621 327.726 608.965 327.726 Q615.293 327.726 618.418 331.007 Q621.543 334.289 621.543 340.955 Z" fill="#000000" fill-rule="nonzero" fill-opacity="1" /><path clip-path="url(#clip330)" d="M650.605 332.856 L650.605 317.075 L655.397 317.075 L655.397 357.596 L650.605 357.596 L650.605 353.221 Q649.095 355.825 646.777 357.101 Q644.486 358.351 641.256 358.351 Q635.97 358.351 632.637 354.132 Q629.329 349.913 629.329 343.039 Q629.329 336.164 632.637 331.945 Q635.97 327.726 641.256 327.726 Q644.486 327.726 646.777 329.002 Q649.095 330.252 650.605 332.856 M634.277 343.039 Q634.277 348.325 636.439 351.346 Q638.626 354.341 642.428 354.341 Q646.23 354.341 648.418 351.346 Q650.605 348.325 650.605 343.039 Q650.605 337.752 648.418 334.757 Q646.23 331.736 642.428 331.736 Q638.626 331.736 636.439 334.757 Q634.277 337.752 634.277 343.039 Z" fill="#000000" fill-rule="nonzero" fill-opacity="1" /><path clip-path="url(#clip330)" d="M684.459 332.856 L684.459 317.075 L689.251 317.075 L689.251 357.596 L684.459 357.596 L684.459 353.221 Q682.949 355.825 680.631 357.101 Q678.34 358.351 675.11 358.351 Q669.824 358.351 666.491 354.132 Q663.183 349.913 663.183 343.039 Q663.183 336.164 666.491 331.945 Q669.824 327.726 675.11 327.726 Q678.34 327.726 680.631 329.002 Q682.949 330.252 684.459 332.856 M668.131 343.039 Q668.131 348.325 670.293 351.346 Q672.48 354.341 676.282 354.341 Q680.084 354.341 682.272 351.346 Q684.459 348.325 684.459 343.039 Q684.459 337.752 682.272 334.757 Q680.084 331.736 676.282 331.736 Q672.48 331.736 670.293 334.757 Q668.131 337.752 668.131 343.039 Z" fill="#000000" fill-rule="nonzero" fill-opacity="1" /><polyline clip-path="url(#clip330)" style="stroke:#436eee; stroke-linecap:round; stroke-linejoin:round; stroke-width:13.5; stroke-opacity:0.75; fill:none" stroke-dasharray="7, 14" points="441.326,396.476 574.682,396.476 "/>
<path clip-path="url(#clip330)" d="M508.004 378.183 L503.705 390.549 L490.607 390.823 L501.053 398.744 L497.248 411.275 L508.004 403.793 L518.76 411.275 L514.955 398.744 L525.401 390.823 L512.303 390.549 L508.004 378.183 Z" fill="#4b0082" fill-rule="evenodd" fill-opacity="1" stroke="#000000" stroke-opacity="1" stroke-width="2.71059"/>
<path clip-path="url(#clip330)" d="M619.798 392.348 Q621.595 389.119 624.095 387.583 Q626.595 386.046 629.981 386.046 Q634.538 386.046 637.012 389.249 Q639.486 392.426 639.486 398.312 L639.486 415.916 L634.668 415.916 L634.668 398.468 Q634.668 394.275 633.184 392.244 Q631.699 390.213 628.652 390.213 Q624.928 390.213 622.767 392.687 Q620.606 395.161 620.606 399.431 L620.606 415.916 L615.788 415.916 L615.788 398.468 Q615.788 394.249 614.304 392.244 Q612.819 390.213 609.72 390.213 Q606.048 390.213 603.887 392.713 Q601.725 395.187 601.725 399.431 L601.725 415.916 L596.908 415.916 L596.908 386.749 L601.725 386.749 L601.725 391.28 Q603.366 388.598 605.658 387.322 Q607.949 386.046 611.1 386.046 Q614.277 386.046 616.491 387.661 Q618.731 389.275 619.798 392.348 Z" fill="#000000" fill-rule="nonzero" fill-opacity="1" /><path clip-path="url(#clip330)" d="M648.548 404.405 L648.548 386.749 L653.34 386.749 L653.34 404.223 Q653.34 408.364 654.954 410.447 Q656.569 412.504 659.798 412.504 Q663.678 412.504 665.918 410.03 Q668.183 407.556 668.183 403.286 L668.183 386.749 L672.975 386.749 L672.975 415.916 L668.183 415.916 L668.183 411.437 Q666.439 414.093 664.121 415.395 Q661.829 416.671 658.782 416.671 Q653.756 416.671 651.152 413.546 Q648.548 410.421 648.548 404.405 M660.605 386.046 L660.605 386.046 Z" fill="#000000" fill-rule="nonzero" fill-opacity="1" /><path clip-path="url(#clip330)" d="M682.845 375.395 L687.636 375.395 L687.636 415.916 L682.845 415.916 L682.845 375.395 Z" fill="#000000" fill-rule="nonzero" fill-opacity="1" /><polyline clip-path="url(#clip330)" style="stroke:#8fbc8f; stroke-linecap:round; stroke-linejoin:round; stroke-width:13.5; stroke-opacity:0.75; fill:none" stroke-dasharray="7, 14" points="441.326,454.796 574.682,454.796 "/>
<path clip-path="url(#clip330)" d="M522.638 454.796 L500.687 441.991 L500.687 467.601 L522.638 454.796 Z" fill="#3cb371" fill-rule="evenodd" fill-opacity="1" stroke="#000000" stroke-opacity="1" stroke-width="2.71059"/>
<path clip-path="url(#clip330)" d="M615.475 433.715 L615.475 437.699 L610.892 437.699 Q608.314 437.699 607.298 438.741 Q606.309 439.783 606.309 442.491 L606.309 445.069 L614.199 445.069 L614.199 448.793 L606.309 448.793 L606.309 474.236 L601.491 474.236 L601.491 448.793 L596.908 448.793 L596.908 445.069 L601.491 445.069 L601.491 443.038 Q601.491 438.168 603.757 435.955 Q606.022 433.715 610.944 433.715 L615.475 433.715 Z" fill="#000000" fill-rule="nonzero" fill-opacity="1" /><path clip-path="url(#clip330)" d="M642.194 450.668 Q643.991 447.439 646.491 445.903 Q648.991 444.366 652.376 444.366 Q656.933 444.366 659.407 447.569 Q661.881 450.746 661.881 456.632 L661.881 474.236 L657.064 474.236 L657.064 456.788 Q657.064 452.595 655.579 450.564 Q654.095 448.533 651.048 448.533 Q647.324 448.533 645.163 451.007 Q643.001 453.481 643.001 457.751 L643.001 474.236 L638.184 474.236 L638.184 456.788 Q638.184 452.569 636.699 450.564 Q635.215 448.533 632.116 448.533 Q628.444 448.533 626.283 451.033 Q624.121 453.507 624.121 457.751 L624.121 474.236 L619.303 474.236 L619.303 445.069 L624.121 445.069 L624.121 449.6 Q625.762 446.918 628.053 445.642 Q630.345 444.366 633.496 444.366 Q636.673 444.366 638.887 445.981 Q641.126 447.595 642.194 450.668 Z" fill="#000000" fill-rule="nonzero" fill-opacity="1" /><path clip-path="url(#clip330)" d="M684.694 459.574 Q678.886 459.574 676.647 460.902 Q674.407 462.231 674.407 465.434 Q674.407 467.986 676.074 469.496 Q677.767 470.981 680.657 470.981 Q684.642 470.981 687.037 468.168 Q689.459 465.33 689.459 460.642 L689.459 459.574 L684.694 459.574 M694.251 457.595 L694.251 474.236 L689.459 474.236 L689.459 469.809 Q687.819 472.465 685.371 473.741 Q682.923 474.991 679.381 474.991 Q674.902 474.991 672.246 472.491 Q669.616 469.965 669.616 465.746 Q669.616 460.824 672.897 458.324 Q676.204 455.824 682.741 455.824 L689.459 455.824 L689.459 455.356 Q689.459 452.048 687.272 450.251 Q685.11 448.429 681.178 448.429 Q678.678 448.429 676.308 449.028 Q673.939 449.626 671.751 450.824 L671.751 446.397 Q674.381 445.382 676.855 444.887 Q679.329 444.366 681.673 444.366 Q688.001 444.366 691.126 447.647 Q694.251 450.929 694.251 457.595 Z" fill="#000000" fill-rule="nonzero" fill-opacity="1" /></svg>
