<?xml version="1.0" encoding="utf-8"?>
<svg xmlns="http://www.w3.org/2000/svg" xmlns:xlink="http://www.w3.org/1999/xlink" width="600" height="400" viewBox="0 0 2400 1600">
<defs>
  <clipPath id="clip240">
    <rect x="0" y="0" width="2400" height="1600"/>
  </clipPath>
</defs>
<path clip-path="url(#clip240)" d="M0 1600 L2400 1600 L2400 0 L0 0  Z" fill="#ffffff" fill-rule="evenodd" fill-opacity="1"/>
<defs>
  <clipPath id="clip241">
    <rect x="480" y="0" width="1681" height="1600"/>
  </clipPath>
</defs>
<path clip-path="url(#clip240)" d="M352.423 1306.54 L2352.76 1306.54 L2352.76 244.432 L352.423 244.432  Z" fill="#ffffff" fill-rule="evenodd" fill-opacity="1"/>
<defs>
  <clipPath id="clip242">
    <rect x="352" y="244" width="2001" height="1063"/>
  </clipPath>
</defs>
<polyline clip-path="url(#clip242)" style="stroke:#000000; stroke-linecap:round; stroke-linejoin:round; stroke-width:2; stroke-opacity:0.1; fill:none" points="352.423,1306.54 352.423,244.432 "/>
<polyline clip-path="url(#clip242)" style="stroke:#000000; stroke-linecap:round; stroke-linejoin:round; stroke-width:2; stroke-opacity:0.1; fill:none" points="852.506,1306.54 852.506,244.432 "/>
<polyline clip-path="url(#clip242)" style="stroke:#000000; stroke-linecap:round; stroke-linejoin:round; stroke-width:2; stroke-opacity:0.1; fill:none" points="1352.59,1306.54 1352.59,244.432 "/>
<polyline clip-path="url(#clip242)" style="stroke:#000000; stroke-linecap:round; stroke-linejoin:round; stroke-width:2; stroke-opacity:0.1; fill:none" points="1852.67,1306.54 1852.67,244.432 "/>
<polyline clip-path="url(#clip242)" style="stroke:#000000; stroke-linecap:round; stroke-linejoin:round; stroke-width:2; stroke-opacity:0.1; fill:none" points="2352.76,1306.54 2352.76,244.432 "/>
<polyline clip-path="url(#clip242)" style="stroke:#000000; stroke-linecap:round; stroke-linejoin:round; stroke-width:2; stroke-opacity:0.1; fill:none" points="352.423,1306.54 2352.76,1306.54 "/>
<polyline clip-path="url(#clip242)" style="stroke:#000000; stroke-linecap:round; stroke-linejoin:round; stroke-width:2; stroke-opacity:0.1; fill:none" points="352.423,1041.01 2352.76,1041.01 "/>
<polyline clip-path="url(#clip242)" style="stroke:#000000; stroke-linecap:round; stroke-linejoin:round; stroke-width:2; stroke-opacity:0.1; fill:none" points="352.423,775.486 2352.76,775.486 "/>
<polyline clip-path="url(#clip242)" style="stroke:#000000; stroke-linecap:round; stroke-linejoin:round; stroke-width:2; stroke-opacity:0.1; fill:none" points="352.423,509.959 2352.76,509.959 "/>
<polyline clip-path="url(#clip242)" style="stroke:#000000; stroke-linecap:round; stroke-linejoin:round; stroke-width:2; stroke-opacity:0.1; fill:none" points="352.423,244.432 2352.76,244.432 "/>
<polyline clip-path="url(#clip240)" style="stroke:#000000; stroke-linecap:round; stroke-linejoin:round; stroke-width:4; stroke-opacity:1; fill:none" points="352.423,1306.54 2352.76,1306.54 "/>
<polyline clip-path="url(#clip240)" style="stroke:#000000; stroke-linecap:round; stroke-linejoin:round; stroke-width:4; stroke-opacity:1; fill:none" points="352.423,1306.54 352.423,1287.64 "/>
<polyline clip-path="url(#clip240)" style="stroke:#000000; stroke-linecap:round; stroke-linejoin:round; stroke-width:4; stroke-opacity:1; fill:none" points="852.506,1306.54 852.506,1287.64 "/>
<polyline clip-path="url(#clip240)" style="stroke:#000000; stroke-linecap:round; stroke-linejoin:round; stroke-width:4; stroke-opacity:1; fill:none" points="1352.59,1306.54 1352.59,1287.64 "/>
<polyline clip-path="url(#clip240)" style="stroke:#000000; stroke-linecap:round; stroke-linejoin:round; stroke-width:4; stroke-opacity:1; fill:none" points="1852.67,1306.54 1852.67,1287.64 "/>
<polyline clip-path="url(#clip240)" style="stroke:#000000; stroke-linecap:round; stroke-linejoin:round; stroke-width:4; stroke-opacity:1; fill:none" points="2352.76,1306.54 2352.76,1287.64 "/>
<path clip-path="url(#clip240)" d="M274.54 1389.55 L286.953 1389.55 L286.953 1346.7 L273.449 1349.41 L273.449 1342.49 L286.878 1339.78 L294.476 1339.78 L294.476 1389.55 L306.889 1389.55 L306.889 1395.94 L274.54 1395.94 L274.54 1389.55 Z" fill="#000000" fill-rule="nonzero" fill-opacity="1" /><path clip-path="url(#clip240)" d="M322.236 1386.39 L330.173 1386.39 L330.173 1395.94 L322.236 1395.94 L322.236 1386.39 Z" fill="#000000" fill-rule="nonzero" fill-opacity="1" /><path clip-path="url(#clip240)" d="M362.974 1344.78 Q357.106 1344.78 354.134 1350.58 Q351.2 1356.33 351.2 1367.92 Q351.2 1379.46 354.134 1385.26 Q357.106 1391.01 362.974 1391.01 Q368.879 1391.01 371.813 1385.26 Q374.785 1379.46 374.785 1367.92 Q374.785 1356.33 371.813 1350.58 Q368.879 1344.78 362.974 1344.78 M362.974 1338.76 Q372.415 1338.76 377.38 1346.25 Q382.383 1353.7 382.383 1367.92 Q382.383 1382.1 377.38 1389.58 Q372.415 1397.03 362.974 1397.03 Q353.532 1397.03 348.529 1389.58 Q343.564 1382.1 343.564 1367.92 Q343.564 1353.7 348.529 1346.25 Q353.532 1338.76 362.974 1338.76 Z" fill="#000000" fill-rule="nonzero" fill-opacity="1" /><path clip-path="url(#clip240)" d="M411.987 1344.78 Q406.119 1344.78 403.147 1350.58 Q400.213 1356.33 400.213 1367.92 Q400.213 1379.46 403.147 1385.26 Q406.119 1391.01 411.987 1391.01 Q417.892 1391.01 420.826 1385.26 Q423.798 1379.46 423.798 1367.92 Q423.798 1356.33 420.826 1350.58 Q417.892 1344.78 411.987 1344.78 M411.987 1338.76 Q421.428 1338.76 426.394 1346.25 Q431.396 1353.7 431.396 1367.92 Q431.396 1382.1 426.394 1389.58 Q421.428 1397.03 411.987 1397.03 Q402.545 1397.03 397.542 1389.58 Q392.577 1382.1 392.577 1367.92 Q392.577 1353.7 397.542 1346.25 Q402.545 1338.76 411.987 1338.76 Z" fill="#000000" fill-rule="nonzero" fill-opacity="1" /><path clip-path="url(#clip240)" d="M775.432 1389.55 L787.845 1389.55 L787.845 1346.7 L774.341 1349.41 L774.341 1342.49 L787.77 1339.78 L795.368 1339.78 L795.368 1389.55 L807.781 1389.55 L807.781 1395.94 L775.432 1395.94 L775.432 1389.55 Z" fill="#000000" fill-rule="nonzero" fill-opacity="1" /><path clip-path="url(#clip240)" d="M823.128 1386.39 L831.065 1386.39 L831.065 1395.94 L823.128 1395.94 L823.128 1386.39 Z" fill="#000000" fill-rule="nonzero" fill-opacity="1" /><path clip-path="url(#clip240)" d="M854.161 1389.55 L880.68 1389.55 L880.68 1395.94 L845.02 1395.94 L845.02 1389.55 Q849.346 1385.07 856.794 1377.55 Q864.28 1369.99 866.198 1367.8 Q869.847 1363.7 871.276 1360.88 Q872.743 1358.02 872.743 1355.28 Q872.743 1350.8 869.583 1347.98 Q866.461 1345.16 861.421 1345.16 Q857.847 1345.16 853.86 1346.4 Q849.91 1347.64 845.397 1350.16 L845.397 1342.49 Q849.986 1340.64 853.973 1339.7 Q857.96 1338.76 861.27 1338.76 Q869.997 1338.76 875.188 1343.13 Q880.379 1347.49 880.379 1354.79 Q880.379 1358.25 879.062 1361.37 Q877.784 1364.46 874.361 1368.67 Q873.42 1369.76 868.38 1374.99 Q863.339 1380.18 854.161 1389.55 Z" fill="#000000" fill-rule="nonzero" fill-opacity="1" /><path clip-path="url(#clip240)" d="M896.704 1339.78 L926.533 1339.78 L926.533 1346.17 L903.663 1346.17 L903.663 1359.94 Q905.318 1359.38 906.973 1359.11 Q908.628 1358.81 910.283 1358.81 Q919.687 1358.81 925.179 1363.97 Q930.671 1369.12 930.671 1377.92 Q930.671 1386.99 925.029 1392.03 Q919.386 1397.03 909.117 1397.03 Q905.581 1397.03 901.895 1396.43 Q898.246 1395.83 894.334 1394.62 L894.334 1386.99 Q897.72 1388.83 901.331 1389.73 Q904.942 1390.64 908.967 1390.64 Q915.474 1390.64 919.273 1387.21 Q923.073 1383.79 923.073 1377.92 Q923.073 1372.05 919.273 1368.63 Q915.474 1365.21 908.967 1365.21 Q905.92 1365.21 902.873 1365.89 Q899.864 1366.56 896.704 1367.99 L896.704 1339.78 Z" fill="#000000" fill-rule="nonzero" fill-opacity="1" /><path clip-path="url(#clip240)" d="M1274.71 1389.55 L1287.12 1389.55 L1287.12 1346.7 L1273.62 1349.41 L1273.62 1342.49 L1287.04 1339.78 L1294.64 1339.78 L1294.64 1389.55 L1307.06 1389.55 L1307.06 1395.94 L1274.71 1395.94 L1274.71 1389.55 Z" fill="#000000" fill-rule="nonzero" fill-opacity="1" /><path clip-path="url(#clip240)" d="M1322.4 1386.39 L1330.34 1386.39 L1330.34 1395.94 L1322.4 1395.94 L1322.4 1386.39 Z" fill="#000000" fill-rule="nonzero" fill-opacity="1" /><path clip-path="url(#clip240)" d="M1346.97 1339.78 L1376.79 1339.78 L1376.79 1346.17 L1353.92 1346.17 L1353.92 1359.94 Q1355.58 1359.38 1357.23 1359.11 Q1358.89 1358.81 1360.54 1358.81 Q1369.95 1358.81 1375.44 1363.97 Q1380.93 1369.12 1380.93 1377.92 Q1380.93 1386.99 1375.29 1392.03 Q1369.65 1397.03 1359.38 1397.03 Q1355.84 1397.03 1352.16 1396.43 Q1348.51 1395.83 1344.6 1394.62 L1344.6 1386.99 Q1347.98 1388.83 1351.59 1389.73 Q1355.2 1390.64 1359.23 1390.64 Q1365.74 1390.64 1369.54 1387.21 Q1373.33 1383.79 1373.33 1377.92 Q1373.33 1372.05 1369.54 1368.63 Q1365.74 1365.21 1359.23 1365.21 Q1356.18 1365.21 1353.13 1365.89 Q1350.13 1366.56 1346.97 1367.99 L1346.97 1339.78 Z" fill="#000000" fill-rule="nonzero" fill-opacity="1" /><path clip-path="url(#clip240)" d="M1412.15 1344.78 Q1406.29 1344.78 1403.31 1350.58 Q1400.38 1356.33 1400.38 1367.92 Q1400.38 1379.46 1403.31 1385.26 Q1406.29 1391.01 1412.15 1391.01 Q1418.06 1391.01 1420.99 1385.26 Q1423.96 1379.46 1423.96 1367.92 Q1423.96 1356.33 1420.99 1350.58 Q1418.06 1344.78 1412.15 1344.78 M1412.15 1338.76 Q1421.59 1338.76 1426.56 1346.25 Q1431.56 1353.7 1431.56 1367.92 Q1431.56 1382.1 1426.56 1389.58 Q1421.59 1397.03 1412.15 1397.03 Q1402.71 1397.03 1397.71 1389.58 Q1392.74 1382.1 1392.74 1367.92 Q1392.74 1353.7 1397.71 1346.25 Q1402.71 1338.76 1412.15 1338.76 Z" fill="#000000" fill-rule="nonzero" fill-opacity="1" /><path clip-path="url(#clip240)" d="M1775.6 1389.55 L1788.01 1389.55 L1788.01 1346.7 L1774.51 1349.41 L1774.51 1342.49 L1787.94 1339.78 L1795.53 1339.78 L1795.53 1389.55 L1807.95 1389.55 L1807.95 1395.94 L1775.6 1395.94 L1775.6 1389.55 Z" fill="#000000" fill-rule="nonzero" fill-opacity="1" /><path clip-path="url(#clip240)" d="M1823.29 1386.39 L1831.23 1386.39 L1831.23 1395.94 L1823.29 1395.94 L1823.29 1386.39 Z" fill="#000000" fill-rule="nonzero" fill-opacity="1" /><path clip-path="url(#clip240)" d="M1845.86 1339.78 L1881.98 1339.78 L1881.98 1343.01 L1861.59 1395.94 L1853.65 1395.94 L1872.83 1346.17 L1845.86 1346.17 L1845.86 1339.78 Z" fill="#000000" fill-rule="nonzero" fill-opacity="1" /><path clip-path="url(#clip240)" d="M1896.87 1339.78 L1926.7 1339.78 L1926.7 1346.17 L1903.83 1346.17 L1903.83 1359.94 Q1905.48 1359.38 1907.14 1359.11 Q1908.79 1358.81 1910.45 1358.81 Q1919.85 1358.81 1925.35 1363.97 Q1930.84 1369.12 1930.84 1377.92 Q1930.84 1386.99 1925.2 1392.03 Q1919.55 1397.03 1909.28 1397.03 Q1905.75 1397.03 1902.06 1396.43 Q1898.41 1395.83 1894.5 1394.62 L1894.5 1386.99 Q1897.89 1388.83 1901.5 1389.73 Q1905.11 1390.64 1909.13 1390.64 Q1915.64 1390.64 1919.44 1387.21 Q1923.24 1383.79 1923.24 1377.92 Q1923.24 1372.05 1919.44 1368.63 Q1915.64 1365.21 1909.13 1365.21 Q1906.09 1365.21 1903.04 1365.89 Q1900.03 1366.56 1896.87 1367.99 L1896.87 1339.78 Z" fill="#000000" fill-rule="nonzero" fill-opacity="1" /><path clip-path="url(#clip240)" d="M2281.51 1389.55 L2308.03 1389.55 L2308.03 1395.94 L2272.37 1395.94 L2272.37 1389.55 Q2276.7 1385.07 2284.15 1377.55 Q2291.63 1369.99 2293.55 1367.8 Q2297.2 1363.7 2298.63 1360.88 Q2300.09 1358.02 2300.09 1355.28 Q2300.09 1350.8 2296.93 1347.98 Q2293.81 1345.16 2288.77 1345.16 Q2285.2 1345.16 2281.21 1346.4 Q2277.26 1347.64 2272.75 1350.16 L2272.75 1342.49 Q2277.34 1340.64 2281.32 1339.7 Q2285.31 1338.76 2288.62 1338.76 Q2297.35 1338.76 2302.54 1343.13 Q2307.73 1347.49 2307.73 1354.79 Q2307.73 1358.25 2306.41 1361.37 Q2305.13 1364.46 2301.71 1368.67 Q2300.77 1369.76 2295.73 1374.99 Q2290.69 1380.18 2281.51 1389.55 Z" fill="#000000" fill-rule="nonzero" fill-opacity="1" /><path clip-path="url(#clip240)" d="M2323.98 1386.39 L2331.92 1386.39 L2331.92 1395.94 L2323.98 1395.94 L2323.98 1386.39 Z" fill="#000000" fill-rule="nonzero" fill-opacity="1" /><path clip-path="url(#clip240)" d="M2364.72 1344.78 Q2358.85 1344.78 2355.88 1350.58 Q2352.94 1356.33 2352.94 1367.92 Q2352.94 1379.46 2355.88 1385.26 Q2358.85 1391.01 2364.72 1391.01 Q2370.62 1391.01 2373.56 1385.26 Q2376.53 1379.46 2376.53 1367.92 Q2376.53 1356.33 2373.56 1350.58 Q2370.62 1344.78 2364.72 1344.78 M2364.72 1338.76 Q2374.16 1338.76 2379.12 1346.25 Q2384.13 1353.7 2384.13 1367.92 Q2384.13 1382.1 2379.12 1389.58 Q2374.16 1397.03 2364.72 1397.03 Q2355.28 1397.03 2350.27 1389.58 Q2345.31 1382.1 2345.31 1367.92 Q2345.31 1353.7 2350.27 1346.25 Q2355.28 1338.76 2364.72 1338.76 Z" fill="#000000" fill-rule="nonzero" fill-opacity="1" /><path clip-path="url(#clip240)" d="M2413.73 1344.78 Q2407.86 1344.78 2404.89 1350.58 Q2401.96 1356.33 2401.96 1367.92 Q2401.96 1379.46 2404.89 1385.26 Q2407.86 1391.01 2413.73 1391.01 Q2419.64 1391.01 2422.57 1385.26 Q2425.54 1379.46 2425.54 1367.92 Q2425.54 1356.33 2422.57 1350.58 Q2419.64 1344.78 2413.73 1344.78 M2413.73 1338.76 Q2423.17 1338.76 2428.14 1346.25 Q2433.14 1353.7 2433.14 1367.92 Q2433.14 1382.1 2428.14 1389.58 Q2423.17 1397.03 2413.73 1397.03 Q2404.29 1397.03 2399.29 1389.58 Q2394.32 1382.1 2394.32 1367.92 Q2394.32 1353.7 2399.29 1346.25 Q2404.29 1338.76 2413.73 1338.76 Z" fill="#000000" fill-rule="nonzero" fill-opacity="1" /><path clip-path="url(#clip240)" d="M1121.91 1530.73 L1121.91 1549.63 L1116.02 1549.63 L1116.02 1500.43 L1121.91 1500.43 L1121.91 1505.84 Q1123.76 1502.66 1126.56 1501.13 Q1129.39 1499.57 1133.31 1499.57 Q1139.8 1499.57 1143.84 1504.72 Q1147.92 1509.88 1147.92 1518.28 Q1147.92 1526.69 1143.84 1531.84 Q1139.8 1537 1133.31 1537 Q1129.39 1537 1126.56 1535.47 Q1123.76 1533.91 1121.91 1530.73 M1141.84 1518.28 Q1141.84 1511.82 1139.16 1508.16 Q1136.52 1504.47 1131.87 1504.47 Q1127.23 1504.47 1124.55 1508.16 Q1121.91 1511.82 1121.91 1518.28 Q1121.91 1524.74 1124.55 1528.44 Q1127.23 1532.1 1131.87 1532.1 Q1136.52 1532.1 1139.16 1528.44 Q1141.84 1524.74 1141.84 1518.28 Z" fill="#000000" fill-rule="nonzero" fill-opacity="1" /><path clip-path="url(#clip240)" d="M1178.28 1505.9 Q1177.29 1505.33 1176.12 1505.07 Q1174.97 1504.79 1173.57 1504.79 Q1168.6 1504.79 1165.93 1508.03 Q1163.29 1511.25 1163.29 1517.3 L1163.29 1536.08 L1157.4 1536.08 L1157.4 1500.43 L1163.29 1500.43 L1163.29 1505.97 Q1165.14 1502.72 1168.1 1501.16 Q1171.06 1499.57 1175.29 1499.57 Q1175.89 1499.57 1176.63 1499.66 Q1177.36 1499.73 1178.25 1499.89 L1178.28 1505.9 Z" fill="#000000" fill-rule="nonzero" fill-opacity="1" /><path clip-path="url(#clip240)" d="M1213.48 1516.79 L1213.48 1519.65 L1186.56 1519.65 Q1186.94 1525.7 1190.18 1528.88 Q1193.46 1532.03 1199.29 1532.03 Q1202.66 1532.03 1205.81 1531.21 Q1208.99 1530.38 1212.11 1528.72 L1212.11 1534.26 Q1208.96 1535.6 1205.65 1536.3 Q1202.34 1537 1198.94 1537 Q1190.41 1537 1185.41 1532.03 Q1180.44 1527.07 1180.44 1518.6 Q1180.44 1509.85 1185.16 1504.72 Q1189.9 1499.57 1197.92 1499.57 Q1205.11 1499.57 1209.28 1504.22 Q1213.48 1508.83 1213.48 1516.79 M1207.63 1515.07 Q1207.56 1510.26 1204.92 1507.4 Q1202.31 1504.53 1197.98 1504.53 Q1193.08 1504.53 1190.12 1507.3 Q1187.19 1510.07 1186.75 1515.1 L1207.63 1515.07 Z" fill="#000000" fill-rule="nonzero" fill-opacity="1" /><path clip-path="url(#clip240)" d="M1248.75 1501.8 L1248.75 1507.27 Q1246.27 1505.9 1243.75 1505.23 Q1241.27 1504.53 1238.72 1504.53 Q1233.03 1504.53 1229.87 1508.16 Q1226.72 1511.76 1226.72 1518.28 Q1226.72 1524.81 1229.87 1528.44 Q1233.03 1532.03 1238.72 1532.03 Q1241.27 1532.03 1243.75 1531.37 Q1246.27 1530.66 1248.75 1529.3 L1248.75 1534.71 Q1246.3 1535.85 1243.66 1536.43 Q1241.05 1537 1238.09 1537 Q1230.03 1537 1225.29 1531.94 Q1220.55 1526.88 1220.55 1518.28 Q1220.55 1509.56 1225.32 1504.57 Q1230.13 1499.57 1238.47 1499.57 Q1241.17 1499.57 1243.75 1500.14 Q1246.33 1500.68 1248.75 1501.8 Z" fill="#000000" fill-rule="nonzero" fill-opacity="1" /><path clip-path="url(#clip240)" d="M1258.93 1500.43 L1264.79 1500.43 L1264.79 1536.08 L1258.93 1536.08 L1258.93 1500.43 M1258.93 1486.55 L1264.79 1486.55 L1264.79 1493.97 L1258.93 1493.97 L1258.93 1486.55 Z" fill="#000000" fill-rule="nonzero" fill-opacity="1" /><path clip-path="url(#clip240)" d="M1299.77 1501.48 L1299.77 1507.02 Q1297.29 1505.74 1294.61 1505.11 Q1291.94 1504.47 1289.08 1504.47 Q1284.71 1504.47 1282.52 1505.81 Q1280.35 1507.14 1280.35 1509.82 Q1280.35 1511.85 1281.91 1513.03 Q1283.47 1514.18 1288.18 1515.23 L1290.19 1515.67 Q1296.43 1517.01 1299.04 1519.46 Q1301.68 1521.88 1301.68 1526.24 Q1301.68 1531.21 1297.73 1534.1 Q1293.82 1537 1286.94 1537 Q1284.08 1537 1280.96 1536.43 Q1277.87 1535.88 1274.43 1534.77 L1274.43 1528.72 Q1277.68 1530.41 1280.83 1531.27 Q1283.98 1532.1 1287.07 1532.1 Q1291.21 1532.1 1293.44 1530.7 Q1295.66 1529.26 1295.66 1526.69 Q1295.66 1524.3 1294.04 1523.03 Q1292.45 1521.75 1287.01 1520.58 L1284.97 1520.1 Q1279.53 1518.95 1277.11 1516.6 Q1274.69 1514.21 1274.69 1510.07 Q1274.69 1505.04 1278.25 1502.31 Q1281.82 1499.57 1288.38 1499.57 Q1291.62 1499.57 1294.49 1500.05 Q1297.35 1500.52 1299.77 1501.48 Z" fill="#000000" fill-rule="nonzero" fill-opacity="1" /><path clip-path="url(#clip240)" d="M1311.01 1500.43 L1316.86 1500.43 L1316.86 1536.08 L1311.01 1536.08 L1311.01 1500.43 M1311.01 1486.55 L1316.86 1486.55 L1316.86 1493.97 L1311.01 1493.97 L1311.01 1486.55 Z" fill="#000000" fill-rule="nonzero" fill-opacity="1" /><path clip-path="url(#clip240)" d="M1342.93 1504.53 Q1338.22 1504.53 1335.48 1508.23 Q1332.74 1511.89 1332.74 1518.28 Q1332.74 1524.68 1335.45 1528.37 Q1338.19 1532.03 1342.93 1532.03 Q1347.61 1532.03 1350.35 1528.34 Q1353.08 1524.65 1353.08 1518.28 Q1353.08 1511.95 1350.35 1508.26 Q1347.61 1504.53 1342.93 1504.53 M1342.93 1499.57 Q1350.57 1499.57 1354.93 1504.53 Q1359.29 1509.5 1359.29 1518.28 Q1359.29 1527.04 1354.93 1532.03 Q1350.57 1537 1342.93 1537 Q1335.26 1537 1330.9 1532.03 Q1326.57 1527.04 1326.57 1518.28 Q1326.57 1509.5 1330.9 1504.53 Q1335.26 1499.57 1342.93 1499.57 Z" fill="#000000" fill-rule="nonzero" fill-opacity="1" /><path clip-path="url(#clip240)" d="M1398.63 1514.56 L1398.63 1536.08 L1392.77 1536.08 L1392.77 1514.75 Q1392.77 1509.69 1390.8 1507.18 Q1388.83 1504.66 1384.88 1504.66 Q1380.14 1504.66 1377.4 1507.68 Q1374.66 1510.71 1374.66 1515.93 L1374.66 1536.08 L1368.77 1536.08 L1368.77 1500.43 L1374.66 1500.43 L1374.66 1505.97 Q1376.76 1502.75 1379.6 1501.16 Q1382.46 1499.57 1386.18 1499.57 Q1392.33 1499.57 1395.48 1503.39 Q1398.63 1507.18 1398.63 1514.56 Z" fill="#000000" fill-rule="nonzero" fill-opacity="1" /><path clip-path="url(#clip240)" d="M1445.1 1486.61 Q1440.83 1493.93 1438.76 1501.1 Q1436.7 1508.26 1436.7 1515.61 Q1436.7 1522.96 1438.76 1530.19 Q1440.87 1537.38 1445.1 1544.67 L1440.01 1544.67 Q1435.23 1537.19 1432.84 1529.96 Q1430.49 1522.74 1430.49 1515.61 Q1430.49 1508.51 1432.84 1501.32 Q1435.2 1494.13 1440.01 1486.61 L1445.1 1486.61 Z" fill="#000000" fill-rule="nonzero" fill-opacity="1" /><path clip-path="url(#clip240)" d="M1482.05 1518.28 Q1482.05 1511.82 1479.38 1508.16 Q1476.74 1504.47 1472.09 1504.47 Q1467.44 1504.47 1464.77 1508.16 Q1462.13 1511.82 1462.13 1518.28 Q1462.13 1524.74 1464.77 1528.44 Q1467.44 1532.1 1472.09 1532.1 Q1476.74 1532.1 1479.38 1528.44 Q1482.05 1524.74 1482.05 1518.28 M1462.13 1505.84 Q1463.97 1502.66 1466.77 1501.13 Q1469.61 1499.57 1473.52 1499.57 Q1480.01 1499.57 1484.06 1504.72 Q1488.13 1509.88 1488.13 1518.28 Q1488.13 1526.69 1484.06 1531.84 Q1480.01 1537 1473.52 1537 Q1469.61 1537 1466.77 1535.47 Q1463.97 1533.91 1462.13 1530.73 L1462.13 1536.08 L1456.24 1536.08 L1456.24 1486.55 L1462.13 1486.55 L1462.13 1505.84 Z" fill="#000000" fill-rule="nonzero" fill-opacity="1" /><path clip-path="url(#clip240)" d="M1497.84 1500.43 L1503.7 1500.43 L1503.7 1536.08 L1497.84 1536.08 L1497.84 1500.43 M1497.84 1486.55 L1503.7 1486.55 L1503.7 1493.97 L1497.84 1493.97 L1497.84 1486.55 Z" fill="#000000" fill-rule="nonzero" fill-opacity="1" /><path clip-path="url(#clip240)" d="M1521.74 1490.31 L1521.74 1500.43 L1533.8 1500.43 L1533.8 1504.98 L1521.74 1504.98 L1521.74 1524.33 Q1521.74 1528.69 1522.92 1529.93 Q1524.13 1531.17 1527.79 1531.17 L1533.8 1531.17 L1533.8 1536.08 L1527.79 1536.08 Q1521.01 1536.08 1518.43 1533.56 Q1515.85 1531.02 1515.85 1524.33 L1515.85 1504.98 L1511.56 1504.98 L1511.56 1500.43 L1515.85 1500.43 L1515.85 1490.31 L1521.74 1490.31 Z" fill="#000000" fill-rule="nonzero" fill-opacity="1" /><path clip-path="url(#clip240)" d="M1564.23 1501.48 L1564.23 1507.02 Q1561.75 1505.74 1559.08 1505.11 Q1556.4 1504.47 1553.54 1504.47 Q1549.18 1504.47 1546.98 1505.81 Q1544.82 1507.14 1544.82 1509.82 Q1544.82 1511.85 1546.38 1513.03 Q1547.94 1514.18 1552.65 1515.23 L1554.65 1515.67 Q1560.89 1517.01 1563.5 1519.46 Q1566.14 1521.88 1566.14 1526.24 Q1566.14 1531.21 1562.2 1534.1 Q1558.28 1537 1551.41 1537 Q1548.54 1537 1545.42 1536.43 Q1542.34 1535.88 1538.9 1534.77 L1538.9 1528.72 Q1542.14 1530.41 1545.3 1531.27 Q1548.45 1532.1 1551.53 1532.1 Q1555.67 1532.1 1557.9 1530.7 Q1560.13 1529.26 1560.13 1526.69 Q1560.13 1524.3 1558.5 1523.03 Q1556.91 1521.75 1551.47 1520.58 L1549.43 1520.1 Q1543.99 1518.95 1541.57 1516.6 Q1539.15 1514.21 1539.15 1510.07 Q1539.15 1505.04 1542.72 1502.31 Q1546.28 1499.57 1552.84 1499.57 Q1556.08 1499.57 1558.95 1500.05 Q1561.81 1500.52 1564.23 1501.48 Z" fill="#000000" fill-rule="nonzero" fill-opacity="1" /><path clip-path="url(#clip240)" d="M1574.55 1486.61 L1579.64 1486.61 Q1584.41 1494.13 1586.77 1501.32 Q1589.15 1508.51 1589.15 1515.61 Q1589.15 1522.74 1586.77 1529.96 Q1584.41 1537.19 1579.64 1544.67 L1574.55 1544.67 Q1578.78 1537.38 1580.85 1530.19 Q1582.95 1522.96 1582.95 1515.61 Q1582.95 1508.26 1580.85 1501.1 Q1578.78 1493.93 1574.55 1486.61 Z" fill="#000000" fill-rule="nonzero" fill-opacity="1" /><polyline clip-path="url(#clip240)" style="stroke:#000000; stroke-linecap:round; stroke-linejoin:round; stroke-width:4; stroke-opacity:1; fill:none" points="352.423,1306.54 352.423,244.432 "/>
<polyline clip-path="url(#clip240)" style="stroke:#000000; stroke-linecap:round; stroke-linejoin:round; stroke-width:4; stroke-opacity:1; fill:none" points="352.423,1306.54 371.32,1306.54 "/>
<polyline clip-path="url(#clip240)" style="stroke:#000000; stroke-linecap:round; stroke-linejoin:round; stroke-width:4; stroke-opacity:1; fill:none" points="352.423,1041.01 371.32,1041.01 "/>
<polyline clip-path="url(#clip240)" style="stroke:#000000; stroke-linecap:round; stroke-linejoin:round; stroke-width:4; stroke-opacity:1; fill:none" points="352.423,775.486 371.32,775.486 "/>
<polyline clip-path="url(#clip240)" style="stroke:#000000; stroke-linecap:round; stroke-linejoin:round; stroke-width:4; stroke-opacity:1; fill:none" points="352.423,509.959 371.32,509.959 "/>
<polyline clip-path="url(#clip240)" style="stroke:#000000; stroke-linecap:round; stroke-linejoin:round; stroke-width:4; stroke-opacity:1; fill:none" points="352.423,244.432 371.32,244.432 "/>
<path clip-path="url(#clip240)" d="M309.734 1302.65 Q309.772 1304.17 309.772 1306.53 Q309.772 1308.89 309.696 1310.45 Q309.658 1312.01 309.278 1314.98 Q308.935 1317.95 308.25 1320 Q307.603 1322.02 306.195 1324.53 Q304.786 1327.04 302.845 1328.61 Q300.942 1330.13 297.859 1331.19 Q294.776 1332.26 290.932 1332.26 Q287.05 1332.26 283.967 1331.19 Q280.884 1330.09 278.943 1328.57 Q277.001 1327.04 275.593 1324.53 Q274.223 1321.98 273.538 1319.97 Q272.891 1317.91 272.51 1314.94 Q272.168 1311.97 272.091 1310.45 Q272.053 1308.89 272.053 1306.53 Q272.053 1304.17 272.091 1302.61 Q272.168 1301.05 272.51 1298.04 Q272.891 1295.03 273.538 1292.98 Q274.223 1290.89 275.593 1288.3 Q277.001 1285.71 278.943 1284.15 Q280.884 1282.55 283.967 1281.45 Q287.05 1280.34 290.932 1280.34 Q294.814 1280.34 297.897 1281.45 Q300.98 1282.55 302.883 1284.15 Q304.824 1285.75 306.233 1288.34 Q307.641 1290.92 308.288 1293.02 Q308.935 1295.07 309.316 1298.12 Q309.696 1301.12 309.734 1302.65 M299.8 1305.58 Q299.8 1301.12 299.762 1298.57 Q299.724 1296.02 299.382 1292.71 Q299.077 1289.36 298.468 1288.03 Q297.402 1285.6 295.309 1284.38 Q293.254 1283.12 290.932 1283.12 Q290.209 1283.12 289.409 1283.27 Q288.648 1283.39 287.506 1283.88 Q286.365 1284.34 285.451 1285.14 Q284.538 1285.9 283.738 1287.38 Q282.939 1288.87 282.673 1290.85 Q282.026 1295.15 282.026 1305.58 Q282.026 1317.76 282.749 1322.02 Q283.129 1324.04 284.043 1325.56 Q284.994 1327.08 286.174 1327.88 Q287.392 1328.68 288.572 1329.06 Q289.79 1329.44 290.932 1329.44 Q291.998 1329.44 293.101 1329.14 Q294.205 1328.83 295.499 1328.03 Q296.831 1327.2 297.859 1325.45 Q298.887 1323.66 299.267 1321.11 Q299.8 1317.07 299.8 1305.58 Z" fill="#000000" fill-rule="nonzero" fill-opacity="1" /><path clip-path="url(#clip240)" d="M278.836 1021.86 Q275.41 1021.63 263.307 1021.63 Q251.241 1021.63 247.816 1021.86 L247.816 1018.21 L258.625 1018.21 L258.625 977.902 Q253.791 979.463 248.501 979.463 L246.94 979.463 L246.94 975.809 L248.501 975.809 Q258.168 975.809 264.182 971.356 Q264.677 970.975 264.943 970.899 Q265.21 970.823 265.895 970.823 Q267.303 970.823 267.608 971.318 Q267.912 971.812 267.912 973.297 L267.912 1018.21 L278.836 1018.21 L278.836 1021.86 Z" fill="#000000" fill-rule="nonzero" fill-opacity="1" /><path clip-path="url(#clip240)" d="M225.94 1042.66 L308.103 1042.66 L308.103 1038.5 L225.94 1038.5  Z" fill="#000000" fill-rule="evenodd" fill-opacity="1"/>
<path clip-path="url(#clip240)" d="M257.836 1109.85 Q254.41 1109.62 242.307 1109.62 Q230.241 1109.62 226.816 1109.85 L226.816 1106.2 L237.625 1106.2 L237.625 1065.89 Q232.791 1067.45 227.501 1067.45 L225.94 1067.45 L225.94 1063.8 L227.501 1063.8 Q237.168 1063.8 243.182 1059.34 Q243.677 1058.96 243.943 1058.89 Q244.21 1058.81 244.895 1058.81 Q246.303 1058.81 246.608 1059.3 Q246.912 1059.8 246.912 1061.28 L246.912 1106.2 L257.836 1106.2 L257.836 1109.85 Z" fill="#000000" fill-rule="nonzero" fill-opacity="1" /><path clip-path="url(#clip240)" d="M300.139 1093.86 Q300.139 1101.59 295.076 1106.16 Q290.052 1110.73 281.831 1110.73 Q277.264 1110.73 273.305 1108.9 Q269.347 1107.07 266.797 1102.92 Q262.876 1096.34 262.876 1085.15 Q262.876 1079.48 264.285 1074.91 Q265.731 1070.3 268.053 1067.37 Q270.412 1064.44 273.534 1062.46 Q276.655 1060.48 279.814 1059.65 Q283.011 1058.81 286.36 1058.81 Q289.329 1058.81 291.613 1059.65 Q293.934 1060.48 295.229 1061.89 Q296.561 1063.3 297.208 1064.98 Q297.893 1066.65 297.893 1068.55 Q297.893 1070.8 296.561 1072.17 Q295.229 1073.54 292.983 1073.54 Q290.775 1073.54 289.443 1072.17 Q288.149 1070.76 288.149 1068.71 Q288.149 1066.88 289.215 1065.51 Q290.319 1064.14 292.336 1063.87 Q290.281 1061.82 286.513 1061.82 Q283.049 1061.82 280.08 1063.64 Q277.111 1065.47 275.665 1068.29 Q273.495 1073.08 273.495 1081.72 L273.495 1083.21 Q274.409 1081.53 275.589 1080.31 Q276.769 1079.1 277.682 1078.53 Q278.634 1077.95 279.776 1077.65 Q280.956 1077.35 281.488 1077.31 Q282.059 1077.27 282.859 1077.27 Q287.692 1077.27 291.537 1079.1 Q295.381 1080.92 297.741 1084.77 Q300.139 1088.57 300.139 1093.86 M289.557 1093.71 Q289.557 1091.16 289.519 1089.94 Q289.481 1088.69 289.291 1086.78 Q289.101 1084.84 288.606 1083.93 Q288.149 1082.98 287.35 1081.95 Q286.551 1080.89 285.256 1080.5 Q283.962 1080.09 282.135 1080.09 Q278.558 1080.09 276.084 1083.4 Q273.648 1086.67 273.648 1093.48 Q273.648 1100.56 274.904 1103.08 Q275.627 1104.56 277.34 1105.97 Q279.052 1107.34 281.679 1107.34 Q283.962 1107.34 285.485 1106.61 Q287.045 1105.85 287.845 1104.9 Q288.644 1103.95 289.025 1101.82 Q289.443 1099.69 289.481 1098.24 Q289.557 1096.8 289.557 1093.71 Z" fill="#000000" fill-rule="nonzero" fill-opacity="1" /><path clip-path="url(#clip240)" d="M297.772 756.336 Q294.346 756.108 282.243 756.108 Q270.177 756.108 266.752 756.336 L266.752 752.682 L277.561 752.682 L277.561 712.375 Q272.727 713.936 267.437 713.936 L265.876 713.936 L265.876 710.282 L267.437 710.282 Q277.104 710.282 283.118 705.829 Q283.613 705.448 283.879 705.372 Q284.146 705.296 284.831 705.296 Q286.239 705.296 286.544 705.791 Q286.848 706.285 286.848 707.77 L286.848 752.682 L297.772 752.682 L297.772 756.336 Z" fill="#000000" fill-rule="nonzero" fill-opacity="1" /><path clip-path="url(#clip240)" d="M262.876 777.136 L308.103 777.136 L308.103 772.976 L262.876 772.976  Z" fill="#000000" fill-rule="evenodd" fill-opacity="1"/>
<path clip-path="url(#clip240)" d="M300.139 829.746 Q300.139 832.981 298.921 835.797 Q297.741 838.576 295.457 840.707 Q293.173 842.801 289.557 844.019 Q285.942 845.199 281.374 845.199 Q277.492 845.199 274.219 844.399 Q270.945 843.6 268.357 842.039 Q265.807 840.441 264.323 837.815 Q262.876 835.188 262.876 831.763 Q262.876 823.085 272.848 818.67 Q270.679 817.452 269.118 815.929 Q267.596 814.369 266.797 812.77 Q266.035 811.172 265.693 809.763 Q265.388 808.317 265.388 806.909 Q265.388 800.971 269.613 797.127 Q273.876 793.283 281.679 793.283 Q288.758 793.283 293.211 796.175 Q297.665 799.068 297.665 804.739 Q297.665 808.165 295.761 810.791 Q293.858 813.379 289.786 815.473 Q290.966 816.12 291.575 816.5 Q292.222 816.881 293.478 817.756 Q294.734 818.632 295.495 819.355 Q296.256 820.078 297.246 821.258 Q298.235 822.438 298.768 823.618 Q299.339 824.798 299.72 826.396 Q300.139 827.995 300.139 829.746 M291.803 804.815 Q291.803 800.819 289.025 798.573 Q286.284 796.29 281.374 796.29 Q280.194 796.29 279.091 796.404 Q277.987 796.48 276.464 796.861 Q274.98 797.203 273.876 797.812 Q272.772 798.421 271.973 799.601 Q271.212 800.743 271.212 802.303 Q271.212 805.082 274.675 806.985 L286.36 813.531 Q291.803 809.954 291.803 804.815 M293.44 834.047 Q293.44 832.714 292.983 831.649 Q292.564 830.583 291.499 829.67 Q290.471 828.756 289.595 828.223 Q288.758 827.652 287.121 826.701 L276.464 820.801 Q269.575 824.722 269.575 831.763 Q269.575 836.368 272.772 839.109 Q276.008 841.811 281.679 841.811 Q283.201 841.811 284.609 841.659 Q286.056 841.469 287.692 840.974 Q289.367 840.441 290.585 839.642 Q291.803 838.804 292.602 837.358 Q293.44 835.912 293.44 834.047 Z" fill="#000000" fill-rule="nonzero" fill-opacity="1" /><path clip-path="url(#clip240)" d="M281.202 476.335 Q281.202 479.113 280.06 481.702 Q278.919 484.252 276.635 486.459 Q274.389 488.629 270.469 489.961 Q266.587 491.255 261.563 491.255 Q253.95 491.255 248.926 488.02 Q243.94 484.747 243.94 479.532 Q243.94 476.678 245.653 475.079 Q247.366 473.48 249.954 473.48 Q252.542 473.48 254.217 475.117 Q255.891 476.754 255.891 479.38 Q255.891 481.702 254.635 483.224 Q253.417 484.709 251.362 485.241 Q255.587 487.868 261.182 487.868 Q262.857 487.868 264.189 487.411 Q265.521 486.916 266.32 486.231 Q267.158 485.546 267.767 484.442 Q268.376 483.3 268.642 482.387 Q268.947 481.473 269.099 480.141 Q269.251 478.771 269.251 478.086 Q269.289 477.401 269.289 476.259 Q269.289 475.041 269.251 474.356 Q269.251 473.633 269.061 472.262 Q268.908 470.892 268.604 470.017 Q268.338 469.103 267.691 468 Q267.082 466.896 266.206 466.249 Q265.331 465.564 263.922 465.107 Q262.552 464.65 260.801 464.65 L257.376 464.65 Q256.5 464.65 256.12 464.612 Q255.777 464.536 255.473 464.231 Q255.168 463.927 255.168 463.242 Q255.168 461.986 256.12 461.91 Q256.957 461.757 259.85 461.605 Q261.753 461.491 263.237 460.692 Q264.76 459.854 265.597 458.56 Q266.434 457.266 266.967 456.01 Q267.538 454.754 267.729 453.27 Q267.919 451.785 267.957 451.138 Q268.033 450.491 268.033 449.92 Q268.033 448.893 267.957 448.131 Q267.919 447.332 267.538 446.152 Q267.158 444.972 266.473 444.249 Q265.826 443.488 264.493 442.917 Q263.161 442.346 261.334 442.346 Q256.31 442.346 252.77 445.163 Q253.151 445.239 253.379 445.315 Q253.646 445.391 254.445 445.81 Q255.282 446.228 255.815 446.761 Q256.348 447.294 256.805 448.36 Q257.3 449.387 257.3 450.644 Q257.3 452.927 255.815 454.488 Q254.369 456.01 251.819 456.01 Q249.535 456.01 247.975 454.526 Q246.452 453.003 246.452 450.529 Q246.452 445.734 250.677 442.536 Q254.94 439.339 261.791 439.339 Q269.784 439.339 274.237 442.422 Q278.728 445.467 278.728 450.149 Q278.728 453.308 277.016 456.048 Q275.341 458.751 272.905 460.425 Q270.507 462.062 267.652 462.937 Q270.888 463.622 273.362 464.84 Q275.874 466.058 277.32 467.429 Q278.766 468.799 279.68 470.474 Q280.593 472.11 280.898 473.518 Q281.202 474.889 281.202 476.335 Z" fill="#000000" fill-rule="nonzero" fill-opacity="1" /><path clip-path="url(#clip240)" d="M225.94 512.039 L308.103 512.039 L308.103 507.879 L225.94 507.879  Z" fill="#000000" fill-rule="evenodd" fill-opacity="1"/>
<path clip-path="url(#clip240)" d="M257.836 579.226 Q254.41 578.998 242.307 578.998 Q230.241 578.998 226.816 579.226 L226.816 575.572 L237.625 575.572 L237.625 535.265 Q232.791 536.825 227.501 536.825 L225.94 536.825 L225.94 533.172 L227.501 533.172 Q237.168 533.172 243.182 528.718 Q243.677 528.338 243.943 528.262 Q244.21 528.185 244.895 528.185 Q246.303 528.185 246.608 528.68 Q246.912 529.175 246.912 530.659 L246.912 575.572 L257.836 575.572 L257.836 579.226 Z" fill="#000000" fill-rule="nonzero" fill-opacity="1" /><path clip-path="url(#clip240)" d="M300.139 563.24 Q300.139 570.967 295.076 575.534 Q290.052 580.101 281.831 580.101 Q277.264 580.101 273.305 578.274 Q269.347 576.447 266.797 572.299 Q262.876 565.714 262.876 554.524 Q262.876 548.853 264.285 544.285 Q265.731 539.68 268.053 536.749 Q270.412 533.819 273.534 531.839 Q276.655 529.86 279.814 529.023 Q283.011 528.185 286.36 528.185 Q289.329 528.185 291.613 529.023 Q293.934 529.86 295.229 531.268 Q296.561 532.677 297.208 534.351 Q297.893 536.026 297.893 537.929 Q297.893 540.175 296.561 541.545 Q295.229 542.915 292.983 542.915 Q290.775 542.915 289.443 541.545 Q288.149 540.137 288.149 538.081 Q288.149 536.255 289.215 534.884 Q290.319 533.514 292.336 533.248 Q290.281 531.192 286.513 531.192 Q283.049 531.192 280.08 533.019 Q277.111 534.846 275.665 537.663 Q273.495 542.459 273.495 551.099 L273.495 552.583 Q274.409 550.908 275.589 549.69 Q276.769 548.472 277.682 547.901 Q278.634 547.33 279.776 547.026 Q280.956 546.721 281.488 546.683 Q282.059 546.645 282.859 546.645 Q287.692 546.645 291.537 548.472 Q295.381 550.299 297.741 554.143 Q300.139 557.95 300.139 563.24 M289.557 563.088 Q289.557 560.538 289.519 559.32 Q289.481 558.064 289.291 556.161 Q289.101 554.22 288.606 553.306 Q288.149 552.355 287.35 551.327 Q286.551 550.261 285.256 549.881 Q283.962 549.462 282.135 549.462 Q278.558 549.462 276.084 552.773 Q273.648 556.046 273.648 562.859 Q273.648 569.939 274.904 572.451 Q275.627 573.935 277.34 575.344 Q279.052 576.714 281.679 576.714 Q283.962 576.714 285.485 575.991 Q287.045 575.229 287.845 574.278 Q288.644 573.326 289.025 571.195 Q289.443 569.064 289.481 567.617 Q289.557 566.171 289.557 563.088 Z" fill="#000000" fill-rule="nonzero" fill-opacity="1" /><path clip-path="url(#clip240)" d="M296.334 225.673 Q292.909 225.445 280.805 225.445 Q268.74 225.445 265.314 225.673 L265.314 222.019 L276.124 222.019 L276.124 181.712 Q271.29 183.273 265.999 183.273 L264.439 183.273 L264.439 179.619 L265.999 179.619 Q275.667 179.619 281.681 175.165 Q282.175 174.785 282.442 174.709 Q282.708 174.633 283.393 174.633 Q284.802 174.633 285.106 175.127 Q285.411 175.622 285.411 177.107 L285.411 222.019 L296.334 222.019 L296.334 225.673 Z" fill="#000000" fill-rule="nonzero" fill-opacity="1" /><path clip-path="url(#clip240)" d="M260.439 246.473 L308.103 246.473 L308.103 242.313 L260.439 242.313  Z" fill="#000000" fill-rule="evenodd" fill-opacity="1"/>
<path clip-path="url(#clip240)" d="M300.175 313.738 Q297.435 313.51 287.539 313.51 Q277.11 313.51 274.141 313.738 L274.141 310.084 L282.857 310.084 L282.857 301.596 L260.439 301.596 L260.439 297.904 L287.615 263.839 Q288.338 262.964 288.68 262.812 Q289.061 262.622 290.279 262.622 Q291.878 262.622 292.22 263.04 Q292.601 263.459 292.601 265.096 L292.601 297.904 L300.175 297.904 L300.175 301.596 L292.601 301.596 L292.601 310.084 L300.175 310.084 L300.175 313.738 M283.732 297.904 L283.732 273.735 L264.473 297.904 L283.732 297.904 Z" fill="#000000" fill-rule="nonzero" fill-opacity="1" /><path clip-path="url(#clip240)" d="M106.177 1072.3 L125.083 1072.3 L125.083 1078.19 L75.8762 1078.19 L75.8762 1072.3 L81.2871 1072.3 Q78.1042 1070.46 76.5764 1067.66 Q75.0168 1064.82 75.0168 1060.91 Q75.0168 1054.42 80.1731 1050.37 Q85.3293 1046.3 93.732 1046.3 Q102.135 1046.3 107.291 1050.37 Q112.447 1054.42 112.447 1060.91 Q112.447 1064.82 110.919 1067.66 Q109.36 1070.46 106.177 1072.3 M93.732 1052.38 Q87.2708 1052.38 83.6105 1055.05 Q79.9184 1057.69 79.9184 1062.34 Q79.9184 1066.99 83.6105 1069.66 Q87.2708 1072.3 93.732 1072.3 Q100.193 1072.3 103.885 1069.66 Q107.546 1066.99 107.546 1062.34 Q107.546 1057.69 103.885 1055.05 Q100.193 1052.38 93.732 1052.38 Z" fill="#000000" fill-rule="nonzero" fill-opacity="1" /><path clip-path="url(#clip240)" d="M81.3507 1015.93 Q80.7778 1016.92 80.5232 1018.1 Q80.2367 1019.24 80.2367 1020.65 Q80.2367 1025.61 83.4832 1028.28 Q86.6979 1030.93 92.7453 1030.93 L111.524 1030.93 L111.524 1036.81 L75.8762 1036.81 L75.8762 1030.93 L81.4144 1030.93 Q78.1679 1029.08 76.6083 1026.12 Q75.0168 1023.16 75.0168 1018.93 Q75.0168 1018.32 75.1123 1017.59 Q75.176 1016.86 75.3351 1015.97 L81.3507 1015.93 Z" fill="#000000" fill-rule="nonzero" fill-opacity="1" /><path clip-path="url(#clip240)" d="M79.9821 997.41 Q79.9821 1002.12 83.6742 1004.86 Q87.3345 1007.6 93.732 1007.6 Q100.13 1007.6 103.822 1004.89 Q107.482 1002.15 107.482 997.41 Q107.482 992.732 103.79 989.994 Q100.098 987.257 93.732 987.257 Q87.3981 987.257 83.706 989.994 Q79.9821 992.732 79.9821 997.41 M75.0168 997.41 Q75.0168 989.772 79.9821 985.411 Q84.9473 981.051 93.732 981.051 Q102.485 981.051 107.482 985.411 Q112.447 989.772 112.447 997.41 Q112.447 1005.08 107.482 1009.44 Q102.485 1013.77 93.732 1013.77 Q84.9473 1013.77 79.9821 1009.44 Q75.0168 1005.08 75.0168 997.41 Z" fill="#000000" fill-rule="nonzero" fill-opacity="1" /><path clip-path="url(#clip240)" d="M106.177 965.677 L125.083 965.677 L125.083 971.566 L75.8762 971.566 L75.8762 965.677 L81.2871 965.677 Q78.1042 963.831 76.5764 961.03 Q75.0168 958.198 75.0168 954.283 Q75.0168 947.79 80.1731 943.748 Q85.3293 939.673 93.732 939.673 Q102.135 939.673 107.291 943.748 Q112.447 947.79 112.447 954.283 Q112.447 958.198 110.919 961.03 Q109.36 963.831 106.177 965.677 M93.732 945.753 Q87.2708 945.753 83.6105 948.426 Q79.9184 951.068 79.9184 955.715 Q79.9184 960.362 83.6105 963.036 Q87.2708 965.677 93.732 965.677 Q100.193 965.677 103.885 963.036 Q107.546 960.362 107.546 955.715 Q107.546 951.068 103.885 948.426 Q100.193 945.753 93.732 945.753 Z" fill="#000000" fill-rule="nonzero" fill-opacity="1" /><path clip-path="url(#clip240)" d="M79.9821 916.152 Q79.9821 920.863 83.6742 923.6 Q87.3345 926.337 93.732 926.337 Q100.13 926.337 103.822 923.632 Q107.482 920.895 107.482 916.152 Q107.482 911.473 103.79 908.736 Q100.098 905.999 93.732 905.999 Q87.3981 905.999 83.706 908.736 Q79.9821 911.473 79.9821 916.152 M75.0168 916.152 Q75.0168 908.513 79.9821 904.153 Q84.9473 899.792 93.732 899.792 Q102.485 899.792 107.482 904.153 Q112.447 908.513 112.447 916.152 Q112.447 923.823 107.482 928.183 Q102.485 932.512 93.732 932.512 Q84.9473 932.512 79.9821 928.183 Q75.0168 923.823 75.0168 916.152 Z" fill="#000000" fill-rule="nonzero" fill-opacity="1" /><path clip-path="url(#clip240)" d="M81.3507 869.428 Q80.7778 870.415 80.5232 871.592 Q80.2367 872.738 80.2367 874.139 Q80.2367 879.104 83.4832 881.777 Q86.6979 884.419 92.7453 884.419 L111.524 884.419 L111.524 890.307 L75.8762 890.307 L75.8762 884.419 L81.4144 884.419 Q78.1679 882.573 76.6083 879.613 Q75.0168 876.653 75.0168 872.42 Q75.0168 871.815 75.1123 871.083 Q75.176 870.351 75.3351 869.46 L81.3507 869.428 Z" fill="#000000" fill-rule="nonzero" fill-opacity="1" /><path clip-path="url(#clip240)" d="M65.7547 857.492 L75.8762 857.492 L75.8762 845.429 L80.4277 845.429 L80.4277 857.492 L99.7794 857.492 Q104.14 857.492 105.381 856.315 Q106.623 855.105 106.623 851.445 L106.623 845.429 L111.524 845.429 L111.524 851.445 Q111.524 858.224 109.01 860.802 Q106.463 863.38 99.7794 863.38 L80.4277 863.38 L80.4277 867.677 L75.8762 867.677 L75.8762 863.38 L65.7547 863.38 L65.7547 857.492 Z" fill="#000000" fill-rule="nonzero" fill-opacity="1" /><path clip-path="url(#clip240)" d="M75.8762 837.727 L75.8762 831.87 L111.524 831.87 L111.524 837.727 L75.8762 837.727 M61.999 837.727 L61.999 831.87 L69.415 831.87 L69.415 837.727 L61.999 837.727 Z" fill="#000000" fill-rule="nonzero" fill-opacity="1" /><path clip-path="url(#clip240)" d="M79.9821 805.803 Q79.9821 810.513 83.6742 813.251 Q87.3345 815.988 93.732 815.988 Q100.13 815.988 103.822 813.282 Q107.482 810.545 107.482 805.803 Q107.482 801.124 103.79 798.387 Q100.098 795.649 93.732 795.649 Q87.3981 795.649 83.706 798.387 Q79.9821 801.124 79.9821 805.803 M75.0168 805.803 Q75.0168 798.164 79.9821 793.803 Q84.9473 789.443 93.732 789.443 Q102.485 789.443 107.482 793.803 Q112.447 798.164 112.447 805.803 Q112.447 813.473 107.482 817.834 Q102.485 822.163 93.732 822.163 Q84.9473 822.163 79.9821 817.834 Q75.0168 813.473 75.0168 805.803 Z" fill="#000000" fill-rule="nonzero" fill-opacity="1" /><path clip-path="url(#clip240)" d="M90.0081 750.103 L111.524 750.103 L111.524 755.959 L90.199 755.959 Q85.1383 755.959 82.6238 757.933 Q80.1094 759.906 80.1094 763.853 Q80.1094 768.595 83.1331 771.332 Q86.1568 774.07 91.3767 774.07 L111.524 774.07 L111.524 779.958 L75.8762 779.958 L75.8762 774.07 L81.4144 774.07 Q78.1997 771.969 76.6083 769.136 Q75.0168 766.272 75.0168 762.548 Q75.0168 756.405 78.8363 753.254 Q82.6238 750.103 90.0081 750.103 Z" fill="#000000" fill-rule="nonzero" fill-opacity="1" /><path clip-path="url(#clip240)" d="M90.0081 688.069 L111.524 688.069 L111.524 693.925 L90.199 693.925 Q85.1383 693.925 82.6238 695.899 Q80.1094 697.872 80.1094 701.819 Q80.1094 706.561 83.1331 709.299 Q86.1568 712.036 91.3767 712.036 L111.524 712.036 L111.524 717.924 L61.999 717.924 L61.999 712.036 L81.4144 712.036 Q78.1997 709.935 76.6083 707.102 Q75.0168 704.238 75.0168 700.514 Q75.0168 694.371 78.8363 691.22 Q82.6238 688.069 90.0081 688.069 Z" fill="#000000" fill-rule="nonzero" fill-opacity="1" /><path clip-path="url(#clip240)" d="M93.6047 660.187 Q93.6047 667.285 95.2279 670.022 Q96.8512 672.759 100.766 672.759 Q103.885 672.759 105.731 670.722 Q107.546 668.654 107.546 665.121 Q107.546 660.251 104.108 657.323 Q100.639 654.363 94.9097 654.363 L93.6047 654.363 L93.6047 660.187 M91.1857 648.506 L111.524 648.506 L111.524 654.363 L106.113 654.363 Q109.36 656.368 110.919 659.36 Q112.447 662.351 112.447 666.68 Q112.447 672.155 109.392 675.401 Q106.304 678.616 101.148 678.616 Q95.1325 678.616 92.0769 674.605 Q89.0214 670.563 89.0214 662.574 L89.0214 654.363 L88.4485 654.363 Q84.4062 654.363 82.2101 657.036 Q79.9821 659.678 79.9821 664.484 Q79.9821 667.54 80.7141 670.436 Q81.4462 673.332 82.9103 676.006 L77.4995 676.006 Q76.2581 672.791 75.6534 669.768 Q75.0168 666.744 75.0168 663.879 Q75.0168 656.145 79.0272 652.325 Q83.0376 648.506 91.1857 648.506 Z" fill="#000000" fill-rule="nonzero" fill-opacity="1" /><path clip-path="url(#clip240)" d="M61.999 636.443 L61.999 630.587 L111.524 630.587 L111.524 636.443 L61.999 636.443 Z" fill="#000000" fill-rule="nonzero" fill-opacity="1" /><path clip-path="url(#clip240)" d="M61.999 600.286 L66.8687 600.286 L66.8687 605.888 Q66.8687 609.039 68.1419 610.28 Q69.415 611.489 72.7252 611.489 L75.8762 611.489 L75.8762 601.845 L80.4277 601.845 L80.4277 611.489 L111.524 611.489 L111.524 617.378 L80.4277 617.378 L80.4277 622.98 L75.8762 622.98 L75.8762 617.378 L73.3936 617.378 Q67.4416 617.378 64.7362 614.609 Q61.999 611.84 61.999 605.824 L61.999 600.286 Z" fill="#000000" fill-rule="nonzero" fill-opacity="1" /><path clip-path="url(#clip240)" d="M75.8762 599.936 L75.8762 594.079 L103.694 586.759 L75.8762 579.47 L75.8762 572.563 L103.694 565.243 L75.8762 557.954 L75.8762 552.097 L111.524 561.423 L111.524 568.33 L82.3056 576.001 L111.524 583.703 L111.524 590.61 L75.8762 599.936 Z" fill="#000000" fill-rule="nonzero" fill-opacity="1" /><path clip-path="url(#clip240)" d="M93.6047 527.017 Q93.6047 534.114 95.2279 536.852 Q96.8512 539.589 100.766 539.589 Q103.885 539.589 105.731 537.552 Q107.546 535.483 107.546 531.95 Q107.546 527.08 104.108 524.152 Q100.639 521.192 94.9097 521.192 L93.6047 521.192 L93.6047 527.017 M91.1857 515.335 L111.524 515.335 L111.524 521.192 L106.113 521.192 Q109.36 523.197 110.919 526.189 Q112.447 529.181 112.447 533.51 Q112.447 538.984 109.392 542.231 Q106.304 545.445 101.148 545.445 Q95.1325 545.445 92.0769 541.435 Q89.0214 537.393 89.0214 529.404 L89.0214 521.192 L88.4485 521.192 Q84.4062 521.192 82.2101 523.866 Q79.9821 526.507 79.9821 531.313 Q79.9821 534.369 80.7141 537.265 Q81.4462 540.162 82.9103 542.835 L77.4995 542.835 Q76.2581 539.621 75.6534 536.597 Q75.0168 533.573 75.0168 530.709 Q75.0168 522.974 79.0272 519.155 Q83.0376 515.335 91.1857 515.335 Z" fill="#000000" fill-rule="nonzero" fill-opacity="1" /><path clip-path="url(#clip240)" d="M114.834 488.44 Q121.2 490.923 123.142 493.278 Q125.083 495.634 125.083 499.58 L125.083 504.259 L120.182 504.259 L120.182 500.822 Q120.182 498.403 119.036 497.066 Q117.89 495.729 113.625 494.106 L110.951 493.055 L75.8762 507.474 L75.8762 501.267 L103.758 490.127 L75.8762 478.987 L75.8762 472.781 L114.834 488.44 Z" fill="#000000" fill-rule="nonzero" fill-opacity="1" /><path clip-path="url(#clip240)" d="M952.866 160.926 Q958.74 162.182 962.021 166.152 Q965.343 170.122 965.343 175.955 Q965.343 184.908 959.186 189.809 Q953.028 194.711 941.686 194.711 Q937.878 194.711 933.827 193.941 Q929.817 193.212 925.523 191.713 L925.523 183.814 Q928.925 185.799 932.976 186.811 Q937.027 187.824 941.443 187.824 Q949.139 187.824 953.15 184.786 Q957.201 181.748 957.201 175.955 Q957.201 170.608 953.433 167.61 Q949.707 164.572 943.023 164.572 L935.974 164.572 L935.974 157.848 L943.347 157.848 Q949.382 157.848 952.583 155.458 Q955.783 153.027 955.783 148.49 Q955.783 143.831 952.461 141.36 Q949.18 138.849 943.023 138.849 Q939.66 138.849 935.812 139.578 Q931.964 140.307 927.346 141.846 L927.346 134.555 Q932.004 133.259 936.055 132.61 Q940.146 131.962 943.752 131.962 Q953.069 131.962 958.497 136.216 Q963.925 140.429 963.925 147.639 Q963.925 152.662 961.049 156.146 Q958.173 159.589 952.866 160.926 Z" fill="#000000" fill-rule="nonzero" fill-opacity="1" /><path clip-path="url(#clip240)" d="M976.037 167.489 L997.872 167.489 L997.872 174.132 L976.037 174.132 L976.037 167.489 Z" fill="#000000" fill-rule="nonzero" fill-opacity="1" /><path clip-path="url(#clip240)" d="M1042.31 170.891 Q1042.31 162.668 1038.91 158.01 Q1035.55 153.311 1029.63 153.311 Q1023.72 153.311 1020.31 158.01 Q1016.95 162.668 1016.95 170.891 Q1016.95 179.115 1020.31 183.814 Q1023.72 188.472 1029.63 188.472 Q1035.55 188.472 1038.91 183.814 Q1042.31 179.115 1042.31 170.891 M1016.95 155.052 Q1019.3 151.002 1022.87 149.057 Q1026.47 147.072 1031.45 147.072 Q1039.72 147.072 1044.86 153.635 Q1050.05 160.197 1050.05 170.891 Q1050.05 181.586 1044.86 188.148 Q1039.72 194.711 1031.45 194.711 Q1026.47 194.711 1022.87 192.766 Q1019.3 190.781 1016.95 186.73 L1016.95 193.536 L1009.46 193.536 L1009.46 130.504 L1016.95 130.504 L1016.95 155.052 Z" fill="#000000" fill-rule="nonzero" fill-opacity="1" /><path clip-path="url(#clip240)" d="M1062.4 148.166 L1069.86 148.166 L1069.86 193.536 L1062.4 193.536 L1062.4 148.166 M1062.4 130.504 L1069.86 130.504 L1069.86 139.943 L1062.4 139.943 L1062.4 130.504 Z" fill="#000000" fill-rule="nonzero" fill-opacity="1" /><path clip-path="url(#clip240)" d="M1092.83 135.284 L1092.83 148.166 L1108.18 148.166 L1108.18 153.959 L1092.83 153.959 L1092.83 178.588 Q1092.83 184.138 1094.32 185.718 Q1095.86 187.298 1100.52 187.298 L1108.18 187.298 L1108.18 193.536 L1100.52 193.536 Q1091.89 193.536 1088.61 190.336 Q1085.33 187.095 1085.33 178.588 L1085.33 153.959 L1079.86 153.959 L1079.86 148.166 L1085.33 148.166 L1085.33 135.284 L1092.83 135.284 Z" fill="#000000" fill-rule="nonzero" fill-opacity="1" /><path clip-path="url(#clip240)" d="M1183.16 168.988 L1183.16 172.633 L1148.89 172.633 Q1149.38 180.33 1153.51 184.381 Q1157.68 188.391 1165.09 188.391 Q1169.39 188.391 1173.4 187.338 Q1177.45 186.285 1181.42 184.178 L1181.42 191.227 Q1177.41 192.928 1173.19 193.82 Q1168.98 194.711 1164.65 194.711 Q1153.79 194.711 1147.43 188.391 Q1141.11 182.072 1141.11 171.297 Q1141.11 160.157 1147.11 153.635 Q1153.14 147.072 1163.35 147.072 Q1172.51 147.072 1177.81 152.986 Q1183.16 158.86 1183.16 168.988 M1175.71 166.8 Q1175.63 160.683 1172.26 157.037 Q1168.94 153.392 1163.43 153.392 Q1157.19 153.392 1153.43 156.916 Q1149.7 160.44 1149.13 166.841 L1175.71 166.8 Z" fill="#000000" fill-rule="nonzero" fill-opacity="1" /><path clip-path="url(#clip240)" d="M1231.65 148.166 L1215.24 170.243 L1232.5 193.536 L1223.71 193.536 L1210.5 175.712 L1197.3 193.536 L1188.51 193.536 L1206.13 169.798 L1190.01 148.166 L1198.8 148.166 L1210.83 164.329 L1222.86 148.166 L1231.65 148.166 Z" fill="#000000" fill-rule="nonzero" fill-opacity="1" /><path clip-path="url(#clip240)" d="M1250.41 135.284 L1250.41 148.166 L1265.76 148.166 L1265.76 153.959 L1250.41 153.959 L1250.41 178.588 Q1250.41 184.138 1251.9 185.718 Q1253.44 187.298 1258.1 187.298 L1265.76 187.298 L1265.76 193.536 L1258.1 193.536 Q1249.47 193.536 1246.19 190.336 Q1242.91 187.095 1242.91 178.588 L1242.91 153.959 L1237.44 153.959 L1237.44 148.166 L1242.91 148.166 L1242.91 135.284 L1250.41 135.284 Z" fill="#000000" fill-rule="nonzero" fill-opacity="1" /><path clip-path="url(#clip240)" d="M1314.37 168.988 L1314.37 172.633 L1280.1 172.633 Q1280.58 180.33 1284.72 184.381 Q1288.89 188.391 1296.3 188.391 Q1300.6 188.391 1304.61 187.338 Q1308.66 186.285 1312.63 184.178 L1312.63 191.227 Q1308.62 192.928 1304.4 193.82 Q1300.19 194.711 1295.86 194.711 Q1285 194.711 1278.64 188.391 Q1272.32 182.072 1272.32 171.297 Q1272.32 160.157 1278.32 153.635 Q1284.35 147.072 1294.56 147.072 Q1303.72 147.072 1309.02 152.986 Q1314.37 158.86 1314.37 168.988 M1306.92 166.8 Q1306.83 160.683 1303.47 157.037 Q1300.15 153.392 1294.64 153.392 Q1288.4 153.392 1284.64 156.916 Q1280.91 160.44 1280.34 166.841 L1306.92 166.8 Z" fill="#000000" fill-rule="nonzero" fill-opacity="1" /><path clip-path="url(#clip240)" d="M1364.32 166.152 L1364.32 193.536 L1356.86 193.536 L1356.86 166.395 Q1356.86 159.954 1354.35 156.754 Q1351.84 153.554 1346.82 153.554 Q1340.78 153.554 1337.3 157.402 Q1333.81 161.25 1333.81 167.894 L1333.81 193.536 L1326.32 193.536 L1326.32 148.166 L1333.81 148.166 L1333.81 155.214 Q1336.49 151.123 1340.09 149.098 Q1343.74 147.072 1348.48 147.072 Q1356.3 147.072 1360.31 151.933 Q1364.32 156.754 1364.32 166.152 Z" fill="#000000" fill-rule="nonzero" fill-opacity="1" /><path clip-path="url(#clip240)" d="M1409.04 155.052 L1409.04 130.504 L1416.49 130.504 L1416.49 193.536 L1409.04 193.536 L1409.04 186.73 Q1406.69 190.781 1403.08 192.766 Q1399.52 194.711 1394.5 194.711 Q1386.27 194.711 1381.09 188.148 Q1375.94 181.586 1375.94 170.891 Q1375.94 160.197 1381.09 153.635 Q1386.27 147.072 1394.5 147.072 Q1399.52 147.072 1403.08 149.057 Q1406.69 151.002 1409.04 155.052 M1383.64 170.891 Q1383.64 179.115 1387 183.814 Q1390.4 188.472 1396.32 188.472 Q1402.23 188.472 1405.64 183.814 Q1409.04 179.115 1409.04 170.891 Q1409.04 162.668 1405.64 158.01 Q1402.23 153.311 1396.32 153.311 Q1390.4 153.311 1387 158.01 Q1383.64 162.668 1383.64 170.891 Z" fill="#000000" fill-rule="nonzero" fill-opacity="1" /><path clip-path="url(#clip240)" d="M1470.65 168.988 L1470.65 172.633 L1436.38 172.633 Q1436.87 180.33 1441 184.381 Q1445.17 188.391 1452.59 188.391 Q1456.88 188.391 1460.89 187.338 Q1464.94 186.285 1468.91 184.178 L1468.91 191.227 Q1464.9 192.928 1460.69 193.82 Q1456.47 194.711 1452.14 194.711 Q1441.28 194.711 1434.92 188.391 Q1428.6 182.072 1428.6 171.297 Q1428.6 160.157 1434.6 153.635 Q1440.64 147.072 1450.84 147.072 Q1460 147.072 1465.31 152.986 Q1470.65 158.86 1470.65 168.988 M1463.2 166.8 Q1463.12 160.683 1459.76 157.037 Q1456.43 153.392 1450.92 153.392 Q1444.69 153.392 1440.92 156.916 Q1437.19 160.44 1436.63 166.841 L1463.2 166.8 Z" fill="#000000" fill-rule="nonzero" fill-opacity="1" /><path clip-path="url(#clip240)" d="M1512.74 155.052 L1512.74 130.504 L1520.2 130.504 L1520.2 193.536 L1512.74 193.536 L1512.74 186.73 Q1510.39 190.781 1506.79 192.766 Q1503.22 194.711 1498.2 194.711 Q1489.98 194.711 1484.79 188.148 Q1479.65 181.586 1479.65 170.891 Q1479.65 160.197 1484.79 153.635 Q1489.98 147.072 1498.2 147.072 Q1503.22 147.072 1506.79 149.057 Q1510.39 151.002 1512.74 155.052 M1487.34 170.891 Q1487.34 179.115 1490.7 183.814 Q1494.11 188.472 1500.02 188.472 Q1505.94 188.472 1509.34 183.814 Q1512.74 179.115 1512.74 170.891 Q1512.74 162.668 1509.34 158.01 Q1505.94 153.311 1500.02 153.311 Q1494.11 153.311 1490.7 158.01 Q1487.34 162.668 1487.34 170.891 Z" fill="#000000" fill-rule="nonzero" fill-opacity="1" /><path clip-path="url(#clip240)" d="M1584.89 130.504 L1584.89 136.702 L1577.76 136.702 Q1573.75 136.702 1572.17 138.322 Q1570.63 139.943 1570.63 144.155 L1570.63 148.166 L1582.9 148.166 L1582.9 153.959 L1570.63 153.959 L1570.63 193.536 L1563.13 193.536 L1563.13 153.959 L1556.01 153.959 L1556.01 148.166 L1563.13 148.166 L1563.13 145.006 Q1563.13 137.431 1566.66 133.988 Q1570.18 130.504 1577.84 130.504 L1584.89 130.504 Z" fill="#000000" fill-rule="nonzero" fill-opacity="1" /><path clip-path="url(#clip240)" d="M1591.13 130.504 L1598.58 130.504 L1598.58 193.536 L1591.13 193.536 L1591.13 130.504 Z" fill="#000000" fill-rule="nonzero" fill-opacity="1" /><path clip-path="url(#clip240)" d="M1631.76 153.392 Q1625.76 153.392 1622.28 158.091 Q1618.79 162.749 1618.79 170.891 Q1618.79 179.034 1622.24 183.733 Q1625.72 188.391 1631.76 188.391 Q1637.71 188.391 1641.2 183.692 Q1644.68 178.993 1644.68 170.891 Q1644.68 162.83 1641.2 158.131 Q1637.71 153.392 1631.76 153.392 M1631.76 147.072 Q1641.48 147.072 1647.03 153.392 Q1652.58 159.711 1652.58 170.891 Q1652.58 182.031 1647.03 188.391 Q1641.48 194.711 1631.76 194.711 Q1621.99 194.711 1616.44 188.391 Q1610.94 182.031 1610.94 170.891 Q1610.94 159.711 1616.44 153.392 Q1621.99 147.072 1631.76 147.072 Z" fill="#000000" fill-rule="nonzero" fill-opacity="1" /><path clip-path="url(#clip240)" d="M1685.55 170.729 Q1676.52 170.729 1673.04 172.795 Q1669.55 174.861 1669.55 179.844 Q1669.55 183.814 1672.14 186.163 Q1674.78 188.472 1679.27 188.472 Q1685.47 188.472 1689.2 184.097 Q1692.97 179.682 1692.97 172.39 L1692.97 170.729 L1685.55 170.729 M1700.42 167.651 L1700.42 193.536 L1692.97 193.536 L1692.97 186.649 Q1690.41 190.781 1686.61 192.766 Q1682.8 194.711 1677.29 194.711 Q1670.32 194.711 1666.19 190.822 Q1662.1 186.893 1662.1 180.33 Q1662.1 172.674 1667.2 168.785 Q1672.35 164.896 1682.52 164.896 L1692.97 164.896 L1692.97 164.167 Q1692.97 159.022 1689.56 156.227 Q1686.2 153.392 1680.08 153.392 Q1676.2 153.392 1672.51 154.323 Q1668.82 155.255 1665.42 157.118 L1665.42 150.232 Q1669.51 148.652 1673.36 147.882 Q1677.21 147.072 1680.85 147.072 Q1690.7 147.072 1695.56 152.176 Q1700.42 157.28 1700.42 167.651 Z" fill="#000000" fill-rule="nonzero" fill-opacity="1" /><path clip-path="url(#clip240)" d="M1723.15 135.284 L1723.15 148.166 L1738.5 148.166 L1738.5 153.959 L1723.15 153.959 L1723.15 178.588 Q1723.15 184.138 1724.64 185.718 Q1726.18 187.298 1730.84 187.298 L1738.5 187.298 L1738.5 193.536 L1730.84 193.536 Q1722.21 193.536 1718.93 190.336 Q1715.65 187.095 1715.65 178.588 L1715.65 153.959 L1710.18 153.959 L1710.18 148.166 L1715.65 148.166 L1715.65 135.284 L1723.15 135.284 Z" fill="#000000" fill-rule="nonzero" fill-opacity="1" /><path clip-path="url(#clip240)" d="M1777.23 149.503 L1777.23 156.551 Q1774.07 154.931 1770.66 154.121 Q1767.26 153.311 1763.61 153.311 Q1758.06 153.311 1755.27 155.012 Q1752.51 156.713 1752.51 160.116 Q1752.51 162.709 1754.5 164.207 Q1756.48 165.666 1762.48 167.003 L1765.03 167.57 Q1772.97 169.271 1776.29 172.39 Q1779.66 175.469 1779.66 181.019 Q1779.66 187.338 1774.63 191.024 Q1769.65 194.711 1760.9 194.711 Q1757.25 194.711 1753.28 193.982 Q1749.36 193.293 1744.98 191.875 L1744.98 184.178 Q1749.11 186.325 1753.12 187.419 Q1757.13 188.472 1761.06 188.472 Q1766.33 188.472 1769.16 186.69 Q1772 184.867 1772 181.586 Q1772 178.548 1769.93 176.927 Q1767.91 175.307 1760.98 173.808 L1758.39 173.2 Q1751.46 171.742 1748.38 168.744 Q1745.3 165.706 1745.3 160.44 Q1745.3 154.04 1749.84 150.556 Q1754.38 147.072 1762.72 147.072 Q1766.85 147.072 1770.5 147.68 Q1774.15 148.287 1777.23 149.503 Z" fill="#000000" fill-rule="nonzero" fill-opacity="1" /><polyline clip-path="url(#clip242)" style="stroke:#8b636c; stroke-linecap:round; stroke-linejoin:round; stroke-width:12; stroke-opacity:0.75; fill:none" stroke-dasharray="6, 12" points="352.423,1306.54 2352.76,1306.54 "/>
<line clip-path="url(#clip242)" x1="2352.76" y1="1306.54" x2="2352.76" y2="1278.54" style="stroke:#8b2252; stroke-width:12; stroke-opacity:1"/>
<line clip-path="url(#clip242)" x1="2352.76" y1="1306.54" x2="2324.76" y2="1306.54" style="stroke:#8b2252; stroke-width:12; stroke-opacity:1"/>
<line clip-path="url(#clip242)" x1="2352.76" y1="1306.54" x2="2352.76" y2="1334.54" style="stroke:#8b2252; stroke-width:12; stroke-opacity:1"/>
<line clip-path="url(#clip242)" x1="2352.76" y1="1306.54" x2="2380.76" y2="1306.54" style="stroke:#8b2252; stroke-width:12; stroke-opacity:1"/>
<polyline clip-path="url(#clip242)" style="stroke:#436eee; stroke-linecap:round; stroke-linejoin:round; stroke-width:12; stroke-opacity:0.75; fill:none" stroke-dasharray="6, 12" points="352.423,626.646 2352.76,626.646 "/>
<path clip-path="url(#clip242)" d="M2352.76 594.646 L2345.24 616.278 L2322.32 616.758 L2340.6 630.614 L2333.94 652.534 L2352.76 639.446 L2371.57 652.534 L2364.92 630.614 L2383.19 616.758 L2360.28 616.278 L2352.76 594.646 Z" fill="#4b0082" fill-rule="evenodd" fill-opacity="1" stroke="#000000" stroke-opacity="1" stroke-width="3.2"/>
<polyline clip-path="url(#clip242)" style="stroke:#8fbc8f; stroke-linecap:round; stroke-linejoin:round; stroke-width:12; stroke-opacity:0.75; fill:none" stroke-dasharray="6, 12" points="352.423,762.521 2352.76,762.521 "/>
<path clip-path="url(#clip242)" d="M2378.36 762.521 L2339.96 740.121 L2339.96 784.921 L2378.36 762.521 Z" fill="#3cb371" fill-rule="evenodd" fill-opacity="1" stroke="#000000" stroke-opacity="1" stroke-width="3.2"/>
<path clip-path="url(#clip240)" d="M419.1 513.116 L716.477 513.116 L716.477 279.836 L419.1 279.836  Z" fill="#f5f5f5" fill-rule="evenodd" fill-opacity="1"/>
<polyline clip-path="url(#clip240)" style="stroke:#fafafa; stroke-linecap:round; stroke-linejoin:round; stroke-width:4; stroke-opacity:1; fill:none" points="419.1,513.116 716.477,513.116 716.477,279.836 419.1,279.836 419.1,513.116 "/>
<polyline clip-path="url(#clip240)" style="stroke:#8b636c; stroke-linecap:round; stroke-linejoin:round; stroke-width:13.5; stroke-opacity:0.75; fill:none" stroke-dasharray="7, 14" points="441.326,338.156 574.682,338.156 "/>
<line clip-path="url(#clip240)" x1="508.004" y1="338.156" x2="508.004" y2="319.863" style="stroke:#8b2252; stroke-width:13.5; stroke-opacity:1"/>
<line clip-path="url(#clip240)" x1="508.004" y1="338.156" x2="489.711" y2="338.156" style="stroke:#8b2252; stroke-width:13.5; stroke-opacity:1"/>
<line clip-path="url(#clip240)" x1="508.004" y1="338.156" x2="508.004" y2="356.449" style="stroke:#8b2252; stroke-width:13.5; stroke-opacity:1"/>
<line clip-path="url(#clip240)" x1="508.004" y1="338.156" x2="526.297" y2="338.156" style="stroke:#8b2252; stroke-width:13.5; stroke-opacity:1"/>
<path clip-path="url(#clip240)" d="M611.986 342.934 Q606.179 342.934 603.939 344.262 Q601.699 345.591 601.699 348.794 Q601.699 351.346 603.366 352.856 Q605.059 354.341 607.949 354.341 Q611.934 354.341 614.33 351.528 Q616.751 348.69 616.751 344.002 L616.751 342.934 L611.986 342.934 M621.543 340.955 L621.543 357.596 L616.751 357.596 L616.751 353.169 Q615.111 355.825 612.663 357.101 Q610.215 358.351 606.673 358.351 Q602.194 358.351 599.538 355.851 Q596.908 353.325 596.908 349.106 Q596.908 344.184 600.189 341.684 Q603.496 339.184 610.033 339.184 L616.751 339.184 L616.751 338.716 Q616.751 335.408 614.564 333.611 Q612.402 331.789 608.47 331.789 Q605.97 331.789 603.6 332.388 Q601.231 332.986 599.043 334.184 L599.043 329.757 Q601.673 328.742 604.147 328.247 Q606.621 327.726 608.965 327.726 Q615.293 327.726 618.418 331.007 Q621.543 334.289 621.543 340.955 Z" fill="#000000" fill-rule="nonzero" fill-opacity="1" /><path clip-path="url(#clip240)" d="M650.605 332.856 L650.605 317.075 L655.397 317.075 L655.397 357.596 L650.605 357.596 L650.605 353.221 Q649.095 355.825 646.777 357.101 Q644.486 358.351 641.256 358.351 Q635.97 358.351 632.637 354.132 Q629.329 349.913 629.329 343.039 Q629.329 336.164 632.637 331.945 Q635.97 327.726 641.256 327.726 Q644.486 327.726 646.777 329.002 Q649.095 330.252 650.605 332.856 M634.277 343.039 Q634.277 348.325 636.439 351.346 Q638.626 354.341 642.428 354.341 Q646.23 354.341 648.418 351.346 Q650.605 348.325 650.605 343.039 Q650.605 337.752 648.418 334.757 Q646.23 331.736 642.428 331.736 Q638.626 331.736 636.439 334.757 Q634.277 337.752 634.277 343.039 Z" fill="#000000" fill-rule="nonzero" fill-opacity="1" /><path clip-path="url(#clip240)" d="M684.459 332.856 L684.459 317.075 L689.251 317.075 L689.251 357.596 L684.459 357.596 L684.459 353.221 Q682.949 355.825 680.631 357.101 Q678.34 358.351 675.11 358.351 Q669.824 358.351 666.491 354.132 Q663.183 349.913 663.183 343.039 Q663.183 336.164 666.491 331.945 Q669.824 327.726 675.11 327.726 Q678.34 327.726 680.631 329.002 Q682.949 330.252 684.459 332.856 M668.131 343.039 Q668.131 348.325 670.293 351.346 Q672.48 354.341 676.282 354.341 Q680.084 354.341 682.272 351.346 Q684.459 348.325 684.459 343.039 Q684.459 337.752 682.272 334.757 Q680.084 331.736 676.282 331.736 Q672.48 331.736 670.293 334.757 Q668.131 337.752 668.131 343.039 Z" fill="#000000" fill-rule="nonzero" fill-opacity="1" /><polyline clip-path="url(#clip240)" style="stroke:#436eee; stroke-linecap:round; stroke-linejoin:round; stroke-width:13.5; stroke-opacity:0.75; fill:none" stroke-dasharray="7, 14" points="441.326,396.476 574.682,396.476 "/>
<path clip-path="url(#clip240)" d="M508.004 378.183 L503.705 390.549 L490.607 390.823 L501.053 398.744 L497.248 411.275 L508.004 403.793 L518.76 411.275 L514.955 398.744 L525.401 390.823 L512.303 390.549 L508.004 378.183 Z" fill="#4b0082" fill-rule="evenodd" fill-opacity="1" stroke="#000000" stroke-opacity="1" stroke-width="2.71059"/>
<path clip-path="url(#clip240)" d="M619.798 392.348 Q621.595 389.119 624.095 387.583 Q626.595 386.046 629.981 386.046 Q634.538 386.046 637.012 389.249 Q639.486 392.426 639.486 398.312 L639.486 415.916 L634.668 415.916 L634.668 398.468 Q634.668 394.275 633.184 392.244 Q631.699 390.213 628.652 390.213 Q624.928 390.213 622.767 392.687 Q620.606 395.161 620.606 399.431 L620.606 415.916 L615.788 415.916 L615.788 398.468 Q615.788 394.249 614.304 392.244 Q612.819 390.213 609.72 390.213 Q606.048 390.213 603.887 392.713 Q601.725 395.187 601.725 399.431 L601.725 415.916 L596.908 415.916 L596.908 386.749 L601.725 386.749 L601.725 391.28 Q603.366 388.598 605.658 387.322 Q607.949 386.046 611.1 386.046 Q614.277 386.046 616.491 387.661 Q618.731 389.275 619.798 392.348 Z" fill="#000000" fill-rule="nonzero" fill-opacity="1" /><path clip-path="url(#clip240)" d="M648.548 404.405 L648.548 386.749 L653.34 386.749 L653.34 404.223 Q653.34 408.364 654.954 410.447 Q656.569 412.504 659.798 412.504 Q663.678 412.504 665.918 410.03 Q668.183 407.556 668.183 403.286 L668.183 386.749 L672.975 386.749 L672.975 415.916 L668.183 415.916 L668.183 411.437 Q666.439 414.093 664.121 415.395 Q661.829 416.671 658.782 416.671 Q653.756 416.671 651.152 413.546 Q648.548 410.421 648.548 404.405 M660.605 386.046 L660.605 386.046 Z" fill="#000000" fill-rule="nonzero" fill-opacity="1" /><path clip-path="url(#clip240)" d="M682.845 375.395 L687.636 375.395 L687.636 415.916 L682.845 415.916 L682.845 375.395 Z" fill="#000000" fill-rule="nonzero" fill-opacity="1" /><polyline clip-path="url(#clip240)" style="stroke:#8fbc8f; stroke-linecap:round; stroke-linejoin:round; stroke-width:13.5; stroke-opacity:0.75; fill:none" stroke-dasharray="7, 14" points="441.326,454.796 574.682,454.796 "/>
<path clip-path="url(#clip240)" d="M522.638 454.796 L500.687 441.991 L500.687 467.601 L522.638 454.796 Z" fill="#3cb371" fill-rule="evenodd" fill-opacity="1" stroke="#000000" stroke-opacity="1" stroke-width="2.71059"/>
<path clip-path="url(#clip240)" d="M615.475 433.715 L615.475 437.699 L610.892 437.699 Q608.314 437.699 607.298 438.741 Q606.309 439.783 606.309 442.491 L606.309 445.069 L614.199 445.069 L614.199 448.793 L606.309 448.793 L606.309 474.236 L601.491 474.236 L601.491 448.793 L596.908 448.793 L596.908 445.069 L601.491 445.069 L601.491 443.038 Q601.491 438.168 603.757 435.955 Q606.022 433.715 610.944 433.715 L615.475 433.715 Z" fill="#000000" fill-rule="nonzero" fill-opacity="1" /><path clip-path="url(#clip240)" d="M642.194 450.668 Q643.991 447.439 646.491 445.903 Q648.991 444.366 652.376 444.366 Q656.933 444.366 659.407 447.569 Q661.881 450.746 661.881 456.632 L661.881 474.236 L657.064 474.236 L657.064 456.788 Q657.064 452.595 655.579 450.564 Q654.095 448.533 651.048 448.533 Q647.324 448.533 645.163 451.007 Q643.001 453.481 643.001 457.751 L643.001 474.236 L638.184 474.236 L638.184 456.788 Q638.184 452.569 636.699 450.564 Q635.215 448.533 632.116 448.533 Q628.444 448.533 626.283 451.033 Q624.121 453.507 624.121 457.751 L624.121 474.236 L619.303 474.236 L619.303 445.069 L624.121 445.069 L624.121 449.6 Q625.762 446.918 628.053 445.642 Q630.345 444.366 633.496 444.366 Q636.673 444.366 638.887 445.981 Q641.126 447.595 642.194 450.668 Z" fill="#000000" fill-rule="nonzero" fill-opacity="1" /><path clip-path="url(#clip240)" d="M684.694 459.574 Q678.886 459.574 676.647 460.902 Q674.407 462.231 674.407 465.434 Q674.407 467.986 676.074 469.496 Q677.767 470.981 680.657 470.981 Q684.642 470.981 687.037 468.168 Q689.459 465.33 689.459 460.642 L689.459 459.574 L684.694 459.574 M694.251 457.595 L694.251 474.236 L689.459 474.236 L689.459 469.809 Q687.819 472.465 685.371 473.741 Q682.923 474.991 679.381 474.991 Q674.902 474.991 672.246 472.491 Q669.616 469.965 669.616 465.746 Q669.616 460.824 672.897 458.324 Q676.204 455.824 682.741 455.824 L689.459 455.824 L689.459 455.356 Q689.459 452.048 687.272 450.251 Q685.11 448.429 681.178 448.429 Q678.678 448.429 676.308 449.028 Q673.939 449.626 671.751 450.824 L671.751 446.397 Q674.381 445.382 676.855 444.887 Q679.329 444.366 681.673 444.366 Q688.001 444.366 691.126 447.647 Q694.251 450.929 694.251 457.595 Z" fill="#000000" fill-rule="nonzero" fill-opacity="1" /></svg>
