<?xml version="1.0" encoding="utf-8"?>
<svg xmlns="http://www.w3.org/2000/svg" xmlns:xlink="http://www.w3.org/1999/xlink" width="600" height="400" viewBox="0 0 2400 1600">
<defs>
  <clipPath id="clip270">
    <rect x="0" y="0" width="2400" height="1600"/>
  </clipPath>
</defs>
<path clip-path="url(#clip270)" d="M0 1600 L2400 1600 L2400 0 L0 0  Z" fill="#ffffff" fill-rule="evenodd" fill-opacity="1"/>
<defs>
  <clipPath id="clip271">
    <rect x="480" y="0" width="1681" height="1600"/>
  </clipPath>
</defs>
<path clip-path="url(#clip270)" d="M352.423 1306.54 L2352.76 1306.54 L2352.76 244.432 L352.423 244.432  Z" fill="#ffffff" fill-rule="evenodd" fill-opacity="1"/>
<defs>
  <clipPath id="clip272">
    <rect x="352" y="244" width="2001" height="1063"/>
  </clipPath>
</defs>
<polyline clip-path="url(#clip272)" style="stroke:#000000; stroke-linecap:round; stroke-linejoin:round; stroke-width:2; stroke-opacity:0.1; fill:none" points="552.456,1306.54 552.456,244.432 "/>
<polyline clip-path="url(#clip272)" style="stroke:#000000; stroke-linecap:round; stroke-linejoin:round; stroke-width:2; stroke-opacity:0.1; fill:none" points="1352.59,1306.54 1352.59,244.432 "/>
<polyline clip-path="url(#clip272)" style="stroke:#000000; stroke-linecap:round; stroke-linejoin:round; stroke-width:2; stroke-opacity:0.1; fill:none" points="2152.72,1306.54 2152.72,244.432 "/>
<polyline clip-path="url(#clip272)" style="stroke:#000000; stroke-linecap:round; stroke-linejoin:round; stroke-width:2; stroke-opacity:0.1; fill:none" points="352.423,1306.54 2352.76,1306.54 "/>
<polyline clip-path="url(#clip272)" style="stroke:#000000; stroke-linecap:round; stroke-linejoin:round; stroke-width:2; stroke-opacity:0.1; fill:none" points="352.423,1041.01 2352.76,1041.01 "/>
<polyline clip-path="url(#clip272)" style="stroke:#000000; stroke-linecap:round; stroke-linejoin:round; stroke-width:2; stroke-opacity:0.1; fill:none" points="352.423,775.486 2352.76,775.486 "/>
<polyline clip-path="url(#clip272)" style="stroke:#000000; stroke-linecap:round; stroke-linejoin:round; stroke-width:2; stroke-opacity:0.1; fill:none" points="352.423,509.959 2352.76,509.959 "/>
<polyline clip-path="url(#clip272)" style="stroke:#000000; stroke-linecap:round; stroke-linejoin:round; stroke-width:2; stroke-opacity:0.1; fill:none" points="352.423,244.432 2352.76,244.432 "/>
<polyline clip-path="url(#clip270)" style="stroke:#000000; stroke-linecap:round; stroke-linejoin:round; stroke-width:4; stroke-opacity:1; fill:none" points="352.423,1306.54 2352.76,1306.54 "/>
<polyline clip-path="url(#clip270)" style="stroke:#000000; stroke-linecap:round; stroke-linejoin:round; stroke-width:4; stroke-opacity:1; fill:none" points="552.456,1306.54 552.456,1287.64 "/>
<polyline clip-path="url(#clip270)" style="stroke:#000000; stroke-linecap:round; stroke-linejoin:round; stroke-width:4; stroke-opacity:1; fill:none" points="1352.59,1306.54 1352.59,1287.64 "/>
<polyline clip-path="url(#clip270)" style="stroke:#000000; stroke-linecap:round; stroke-linejoin:round; stroke-width:4; stroke-opacity:1; fill:none" points="2152.72,1306.54 2152.72,1287.64 "/>
<path clip-path="url(#clip270)" d="M536.827 1389.55 L549.24 1389.55 L549.24 1346.7 L535.736 1349.41 L535.736 1342.49 L549.165 1339.78 L556.763 1339.78 L556.763 1389.55 L569.176 1389.55 L569.176 1395.94 L536.827 1395.94 L536.827 1389.55 Z" fill="#000000" fill-rule="nonzero" fill-opacity="1" /><path clip-path="url(#clip270)" d="M1343.9 1389.55 L1370.42 1389.55 L1370.42 1395.94 L1334.76 1395.94 L1334.76 1389.55 Q1339.09 1385.07 1346.53 1377.55 Q1354.02 1369.99 1355.94 1367.8 Q1359.59 1363.7 1361.02 1360.88 Q1362.48 1358.02 1362.48 1355.28 Q1362.48 1350.8 1359.32 1347.98 Q1356.2 1345.16 1351.16 1345.16 Q1347.59 1345.16 1343.6 1346.4 Q1339.65 1347.64 1335.14 1350.16 L1335.14 1342.49 Q1339.72 1340.64 1343.71 1339.7 Q1347.7 1338.76 1351.01 1338.76 Q1359.74 1338.76 1364.93 1343.13 Q1370.12 1347.49 1370.12 1354.79 Q1370.12 1358.25 1368.8 1361.37 Q1367.52 1364.46 1364.1 1368.67 Q1363.16 1369.76 1358.12 1374.99 Q1353.08 1380.18 1343.9 1389.55 Z" fill="#000000" fill-rule="nonzero" fill-opacity="1" /><path clip-path="url(#clip270)" d="M2159.63 1365.66 Q2165.08 1366.83 2168.13 1370.51 Q2171.21 1374.2 2171.21 1379.61 Q2171.21 1387.93 2165.49 1392.48 Q2159.78 1397.03 2149.24 1397.03 Q2145.71 1397.03 2141.95 1396.32 Q2138.22 1395.64 2134.23 1394.25 L2134.23 1386.91 Q2137.39 1388.76 2141.16 1389.7 Q2144.92 1390.64 2149.02 1390.64 Q2156.16 1390.64 2159.89 1387.81 Q2163.65 1384.99 2163.65 1379.61 Q2163.65 1374.65 2160.15 1371.87 Q2156.69 1369.04 2150.48 1369.04 L2143.94 1369.04 L2143.94 1362.8 L2150.79 1362.8 Q2156.39 1362.8 2159.36 1360.58 Q2162.33 1358.32 2162.33 1354.11 Q2162.33 1349.79 2159.25 1347.49 Q2156.2 1345.16 2150.48 1345.16 Q2147.36 1345.16 2143.79 1345.84 Q2140.22 1346.51 2135.93 1347.94 L2135.93 1341.17 Q2140.25 1339.97 2144.01 1339.37 Q2147.81 1338.76 2151.16 1338.76 Q2159.81 1338.76 2164.85 1342.71 Q2169.89 1346.63 2169.89 1353.32 Q2169.89 1357.99 2167.22 1361.22 Q2164.55 1364.42 2159.63 1365.66 Z" fill="#000000" fill-rule="nonzero" fill-opacity="1" /><path clip-path="url(#clip270)" d="M1121.91 1530.73 L1121.91 1549.63 L1116.02 1549.63 L1116.02 1500.43 L1121.91 1500.43 L1121.91 1505.84 Q1123.76 1502.66 1126.56 1501.13 Q1129.39 1499.57 1133.31 1499.57 Q1139.8 1499.57 1143.84 1504.72 Q1147.92 1509.88 1147.92 1518.28 Q1147.92 1526.69 1143.84 1531.84 Q1139.8 1537 1133.31 1537 Q1129.39 1537 1126.56 1535.47 Q1123.76 1533.91 1121.91 1530.73 M1141.84 1518.28 Q1141.84 1511.82 1139.16 1508.16 Q1136.52 1504.47 1131.87 1504.47 Q1127.23 1504.47 1124.55 1508.16 Q1121.91 1511.82 1121.91 1518.28 Q1121.91 1524.74 1124.55 1528.44 Q1127.23 1532.1 1131.87 1532.1 Q1136.52 1532.1 1139.16 1528.44 Q1141.84 1524.74 1141.84 1518.28 Z" fill="#000000" fill-rule="nonzero" fill-opacity="1" /><path clip-path="url(#clip270)" d="M1178.28 1505.9 Q1177.29 1505.33 1176.12 1505.07 Q1174.97 1504.79 1173.57 1504.79 Q1168.6 1504.79 1165.93 1508.03 Q1163.29 1511.25 1163.29 1517.3 L1163.29 1536.08 L1157.4 1536.08 L1157.4 1500.43 L1163.29 1500.43 L1163.29 1505.97 Q1165.14 1502.72 1168.1 1501.16 Q1171.06 1499.57 1175.29 1499.57 Q1175.89 1499.57 1176.63 1499.66 Q1177.36 1499.73 1178.25 1499.89 L1178.28 1505.9 Z" fill="#000000" fill-rule="nonzero" fill-opacity="1" /><path clip-path="url(#clip270)" d="M1213.48 1516.79 L1213.48 1519.65 L1186.56 1519.65 Q1186.94 1525.7 1190.18 1528.88 Q1193.46 1532.03 1199.29 1532.03 Q1202.66 1532.03 1205.81 1531.21 Q1208.99 1530.38 1212.11 1528.72 L1212.11 1534.26 Q1208.96 1535.6 1205.65 1536.3 Q1202.34 1537 1198.94 1537 Q1190.41 1537 1185.41 1532.03 Q1180.44 1527.07 1180.44 1518.6 Q1180.44 1509.85 1185.16 1504.72 Q1189.9 1499.57 1197.92 1499.57 Q1205.11 1499.57 1209.28 1504.22 Q1213.48 1508.83 1213.48 1516.79 M1207.63 1515.07 Q1207.56 1510.26 1204.92 1507.4 Q1202.31 1504.53 1197.98 1504.53 Q1193.08 1504.53 1190.12 1507.3 Q1187.19 1510.07 1186.75 1515.1 L1207.63 1515.07 Z" fill="#000000" fill-rule="nonzero" fill-opacity="1" /><path clip-path="url(#clip270)" d="M1248.75 1501.8 L1248.75 1507.27 Q1246.27 1505.9 1243.75 1505.23 Q1241.27 1504.53 1238.72 1504.53 Q1233.03 1504.53 1229.87 1508.16 Q1226.72 1511.76 1226.72 1518.28 Q1226.72 1524.81 1229.87 1528.44 Q1233.03 1532.03 1238.72 1532.03 Q1241.27 1532.03 1243.75 1531.37 Q1246.27 1530.66 1248.75 1529.3 L1248.75 1534.71 Q1246.3 1535.85 1243.66 1536.43 Q1241.05 1537 1238.09 1537 Q1230.03 1537 1225.29 1531.94 Q1220.55 1526.88 1220.55 1518.28 Q1220.55 1509.56 1225.32 1504.57 Q1230.13 1499.57 1238.47 1499.57 Q1241.17 1499.57 1243.75 1500.14 Q1246.33 1500.68 1248.75 1501.8 Z" fill="#000000" fill-rule="nonzero" fill-opacity="1" /><path clip-path="url(#clip270)" d="M1258.93 1500.43 L1264.79 1500.43 L1264.79 1536.08 L1258.93 1536.08 L1258.93 1500.43 M1258.93 1486.55 L1264.79 1486.55 L1264.79 1493.97 L1258.93 1493.97 L1258.93 1486.55 Z" fill="#000000" fill-rule="nonzero" fill-opacity="1" /><path clip-path="url(#clip270)" d="M1299.77 1501.48 L1299.77 1507.02 Q1297.29 1505.74 1294.61 1505.11 Q1291.94 1504.47 1289.08 1504.47 Q1284.71 1504.47 1282.52 1505.81 Q1280.35 1507.14 1280.35 1509.82 Q1280.35 1511.85 1281.91 1513.03 Q1283.47 1514.18 1288.18 1515.23 L1290.19 1515.67 Q1296.43 1517.01 1299.04 1519.46 Q1301.68 1521.88 1301.68 1526.24 Q1301.68 1531.21 1297.73 1534.1 Q1293.82 1537 1286.94 1537 Q1284.08 1537 1280.96 1536.43 Q1277.87 1535.88 1274.43 1534.77 L1274.43 1528.72 Q1277.68 1530.41 1280.83 1531.27 Q1283.98 1532.1 1287.07 1532.1 Q1291.21 1532.1 1293.44 1530.7 Q1295.66 1529.26 1295.66 1526.69 Q1295.66 1524.3 1294.04 1523.03 Q1292.45 1521.75 1287.01 1520.58 L1284.97 1520.1 Q1279.53 1518.95 1277.11 1516.6 Q1274.69 1514.21 1274.69 1510.07 Q1274.69 1505.04 1278.25 1502.31 Q1281.82 1499.57 1288.38 1499.57 Q1291.62 1499.57 1294.49 1500.05 Q1297.35 1500.52 1299.77 1501.48 Z" fill="#000000" fill-rule="nonzero" fill-opacity="1" /><path clip-path="url(#clip270)" d="M1311.01 1500.43 L1316.86 1500.43 L1316.86 1536.08 L1311.01 1536.08 L1311.01 1500.43 M1311.01 1486.55 L1316.86 1486.55 L1316.86 1493.97 L1311.01 1493.97 L1311.01 1486.55 Z" fill="#000000" fill-rule="nonzero" fill-opacity="1" /><path clip-path="url(#clip270)" d="M1342.93 1504.53 Q1338.22 1504.53 1335.48 1508.23 Q1332.74 1511.89 1332.74 1518.28 Q1332.74 1524.68 1335.45 1528.37 Q1338.19 1532.03 1342.93 1532.03 Q1347.61 1532.03 1350.35 1528.34 Q1353.08 1524.65 1353.08 1518.28 Q1353.08 1511.95 1350.35 1508.26 Q1347.61 1504.53 1342.93 1504.53 M1342.93 1499.57 Q1350.57 1499.57 1354.93 1504.53 Q1359.29 1509.5 1359.29 1518.28 Q1359.29 1527.04 1354.93 1532.03 Q1350.57 1537 1342.93 1537 Q1335.26 1537 1330.9 1532.03 Q1326.57 1527.04 1326.57 1518.28 Q1326.57 1509.5 1330.9 1504.53 Q1335.26 1499.57 1342.93 1499.57 Z" fill="#000000" fill-rule="nonzero" fill-opacity="1" /><path clip-path="url(#clip270)" d="M1398.63 1514.56 L1398.63 1536.08 L1392.77 1536.08 L1392.77 1514.75 Q1392.77 1509.69 1390.8 1507.18 Q1388.83 1504.66 1384.88 1504.66 Q1380.14 1504.66 1377.4 1507.68 Q1374.66 1510.71 1374.66 1515.93 L1374.66 1536.08 L1368.77 1536.08 L1368.77 1500.43 L1374.66 1500.43 L1374.66 1505.97 Q1376.76 1502.75 1379.6 1501.16 Q1382.46 1499.57 1386.18 1499.57 Q1392.33 1499.57 1395.48 1503.39 Q1398.63 1507.18 1398.63 1514.56 Z" fill="#000000" fill-rule="nonzero" fill-opacity="1" /><path clip-path="url(#clip270)" d="M1445.1 1486.61 Q1440.83 1493.93 1438.76 1501.1 Q1436.7 1508.26 1436.7 1515.61 Q1436.7 1522.96 1438.76 1530.19 Q1440.87 1537.38 1445.1 1544.67 L1440.01 1544.67 Q1435.23 1537.19 1432.84 1529.96 Q1430.49 1522.74 1430.49 1515.61 Q1430.49 1508.51 1432.84 1501.32 Q1435.2 1494.13 1440.01 1486.61 L1445.1 1486.61 Z" fill="#000000" fill-rule="nonzero" fill-opacity="1" /><path clip-path="url(#clip270)" d="M1482.05 1518.28 Q1482.05 1511.82 1479.38 1508.16 Q1476.74 1504.47 1472.09 1504.47 Q1467.44 1504.47 1464.77 1508.16 Q1462.13 1511.82 1462.13 1518.28 Q1462.13 1524.74 1464.77 1528.44 Q1467.44 1532.1 1472.09 1532.1 Q1476.74 1532.1 1479.38 1528.44 Q1482.05 1524.74 1482.05 1518.28 M1462.13 1505.84 Q1463.97 1502.66 1466.77 1501.13 Q1469.61 1499.57 1473.52 1499.57 Q1480.01 1499.57 1484.06 1504.72 Q1488.13 1509.88 1488.13 1518.28 Q1488.13 1526.69 1484.06 1531.84 Q1480.01 1537 1473.52 1537 Q1469.61 1537 1466.77 1535.47 Q1463.97 1533.91 1462.13 1530.73 L1462.13 1536.08 L1456.24 1536.08 L1456.24 1486.55 L1462.13 1486.55 L1462.13 1505.84 Z" fill="#000000" fill-rule="nonzero" fill-opacity="1" /><path clip-path="url(#clip270)" d="M1497.84 1500.43 L1503.7 1500.43 L1503.7 1536.08 L1497.84 1536.08 L1497.84 1500.43 M1497.84 1486.55 L1503.7 1486.55 L1503.7 1493.97 L1497.84 1493.97 L1497.84 1486.55 Z" fill="#000000" fill-rule="nonzero" fill-opacity="1" /><path clip-path="url(#clip270)" d="M1521.74 1490.31 L1521.74 1500.43 L1533.8 1500.43 L1533.8 1504.98 L1521.74 1504.98 L1521.74 1524.33 Q1521.74 1528.69 1522.92 1529.93 Q1524.13 1531.17 1527.79 1531.17 L1533.8 1531.17 L1533.8 1536.08 L1527.79 1536.08 Q1521.01 1536.08 1518.43 1533.56 Q1515.85 1531.02 1515.85 1524.33 L1515.85 1504.98 L1511.56 1504.98 L1511.56 1500.43 L1515.85 1500.43 L1515.85 1490.31 L1521.74 1490.31 Z" fill="#000000" fill-rule="nonzero" fill-opacity="1" /><path clip-path="url(#clip270)" d="M1564.23 1501.48 L1564.23 1507.02 Q1561.75 1505.74 1559.08 1505.11 Q1556.4 1504.47 1553.54 1504.47 Q1549.18 1504.47 1546.98 1505.81 Q1544.82 1507.14 1544.82 1509.82 Q1544.82 1511.85 1546.38 1513.03 Q1547.94 1514.18 1552.65 1515.23 L1554.65 1515.67 Q1560.89 1517.01 1563.5 1519.46 Q1566.14 1521.88 1566.14 1526.24 Q1566.14 1531.21 1562.2 1534.1 Q1558.28 1537 1551.41 1537 Q1548.54 1537 1545.42 1536.43 Q1542.34 1535.88 1538.9 1534.77 L1538.9 1528.72 Q1542.14 1530.41 1545.3 1531.27 Q1548.45 1532.1 1551.53 1532.1 Q1555.67 1532.1 1557.9 1530.7 Q1560.13 1529.26 1560.13 1526.69 Q1560.13 1524.3 1558.5 1523.03 Q1556.91 1521.75 1551.47 1520.58 L1549.43 1520.1 Q1543.99 1518.95 1541.57 1516.6 Q1539.15 1514.21 1539.15 1510.07 Q1539.15 1505.04 1542.72 1502.31 Q1546.28 1499.57 1552.84 1499.57 Q1556.08 1499.57 1558.95 1500.05 Q1561.81 1500.52 1564.23 1501.48 Z" fill="#000000" fill-rule="nonzero" fill-opacity="1" /><path clip-path="url(#clip270)" d="M1574.55 1486.61 L1579.64 1486.61 Q1584.41 1494.13 1586.77 1501.32 Q1589.15 1508.51 1589.15 1515.61 Q1589.15 1522.74 1586.77 1529.96 Q1584.41 1537.19 1579.64 1544.67 L1574.55 1544.67 Q1578.78 1537.38 1580.85 1530.19 Q1582.95 1522.96 1582.95 1515.61 Q1582.95 1508.26 1580.85 1501.1 Q1578.78 1493.93 1574.55 1486.61 Z" fill="#000000" fill-rule="nonzero" fill-opacity="1" /><polyline clip-path="url(#clip270)" style="stroke:#000000; stroke-linecap:round; stroke-linejoin:round; stroke-width:4; stroke-opacity:1; fill:none" points="352.423,1306.54 352.423,244.432 "/>
<polyline clip-path="url(#clip270)" style="stroke:#000000; stroke-linecap:round; stroke-linejoin:round; stroke-width:4; stroke-opacity:1; fill:none" points="352.423,1306.54 371.32,1306.54 "/>
<polyline clip-path="url(#clip270)" style="stroke:#000000; stroke-linecap:round; stroke-linejoin:round; stroke-width:4; stroke-opacity:1; fill:none" points="352.423,1041.01 371.32,1041.01 "/>
<polyline clip-path="url(#clip270)" style="stroke:#000000; stroke-linecap:round; stroke-linejoin:round; stroke-width:4; stroke-opacity:1; fill:none" points="352.423,775.486 371.32,775.486 "/>
<polyline clip-path="url(#clip270)" style="stroke:#000000; stroke-linecap:round; stroke-linejoin:round; stroke-width:4; stroke-opacity:1; fill:none" points="352.423,509.959 371.32,509.959 "/>
<polyline clip-path="url(#clip270)" style="stroke:#000000; stroke-linecap:round; stroke-linejoin:round; stroke-width:4; stroke-opacity:1; fill:none" points="352.423,244.432 371.32,244.432 "/>
<path clip-path="url(#clip270)" d="M309.734 1302.65 Q309.772 1304.17 309.772 1306.53 Q309.772 1308.89 309.696 1310.45 Q309.658 1312.01 309.278 1314.98 Q308.935 1317.95 308.25 1320 Q307.603 1322.02 306.195 1324.53 Q304.786 1327.04 302.845 1328.61 Q300.942 1330.13 297.859 1331.19 Q294.776 1332.26 290.932 1332.26 Q287.05 1332.26 283.967 1331.19 Q280.884 1330.09 278.943 1328.57 Q277.001 1327.04 275.593 1324.53 Q274.223 1321.98 273.538 1319.97 Q272.891 1317.91 272.51 1314.94 Q272.168 1311.97 272.091 1310.45 Q272.053 1308.89 272.053 1306.53 Q272.053 1304.17 272.091 1302.61 Q272.168 1301.05 272.51 1298.04 Q272.891 1295.03 273.538 1292.98 Q274.223 1290.89 275.593 1288.3 Q277.001 1285.71 278.943 1284.15 Q280.884 1282.55 283.967 1281.45 Q287.05 1280.34 290.932 1280.34 Q294.814 1280.34 297.897 1281.45 Q300.98 1282.55 302.883 1284.15 Q304.824 1285.75 306.233 1288.34 Q307.641 1290.92 308.288 1293.02 Q308.935 1295.07 309.316 1298.12 Q309.696 1301.12 309.734 1302.65 M299.8 1305.58 Q299.8 1301.12 299.762 1298.57 Q299.724 1296.02 299.382 1292.71 Q299.077 1289.36 298.468 1288.03 Q297.402 1285.6 295.309 1284.38 Q293.254 1283.12 290.932 1283.12 Q290.209 1283.12 289.409 1283.27 Q288.648 1283.39 287.506 1283.88 Q286.365 1284.34 285.451 1285.14 Q284.538 1285.9 283.738 1287.38 Q282.939 1288.87 282.673 1290.85 Q282.026 1295.15 282.026 1305.58 Q282.026 1317.76 282.749 1322.02 Q283.129 1324.04 284.043 1325.56 Q284.994 1327.08 286.174 1327.88 Q287.392 1328.68 288.572 1329.06 Q289.79 1329.44 290.932 1329.44 Q291.998 1329.44 293.101 1329.14 Q294.205 1328.83 295.499 1328.03 Q296.831 1327.2 297.859 1325.45 Q298.887 1323.66 299.267 1321.11 Q299.8 1317.07 299.8 1305.58 Z" fill="#000000" fill-rule="nonzero" fill-opacity="1" /><path clip-path="url(#clip270)" d="M278.836 1021.86 Q275.41 1021.63 263.307 1021.63 Q251.241 1021.63 247.816 1021.86 L247.816 1018.21 L258.625 1018.21 L258.625 977.902 Q253.791 979.463 248.501 979.463 L246.94 979.463 L246.94 975.809 L248.501 975.809 Q258.168 975.809 264.182 971.356 Q264.677 970.975 264.943 970.899 Q265.21 970.823 265.895 970.823 Q267.303 970.823 267.608 971.318 Q267.912 971.812 267.912 973.297 L267.912 1018.21 L278.836 1018.21 L278.836 1021.86 Z" fill="#000000" fill-rule="nonzero" fill-opacity="1" /><path clip-path="url(#clip270)" d="M225.94 1042.66 L308.103 1042.66 L308.103 1038.5 L225.94 1038.5  Z" fill="#000000" fill-rule="evenodd" fill-opacity="1"/>
<path clip-path="url(#clip270)" d="M257.836 1109.85 Q254.41 1109.62 242.307 1109.62 Q230.241 1109.62 226.816 1109.85 L226.816 1106.2 L237.625 1106.2 L237.625 1065.89 Q232.791 1067.45 227.501 1067.45 L225.94 1067.45 L225.94 1063.8 L227.501 1063.8 Q237.168 1063.8 243.182 1059.34 Q243.677 1058.96 243.943 1058.89 Q244.21 1058.81 244.895 1058.81 Q246.303 1058.81 246.608 1059.3 Q246.912 1059.8 246.912 1061.28 L246.912 1106.2 L257.836 1106.2 L257.836 1109.85 Z" fill="#000000" fill-rule="nonzero" fill-opacity="1" /><path clip-path="url(#clip270)" d="M300.139 1093.86 Q300.139 1101.59 295.076 1106.16 Q290.052 1110.73 281.831 1110.73 Q277.264 1110.73 273.305 1108.9 Q269.347 1107.07 266.797 1102.92 Q262.876 1096.34 262.876 1085.15 Q262.876 1079.48 264.285 1074.91 Q265.731 1070.3 268.053 1067.37 Q270.412 1064.44 273.534 1062.46 Q276.655 1060.48 279.814 1059.65 Q283.011 1058.81 286.36 1058.81 Q289.329 1058.81 291.613 1059.65 Q293.934 1060.48 295.229 1061.89 Q296.561 1063.3 297.208 1064.98 Q297.893 1066.65 297.893 1068.55 Q297.893 1070.8 296.561 1072.17 Q295.229 1073.54 292.983 1073.54 Q290.775 1073.54 289.443 1072.17 Q288.149 1070.76 288.149 1068.71 Q288.149 1066.88 289.215 1065.51 Q290.319 1064.14 292.336 1063.87 Q290.281 1061.82 286.513 1061.82 Q283.049 1061.82 280.08 1063.64 Q277.111 1065.47 275.665 1068.29 Q273.495 1073.08 273.495 1081.72 L273.495 1083.21 Q274.409 1081.53 275.589 1080.31 Q276.769 1079.1 277.682 1078.53 Q278.634 1077.95 279.776 1077.65 Q280.956 1077.35 281.488 1077.31 Q282.059 1077.27 282.859 1077.27 Q287.692 1077.27 291.537 1079.1 Q295.381 1080.92 297.741 1084.77 Q300.139 1088.57 300.139 1093.86 M289.557 1093.71 Q289.557 1091.16 289.519 1089.94 Q289.481 1088.69 289.291 1086.78 Q289.101 1084.84 288.606 1083.93 Q288.149 1082.98 287.35 1081.95 Q286.551 1080.89 285.256 1080.5 Q283.962 1080.09 282.135 1080.09 Q278.558 1080.09 276.084 1083.4 Q273.648 1086.67 273.648 1093.48 Q273.648 1100.56 274.904 1103.08 Q275.627 1104.56 277.34 1105.97 Q279.052 1107.34 281.679 1107.34 Q283.962 1107.34 285.485 1106.61 Q287.045 1105.85 287.845 1104.9 Q288.644 1103.95 289.025 1101.82 Q289.443 1099.69 289.481 1098.24 Q289.557 1096.8 289.557 1093.71 Z" fill="#000000" fill-rule="nonzero" fill-opacity="1" /><path clip-path="url(#clip270)" d="M297.772 756.336 Q294.346 756.108 282.243 756.108 Q270.177 756.108 266.752 756.336 L266.752 752.682 L277.561 752.682 L277.561 712.375 Q272.727 713.936 267.437 713.936 L265.876 713.936 L265.876 710.282 L267.437 710.282 Q277.104 710.282 283.118 705.829 Q283.613 705.448 283.879 705.372 Q284.146 705.296 284.831 705.296 Q286.239 705.296 286.544 705.791 Q286.848 706.285 286.848 707.77 L286.848 752.682 L297.772 752.682 L297.772 756.336 Z" fill="#000000" fill-rule="nonzero" fill-opacity="1" /><path clip-path="url(#clip270)" d="M262.876 777.136 L308.103 777.136 L308.103 772.976 L262.876 772.976  Z" fill="#000000" fill-rule="evenodd" fill-opacity="1"/>
<path clip-path="url(#clip270)" d="M300.139 829.746 Q300.139 832.981 298.921 835.797 Q297.741 838.576 295.457 840.707 Q293.173 842.801 289.557 844.019 Q285.942 845.199 281.374 845.199 Q277.492 845.199 274.219 844.399 Q270.945 843.6 268.357 842.039 Q265.807 840.441 264.323 837.815 Q262.876 835.188 262.876 831.763 Q262.876 823.085 272.848 818.67 Q270.679 817.452 269.118 815.929 Q267.596 814.369 266.797 812.77 Q266.035 811.172 265.693 809.763 Q265.388 808.317 265.388 806.909 Q265.388 800.971 269.613 797.127 Q273.876 793.283 281.679 793.283 Q288.758 793.283 293.211 796.175 Q297.665 799.068 297.665 804.739 Q297.665 808.165 295.761 810.791 Q293.858 813.379 289.786 815.473 Q290.966 816.12 291.575 816.5 Q292.222 816.881 293.478 817.756 Q294.734 818.632 295.495 819.355 Q296.256 820.078 297.246 821.258 Q298.235 822.438 298.768 823.618 Q299.339 824.798 299.72 826.396 Q300.139 827.995 300.139 829.746 M291.803 804.815 Q291.803 800.819 289.025 798.573 Q286.284 796.29 281.374 796.29 Q280.194 796.29 279.091 796.404 Q277.987 796.48 276.464 796.861 Q274.98 797.203 273.876 797.812 Q272.772 798.421 271.973 799.601 Q271.212 800.743 271.212 802.303 Q271.212 805.082 274.675 806.985 L286.36 813.531 Q291.803 809.954 291.803 804.815 M293.44 834.047 Q293.44 832.714 292.983 831.649 Q292.564 830.583 291.499 829.67 Q290.471 828.756 289.595 828.223 Q288.758 827.652 287.121 826.701 L276.464 820.801 Q269.575 824.722 269.575 831.763 Q269.575 836.368 272.772 839.109 Q276.008 841.811 281.679 841.811 Q283.201 841.811 284.609 841.659 Q286.056 841.469 287.692 840.974 Q289.367 840.441 290.585 839.642 Q291.803 838.804 292.602 837.358 Q293.44 835.912 293.44 834.047 Z" fill="#000000" fill-rule="nonzero" fill-opacity="1" /><path clip-path="url(#clip270)" d="M281.202 476.335 Q281.202 479.113 280.06 481.702 Q278.919 484.252 276.635 486.459 Q274.389 488.629 270.469 489.961 Q266.587 491.255 261.563 491.255 Q253.95 491.255 248.926 488.02 Q243.94 484.747 243.94 479.532 Q243.94 476.678 245.653 475.079 Q247.366 473.48 249.954 473.48 Q252.542 473.48 254.217 475.117 Q255.891 476.754 255.891 479.38 Q255.891 481.702 254.635 483.224 Q253.417 484.709 251.362 485.241 Q255.587 487.868 261.182 487.868 Q262.857 487.868 264.189 487.411 Q265.521 486.916 266.32 486.231 Q267.158 485.546 267.767 484.442 Q268.376 483.3 268.642 482.387 Q268.947 481.473 269.099 480.141 Q269.251 478.771 269.251 478.086 Q269.289 477.401 269.289 476.259 Q269.289 475.041 269.251 474.356 Q269.251 473.633 269.061 472.262 Q268.908 470.892 268.604 470.017 Q268.338 469.103 267.691 468 Q267.082 466.896 266.206 466.249 Q265.331 465.564 263.922 465.107 Q262.552 464.65 260.801 464.65 L257.376 464.65 Q256.5 464.65 256.12 464.612 Q255.777 464.536 255.473 464.231 Q255.168 463.927 255.168 463.242 Q255.168 461.986 256.12 461.91 Q256.957 461.757 259.85 461.605 Q261.753 461.491 263.237 460.692 Q264.76 459.854 265.597 458.56 Q266.434 457.266 266.967 456.01 Q267.538 454.754 267.729 453.27 Q267.919 451.785 267.957 451.138 Q268.033 450.491 268.033 449.92 Q268.033 448.893 267.957 448.131 Q267.919 447.332 267.538 446.152 Q267.158 444.972 266.473 444.249 Q265.826 443.488 264.493 442.917 Q263.161 442.346 261.334 442.346 Q256.31 442.346 252.77 445.163 Q253.151 445.239 253.379 445.315 Q253.646 445.391 254.445 445.81 Q255.282 446.228 255.815 446.761 Q256.348 447.294 256.805 448.36 Q257.3 449.387 257.3 450.644 Q257.3 452.927 255.815 454.488 Q254.369 456.01 251.819 456.01 Q249.535 456.01 247.975 454.526 Q246.452 453.003 246.452 450.529 Q246.452 445.734 250.677 442.536 Q254.94 439.339 261.791 439.339 Q269.784 439.339 274.237 442.422 Q278.728 445.467 278.728 450.149 Q278.728 453.308 277.016 456.048 Q275.341 458.751 272.905 460.425 Q270.507 462.062 267.652 462.937 Q270.888 463.622 273.362 464.84 Q275.874 466.058 277.32 467.429 Q278.766 468.799 279.68 470.474 Q280.593 472.11 280.898 473.518 Q281.202 474.889 281.202 476.335 Z" fill="#000000" fill-rule="nonzero" fill-opacity="1" /><path clip-path="url(#clip270)" d="M225.94 512.039 L308.103 512.039 L308.103 507.879 L225.94 507.879  Z" fill="#000000" fill-rule="evenodd" fill-opacity="1"/>
<path clip-path="url(#clip270)" d="M257.836 579.226 Q254.41 578.998 242.307 578.998 Q230.241 578.998 226.816 579.226 L226.816 575.572 L237.625 575.572 L237.625 535.265 Q232.791 536.825 227.501 536.825 L225.94 536.825 L225.94 533.172 L227.501 533.172 Q237.168 533.172 243.182 528.718 Q243.677 528.338 243.943 528.262 Q244.21 528.185 244.895 528.185 Q246.303 528.185 246.608 528.68 Q246.912 529.175 246.912 530.659 L246.912 575.572 L257.836 575.572 L257.836 579.226 Z" fill="#000000" fill-rule="nonzero" fill-opacity="1" /><path clip-path="url(#clip270)" d="M300.139 563.24 Q300.139 570.967 295.076 575.534 Q290.052 580.101 281.831 580.101 Q277.264 580.101 273.305 578.274 Q269.347 576.447 266.797 572.299 Q262.876 565.714 262.876 554.524 Q262.876 548.853 264.285 544.285 Q265.731 539.68 268.053 536.749 Q270.412 533.819 273.534 531.839 Q276.655 529.86 279.814 529.023 Q283.011 528.185 286.36 528.185 Q289.329 528.185 291.613 529.023 Q293.934 529.86 295.229 531.268 Q296.561 532.677 297.208 534.351 Q297.893 536.026 297.893 537.929 Q297.893 540.175 296.561 541.545 Q295.229 542.915 292.983 542.915 Q290.775 542.915 289.443 541.545 Q288.149 540.137 288.149 538.081 Q288.149 536.255 289.215 534.884 Q290.319 533.514 292.336 533.248 Q290.281 531.192 286.513 531.192 Q283.049 531.192 280.08 533.019 Q277.111 534.846 275.665 537.663 Q273.495 542.459 273.495 551.099 L273.495 552.583 Q274.409 550.908 275.589 549.69 Q276.769 548.472 277.682 547.901 Q278.634 547.33 279.776 547.026 Q280.956 546.721 281.488 546.683 Q282.059 546.645 282.859 546.645 Q287.692 546.645 291.537 548.472 Q295.381 550.299 297.741 554.143 Q300.139 557.95 300.139 563.24 M289.557 563.088 Q289.557 560.538 289.519 559.32 Q289.481 558.064 289.291 556.161 Q289.101 554.22 288.606 553.306 Q288.149 552.355 287.35 551.327 Q286.551 550.261 285.256 549.881 Q283.962 549.462 282.135 549.462 Q278.558 549.462 276.084 552.773 Q273.648 556.046 273.648 562.859 Q273.648 569.939 274.904 572.451 Q275.627 573.935 277.34 575.344 Q279.052 576.714 281.679 576.714 Q283.962 576.714 285.485 575.991 Q287.045 575.229 287.845 574.278 Q288.644 573.326 289.025 571.195 Q289.443 569.064 289.481 567.617 Q289.557 566.171 289.557 563.088 Z" fill="#000000" fill-rule="nonzero" fill-opacity="1" /><path clip-path="url(#clip270)" d="M296.334 225.673 Q292.909 225.445 280.805 225.445 Q268.74 225.445 265.314 225.673 L265.314 222.019 L276.124 222.019 L276.124 181.712 Q271.29 183.273 265.999 183.273 L264.439 183.273 L264.439 179.619 L265.999 179.619 Q275.667 179.619 281.681 175.165 Q282.175 174.785 282.442 174.709 Q282.708 174.633 283.393 174.633 Q284.802 174.633 285.106 175.127 Q285.411 175.622 285.411 177.107 L285.411 222.019 L296.334 222.019 L296.334 225.673 Z" fill="#000000" fill-rule="nonzero" fill-opacity="1" /><path clip-path="url(#clip270)" d="M260.439 246.473 L308.103 246.473 L308.103 242.313 L260.439 242.313  Z" fill="#000000" fill-rule="evenodd" fill-opacity="1"/>
<path clip-path="url(#clip270)" d="M300.175 313.738 Q297.435 313.51 287.539 313.51 Q277.11 313.51 274.141 313.738 L274.141 310.084 L282.857 310.084 L282.857 301.596 L260.439 301.596 L260.439 297.904 L287.615 263.839 Q288.338 262.964 288.68 262.812 Q289.061 262.622 290.279 262.622 Q291.878 262.622 292.22 263.04 Q292.601 263.459 292.601 265.096 L292.601 297.904 L300.175 297.904 L300.175 301.596 L292.601 301.596 L292.601 310.084 L300.175 310.084 L300.175 313.738 M283.732 297.904 L283.732 273.735 L264.473 297.904 L283.732 297.904 Z" fill="#000000" fill-rule="nonzero" fill-opacity="1" /><path clip-path="url(#clip270)" d="M106.177 1072.3 L125.083 1072.3 L125.083 1078.19 L75.8762 1078.19 L75.8762 1072.3 L81.2871 1072.3 Q78.1042 1070.46 76.5764 1067.66 Q75.0168 1064.82 75.0168 1060.91 Q75.0168 1054.42 80.1731 1050.37 Q85.3293 1046.3 93.732 1046.3 Q102.135 1046.3 107.291 1050.37 Q112.447 1054.42 112.447 1060.91 Q112.447 1064.82 110.919 1067.66 Q109.36 1070.46 106.177 1072.3 M93.732 1052.38 Q87.2708 1052.38 83.6105 1055.05 Q79.9184 1057.69 79.9184 1062.34 Q79.9184 1066.99 83.6105 1069.66 Q87.2708 1072.3 93.732 1072.3 Q100.193 1072.3 103.885 1069.66 Q107.546 1066.99 107.546 1062.34 Q107.546 1057.69 103.885 1055.05 Q100.193 1052.38 93.732 1052.38 Z" fill="#000000" fill-rule="nonzero" fill-opacity="1" /><path clip-path="url(#clip270)" d="M81.3507 1015.93 Q80.7778 1016.92 80.5232 1018.1 Q80.2367 1019.24 80.2367 1020.65 Q80.2367 1025.61 83.4832 1028.28 Q86.6979 1030.93 92.7453 1030.93 L111.524 1030.93 L111.524 1036.81 L75.8762 1036.81 L75.8762 1030.93 L81.4144 1030.93 Q78.1679 1029.08 76.6083 1026.12 Q75.0168 1023.16 75.0168 1018.93 Q75.0168 1018.32 75.1123 1017.59 Q75.176 1016.86 75.3351 1015.97 L81.3507 1015.93 Z" fill="#000000" fill-rule="nonzero" fill-opacity="1" /><path clip-path="url(#clip270)" d="M79.9821 997.41 Q79.9821 1002.12 83.6742 1004.86 Q87.3345 1007.6 93.732 1007.6 Q100.13 1007.6 103.822 1004.89 Q107.482 1002.15 107.482 997.41 Q107.482 992.732 103.79 989.994 Q100.098 987.257 93.732 987.257 Q87.3981 987.257 83.706 989.994 Q79.9821 992.732 79.9821 997.41 M75.0168 997.41 Q75.0168 989.772 79.9821 985.411 Q84.9473 981.051 93.732 981.051 Q102.485 981.051 107.482 985.411 Q112.447 989.772 112.447 997.41 Q112.447 1005.08 107.482 1009.44 Q102.485 1013.77 93.732 1013.77 Q84.9473 1013.77 79.9821 1009.44 Q75.0168 1005.08 75.0168 997.41 Z" fill="#000000" fill-rule="nonzero" fill-opacity="1" /><path clip-path="url(#clip270)" d="M106.177 965.677 L125.083 965.677 L125.083 971.566 L75.8762 971.566 L75.8762 965.677 L81.2871 965.677 Q78.1042 963.831 76.5764 961.03 Q75.0168 958.198 75.0168 954.283 Q75.0168 947.79 80.1731 943.748 Q85.3293 939.673 93.732 939.673 Q102.135 939.673 107.291 943.748 Q112.447 947.79 112.447 954.283 Q112.447 958.198 110.919 961.03 Q109.36 963.831 106.177 965.677 M93.732 945.753 Q87.2708 945.753 83.6105 948.426 Q79.9184 951.068 79.9184 955.715 Q79.9184 960.362 83.6105 963.036 Q87.2708 965.677 93.732 965.677 Q100.193 965.677 103.885 963.036 Q107.546 960.362 107.546 955.715 Q107.546 951.068 103.885 948.426 Q100.193 945.753 93.732 945.753 Z" fill="#000000" fill-rule="nonzero" fill-opacity="1" /><path clip-path="url(#clip270)" d="M79.9821 916.152 Q79.9821 920.863 83.6742 923.6 Q87.3345 926.337 93.732 926.337 Q100.13 926.337 103.822 923.632 Q107.482 920.895 107.482 916.152 Q107.482 911.473 103.79 908.736 Q100.098 905.999 93.732 905.999 Q87.3981 905.999 83.706 908.736 Q79.9821 911.473 79.9821 916.152 M75.0168 916.152 Q75.0168 908.513 79.9821 904.153 Q84.9473 899.792 93.732 899.792 Q102.485 899.792 107.482 904.153 Q112.447 908.513 112.447 916.152 Q112.447 923.823 107.482 928.183 Q102.485 932.512 93.732 932.512 Q84.9473 932.512 79.9821 928.183 Q75.0168 923.823 75.0168 916.152 Z" fill="#000000" fill-rule="nonzero" fill-opacity="1" /><path clip-path="url(#clip270)" d="M81.3507 869.428 Q80.7778 870.415 80.5232 871.592 Q80.2367 872.738 80.2367 874.139 Q80.2367 879.104 83.4832 881.777 Q86.6979 884.419 92.7453 884.419 L111.524 884.419 L111.524 890.307 L75.8762 890.307 L75.8762 884.419 L81.4144 884.419 Q78.1679 882.573 76.6083 879.613 Q75.0168 876.653 75.0168 872.42 Q75.0168 871.815 75.1123 871.083 Q75.176 870.351 75.3351 869.46 L81.3507 869.428 Z" fill="#000000" fill-rule="nonzero" fill-opacity="1" /><path clip-path="url(#clip270)" d="M65.7547 857.492 L75.8762 857.492 L75.8762 845.429 L80.4277 845.429 L80.4277 857.492 L99.7794 857.492 Q104.14 857.492 105.381 856.315 Q106.623 855.105 106.623 851.445 L106.623 845.429 L111.524 845.429 L111.524 851.445 Q111.524 858.224 109.01 860.802 Q106.463 863.38 99.7794 863.38 L80.4277 863.38 L80.4277 867.677 L75.8762 867.677 L75.8762 863.38 L65.7547 863.38 L65.7547 857.492 Z" fill="#000000" fill-rule="nonzero" fill-opacity="1" /><path clip-path="url(#clip270)" d="M75.8762 837.727 L75.8762 831.87 L111.524 831.87 L111.524 837.727 L75.8762 837.727 M61.999 837.727 L61.999 831.87 L69.415 831.87 L69.415 837.727 L61.999 837.727 Z" fill="#000000" fill-rule="nonzero" fill-opacity="1" /><path clip-path="url(#clip270)" d="M79.9821 805.803 Q79.9821 810.513 83.6742 813.251 Q87.3345 815.988 93.732 815.988 Q100.13 815.988 103.822 813.282 Q107.482 810.545 107.482 805.803 Q107.482 801.124 103.79 798.387 Q100.098 795.649 93.732 795.649 Q87.3981 795.649 83.706 798.387 Q79.9821 801.124 79.9821 805.803 M75.0168 805.803 Q75.0168 798.164 79.9821 793.803 Q84.9473 789.443 93.732 789.443 Q102.485 789.443 107.482 793.803 Q112.447 798.164 112.447 805.803 Q112.447 813.473 107.482 817.834 Q102.485 822.163 93.732 822.163 Q84.9473 822.163 79.9821 817.834 Q75.0168 813.473 75.0168 805.803 Z" fill="#000000" fill-rule="nonzero" fill-opacity="1" /><path clip-path="url(#clip270)" d="M90.0081 750.103 L111.524 750.103 L111.524 755.959 L90.199 755.959 Q85.1383 755.959 82.6238 757.933 Q80.1094 759.906 80.1094 763.853 Q80.1094 768.595 83.1331 771.332 Q86.1568 774.07 91.3767 774.07 L111.524 774.07 L111.524 779.958 L75.8762 779.958 L75.8762 774.07 L81.4144 774.07 Q78.1997 771.969 76.6083 769.136 Q75.0168 766.272 75.0168 762.548 Q75.0168 756.405 78.8363 753.254 Q82.6238 750.103 90.0081 750.103 Z" fill="#000000" fill-rule="nonzero" fill-opacity="1" /><path clip-path="url(#clip270)" d="M90.0081 688.069 L111.524 688.069 L111.524 693.925 L90.199 693.925 Q85.1383 693.925 82.6238 695.899 Q80.1094 697.872 80.1094 701.819 Q80.1094 706.561 83.1331 709.299 Q86.1568 712.036 91.3767 712.036 L111.524 712.036 L111.524 717.924 L61.999 717.924 L61.999 712.036 L81.4144 712.036 Q78.1997 709.935 76.6083 707.102 Q75.0168 704.238 75.0168 700.514 Q75.0168 694.371 78.8363 691.22 Q82.6238 688.069 90.0081 688.069 Z" fill="#000000" fill-rule="nonzero" fill-opacity="1" /><path clip-path="url(#clip270)" d="M93.6047 660.187 Q93.6047 667.285 95.2279 670.022 Q96.8512 672.759 100.766 672.759 Q103.885 672.759 105.731 670.722 Q107.546 668.654 107.546 665.121 Q107.546 660.251 104.108 657.323 Q100.639 654.363 94.9097 654.363 L93.6047 654.363 L93.6047 660.187 M91.1857 648.506 L111.524 648.506 L111.524 654.363 L106.113 654.363 Q109.36 656.368 110.919 659.36 Q112.447 662.351 112.447 666.68 Q112.447 672.155 109.392 675.401 Q106.304 678.616 101.148 678.616 Q95.1325 678.616 92.0769 674.605 Q89.0214 670.563 89.0214 662.574 L89.0214 654.363 L88.4485 654.363 Q84.4062 654.363 82.2101 657.036 Q79.9821 659.678 79.9821 664.484 Q79.9821 667.54 80.7141 670.436 Q81.4462 673.332 82.9103 676.006 L77.4995 676.006 Q76.2581 672.791 75.6534 669.768 Q75.0168 666.744 75.0168 663.879 Q75.0168 656.145 79.0272 652.325 Q83.0376 648.506 91.1857 648.506 Z" fill="#000000" fill-rule="nonzero" fill-opacity="1" /><path clip-path="url(#clip270)" d="M61.999 636.443 L61.999 630.587 L111.524 630.587 L111.524 636.443 L61.999 636.443 Z" fill="#000000" fill-rule="nonzero" fill-opacity="1" /><path clip-path="url(#clip270)" d="M61.999 600.286 L66.8687 600.286 L66.8687 605.888 Q66.8687 609.039 68.1419 610.28 Q69.415 611.489 72.7252 611.489 L75.8762 611.489 L75.8762 601.845 L80.4277 601.845 L80.4277 611.489 L111.524 611.489 L111.524 617.378 L80.4277 617.378 L80.4277 622.98 L75.8762 622.98 L75.8762 617.378 L73.3936 617.378 Q67.4416 617.378 64.7362 614.609 Q61.999 611.84 61.999 605.824 L61.999 600.286 Z" fill="#000000" fill-rule="nonzero" fill-opacity="1" /><path clip-path="url(#clip270)" d="M75.8762 599.936 L75.8762 594.079 L103.694 586.759 L75.8762 579.47 L75.8762 572.563 L103.694 565.243 L75.8762 557.954 L75.8762 552.097 L111.524 561.423 L111.524 568.33 L82.3056 576.001 L111.524 583.703 L111.524 590.61 L75.8762 599.936 Z" fill="#000000" fill-rule="nonzero" fill-opacity="1" /><path clip-path="url(#clip270)" d="M93.6047 527.017 Q93.6047 534.114 95.2279 536.852 Q96.8512 539.589 100.766 539.589 Q103.885 539.589 105.731 537.552 Q107.546 535.483 107.546 531.95 Q107.546 527.08 104.108 524.152 Q100.639 521.192 94.9097 521.192 L93.6047 521.192 L93.6047 527.017 M91.1857 515.335 L111.524 515.335 L111.524 521.192 L106.113 521.192 Q109.36 523.197 110.919 526.189 Q112.447 529.181 112.447 533.51 Q112.447 538.984 109.392 542.231 Q106.304 545.445 101.148 545.445 Q95.1325 545.445 92.0769 541.435 Q89.0214 537.393 89.0214 529.404 L89.0214 521.192 L88.4485 521.192 Q84.4062 521.192 82.2101 523.866 Q79.9821 526.507 79.9821 531.313 Q79.9821 534.369 80.7141 537.265 Q81.4462 540.162 82.9103 542.835 L77.4995 542.835 Q76.2581 539.621 75.6534 536.597 Q75.0168 533.573 75.0168 530.709 Q75.0168 522.974 79.0272 519.155 Q83.0376 515.335 91.1857 515.335 Z" fill="#000000" fill-rule="nonzero" fill-opacity="1" /><path clip-path="url(#clip270)" d="M114.834 488.44 Q121.2 490.923 123.142 493.278 Q125.083 495.634 125.083 499.58 L125.083 504.259 L120.182 504.259 L120.182 500.822 Q120.182 498.403 119.036 497.066 Q117.89 495.729 113.625 494.106 L110.951 493.055 L75.8762 507.474 L75.8762 501.267 L103.758 490.127 L75.8762 478.987 L75.8762 472.781 L114.834 488.44 Z" fill="#000000" fill-rule="nonzero" fill-opacity="1" /><path clip-path="url(#clip270)" d="M951.692 140.186 L931.032 172.471 L951.692 172.471 L951.692 140.186 M949.545 133.056 L959.834 133.056 L959.834 172.471 L968.462 172.471 L968.462 179.277 L959.834 179.277 L959.834 193.536 L951.692 193.536 L951.692 179.277 L924.388 179.277 L924.388 171.378 L949.545 133.056 Z" fill="#000000" fill-rule="nonzero" fill-opacity="1" /><path clip-path="url(#clip270)" d="M977.172 167.489 L999.006 167.489 L999.006 174.132 L977.172 174.132 L977.172 167.489 Z" fill="#000000" fill-rule="nonzero" fill-opacity="1" /><path clip-path="url(#clip270)" d="M1043.44 170.891 Q1043.44 162.668 1040.04 158.01 Q1036.68 153.311 1030.77 153.311 Q1024.85 153.311 1021.45 158.01 Q1018.09 162.668 1018.09 170.891 Q1018.09 179.115 1021.45 183.814 Q1024.85 188.472 1030.77 188.472 Q1036.68 188.472 1040.04 183.814 Q1043.44 179.115 1043.44 170.891 M1018.09 155.052 Q1020.44 151.002 1024 149.057 Q1027.61 147.072 1032.59 147.072 Q1040.85 147.072 1046 153.635 Q1051.18 160.197 1051.18 170.891 Q1051.18 181.586 1046 188.148 Q1040.85 194.711 1032.59 194.711 Q1027.61 194.711 1024 192.766 Q1020.44 190.781 1018.09 186.73 L1018.09 193.536 L1010.59 193.536 L1010.59 130.504 L1018.09 130.504 L1018.09 155.052 Z" fill="#000000" fill-rule="nonzero" fill-opacity="1" /><path clip-path="url(#clip270)" d="M1063.54 148.166 L1070.99 148.166 L1070.99 193.536 L1063.54 193.536 L1063.54 148.166 M1063.54 130.504 L1070.99 130.504 L1070.99 139.943 L1063.54 139.943 L1063.54 130.504 Z" fill="#000000" fill-rule="nonzero" fill-opacity="1" /><path clip-path="url(#clip270)" d="M1093.96 135.284 L1093.96 148.166 L1109.31 148.166 L1109.31 153.959 L1093.96 153.959 L1093.96 178.588 Q1093.96 184.138 1095.46 185.718 Q1097 187.298 1101.66 187.298 L1109.31 187.298 L1109.31 193.536 L1101.66 193.536 Q1093.03 193.536 1089.75 190.336 Q1086.47 187.095 1086.47 178.588 L1086.47 153.959 L1081 153.959 L1081 148.166 L1086.47 148.166 L1086.47 135.284 L1093.96 135.284 Z" fill="#000000" fill-rule="nonzero" fill-opacity="1" /><path clip-path="url(#clip270)" d="M1184.29 168.988 L1184.29 172.633 L1150.02 172.633 Q1150.51 180.33 1154.64 184.381 Q1158.81 188.391 1166.23 188.391 Q1170.52 188.391 1174.53 187.338 Q1178.58 186.285 1182.55 184.178 L1182.55 191.227 Q1178.54 192.928 1174.33 193.82 Q1170.12 194.711 1165.78 194.711 Q1154.93 194.711 1148.57 188.391 Q1142.25 182.072 1142.25 171.297 Q1142.25 160.157 1148.24 153.635 Q1154.28 147.072 1164.49 147.072 Q1173.64 147.072 1178.95 152.986 Q1184.29 158.86 1184.29 168.988 M1176.84 166.8 Q1176.76 160.683 1173.4 157.037 Q1170.08 153.392 1164.57 153.392 Q1158.33 153.392 1154.56 156.916 Q1150.83 160.44 1150.27 166.841 L1176.84 166.8 Z" fill="#000000" fill-rule="nonzero" fill-opacity="1" /><path clip-path="url(#clip270)" d="M1232.78 148.166 L1216.38 170.243 L1233.63 193.536 L1224.84 193.536 L1211.64 175.712 L1198.43 193.536 L1189.64 193.536 L1207.26 169.798 L1191.14 148.166 L1199.93 148.166 L1211.96 164.329 L1223.99 148.166 L1232.78 148.166 Z" fill="#000000" fill-rule="nonzero" fill-opacity="1" /><path clip-path="url(#clip270)" d="M1251.54 135.284 L1251.54 148.166 L1266.89 148.166 L1266.89 153.959 L1251.54 153.959 L1251.54 178.588 Q1251.54 184.138 1253.04 185.718 Q1254.58 187.298 1259.24 187.298 L1266.89 187.298 L1266.89 193.536 L1259.24 193.536 Q1250.61 193.536 1247.33 190.336 Q1244.05 187.095 1244.05 178.588 L1244.05 153.959 L1238.58 153.959 L1238.58 148.166 L1244.05 148.166 L1244.05 135.284 L1251.54 135.284 Z" fill="#000000" fill-rule="nonzero" fill-opacity="1" /><path clip-path="url(#clip270)" d="M1315.5 168.988 L1315.5 172.633 L1281.23 172.633 Q1281.72 180.33 1285.85 184.381 Q1290.02 188.391 1297.44 188.391 Q1301.73 188.391 1305.74 187.338 Q1309.79 186.285 1313.76 184.178 L1313.76 191.227 Q1309.75 192.928 1305.54 193.82 Q1301.33 194.711 1296.99 194.711 Q1286.13 194.711 1279.77 188.391 Q1273.45 182.072 1273.45 171.297 Q1273.45 160.157 1279.45 153.635 Q1285.49 147.072 1295.69 147.072 Q1304.85 147.072 1310.16 152.986 Q1315.5 158.86 1315.5 168.988 M1308.05 166.8 Q1307.97 160.683 1304.61 157.037 Q1301.28 153.392 1295.78 153.392 Q1289.54 153.392 1285.77 156.916 Q1282.04 160.44 1281.48 166.841 L1308.05 166.8 Z" fill="#000000" fill-rule="nonzero" fill-opacity="1" /><path clip-path="url(#clip270)" d="M1365.45 166.152 L1365.45 193.536 L1358 193.536 L1358 166.395 Q1358 159.954 1355.49 156.754 Q1352.97 153.554 1347.95 153.554 Q1341.92 153.554 1338.43 157.402 Q1334.95 161.25 1334.95 167.894 L1334.95 193.536 L1327.45 193.536 L1327.45 148.166 L1334.95 148.166 L1334.95 155.214 Q1337.62 151.123 1341.23 149.098 Q1344.87 147.072 1349.61 147.072 Q1357.43 147.072 1361.44 151.933 Q1365.45 156.754 1365.45 166.152 Z" fill="#000000" fill-rule="nonzero" fill-opacity="1" /><path clip-path="url(#clip270)" d="M1410.17 155.052 L1410.17 130.504 L1417.63 130.504 L1417.63 193.536 L1410.17 193.536 L1410.17 186.73 Q1407.82 190.781 1404.22 192.766 Q1400.65 194.711 1395.63 194.711 Q1387.41 194.711 1382.22 188.148 Q1377.08 181.586 1377.08 170.891 Q1377.08 160.197 1382.22 153.635 Q1387.41 147.072 1395.63 147.072 Q1400.65 147.072 1404.22 149.057 Q1407.82 151.002 1410.17 155.052 M1384.77 170.891 Q1384.77 179.115 1388.14 183.814 Q1391.54 188.472 1397.45 188.472 Q1403.37 188.472 1406.77 183.814 Q1410.17 179.115 1410.17 170.891 Q1410.17 162.668 1406.77 158.01 Q1403.37 153.311 1397.45 153.311 Q1391.54 153.311 1388.14 158.01 Q1384.77 162.668 1384.77 170.891 Z" fill="#000000" fill-rule="nonzero" fill-opacity="1" /><path clip-path="url(#clip270)" d="M1471.79 168.988 L1471.79 172.633 L1437.52 172.633 Q1438 180.33 1442.13 184.381 Q1446.31 188.391 1453.72 188.391 Q1458.01 188.391 1462.02 187.338 Q1466.08 186.285 1470.05 184.178 L1470.05 191.227 Q1466.03 192.928 1461.82 193.82 Q1457.61 194.711 1453.27 194.711 Q1442.42 194.711 1436.06 188.391 Q1429.74 182.072 1429.74 171.297 Q1429.74 160.157 1435.73 153.635 Q1441.77 147.072 1451.98 147.072 Q1461.13 147.072 1466.44 152.986 Q1471.79 158.86 1471.79 168.988 M1464.33 166.8 Q1464.25 160.683 1460.89 157.037 Q1457.57 153.392 1452.06 153.392 Q1445.82 153.392 1442.05 156.916 Q1438.33 160.44 1437.76 166.841 L1464.33 166.8 Z" fill="#000000" fill-rule="nonzero" fill-opacity="1" /><path clip-path="url(#clip270)" d="M1513.88 155.052 L1513.88 130.504 L1521.33 130.504 L1521.33 193.536 L1513.88 193.536 L1513.88 186.73 Q1511.53 190.781 1507.92 192.766 Q1504.36 194.711 1499.33 194.711 Q1491.11 194.711 1485.92 188.148 Q1480.78 181.586 1480.78 170.891 Q1480.78 160.197 1485.92 153.635 Q1491.11 147.072 1499.33 147.072 Q1504.36 147.072 1507.92 149.057 Q1511.53 151.002 1513.88 155.052 M1488.48 170.891 Q1488.48 179.115 1491.84 183.814 Q1495.24 188.472 1501.16 188.472 Q1507.07 188.472 1510.47 183.814 Q1513.88 179.115 1513.88 170.891 Q1513.88 162.668 1510.47 158.01 Q1507.07 153.311 1501.16 153.311 Q1495.24 153.311 1491.84 158.01 Q1488.48 162.668 1488.48 170.891 Z" fill="#000000" fill-rule="nonzero" fill-opacity="1" /><path clip-path="url(#clip270)" d="M1586.02 130.504 L1586.02 136.702 L1578.89 136.702 Q1574.88 136.702 1573.3 138.322 Q1571.76 139.943 1571.76 144.155 L1571.76 148.166 L1584.04 148.166 L1584.04 153.959 L1571.76 153.959 L1571.76 193.536 L1564.27 193.536 L1564.27 153.959 L1557.14 153.959 L1557.14 148.166 L1564.27 148.166 L1564.27 145.006 Q1564.27 137.431 1567.79 133.988 Q1571.32 130.504 1578.97 130.504 L1586.02 130.504 Z" fill="#000000" fill-rule="nonzero" fill-opacity="1" /><path clip-path="url(#clip270)" d="M1592.26 130.504 L1599.71 130.504 L1599.71 193.536 L1592.26 193.536 L1592.26 130.504 Z" fill="#000000" fill-rule="nonzero" fill-opacity="1" /><path clip-path="url(#clip270)" d="M1632.89 153.392 Q1626.9 153.392 1623.41 158.091 Q1619.93 162.749 1619.93 170.891 Q1619.93 179.034 1623.37 183.733 Q1626.86 188.391 1632.89 188.391 Q1638.85 188.391 1642.33 183.692 Q1645.81 178.993 1645.81 170.891 Q1645.81 162.83 1642.33 158.131 Q1638.85 153.392 1632.89 153.392 M1632.89 147.072 Q1642.61 147.072 1648.16 153.392 Q1653.71 159.711 1653.71 170.891 Q1653.71 182.031 1648.16 188.391 Q1642.61 194.711 1632.89 194.711 Q1623.13 194.711 1617.58 188.391 Q1612.07 182.031 1612.07 170.891 Q1612.07 159.711 1617.58 153.392 Q1623.13 147.072 1632.89 147.072 Z" fill="#000000" fill-rule="nonzero" fill-opacity="1" /><path clip-path="url(#clip270)" d="M1686.69 170.729 Q1677.65 170.729 1674.17 172.795 Q1670.69 174.861 1670.69 179.844 Q1670.69 183.814 1673.28 186.163 Q1675.91 188.472 1680.41 188.472 Q1686.61 188.472 1690.33 184.097 Q1694.1 179.682 1694.1 172.39 L1694.1 170.729 L1686.69 170.729 M1701.55 167.651 L1701.55 193.536 L1694.1 193.536 L1694.1 186.649 Q1691.55 190.781 1687.74 192.766 Q1683.93 194.711 1678.42 194.711 Q1671.46 194.711 1667.32 190.822 Q1663.23 186.893 1663.23 180.33 Q1663.23 172.674 1668.34 168.785 Q1673.48 164.896 1683.65 164.896 L1694.1 164.896 L1694.1 164.167 Q1694.1 159.022 1690.7 156.227 Q1687.34 153.392 1681.22 153.392 Q1677.33 153.392 1673.64 154.323 Q1669.96 155.255 1666.55 157.118 L1666.55 150.232 Q1670.65 148.652 1674.49 147.882 Q1678.34 147.072 1681.99 147.072 Q1691.83 147.072 1696.69 152.176 Q1701.55 157.28 1701.55 167.651 Z" fill="#000000" fill-rule="nonzero" fill-opacity="1" /><path clip-path="url(#clip270)" d="M1724.28 135.284 L1724.28 148.166 L1739.63 148.166 L1739.63 153.959 L1724.28 153.959 L1724.28 178.588 Q1724.28 184.138 1725.78 185.718 Q1727.32 187.298 1731.98 187.298 L1739.63 187.298 L1739.63 193.536 L1731.98 193.536 Q1723.35 193.536 1720.07 190.336 Q1716.79 187.095 1716.79 178.588 L1716.79 153.959 L1711.32 153.959 L1711.32 148.166 L1716.79 148.166 L1716.79 135.284 L1724.28 135.284 Z" fill="#000000" fill-rule="nonzero" fill-opacity="1" /><path clip-path="url(#clip270)" d="M1778.36 149.503 L1778.36 156.551 Q1775.2 154.931 1771.8 154.121 Q1768.39 153.311 1764.75 153.311 Q1759.2 153.311 1756.4 155.012 Q1753.65 156.713 1753.65 160.116 Q1753.65 162.709 1755.63 164.207 Q1757.62 165.666 1763.61 167.003 L1766.17 167.57 Q1774.11 169.271 1777.43 172.39 Q1780.79 175.469 1780.79 181.019 Q1780.79 187.338 1775.77 191.024 Q1770.78 194.711 1762.03 194.711 Q1758.39 194.711 1754.42 193.982 Q1750.49 193.293 1746.11 191.875 L1746.11 184.178 Q1750.25 186.325 1754.26 187.419 Q1758.27 188.472 1762.2 188.472 Q1767.46 188.472 1770.3 186.69 Q1773.13 184.867 1773.13 181.586 Q1773.13 178.548 1771.07 176.927 Q1769.04 175.307 1762.12 173.808 L1759.52 173.2 Q1752.6 171.742 1749.52 168.744 Q1746.44 165.706 1746.44 160.44 Q1746.44 154.04 1750.98 150.556 Q1755.51 147.072 1763.86 147.072 Q1767.99 147.072 1771.64 147.68 Q1775.28 148.287 1778.36 149.503 Z" fill="#000000" fill-rule="nonzero" fill-opacity="1" /><polyline clip-path="url(#clip272)" style="stroke:#8b636c; stroke-linecap:round; stroke-linejoin:round; stroke-width:12; stroke-opacity:0.75; fill:none" stroke-dasharray="6, 12" points="552.456,502.18 1352.59,602.79 2152.72,1306.54 "/>
<line clip-path="url(#clip272)" x1="552.456" y1="502.18" x2="552.456" y2="474.18" style="stroke:#8b2252; stroke-width:12; stroke-opacity:1"/>
<line clip-path="url(#clip272)" x1="552.456" y1="502.18" x2="524.456" y2="502.18" style="stroke:#8b2252; stroke-width:12; stroke-opacity:1"/>
<line clip-path="url(#clip272)" x1="552.456" y1="502.18" x2="552.456" y2="530.18" style="stroke:#8b2252; stroke-width:12; stroke-opacity:1"/>
<line clip-path="url(#clip272)" x1="552.456" y1="502.18" x2="580.456" y2="502.18" style="stroke:#8b2252; stroke-width:12; stroke-opacity:1"/>
<line clip-path="url(#clip272)" x1="1352.59" y1="602.79" x2="1352.59" y2="574.79" style="stroke:#8b2252; stroke-width:12; stroke-opacity:1"/>
<line clip-path="url(#clip272)" x1="1352.59" y1="602.79" x2="1324.59" y2="602.79" style="stroke:#8b2252; stroke-width:12; stroke-opacity:1"/>
<line clip-path="url(#clip272)" x1="1352.59" y1="602.79" x2="1352.59" y2="630.79" style="stroke:#8b2252; stroke-width:12; stroke-opacity:1"/>
<line clip-path="url(#clip272)" x1="1352.59" y1="602.79" x2="1380.59" y2="602.79" style="stroke:#8b2252; stroke-width:12; stroke-opacity:1"/>
<line clip-path="url(#clip272)" x1="2152.72" y1="1306.54" x2="2152.72" y2="1278.54" style="stroke:#8b2252; stroke-width:12; stroke-opacity:1"/>
<line clip-path="url(#clip272)" x1="2152.72" y1="1306.54" x2="2124.72" y2="1306.54" style="stroke:#8b2252; stroke-width:12; stroke-opacity:1"/>
<line clip-path="url(#clip272)" x1="2152.72" y1="1306.54" x2="2152.72" y2="1334.54" style="stroke:#8b2252; stroke-width:12; stroke-opacity:1"/>
<line clip-path="url(#clip272)" x1="2152.72" y1="1306.54" x2="2180.72" y2="1306.54" style="stroke:#8b2252; stroke-width:12; stroke-opacity:1"/>
<polyline clip-path="url(#clip272)" style="stroke:#436eee; stroke-linecap:round; stroke-linejoin:round; stroke-width:12; stroke-opacity:0.75; fill:none" stroke-dasharray="6, 12" points="552.456,1004.97 1352.59,703.4 2152.72,300.96 "/>
<path clip-path="url(#clip272)" d="M552.456 972.97 L544.936 994.602 L522.024 995.082 L540.296 1008.94 L533.64 1030.86 L552.456 1017.77 L571.272 1030.86 L564.616 1008.94 L582.888 995.082 L559.976 994.602 L552.456 972.97 Z" fill="#4b0082" fill-rule="evenodd" fill-opacity="1" stroke="#000000" stroke-opacity="1" stroke-width="3.2"/>
<path clip-path="url(#clip272)" d="M1352.59 671.4 L1345.07 693.032 L1322.16 693.512 L1340.43 707.368 L1333.77 729.288 L1352.59 716.2 L1371.41 729.288 L1364.75 707.368 L1383.02 693.512 L1360.11 693.032 L1352.59 671.4 Z" fill="#4b0082" fill-rule="evenodd" fill-opacity="1" stroke="#000000" stroke-opacity="1" stroke-width="3.2"/>
<path clip-path="url(#clip272)" d="M2152.72 268.96 L2145.2 290.592 L2122.29 291.072 L2140.56 304.928 L2133.91 326.848 L2152.72 313.76 L2171.54 326.848 L2164.88 304.928 L2183.15 291.072 L2160.24 290.592 L2152.72 268.96 Z" fill="#4b0082" fill-rule="evenodd" fill-opacity="1" stroke="#000000" stroke-opacity="1" stroke-width="3.2"/>
<polyline clip-path="url(#clip272)" style="stroke:#8fbc8f; stroke-linecap:round; stroke-linejoin:round; stroke-width:12; stroke-opacity:0.75; fill:none" stroke-dasharray="6, 12" points="552.456,610.569 1352.59,502.18 2152.72,424.907 "/>
<path clip-path="url(#clip272)" d="M578.056 610.569 L539.656 588.169 L539.656 632.969 L578.056 610.569 Z" fill="#3cb371" fill-rule="evenodd" fill-opacity="1" stroke="#000000" stroke-opacity="1" stroke-width="3.2"/>
<path clip-path="url(#clip272)" d="M1378.19 502.18 L1339.79 479.78 L1339.79 524.58 L1378.19 502.18 Z" fill="#3cb371" fill-rule="evenodd" fill-opacity="1" stroke="#000000" stroke-opacity="1" stroke-width="3.2"/>
<path clip-path="url(#clip272)" d="M2178.32 424.907 L2139.92 402.507 L2139.92 447.307 L2178.32 424.907 Z" fill="#3cb371" fill-rule="evenodd" fill-opacity="1" stroke="#000000" stroke-opacity="1" stroke-width="3.2"/>
<path clip-path="url(#clip270)" d="M419.1 513.116 L716.477 513.116 L716.477 279.836 L419.1 279.836  Z" fill="#f5f5f5" fill-rule="evenodd" fill-opacity="1"/>
<polyline clip-path="url(#clip270)" style="stroke:#fafafa; stroke-linecap:round; stroke-linejoin:round; stroke-width:4; stroke-opacity:1; fill:none" points="419.1,513.116 716.477,513.116 716.477,279.836 419.1,279.836 419.1,513.116 "/>
<polyline clip-path="url(#clip270)" style="stroke:#8b636c; stroke-linecap:round; stroke-linejoin:round; stroke-width:13.5; stroke-opacity:0.75; fill:none" stroke-dasharray="7, 14" points="441.326,338.156 574.682,338.156 "/>
<line clip-path="url(#clip270)" x1="508.004" y1="338.156" x2="508.004" y2="319.863" style="stroke:#8b2252; stroke-width:13.5; stroke-opacity:1"/>
<line clip-path="url(#clip270)" x1="508.004" y1="338.156" x2="489.711" y2="338.156" style="stroke:#8b2252; stroke-width:13.5; stroke-opacity:1"/>
<line clip-path="url(#clip270)" x1="508.004" y1="338.156" x2="508.004" y2="356.449" style="stroke:#8b2252; stroke-width:13.5; stroke-opacity:1"/>
<line clip-path="url(#clip270)" x1="508.004" y1="338.156" x2="526.297" y2="338.156" style="stroke:#8b2252; stroke-width:13.5; stroke-opacity:1"/>
<path clip-path="url(#clip270)" d="M611.986 342.934 Q606.179 342.934 603.939 344.262 Q601.699 345.591 601.699 348.794 Q601.699 351.346 603.366 352.856 Q605.059 354.341 607.949 354.341 Q611.934 354.341 614.33 351.528 Q616.751 348.69 616.751 344.002 L616.751 342.934 L611.986 342.934 M621.543 340.955 L621.543 357.596 L616.751 357.596 L616.751 353.169 Q615.111 355.825 612.663 357.101 Q610.215 358.351 606.673 358.351 Q602.194 358.351 599.538 355.851 Q596.908 353.325 596.908 349.106 Q596.908 344.184 600.189 341.684 Q603.496 339.184 610.033 339.184 L616.751 339.184 L616.751 338.716 Q616.751 335.408 614.564 333.611 Q612.402 331.789 608.47 331.789 Q605.97 331.789 603.6 332.388 Q601.231 332.986 599.043 334.184 L599.043 329.757 Q601.673 328.742 604.147 328.247 Q606.621 327.726 608.965 327.726 Q615.293 327.726 618.418 331.007 Q621.543 334.289 621.543 340.955 Z" fill="#000000" fill-rule="nonzero" fill-opacity="1" /><path clip-path="url(#clip270)" d="M650.605 332.856 L650.605 317.075 L655.397 317.075 L655.397 357.596 L650.605 357.596 L650.605 353.221 Q649.095 355.825 646.777 357.101 Q644.486 358.351 641.256 358.351 Q635.97 358.351 632.637 354.132 Q629.329 349.913 629.329 343.039 Q629.329 336.164 632.637 331.945 Q635.97 327.726 641.256 327.726 Q644.486 327.726 646.777 329.002 Q649.095 330.252 650.605 332.856 M634.277 343.039 Q634.277 348.325 636.439 351.346 Q638.626 354.341 642.428 354.341 Q646.23 354.341 648.418 351.346 Q650.605 348.325 650.605 343.039 Q650.605 337.752 648.418 334.757 Q646.23 331.736 642.428 331.736 Q638.626 331.736 636.439 334.757 Q634.277 337.752 634.277 343.039 Z" fill="#000000" fill-rule="nonzero" fill-opacity="1" /><path clip-path="url(#clip270)" d="M684.459 332.856 L684.459 317.075 L689.251 317.075 L689.251 357.596 L684.459 357.596 L684.459 353.221 Q682.949 355.825 680.631 357.101 Q678.34 358.351 675.11 358.351 Q669.824 358.351 666.491 354.132 Q663.183 349.913 663.183 343.039 Q663.183 336.164 666.491 331.945 Q669.824 327.726 675.11 327.726 Q678.34 327.726 680.631 329.002 Q682.949 330.252 684.459 332.856 M668.131 343.039 Q668.131 348.325 670.293 351.346 Q672.48 354.341 676.282 354.341 Q680.084 354.341 682.272 351.346 Q684.459 348.325 684.459 343.039 Q684.459 337.752 682.272 334.757 Q680.084 331.736 676.282 331.736 Q672.48 331.736 670.293 334.757 Q668.131 337.752 668.131 343.039 Z" fill="#000000" fill-rule="nonzero" fill-opacity="1" /><polyline clip-path="url(#clip270)" style="stroke:#436eee; stroke-linecap:round; stroke-linejoin:round; stroke-width:13.5; stroke-opacity:0.75; fill:none" stroke-dasharray="7, 14" points="441.326,396.476 574.682,396.476 "/>
<path clip-path="url(#clip270)" d="M508.004 378.183 L503.705 390.549 L490.607 390.823 L501.053 398.744 L497.248 411.275 L508.004 403.793 L518.76 411.275 L514.955 398.744 L525.401 390.823 L512.303 390.549 L508.004 378.183 Z" fill="#4b0082" fill-rule="evenodd" fill-opacity="1" stroke="#000000" stroke-opacity="1" stroke-width="2.71059"/>
<path clip-path="url(#clip270)" d="M619.798 392.348 Q621.595 389.119 624.095 387.583 Q626.595 386.046 629.981 386.046 Q634.538 386.046 637.012 389.249 Q639.486 392.426 639.486 398.312 L639.486 415.916 L634.668 415.916 L634.668 398.468 Q634.668 394.275 633.184 392.244 Q631.699 390.213 628.652 390.213 Q624.928 390.213 622.767 392.687 Q620.606 395.161 620.606 399.431 L620.606 415.916 L615.788 415.916 L615.788 398.468 Q615.788 394.249 614.304 392.244 Q612.819 390.213 609.72 390.213 Q606.048 390.213 603.887 392.713 Q601.725 395.187 601.725 399.431 L601.725 415.916 L596.908 415.916 L596.908 386.749 L601.725 386.749 L601.725 391.28 Q603.366 388.598 605.658 387.322 Q607.949 386.046 611.1 386.046 Q614.277 386.046 616.491 387.661 Q618.731 389.275 619.798 392.348 Z" fill="#000000" fill-rule="nonzero" fill-opacity="1" /><path clip-path="url(#clip270)" d="M648.548 404.405 L648.548 386.749 L653.34 386.749 L653.34 404.223 Q653.34 408.364 654.954 410.447 Q656.569 412.504 659.798 412.504 Q663.678 412.504 665.918 410.03 Q668.183 407.556 668.183 403.286 L668.183 386.749 L672.975 386.749 L672.975 415.916 L668.183 415.916 L668.183 411.437 Q666.439 414.093 664.121 415.395 Q661.829 416.671 658.782 416.671 Q653.756 416.671 651.152 413.546 Q648.548 410.421 648.548 404.405 M660.605 386.046 L660.605 386.046 Z" fill="#000000" fill-rule="nonzero" fill-opacity="1" /><path clip-path="url(#clip270)" d="M682.845 375.395 L687.636 375.395 L687.636 415.916 L682.845 415.916 L682.845 375.395 Z" fill="#000000" fill-rule="nonzero" fill-opacity="1" /><polyline clip-path="url(#clip270)" style="stroke:#8fbc8f; stroke-linecap:round; stroke-linejoin:round; stroke-width:13.5; stroke-opacity:0.75; fill:none" stroke-dasharray="7, 14" points="441.326,454.796 574.682,454.796 "/>
<path clip-path="url(#clip270)" d="M522.638 454.796 L500.687 441.991 L500.687 467.601 L522.638 454.796 Z" fill="#3cb371" fill-rule="evenodd" fill-opacity="1" stroke="#000000" stroke-opacity="1" stroke-width="2.71059"/>
<path clip-path="url(#clip270)" d="M615.475 433.715 L615.475 437.699 L610.892 437.699 Q608.314 437.699 607.298 438.741 Q606.309 439.783 606.309 442.491 L606.309 445.069 L614.199 445.069 L614.199 448.793 L606.309 448.793 L606.309 474.236 L601.491 474.236 L601.491 448.793 L596.908 448.793 L596.908 445.069 L601.491 445.069 L601.491 443.038 Q601.491 438.168 603.757 435.955 Q606.022 433.715 610.944 433.715 L615.475 433.715 Z" fill="#000000" fill-rule="nonzero" fill-opacity="1" /><path clip-path="url(#clip270)" d="M642.194 450.668 Q643.991 447.439 646.491 445.903 Q648.991 444.366 652.376 444.366 Q656.933 444.366 659.407 447.569 Q661.881 450.746 661.881 456.632 L661.881 474.236 L657.064 474.236 L657.064 456.788 Q657.064 452.595 655.579 450.564 Q654.095 448.533 651.048 448.533 Q647.324 448.533 645.163 451.007 Q643.001 453.481 643.001 457.751 L643.001 474.236 L638.184 474.236 L638.184 456.788 Q638.184 452.569 636.699 450.564 Q635.215 448.533 632.116 448.533 Q628.444 448.533 626.283 451.033 Q624.121 453.507 624.121 457.751 L624.121 474.236 L619.303 474.236 L619.303 445.069 L624.121 445.069 L624.121 449.6 Q625.762 446.918 628.053 445.642 Q630.345 444.366 633.496 444.366 Q636.673 444.366 638.887 445.981 Q641.126 447.595 642.194 450.668 Z" fill="#000000" fill-rule="nonzero" fill-opacity="1" /><path clip-path="url(#clip270)" d="M684.694 459.574 Q678.886 459.574 676.647 460.902 Q674.407 462.231 674.407 465.434 Q674.407 467.986 676.074 469.496 Q677.767 470.981 680.657 470.981 Q684.642 470.981 687.037 468.168 Q689.459 465.33 689.459 460.642 L689.459 459.574 L684.694 459.574 M694.251 457.595 L694.251 474.236 L689.459 474.236 L689.459 469.809 Q687.819 472.465 685.371 473.741 Q682.923 474.991 679.381 474.991 Q674.902 474.991 672.246 472.491 Q669.616 469.965 669.616 465.746 Q669.616 460.824 672.897 458.324 Q676.204 455.824 682.741 455.824 L689.459 455.824 L689.459 455.356 Q689.459 452.048 687.272 450.251 Q685.11 448.429 681.178 448.429 Q678.678 448.429 676.308 449.028 Q673.939 449.626 671.751 450.824 L671.751 446.397 Q674.381 445.382 676.855 444.887 Q679.329 444.366 681.673 444.366 Q688.001 444.366 691.126 447.647 Q694.251 450.929 694.251 457.595 Z" fill="#000000" fill-rule="nonzero" fill-opacity="1" /></svg>
